M48
METRIC,0000.00
T01C0.8
T02C0.813
T03C0.9
T04C1.0
T05C1.1
T06C1.2
T07C1.575
T08C1.575
%
T01
X+006810Y+014735
X+008398Y+013627
X+007556Y+010540
X+006779Y+009715
X+005905Y+010433
X+005175Y+006535
X+005477Y+006295
X+005794Y+006063
X+006398Y+005807
X+006398Y+003969
X+005794Y+003710
X+005477Y+003275
X+005175Y+002942
X+009287Y+003098
X+013176Y+005666
X+009969Y+010481
T02
X+009668Y+005551
X+009668Y+006033
T03
X+011112Y+005937
X+010604Y+005937
X+010573Y+005372
X+011081Y+005372
X+008652Y+005308
X+008652Y+005562
X+008652Y+005816
X+008652Y+006070
X+008652Y+006324
X+008652Y+006578
X+008652Y+006832
X+008652Y+007086
X+008652Y+007340
X+008652Y+007594
X+008652Y+007848
X+008652Y+008102
X+008652Y+008356
X+008652Y+008610
X+008652Y+008864
X+008652Y+009118
X+007128Y+009118
X+007128Y+008864
X+007128Y+008610
X+007128Y+008356
X+007128Y+008102
X+007128Y+007848
X+007128Y+007594
X+007128Y+007340
X+007128Y+007086
X+007128Y+006832
X+007128Y+006578
X+007128Y+006324
X+007128Y+006070
X+007128Y+005816
X+007128Y+005562
X+007128Y+005308
X+007128Y+005054
X+007128Y+004800
X+007128Y+004546
X+007128Y+004292
X+008652Y+004292
X+008652Y+004546
X+008652Y+004800
X+008652Y+005054
T04
X+013097Y+007962
X+013097Y+007200
X+013637Y+009975
X+014272Y+009975
X+011589Y+009953
X+010954Y+009953
X+009049Y+009977
X+008414Y+009977
X+006540Y+012456
X+006090Y+012456
X+006090Y+013106
X+006540Y+013106
T05
X+006715Y+002946
X+006969Y+002946
X+007223Y+002946
X+007477Y+002946
X+007731Y+002946
X+007985Y+002946
X+008239Y+002946
X+008493Y+002946
X+008747Y+002946
X+010763Y+006826
X+010763Y+007080
X+010763Y+007334
X+010763Y+007588
X+010763Y+007842
X+014303Y+007793
X+014303Y+007539
X+014319Y+005382
X+014319Y+005128
X+014319Y+004874
X+014319Y+004620
X+014319Y+004366
X+014319Y+004112
X+014319Y+003858
X+014319Y+003604
X+005826Y+007403
X+005572Y+007403
X+004905Y+007392
X+004905Y+007646
X+004905Y+007900
X+004905Y+008154
X+004905Y+008408
X+004905Y+008662
X+004905Y+008916
X+004905Y+009170
X+004905Y+009424
X+004905Y+009678
X+004905Y+009932
X+004905Y+010186
X+004905Y+010440
X+004905Y+010694
X+004905Y+010948
X+004905Y+011202
X+004905Y+011456
X+004905Y+011710
X+004826Y+013784
X+005080Y+013784
X+005334Y+013784
X+005588Y+013784
X+005842Y+013784
X+004572Y+013784
X+010477Y+013755
X+010731Y+013755
X+010985Y+013755
X+011239Y+013755
X+011493Y+013755
X+004905Y+007138
X+004905Y+006884
T06
X+009350Y+010884
X+008245Y+010884
X+010769Y+010890
X+011874Y+010890
X+013449Y+010895
X+014554Y+010895
T07
X+005366Y+011947
X+003270Y+010305
X+009779Y+011816
X+012596Y+011816
X+015367Y+011816
T08
X+007398Y+011947
X+007747Y+011816
X+010564Y+011816
X+013335Y+011816
X+003270Y+008273
T00
M30
