G04 DipTrace 3.0.0.2*
G04 Top.gbr*
%MOMM*%
G04 #@! TF.FileFunction,Copper,L1,Top*
G04 #@! TF.Part,Single*
G04 #@! TA.AperFunction,Conductor*
%ADD14C,1.5*%
G04 #@! TA.AperFunction,ComponentPad*
%ADD15R,1.6X1.6*%
%ADD16C,1.6*%
%ADD17R,1.7X1.7*%
%ADD18C,1.7*%
%ADD19R,1.8X1.8*%
%ADD20C,1.8*%
%ADD21C,3.0*%
%ADD22C,2.54*%
%ADD23C,2.54*%
%ADD24R,2.2X2.2*%
%ADD25C,2.2*%
%ADD26R,3.0X1.5*%
%ADD27C,1.2192*%
%FSLAX35Y35*%
G04*
G71*
G90*
G75*
G01*
G04 Top*
%LPD*%
X1904900Y11815600D2*
D14*
X2717623Y11002877D1*
Y10895000D1*
X3000250Y10612373D1*
Y9975133D1*
X8620000Y8609600D2*
X8619133Y8608733D1*
X5921250D1*
X5376317Y9153667D1*
X3365377D1*
X3000250Y9518793D1*
Y9975133D1*
X8620000Y7339600D2*
X8242467D1*
X7993900Y7588167D1*
X6508623D1*
X10144000Y8101600D2*
X10807960D1*
X12130827Y9424467D1*
X12366500D1*
X10144000Y8355600D2*
X10601493D1*
X11924360Y9678467D1*
X12366500D1*
X10144000Y8609600D2*
X10406440D1*
X11729307Y9932467D1*
X12366500D1*
X12699877Y13783567D2*
X13150083D1*
X15128750Y11804900D1*
Y9202150D1*
X14915567Y8988967D1*
X13704473D1*
X12760977Y9932467D1*
X12366500D1*
X10144000Y8863600D2*
X10293973D1*
X11616840Y10186467D1*
X12366500D1*
X12445877Y13783567D2*
X12461750Y13767693D1*
Y13677833D1*
X12955850Y13183733D1*
X13153967D1*
X14747750Y11589950D1*
Y9623983D1*
X14442133Y9318367D1*
X13927267D1*
X13059167Y10186467D1*
X12366500D1*
X4675500Y11815600D2*
X5397373Y11093727D1*
Y10890133D1*
X5683123Y10604383D1*
Y9952767D1*
X6772290Y8863600D1*
X8620000D1*
X10144000Y7593600D2*
X10703883D1*
X11264750Y8154467D1*
X12366500D1*
X6508627Y7842167D2*
X6902517D1*
X7050950Y7990600D1*
X8298900D1*
X8441900Y7847600D1*
X8620000D1*
X10731373Y13105800D2*
X10715500D1*
Y13538167D1*
X10960900Y13783567D1*
X11429877D1*
X9874127Y11947467D2*
Y10503800D1*
X7302373D2*
X7477000Y10329173D1*
Y9529833D1*
X7889233Y9117600D1*
X8620000D1*
X7302373Y10481433D2*
Y10503800D1*
X9715373Y10540400D2*
Y10503800D1*
X9874127Y11947467D2*
X9961560Y12034900D1*
X10334500D1*
X10731373Y12431777D1*
Y12455800D1*
X10709007Y12478167D1*
X10255127D1*
X10223373Y12509917D1*
Y13012933D1*
X10316240Y13105800D1*
X10731373D1*
X6508623Y7334167D2*
X6301300D1*
X6032373Y7603093D1*
Y8006793D1*
X6381183Y8355600D1*
X8620000D1*
X8778750Y2945900D2*
X8604123Y3120527D1*
Y3284627D1*
X8254873Y3633877D1*
Y4342333D1*
X8458143Y4545600D1*
X8620000D1*
X10048750Y2945900D2*
X10032873Y2961777D1*
Y3380417D1*
X10326293Y3673833D1*
X11477500D1*
X11509250D1*
Y6069100D2*
X11521077Y6057273D1*
X11508750Y6069600D2*
X10144000D1*
X11477500Y6063000D2*
X11521077Y6057273D1*
X11477500Y3710433D2*
Y3673833D1*
X8620000Y5561600D2*
X8616767Y5564833D1*
X8168783D1*
X7680783Y5076833D1*
X5810127D1*
X5505123Y5381833D1*
X2952623D1*
X8620000Y5307600D2*
X8618967Y5308633D1*
X8270750D1*
X7827483Y4865367D1*
X5635500D1*
X5373033Y5127833D1*
X2952623D1*
X8620000Y5053600D2*
X8347223D1*
X7939390Y4645767D1*
X5415990D1*
X5187923Y4873833D1*
X2952623D1*
X8620000Y4799600D2*
X8618667Y4798267D1*
X8412543D1*
X7991643Y4377367D1*
X5255673D1*
X5013207Y4619833D1*
X2952623D1*
Y4365833D2*
X2975657Y4342800D1*
X4556000D1*
X4846767Y4052033D1*
X7508750D1*
X7604000Y3956783D1*
Y2777133D1*
X8087933Y2293200D1*
X12410750D1*
X12795123Y2677573D1*
Y4300027D1*
X12295550Y4799600D1*
X10144000D1*
X2952623Y4111833D2*
X4213660D1*
X4572360Y3753133D1*
X7302373D1*
Y2470103D1*
X7721243Y2051233D1*
X12843760D1*
X13239623Y2447100D1*
Y4419843D1*
X12605867Y5053600D1*
X10144000D1*
X2952623Y3857833D2*
X2971923Y3838533D1*
X3730500D1*
X4133100Y3435933D1*
X6984873D1*
Y2187470D1*
X7395610Y1776733D1*
X13127400D1*
X13604750Y2254083D1*
Y4592750D1*
X12889900Y5307600D1*
X10144000D1*
X2952623Y3603833D2*
X3008690Y3547767D1*
X3540000D1*
X3908033Y3179733D1*
X6556250D1*
X6651500Y3084483D1*
Y2112233D1*
X7414000Y1349733D1*
X13543043D1*
X13985750Y1792443D1*
Y4877810D1*
X13301960Y5561600D1*
X10144000D1*
X9524900Y11815600D2*
X9026500Y11317200D1*
Y10884033D1*
X6286373Y13755100D2*
Y12901793D1*
X6592067Y12596100D1*
X8913943D1*
X9493127Y12016917D1*
Y11815600D1*
X9524900D1*
X12366500Y11456467D2*
X12867767Y10955200D1*
X13597867D1*
X13985750Y10567317D1*
Y10304533D1*
X14001623D1*
X3936900Y11815600D2*
X3822623Y11701323D1*
Y10895000D1*
X5778373Y13755100D2*
X5129493D1*
X3936900Y12562510D1*
Y11815600D1*
X11699750Y7402967D2*
X11710250Y7392467D1*
X12366500D1*
X8620000Y5815600D2*
X7942350D1*
X7677350Y5550600D1*
X7604000D1*
X7331233D1*
X7152300Y5371667D1*
X6699127D1*
X9032750Y2945900D2*
X9016873Y2961773D1*
Y4131333D1*
X8856610Y4291600D1*
X8620000D1*
X9286750Y2945900D2*
Y2691733D1*
X9410783Y2567700D1*
X12133057D1*
X12477623Y2912267D1*
Y3983217D1*
X12169243Y4291600D1*
X10144000D1*
X9540750Y2945900D2*
X9509000D1*
Y4414360D1*
X9640240Y4545600D1*
X10144000D1*
X9794750Y2945900D2*
Y3779567D1*
X9957417Y3942233D1*
X10874250D1*
X10906000D1*
Y5814933D2*
X10905333Y5815600D1*
X10144000D1*
X10874250Y5806800D2*
X10905333Y5815600D1*
X10874250Y3968667D2*
Y3942233D1*
X8620000Y6069600D2*
X7604000D1*
Y6033200D1*
Y6073167D1*
X7467227D1*
X7330990Y5936933D1*
X6667377D1*
X10302750Y2945900D2*
Y3299700D1*
X11795000D1*
X11810873D1*
Y6323600D2*
X11795000D1*
X10144000D1*
X11795000Y6294800D2*
Y6323600D1*
Y3275300D2*
Y3299700D1*
X10556750Y2945900D2*
X10560817Y2949967D1*
X12096623D1*
Y6573367D2*
X12092393Y6577600D1*
X10144000D1*
X12096623Y6534733D2*
X12115943Y6554050D1*
X12092393Y6577600D1*
X12096623Y2941833D2*
Y2949967D1*
X6707500Y11815600D2*
X6502373Y11610473D1*
Y10890133D1*
X6032373Y13755100D2*
Y12420523D1*
X6143500Y12309400D1*
X6537243D1*
X6707500Y12139143D1*
Y11815600D1*
X12191877Y13783567D2*
Y14282213D1*
X11730790Y14743300D1*
X10570127D1*
X10462823Y9706417D2*
X10144000Y9387593D1*
Y9117600D1*
X10461500Y14735167D2*
X10570127Y14743300D1*
X10493250Y9714867D2*
X10462823Y9706417D1*
X10144000Y7847600D2*
X9845710D1*
X9636000Y8057310D1*
Y9409510D1*
X11174957Y10948467D1*
X12366500D1*
X10144000Y7339600D2*
X10847317D1*
X11311250Y7803533D1*
X11972907D1*
X12129973Y7646467D1*
X12366500D1*
X7492900Y11815600D2*
X7921500Y11387000D1*
Y10884033D1*
X8223123Y10582410D1*
Y9977167D1*
X8554557Y9645733D1*
X8967423D1*
X9175623Y9437533D1*
Y8377707D1*
X8881093Y8101600D1*
X8620000D1*
X6508627Y6826167D2*
X8620000Y6831600D1*
X10144000Y7085600D2*
X10131633Y7097967D1*
X9572500D1*
X9052133Y6577600D1*
X8620000D1*
X14001623Y8272533D2*
X13949640D1*
X13128500Y7451393D1*
Y7252517D1*
X13014450Y7138467D1*
X12366500D1*
X12017943D1*
X11965077Y7085600D1*
X10144000D1*
X8620000Y6577600D2*
X8616100Y6581500D1*
X6302250D1*
X4921617Y7962133D1*
X4175000D1*
X4006233Y7793367D1*
X2968500D1*
X6540373Y13755100D2*
Y12949900D1*
X6603873D1*
Y12929567D1*
X7860600D1*
X8865927D1*
X9715373Y13779017D1*
Y14163800D1*
X11454743D1*
X11668000Y13950543D1*
Y13783567D1*
X11683877D1*
X12366500Y10440467D2*
X13234273D1*
X13886673Y9788067D1*
X14252417D1*
X14398500Y9934150D1*
Y10737500D1*
X13137700Y11998300D1*
X11985817D1*
X11934983Y11947467D1*
X11906123D1*
X14001623Y8272533D2*
X13972457Y8301700D1*
X15208743D1*
X15827250Y8920210D1*
Y13072867D1*
X13546817Y15353300D1*
X10080350D1*
X9715373Y14988327D1*
Y14163800D1*
X12366500Y10440467D2*
X12358667Y10432633D1*
X11382250D1*
X8905750Y13649367D2*
X8874000D1*
X8000873D1*
X7860600Y13509090D1*
Y12929567D1*
X8874000Y13627000D2*
Y13649367D1*
X11366373Y10432633D2*
X11382250D1*
X6508627Y7080167D2*
X8620000Y7085600D1*
Y6323600D2*
X8631867Y6335467D1*
X9223250D1*
X9678717Y6790933D1*
X9699500D1*
X9740167Y6831600D1*
X10144000D1*
X6191127Y5371667D2*
X6159377Y5403417D1*
Y5936933D1*
Y6101483D1*
X6381493Y6323600D1*
X8620000D1*
X12366500Y11710467D2*
X11239373D1*
Y11691267D1*
X11160000D1*
Y11430950D1*
X9706217Y9977167D1*
X8858123D1*
X12366500Y6884467D2*
X12085600D1*
X12032733Y6831600D1*
X10144000D1*
X2968500Y7539367D2*
X3307733Y7200133D1*
X4175000D1*
X5299933Y6075200D1*
X6159377D1*
Y5936933D1*
X2968500Y7539367D2*
X2911400Y7482267D1*
X2620140D1*
X1492123Y8610283D1*
Y12115463D1*
X2147627Y12770967D1*
X3428873D1*
Y10359827D1*
X3635250Y10153450D1*
Y9975133D1*
X3645417Y9964967D1*
X3960717D1*
X4302000Y10306250D1*
Y12004250D1*
X4531917Y12234167D1*
X5250750D1*
X6095873Y11389043D1*
Y10520070D1*
X6318123Y10297820D1*
Y9952767D1*
X6366253Y9904637D1*
X7000750Y10539133D1*
Y11853783D1*
X7289633Y12142667D1*
X7657693D1*
X8620000Y11180360D1*
Y10215290D1*
X8858123Y9977167D1*
X6794373Y13755100D2*
Y14197433D1*
X6657207Y14334600D1*
X4992507D1*
X3428873Y12770967D1*
X11181373Y12455787D2*
X11160000Y12434413D1*
Y11691267D1*
X11181373Y13105813D2*
X11194230Y13118667D1*
X11541000D1*
X11752467Y13330133D1*
X11874373D1*
X11920703Y13376460D1*
X11937877Y13393637D1*
Y13783567D1*
X11181373Y12455787D2*
X11187490Y12461900D1*
X11795000D1*
X11920703Y12587603D1*
Y13376460D1*
X11937877Y13783567D2*
X11922000Y13799443D1*
Y14214633D1*
X11712567Y14424067D1*
X10158627D1*
X10080500Y14502193D1*
Y14954767D1*
X10194367Y15068633D1*
X12287127D1*
X15478000Y11877760D1*
Y8966600D1*
X15168933Y8657533D1*
X13319317D1*
X13128500D1*
Y9126377D1*
X13084410Y9170467D1*
X12366500D1*
Y8916467D2*
X12369867Y8919833D1*
X13057017D1*
X13319317Y8657533D1*
X12366500Y8662467D2*
X12361567Y8657533D1*
X13128500D1*
X12366500Y8408467D2*
X12359367Y8401333D1*
X13128500D1*
Y8657533D1*
X12366500Y7900467D2*
X12367867Y7899100D1*
X12731627D1*
X13128500Y8295977D1*
Y8401333D1*
X8524750Y2945900D2*
X8522717Y2947933D1*
X8080250D1*
X7969127Y3059060D1*
Y3147200D1*
X4063873Y5701067D2*
X3675507Y6089433D1*
X3143127D1*
X2968500Y6264060D1*
Y7539367D1*
X4095623Y5666500D2*
X4097033Y5667910D1*
X7985000Y3098400D2*
X7969127Y3059060D1*
D15*
X4175000Y7962133D3*
D16*
Y7200133D3*
X6159377Y5936933D3*
D15*
X6667377D3*
D16*
X6191127Y5371667D3*
D15*
X6699127D3*
D16*
X8858123Y9977167D3*
D15*
X8223123D3*
D16*
X6318123Y9952767D3*
D15*
X5683123D3*
D16*
X3635250Y9975133D3*
D15*
X3000250D3*
D17*
X10556750Y2945900D3*
D18*
X10302750D3*
X10048750D3*
X9794750D3*
X9540750D3*
X9286750D3*
X9032750D3*
X8778750D3*
X8524750D3*
D19*
X7921500Y10884033D3*
D20*
X9026500D3*
D19*
X5397373Y10890133D3*
D20*
X6502373D3*
D19*
X2717623Y10895000D3*
D20*
X3822623D3*
D17*
X6794373Y13755100D3*
D18*
X6540373D3*
X6286373D3*
X6032373D3*
X5778373D3*
D17*
X2952623Y5381833D3*
D18*
Y5127833D3*
Y4873833D3*
Y4619833D3*
Y4365833D3*
Y4111833D3*
Y3857833D3*
Y3603833D3*
D17*
X12366500Y6884467D3*
D18*
Y7138467D3*
Y7392467D3*
Y7646467D3*
Y7900467D3*
Y8154467D3*
Y8408467D3*
Y8662467D3*
Y8916467D3*
Y9170467D3*
Y9424467D3*
Y9678467D3*
Y9932467D3*
Y10186467D3*
Y10440467D3*
Y10694467D3*
Y10948467D3*
Y11202467D3*
Y11456467D3*
Y11710467D3*
D17*
X6508623Y7842167D3*
D18*
Y7588167D3*
Y7334167D3*
Y7080167D3*
Y6826167D3*
D21*
X10461500Y14735167D3*
X10493250Y9714867D3*
X7302373Y10481433D3*
X9715373Y10540400D3*
X12096623Y6534733D3*
X11795000Y6294800D3*
X11477500Y6063000D3*
X10874250Y5806800D3*
X12096623Y2941833D3*
X11795000Y3275300D3*
X11477500Y3710433D3*
X10874250Y3968667D3*
X4095623Y5666500D3*
X7985000Y3098400D3*
D17*
X2968500Y7793367D3*
D18*
Y7539367D3*
D17*
X11429877Y13783567D3*
D18*
X11683877D3*
X11937877D3*
X12191877D3*
X12445877D3*
X12699877D3*
D22*
X11906127Y11947467D3*
D23*
X9874127D3*
D22*
X14001623Y10304533D3*
D23*
Y8272533D3*
D22*
X7492900Y11815600D3*
D23*
X9524900D3*
D22*
X4675500D3*
D23*
X6707500D3*
D22*
X1904900D3*
D23*
X3936900D3*
D24*
X10731373Y12455800D3*
D25*
X11181373Y12455787D3*
Y13105813D3*
X10731373Y13105800D3*
D26*
X8620000Y9117600D3*
Y8863600D3*
Y8609600D3*
Y8355600D3*
Y8101600D3*
Y7847600D3*
Y7593600D3*
Y7339600D3*
Y7085600D3*
Y6831600D3*
Y6577600D3*
Y6323600D3*
Y6069600D3*
Y5815600D3*
Y5561600D3*
Y5307600D3*
Y5053600D3*
Y4799600D3*
Y4545600D3*
Y4291600D3*
X10144000D3*
Y4545600D3*
Y4799600D3*
Y5053600D3*
Y5307600D3*
Y5561600D3*
Y5815600D3*
Y6069600D3*
Y6323600D3*
Y6577600D3*
Y6831600D3*
Y7085600D3*
Y7339600D3*
Y7593600D3*
Y7847600D3*
Y8101600D3*
Y8355600D3*
Y8609600D3*
Y8863600D3*
Y9117600D3*
D17*
X11445750Y7402967D3*
D18*
X11699750D3*
D27*
X7604000Y5550600D3*
Y6033200D3*
D21*
X8874000Y13627000D3*
X11366373Y10432633D3*
M02*
