G04 DipTrace 3.0.0.2*
G04 TopDimension.gbr*
%MOMM*%
G04 #@! TF.FileFunction,Drawing,Top*
G04 #@! TF.Part,Single*
%ADD13C,0.035*%
%ADD62C,0.15686*%
%FSLAX35Y35*%
G04*
G71*
G90*
G75*
G01*
G04 TopDimension*
%LPD*%
X15065250Y15347200D2*
D13*
X16226500D1*
X16144750Y904433D2*
X16226500D1*
X16176500Y8125817D2*
Y15247200D1*
G36*
Y15347200D2*
X16196500Y15247200D1*
X16156500D1*
X16176500Y15347200D1*
G37*
Y8125817D2*
D13*
Y1004433D1*
G36*
Y904433D2*
X16156500Y1004433D1*
X16196500D1*
X16176500Y904433D1*
G37*
X16290061Y8356836D2*
D62*
X16295003Y8347066D1*
X16309491Y8332466D1*
X16207515D1*
Y8252464D2*
X16309491D1*
X16241545Y8301093D1*
Y8228205D1*
X16207515Y8148204D2*
X16309491D1*
X16241545Y8196833D1*
Y8123945D1*
X16217286Y8087743D2*
X16212345Y8092573D1*
X16207515Y8087743D1*
X16212345Y8082802D1*
X16217286Y8087743D1*
X16207515Y8002800D2*
X16309491D1*
X16241545Y8051429D1*
Y7978542D1*
X16309491Y7937398D2*
Y7884052D1*
X16270632Y7913140D1*
Y7898540D1*
X16265803Y7888881D1*
X16260974Y7884052D1*
X16246374Y7879111D1*
X16236715D1*
X16222115Y7884052D1*
X16212345Y7893711D1*
X16207515Y7908311D1*
Y7922911D1*
X16212345Y7937398D1*
X16217286Y7942228D1*
X16226945Y7947169D1*
M02*
