G04 DipTrace 3.0.0.2*
G04 TopAssy.gbr*
%MOMM*%
G04 #@! TF.FileFunction,Drawing,Top*
G04 #@! TF.Part,Single*
%ADD10C,0.25*%
%ADD61C,0.07843*%
%FSLAX35Y35*%
G04*
G71*
G90*
G75*
G01*
G04 TopAssy*
%LPD*%
X10756750Y2793908D2*
D10*
X8324750D1*
X7046373Y13603108D2*
X5526373D1*
X3104615Y5556833D2*
Y3428833D1*
X12214508Y6713467D2*
Y11881467D1*
X6660615Y8094167D2*
Y6574167D1*
X3120506Y8020367D2*
Y7312367D1*
X11228877Y13935558D2*
X12900877D1*
X11218750Y7554973D2*
X11926750D1*
X9793404Y2696630D2*
D61*
Y2747674D1*
X9771504D1*
X9764204Y2745203D1*
X9761790Y2742789D1*
X9759375Y2737959D1*
Y2730659D1*
X9761790Y2725774D1*
X9764204Y2723359D1*
X9771504Y2720945D1*
X9764204Y2718474D1*
X9761790Y2716059D1*
X9759375Y2711230D1*
Y2706345D1*
X9761790Y2701516D1*
X9764204Y2699045D1*
X9771504Y2696630D1*
X9793404D1*
Y2720945D2*
X9771504D1*
X9729089Y2696630D2*
X9733974Y2699045D1*
X9738803Y2703930D1*
X9741274Y2708759D1*
X9743689Y2716059D1*
Y2728245D1*
X9741274Y2735489D1*
X9738803Y2740374D1*
X9733974Y2745203D1*
X9729089Y2747674D1*
X9719374D1*
X9714545Y2745203D1*
X9709660Y2740374D1*
X9707245Y2735489D1*
X9704830Y2728245D1*
Y2716059D1*
X9707245Y2708759D1*
X9709660Y2703930D1*
X9714545Y2699045D1*
X9719374Y2696630D1*
X9729089D1*
X9650230Y2747674D2*
X9669715Y2696630D1*
X9689144Y2747674D1*
X9681844Y2730659D2*
X9657530D1*
X9634543Y2720945D2*
X9612699D1*
X9605399Y2718474D1*
X9602929Y2716059D1*
X9600514Y2711230D1*
Y2706345D1*
X9602929Y2701516D1*
X9605399Y2699045D1*
X9612699Y2696630D1*
X9634543D1*
Y2747674D1*
X9617529Y2720945D2*
X9600514Y2747674D1*
X9584828Y2696630D2*
Y2747674D1*
X9567813D1*
X9560513Y2745203D1*
X9555628Y2740374D1*
X9553213Y2735489D1*
X9550799Y2728245D1*
Y2716059D1*
X9553213Y2708759D1*
X9555628Y2703930D1*
X9560513Y2699045D1*
X9567813Y2696630D1*
X9584828D1*
X9454175D2*
X9485734D1*
Y2747674D1*
X9454175D1*
X9485734Y2720945D2*
X9466304D1*
X9438489Y2696630D2*
Y2747674D1*
X9421474D1*
X9414174Y2745203D1*
X9409289Y2740374D1*
X9406874Y2735489D1*
X9404460Y2728245D1*
Y2716059D1*
X9406874Y2708759D1*
X9409289Y2703930D1*
X9414174Y2699045D1*
X9421474Y2696630D1*
X9438489D1*
X9352330Y2708759D2*
X9354744Y2703930D1*
X9359630Y2699045D1*
X9364459Y2696630D1*
X9374173D1*
X9379059Y2699045D1*
X9383888Y2703930D1*
X9386359Y2708759D1*
X9388773Y2716059D1*
Y2728245D1*
X9386359Y2735489D1*
X9383888Y2740374D1*
X9379059Y2745203D1*
X9374173Y2747674D1*
X9364459D1*
X9359630Y2745203D1*
X9354744Y2740374D1*
X9352330Y2735489D1*
Y2728245D1*
X9364459D1*
X9305085Y2696630D2*
X9336643D1*
Y2747674D1*
X9305085D1*
X9336643Y2720945D2*
X9317214D1*
X6539027Y13505830D2*
Y13556874D1*
X6517128D1*
X6509828Y13554403D1*
X6507413Y13551989D1*
X6504998Y13547159D1*
Y13539859D1*
X6507413Y13534974D1*
X6509828Y13532559D1*
X6517127Y13530145D1*
X6509828Y13527674D1*
X6507413Y13525259D1*
X6504998Y13520430D1*
Y13515545D1*
X6507413Y13510716D1*
X6509827Y13508245D1*
X6517127Y13505830D1*
X6539027D1*
Y13530145D2*
X6517127D1*
X6474712Y13505830D2*
X6479597Y13508245D1*
X6484427Y13513130D1*
X6486897Y13517959D1*
X6489312Y13525259D1*
Y13537445D1*
X6486898Y13544689D1*
X6484427Y13549574D1*
X6479598Y13554403D1*
X6474712Y13556874D1*
X6464998D1*
X6460168Y13554403D1*
X6455283Y13549574D1*
X6452868Y13544689D1*
X6450454Y13537445D1*
Y13525259D1*
X6452868Y13517959D1*
X6455283Y13513130D1*
X6460168Y13508245D1*
X6464997Y13505830D1*
X6474712D1*
X6395853Y13556874D2*
X6415338Y13505830D1*
X6434768Y13556874D1*
X6427467Y13539859D2*
X6403153D1*
X6380167Y13530145D2*
X6358323D1*
X6351023Y13527674D1*
X6348552Y13525259D1*
X6346137Y13520430D1*
Y13515545D1*
X6348552Y13510716D1*
X6351023Y13508245D1*
X6358323Y13505830D1*
X6380167D1*
Y13556874D1*
X6363152Y13530145D2*
X6346137Y13556874D1*
X6330451Y13505830D2*
Y13556874D1*
X6313437D1*
X6306137Y13554403D1*
X6301251Y13549574D1*
X6298837Y13544689D1*
X6296422Y13537445D1*
Y13525259D1*
X6298836Y13517959D1*
X6301251Y13513130D1*
X6306136Y13508245D1*
X6313436Y13505830D1*
X6330451D1*
X6199799D2*
X6231357D1*
Y13556874D1*
X6199799D1*
X6231357Y13530145D2*
X6211928D1*
X6184112Y13505830D2*
Y13556874D1*
X6167098D1*
X6159798Y13554403D1*
X6154912Y13549574D1*
X6152498Y13544689D1*
X6150083Y13537445D1*
Y13525259D1*
X6152498Y13517959D1*
X6154912Y13513130D1*
X6159798Y13508245D1*
X6167098Y13505830D1*
X6184112D1*
X6097953Y13517959D2*
X6100368Y13513130D1*
X6105253Y13508245D1*
X6110082Y13505830D1*
X6119797D1*
X6124682Y13508245D1*
X6129511Y13513130D1*
X6131982Y13517959D1*
X6134397Y13525259D1*
Y13537445D1*
X6131982Y13544689D1*
X6129511Y13549574D1*
X6124682Y13554403D1*
X6119797Y13556874D1*
X6110082D1*
X6105253Y13554403D1*
X6100368Y13549574D1*
X6097953Y13544689D1*
Y13537445D1*
X6110082D1*
X6050708Y13505830D2*
X6082267D1*
Y13556874D1*
X6050708D1*
X6082267Y13530145D2*
X6062837D1*
X3201893Y4745335D2*
X3150849D1*
Y4723436D1*
X3153320Y4716136D1*
X3155735Y4713721D1*
X3160564Y4711306D1*
X3167864D1*
X3172749Y4713721D1*
X3175164Y4716136D1*
X3177579Y4723435D1*
X3180049Y4716136D1*
X3182464Y4713721D1*
X3187293Y4711306D1*
X3192179D1*
X3197008Y4713721D1*
X3199479Y4716135D1*
X3201893Y4723435D1*
Y4745335D1*
X3177579D2*
Y4723435D1*
X3201893Y4681020D2*
X3199479Y4685905D1*
X3194593Y4690735D1*
X3189764Y4693205D1*
X3182464Y4695620D1*
X3170279D1*
X3163035Y4693206D1*
X3158149Y4690735D1*
X3153320Y4685906D1*
X3150849Y4681020D1*
Y4671306D1*
X3153320Y4666476D1*
X3158149Y4661591D1*
X3163035Y4659176D1*
X3170279Y4656762D1*
X3182464D1*
X3189764Y4659176D1*
X3194593Y4661591D1*
X3199479Y4666476D1*
X3201893Y4671305D1*
Y4681020D1*
X3150849Y4602161D2*
X3201893Y4621646D1*
X3150849Y4641076D1*
X3167864Y4633775D2*
Y4609461D1*
X3177579Y4586475D2*
Y4564631D1*
X3180049Y4557331D1*
X3182464Y4554860D1*
X3187293Y4552445D1*
X3192179D1*
X3197008Y4554860D1*
X3199479Y4557331D1*
X3201893Y4564631D1*
Y4586475D1*
X3150849D1*
X3177579Y4569460D2*
X3150849Y4552445D1*
X3201893Y4536759D2*
X3150849D1*
Y4519745D1*
X3153320Y4512445D1*
X3158149Y4507559D1*
X3163035Y4505145D1*
X3170279Y4502730D1*
X3182464D1*
X3189764Y4505144D1*
X3194593Y4507559D1*
X3199479Y4512444D1*
X3201893Y4519744D1*
Y4536759D1*
Y4406107D2*
Y4437665D1*
X3150849D1*
Y4406107D1*
X3177579Y4437665D2*
Y4418236D1*
X3201893Y4390420D2*
X3150849D1*
Y4373406D1*
X3153320Y4366106D1*
X3158149Y4361220D1*
X3163035Y4358806D1*
X3170279Y4356391D1*
X3182464D1*
X3189764Y4358806D1*
X3194593Y4361220D1*
X3199479Y4366106D1*
X3201893Y4373406D1*
Y4390420D1*
X3189764Y4304261D2*
X3194593Y4306676D1*
X3199479Y4311561D1*
X3201893Y4316390D1*
Y4326105D1*
X3199479Y4330990D1*
X3194593Y4335819D1*
X3189764Y4338290D1*
X3182464Y4340705D1*
X3170279D1*
X3163035Y4338290D1*
X3158149Y4335819D1*
X3153320Y4330990D1*
X3150849Y4326105D1*
Y4316390D1*
X3153320Y4311561D1*
X3158149Y4306676D1*
X3163035Y4304261D1*
X3170279D1*
Y4316390D1*
X3201893Y4257016D2*
Y4288575D1*
X3150849D1*
Y4257016D1*
X3177579Y4288575D2*
Y4269145D1*
X12117230Y9045056D2*
X12168274D1*
Y9066956D1*
X12165803Y9074256D1*
X12163389Y9076670D1*
X12158559Y9079085D1*
X12151259D1*
X12146374Y9076670D1*
X12143959Y9074256D1*
X12141545Y9066956D1*
X12139074Y9074256D1*
X12136659Y9076670D1*
X12131830Y9079085D1*
X12126945D1*
X12122116Y9076670D1*
X12119645Y9074256D1*
X12117230Y9066956D1*
Y9045056D1*
X12141545D2*
Y9066956D1*
X12117230Y9109371D2*
X12119645Y9104486D1*
X12124530Y9099657D1*
X12129359Y9097186D1*
X12136659Y9094771D1*
X12148845D1*
X12156089Y9097186D1*
X12160974Y9099656D1*
X12165803Y9104486D1*
X12168274Y9109371D1*
Y9119086D1*
X12165803Y9123915D1*
X12160974Y9128800D1*
X12156089Y9131215D1*
X12148845Y9133629D1*
X12136659D1*
X12129359Y9131215D1*
X12124530Y9128800D1*
X12119645Y9123915D1*
X12117230Y9119086D1*
Y9109371D1*
X12168274Y9188230D2*
X12117230Y9168745D1*
X12168274Y9149316D1*
X12151259Y9156616D2*
Y9180930D1*
X12141545Y9203917D2*
Y9225760D1*
X12139074Y9233060D1*
X12136659Y9235531D1*
X12131830Y9237946D1*
X12126945D1*
X12122116Y9235531D1*
X12119645Y9233060D1*
X12117230Y9225760D1*
Y9203917D1*
X12168274D1*
X12141545Y9220931D2*
X12168274Y9237946D1*
X12117230Y9253632D2*
X12168274D1*
Y9270647D1*
X12165803Y9277947D1*
X12160974Y9282832D1*
X12156089Y9285247D1*
X12148845Y9287661D1*
X12136659D1*
X12129359Y9285247D1*
X12124530Y9282832D1*
X12119645Y9277947D1*
X12117230Y9270647D1*
Y9253632D1*
Y9384285D2*
Y9352726D1*
X12168274D1*
Y9384285D1*
X12141545Y9352726D2*
Y9372155D1*
X12117230Y9399971D2*
X12168274D1*
Y9416986D1*
X12165803Y9424286D1*
X12160974Y9429171D1*
X12156089Y9431586D1*
X12148845Y9434000D1*
X12136659D1*
X12129359Y9431586D1*
X12124530Y9429171D1*
X12119645Y9424286D1*
X12117230Y9416986D1*
Y9399971D1*
X12129359Y9486130D2*
X12124530Y9483716D1*
X12119645Y9478830D1*
X12117230Y9474001D1*
Y9464286D1*
X12119645Y9459401D1*
X12124530Y9454572D1*
X12129359Y9452101D1*
X12136659Y9449686D1*
X12148845D1*
X12156089Y9452101D1*
X12160974Y9454572D1*
X12165803Y9459401D1*
X12168274Y9464286D1*
Y9474001D1*
X12165803Y9478830D1*
X12160974Y9483716D1*
X12156089Y9486130D1*
X12148845D1*
Y9474001D1*
X12117230Y9533375D2*
Y9501817D1*
X12168274D1*
Y9533375D1*
X12141545Y9501817D2*
Y9521246D1*
X6757893Y7586821D2*
X6706849D1*
Y7564921D1*
X6709320Y7557621D1*
X6711735Y7555206D1*
X6716564Y7552792D1*
X6723864D1*
X6728749Y7555206D1*
X6731164Y7557621D1*
X6733579Y7564921D1*
X6736049Y7557621D1*
X6738464Y7555206D1*
X6743293Y7552792D1*
X6748179D1*
X6753008Y7555206D1*
X6755479Y7557621D1*
X6757893Y7564921D1*
Y7586821D1*
X6733579D2*
Y7564921D1*
X6757893Y7522505D2*
X6755479Y7527391D1*
X6750593Y7532220D1*
X6745764Y7534691D1*
X6738464Y7537105D1*
X6726279D1*
X6719035Y7534691D1*
X6714149Y7532220D1*
X6709320Y7527391D1*
X6706849Y7522506D1*
Y7512791D1*
X6709320Y7507962D1*
X6714149Y7503076D1*
X6719035Y7500662D1*
X6726279Y7498247D1*
X6738464D1*
X6745764Y7500662D1*
X6750593Y7503076D1*
X6755479Y7507962D1*
X6757893Y7512791D1*
Y7522505D1*
X6706849Y7443646D2*
X6757893Y7463132D1*
X6706849Y7482561D1*
X6723864Y7475261D2*
Y7450946D1*
X6733579Y7427960D2*
Y7406116D1*
X6736049Y7398816D1*
X6738464Y7396345D1*
X6743293Y7393931D1*
X6748179D1*
X6753008Y7396345D1*
X6755479Y7398816D1*
X6757893Y7406116D1*
Y7427960D1*
X6706849D1*
X6733579Y7410945D2*
X6706849Y7393931D1*
X6757893Y7378244D2*
X6706849D1*
Y7361230D1*
X6709320Y7353930D1*
X6714149Y7349044D1*
X6719035Y7346630D1*
X6726279Y7344215D1*
X6738464D1*
X6745764Y7346630D1*
X6750593Y7349044D1*
X6755479Y7353930D1*
X6757893Y7361230D1*
Y7378244D1*
Y7247592D2*
Y7279150D1*
X6706849D1*
Y7247592D1*
X6733579Y7279150D2*
Y7259721D1*
X6757893Y7231906D2*
X6706849D1*
Y7214891D1*
X6709320Y7207591D1*
X6714149Y7202706D1*
X6719035Y7200291D1*
X6726279Y7197876D1*
X6738464D1*
X6745764Y7200291D1*
X6750593Y7202706D1*
X6755479Y7207591D1*
X6757893Y7214891D1*
Y7231906D1*
X6745764Y7145746D2*
X6750593Y7148161D1*
X6755479Y7153046D1*
X6757893Y7157876D1*
Y7167590D1*
X6755479Y7172476D1*
X6750593Y7177305D1*
X6745764Y7179776D1*
X6738464Y7182190D1*
X6726279D1*
X6719035Y7179776D1*
X6714149Y7177305D1*
X6709320Y7172476D1*
X6706849Y7167590D1*
Y7157876D1*
X6709320Y7153046D1*
X6714149Y7148161D1*
X6719035Y7145746D1*
X6726279D1*
Y7157876D1*
X6757893Y7098502D2*
Y7130060D1*
X6706849D1*
Y7098502D1*
X6733579Y7130060D2*
Y7110631D1*
X3205270Y7916475D2*
X3154226D1*
Y7894575D1*
X3156697Y7887275D1*
X3159111Y7884861D1*
X3163941Y7882446D1*
X3171241D1*
X3176126Y7884861D1*
X3178541Y7887275D1*
X3180955Y7894575D1*
X3183426Y7887275D1*
X3185841Y7884861D1*
X3190670Y7882446D1*
X3195555D1*
X3200384Y7884861D1*
X3202855Y7887275D1*
X3205270Y7894575D1*
Y7916475D1*
X3180955D2*
Y7894575D1*
X3205270Y7852160D2*
X3202855Y7857045D1*
X3197970Y7861874D1*
X3193141Y7864345D1*
X3185841Y7866760D1*
X3173655D1*
X3166411Y7864345D1*
X3161526Y7861875D1*
X3156697Y7857045D1*
X3154226Y7852160D1*
Y7842445D1*
X3156697Y7837616D1*
X3161526Y7832731D1*
X3166411Y7830316D1*
X3173655Y7827901D1*
X3185841D1*
X3193141Y7830316D1*
X3197970Y7832731D1*
X3202855Y7837616D1*
X3205270Y7842445D1*
Y7852160D1*
X3154226Y7773301D2*
X3205270Y7792786D1*
X3154226Y7812215D1*
X3171241Y7804915D2*
Y7780601D1*
X3180955Y7757614D2*
Y7735771D1*
X3183426Y7728470D1*
X3185841Y7726000D1*
X3190670Y7723585D1*
X3195555D1*
X3200384Y7726000D1*
X3202855Y7728470D1*
X3205270Y7735770D1*
Y7757614D1*
X3154226D1*
X3180955Y7740600D2*
X3154226Y7723585D1*
X3205270Y7707899D2*
X3154226D1*
Y7690884D1*
X3156697Y7683584D1*
X3161526Y7678699D1*
X3166411Y7676284D1*
X3173655Y7673870D1*
X3185841D1*
X3193141Y7676284D1*
X3197970Y7678699D1*
X3202855Y7683584D1*
X3205270Y7690884D1*
Y7707899D1*
Y7577246D2*
Y7608805D1*
X3154226D1*
Y7577246D1*
X3180955Y7608805D2*
Y7589376D1*
X3205270Y7561560D2*
X3154226D1*
Y7544545D1*
X3156697Y7537245D1*
X3161526Y7532360D1*
X3166411Y7529945D1*
X3173655Y7527531D1*
X3185841D1*
X3193141Y7529945D1*
X3197970Y7532360D1*
X3202855Y7537245D1*
X3205270Y7544545D1*
Y7561560D1*
X3193141Y7475401D2*
X3197970Y7477815D1*
X3202855Y7482701D1*
X3205270Y7487530D1*
Y7497245D1*
X3202855Y7502130D1*
X3197970Y7506959D1*
X3193141Y7509430D1*
X3185841Y7511845D1*
X3173655D1*
X3166411Y7509430D1*
X3161526Y7506959D1*
X3156697Y7502130D1*
X3154226Y7497245D1*
Y7487530D1*
X3156697Y7482701D1*
X3161526Y7477815D1*
X3166411Y7475401D1*
X3173655D1*
Y7487530D1*
X3205270Y7428156D2*
Y7459714D1*
X3154226D1*
Y7428156D1*
X3180955Y7459714D2*
Y7440285D1*
X11812313Y14032837D2*
Y13981793D1*
X11834213D1*
X11841513Y13984264D1*
X11843928Y13986678D1*
X11846343Y13991507D1*
Y13998807D1*
X11843928Y14003693D1*
X11841513Y14006107D1*
X11834213Y14008522D1*
X11841513Y14010993D1*
X11843928Y14013407D1*
X11846343Y14018237D1*
Y14023122D1*
X11843928Y14027951D1*
X11841513Y14030422D1*
X11834213Y14032837D1*
X11812313D1*
Y14008522D2*
X11834213D1*
X11876629Y14032837D2*
X11871744Y14030422D1*
X11866914Y14025537D1*
X11864444Y14020707D1*
X11862029Y14013407D1*
Y14001222D1*
X11864444Y13993978D1*
X11866914Y13989093D1*
X11871744Y13984264D1*
X11876629Y13981793D1*
X11886344D1*
X11891173Y13984264D1*
X11896058Y13989093D1*
X11898473Y13993978D1*
X11900887Y14001222D1*
Y14013407D1*
X11898473Y14020707D1*
X11896058Y14025537D1*
X11891173Y14030422D1*
X11886344Y14032837D1*
X11876629D1*
X11955488Y13981793D2*
X11936003Y14032837D1*
X11916574Y13981793D1*
X11923874Y13998807D2*
X11948188D1*
X11971175Y14008522D2*
X11993018D1*
X12000318Y14010993D1*
X12002789Y14013407D1*
X12005204Y14018237D1*
Y14023122D1*
X12002789Y14027951D1*
X12000318Y14030422D1*
X11993018Y14032837D1*
X11971175D1*
Y13981793D1*
X11988189Y14008522D2*
X12005204Y13981793D1*
X12020890Y14032837D2*
Y13981793D1*
X12037905D1*
X12045205Y13984264D1*
X12050090Y13989093D1*
X12052505Y13993978D1*
X12054919Y14001222D1*
Y14013407D1*
X12052505Y14020707D1*
X12050090Y14025537D1*
X12045205Y14030422D1*
X12037905Y14032837D1*
X12020890D1*
X12151543D2*
X12119984D1*
Y13981793D1*
X12151543D1*
X12119984Y14008522D2*
X12139413D1*
X12167229Y14032837D2*
Y13981793D1*
X12184244D1*
X12191544Y13984264D1*
X12196429Y13989093D1*
X12198844Y13993978D1*
X12201258Y14001222D1*
Y14013407D1*
X12198844Y14020707D1*
X12196429Y14025537D1*
X12191544Y14030422D1*
X12184244Y14032837D1*
X12167229D1*
X12253388Y14020707D2*
X12250974Y14025537D1*
X12246088Y14030422D1*
X12241259Y14032837D1*
X12231544D1*
X12226659Y14030422D1*
X12221830Y14025537D1*
X12219359Y14020707D1*
X12216944Y14013407D1*
Y14001222D1*
X12219359Y13993978D1*
X12221830Y13989093D1*
X12226659Y13984264D1*
X12231544Y13981793D1*
X12241259D1*
X12246088Y13984264D1*
X12250974Y13989093D1*
X12253388Y13993978D1*
Y14001222D1*
X12241259D1*
X12300633Y14032837D2*
X12269075D1*
Y13981793D1*
X12300633D1*
X12269075Y14008522D2*
X12288504D1*
X11322641Y7639737D2*
Y7588693D1*
X11344541D1*
X11351841Y7591164D1*
X11354256Y7593578D1*
X11356670Y7598407D1*
Y7605707D1*
X11354256Y7610593D1*
X11351841Y7613007D1*
X11344541Y7615422D1*
X11351841Y7617893D1*
X11354256Y7620307D1*
X11356670Y7625137D1*
Y7630022D1*
X11354256Y7634851D1*
X11351841Y7637322D1*
X11344541Y7639737D1*
X11322641D1*
Y7615422D2*
X11344541D1*
X11386957Y7639737D2*
X11382071Y7637322D1*
X11377242Y7632437D1*
X11374771Y7627607D1*
X11372357Y7620307D1*
Y7608122D1*
X11374771Y7600878D1*
X11377242Y7595993D1*
X11382071Y7591164D1*
X11386957Y7588693D1*
X11396671D1*
X11401501Y7591164D1*
X11406386Y7595993D1*
X11408801Y7600878D1*
X11411215Y7608122D1*
Y7620307D1*
X11408801Y7627607D1*
X11406386Y7632437D1*
X11401501Y7637322D1*
X11396671Y7639737D1*
X11386957D1*
X11465816Y7588693D2*
X11446331Y7639737D1*
X11426901Y7588693D1*
X11434201Y7605707D2*
X11458516D1*
X11481502Y7615422D2*
X11503346D1*
X11510646Y7617893D1*
X11513117Y7620307D1*
X11515532Y7625137D1*
Y7630022D1*
X11513117Y7634851D1*
X11510646Y7637322D1*
X11503346Y7639737D1*
X11481502D1*
Y7588693D1*
X11498517Y7615422D2*
X11515532Y7588693D1*
X11531218Y7639737D2*
Y7588693D1*
X11548232D1*
X11555532Y7591164D1*
X11560418Y7595993D1*
X11562832Y7600878D1*
X11565247Y7608122D1*
Y7620307D1*
X11562832Y7627607D1*
X11560418Y7632437D1*
X11555532Y7637322D1*
X11548232Y7639737D1*
X11531218D1*
X11661870D2*
X11630312D1*
Y7588693D1*
X11661870D1*
X11630312Y7615422D2*
X11649741D1*
X11677557Y7639737D2*
Y7588693D1*
X11694571D1*
X11701871Y7591164D1*
X11706757Y7595993D1*
X11709171Y7600878D1*
X11711586Y7608122D1*
Y7620307D1*
X11709171Y7627607D1*
X11706757Y7632437D1*
X11701871Y7637322D1*
X11694571Y7639737D1*
X11677557D1*
X11763716Y7627607D2*
X11761301Y7632437D1*
X11756416Y7637322D1*
X11751587Y7639737D1*
X11741872D1*
X11736987Y7637322D1*
X11732158Y7632437D1*
X11729687Y7627607D1*
X11727272Y7620307D1*
Y7608122D1*
X11729687Y7600878D1*
X11732158Y7595993D1*
X11736987Y7591164D1*
X11741872Y7588693D1*
X11751587D1*
X11756416Y7591164D1*
X11761301Y7595993D1*
X11763716Y7600878D1*
Y7608122D1*
X11751587D1*
X11810961Y7639737D2*
X11779402D1*
Y7588693D1*
X11810961D1*
X11779402Y7615422D2*
X11798831D1*
M02*
