M48
;Layer_Color=9474304
;FILE_FORMAT=2:5
INCH,LZ
;TYPE=PLATED
T1F00S00C0.01181
T2F00S00C0.03000
T4F00S00C0.03543
T5F00S00C0.03780
T7F00S00C0.04016
T8F00S00C0.04331
T9F00S00C0.06693
T10F00S00C0.07087
T11F00S00C0.09449
T12F00S00C0.11811
%
T01
X0077362Y0028642
X0081693Y0076279
X0110039Y0071752
X0126673Y006624
X0461122Y0058366
X0554724Y0062205
X0619291Y0062598
X0606299Y0030512
X0609252Y0134843
X0618504Y0156693
X0548819Y0166929
X0594488Y0239173
X0464764Y0149114
X0469488Y0135827
X0373622Y0107087
X0323228Y0147244
X0304251Y0149526
X0271654Y0163386
X0268996Y0175394
X0238583Y0171653
X0237402Y0162205
X0236614Y0131102
X0213189Y0129823
X0279921Y0107874
X0245276Y0193307
X020315Y0177657
X0186614Y0172047
X0163386Y0166142
X0146161Y0147343
X0151969Y0134646
X0187008Y0112205
X0211811Y0155512
X0135531Y0181299
X0139189Y0196063
X0126969Y0211713
X0106988Y0219587
X0115157Y0234252
X0136319Y0235236
X0082874Y0149114
X0072441Y0155118
X0071358Y0136319
X0065551Y0120965
X0090158Y0109843
X0115354Y0108268
X0127559Y0087008
X0037402Y0155512
X0045866Y0211614
X005Y0254331
X0044488Y0362992
X0038976Y0370472
X0101208Y0343674
X0098819Y0316929
X0100394Y0308071
X010502Y0299902
X0098047Y0274311
X0092618Y0243504
X0110433Y0249606
X0129528Y0248524
X0170276Y0255906
X0180315Y0270866
X0173622Y0282677
X0168898Y0296457
X016063Y0292126
X0156496Y033563
X0151575Y0341535
X0123031Y0330709
X0127953Y0312992
X0126772Y0362598
X0135827Y0386811
X0117323Y0390158
X0113386Y0394488
X0190945Y0354331
X0201181Y0327953
X0206693Y0317913
X0205906Y0274803
X0237008Y0259842
X0237402Y0293307
X0226772Y0301181
X0230315Y0308661
X0251575Y0323228
X0264961Y0322457
X0269291Y0333858
X0259842Y0364567
X0253543Y0360236
X0230315Y0356299
X0234252Y0344488
X0240158Y0385039
X0225197Y0383858
X0363189Y0375
X0278543Y0276575
X0387438Y0363555
X0471949Y035935
X0468996Y0253445
X0547638Y0269685
X0622441Y0245276
X0614173Y0332677
X0644095Y0329921
X0602362Y0375984
X0540945Y0375197
X0404724Y0409449
X0408268Y0412992
X0399787Y0425527
X041063Y0474409
X0416142
X0410236Y0496457
X041811Y0537008
X0388976Y0524016
X0294094Y0497244
X0276772Y0491732
X0250787Y049685
X0255906Y0476378
X0263386Y0469685
X0263779Y0457677
X0312008Y0443898
X0300787Y040315
X0223622Y0485433
X0224016Y0531496
Y0543307
X0163779Y0537008
X0153937Y0526378
X013376Y0536909
X0124016Y0535827
X0131102Y047874
X0143701Y0429134
X0094095Y0426772
X003937Y0444095
X0038189Y0484646
X0129921Y0572835
X0329134Y0611811
X0354724Y0596457
X0392644Y0598943
X0400394Y0579528
X041811Y0584646
X0415748Y0615354
X0449185Y062483
X0447244Y0601181
X0477165Y058189
X0482677
X0470882Y0629134
X0433071Y0640945
X0390945Y0565748
T02
X0075945Y0049055
X0085945Y0059055
X0065945
X0260512Y0221457
X0270512Y0231457
X0280512Y0221457
X0206693Y0291339
X0187008
X0154842Y0276575
X0144843Y0266575
X0134843Y0276575
X0070039Y0294449
X0060039Y0304449
Y0284449
X0304134Y0285748
X0314134Y0275748
X0304134Y0265748
X033563
X034563Y0275748
X033563Y0285748
X0644291Y0515433
Y0535433
T04
X001378Y0075787
X0134941Y0047244
X0199803
X0228445
X0241496Y001378
X0251496
X0261496
X0271496
X0281496
X0293307Y0047244
X0321949
X0386811
X0516653Y0024803
X0521654
X0526653
Y0144877
X0521654
X0516653
X0118012Y0166339
X0098661Y0199724
Y0209724
X0068661
Y0199724
X005315Y0166339
X0011811Y0176024
Y0186024
Y0226378
Y0236378
X001378Y0134016
Y0124016
Y0085787
X0035039Y0290945
Y0300945
X0289882Y0330649
Y0395512
X0515079Y0343701
X0520079
X0520866Y024252
X0515866
X0525866
X0525079Y0343701
X0590158Y0522047
X0371063Y0505866
Y0495866
Y0485866
Y0475866
Y0465866
Y0455866
Y0445866
X0349079Y0427402
X0339079
X0329079
X0319079
X0309079
X0299079
X0289079Y04274
X0294Y0528
X0304
X0314
X0324
X0334
X0025397Y0472913
Y0462913
Y0452913
Y0442913
Y0432913
Y0422913
X0036417Y0555118
Y0565118
X011811Y0591535
Y0615158
X0174213Y0562992
X0184055
X0193898
X020374
X0213583
X0223425
X0233268
X024311
X0227362Y0591535
Y0615158
X0308268Y0611221
Y0591535
X0317925Y0649586
X0327925
X0337925
X0347925
X0357925
X0367925
X0377925
X0387925
X0397767
X040761
X041761
X042761
X043761
X044761
X045761
X0467295
X0477295
X0487295
X0497295
X0507295
X0497Y0591
Y0581
X0527
Y0591
X0542913Y0602756
X0590158Y058691
X0607776Y0602756
X0600551Y0627165
X0590551
T05
X0645669Y0069606
Y0080079
Y0090551
Y016498
Y0175453
Y0185925
X0025643Y0355039
Y0365512
Y0375984
X0645669Y0376673
Y0366201
Y0355728
Y0281299
Y0270827
Y0260354
Y0451102
Y0461575
Y0472047
X0167953Y0649606
X015748
X0147008
X0215551
X0226024
X0236496
X0535827Y0627165
X0546299
X0556772
T07
X0385827Y0158465
X0293307Y0115354
X0210236
X0206693Y0144685
X0203937Y0200787
X0202362Y0304724
X0170472
X017874Y0329921
X0113189Y0319882
X0079134Y0343701
X0078586Y0363946
X0281496Y0291339
X062874Y0329921
X009252Y0565354
X0624016Y0627165
T08
X009811Y0649606
X011811
T09
X0572835Y0475394
X0602362
X0513779
X0484252
T10
X0015039Y0280945
Y0320945
T11
X0624016Y0577165
Y0609842
X0650591Y0622905
Y0556973
T12
X0019685Y0019685
X0649606
X0019685Y0653937
X0649606
M30
