G04*
G04 #@! TF.GenerationSoftware,Altium Limited,Altium Designer,21.6.1 (37)*
G04*
G04 Layer_Color=128*
%FSLAX25Y25*%
%MOIN*%
G70*
G04*
G04 #@! TF.SameCoordinates,2CCEC8D5-DFE6-49CD-9DF0-9BB73A36F05B*
G04*
G04*
G04 #@! TF.FilePolarity,Positive*
G04*
G01*
G75*
%ADD113C,0.00200*%
D113*
X13780Y653937D02*
X25591D01*
X19685Y648032D02*
Y659842D01*
X645866Y556973D02*
X655315D01*
X650591Y552248D02*
Y561697D01*
X645866Y622905D02*
X655315D01*
X650591Y618181D02*
Y627630D01*
X619291Y609842D02*
X628740D01*
X624016Y605118D02*
Y614567D01*
X619291Y577165D02*
X628740D01*
X624016Y572441D02*
Y581890D01*
X642791Y535433D02*
X645791D01*
X644291Y533933D02*
Y536933D01*
X642791Y515433D02*
X645791D01*
X644291Y513933D02*
Y516933D01*
X231496Y562992D02*
X235039D01*
X233268Y561221D02*
Y564764D01*
X221654Y562992D02*
X225197D01*
X223425Y561221D02*
Y564764D01*
X211811Y562992D02*
X215354D01*
X213583Y561221D02*
Y564764D01*
X201969Y562992D02*
X205512D01*
X203740Y561221D02*
Y564764D01*
X192126Y562992D02*
X195669D01*
X193898Y561221D02*
Y564764D01*
X182283Y562992D02*
X185827D01*
X184055Y561221D02*
Y564764D01*
X172441Y562992D02*
X175984D01*
X174213Y561221D02*
Y564764D01*
X241339Y562992D02*
X244882D01*
X243110Y561221D02*
Y564764D01*
X292228Y528000D02*
X295772D01*
X294000Y526228D02*
Y529772D01*
X302228Y528000D02*
X305772D01*
X304000Y526228D02*
Y529772D01*
X312228Y528000D02*
X315772D01*
X314000Y526228D02*
Y529772D01*
X322228Y528000D02*
X325772D01*
X324000Y526228D02*
Y529772D01*
X332228Y528000D02*
X335772D01*
X334000Y526228D02*
Y529772D01*
X287307Y427400D02*
X290850D01*
X289079Y425628D02*
Y429172D01*
X297307Y427402D02*
X300850D01*
X299079Y425630D02*
Y429173D01*
X307307Y427402D02*
X310850D01*
X309079Y425630D02*
Y429173D01*
X317307Y427402D02*
X320850D01*
X319079Y425630D02*
Y429173D01*
X327307Y427402D02*
X330850D01*
X329079Y425630D02*
Y429173D01*
X337307Y427402D02*
X340850D01*
X339079Y425630D02*
Y429173D01*
X347307Y427402D02*
X350850D01*
X349079Y425630D02*
Y429173D01*
X480905Y475394D02*
X487598D01*
X484252Y472047D02*
Y478740D01*
X599016Y475394D02*
X605709D01*
X602362Y472047D02*
Y478740D01*
X510433Y475394D02*
X517126D01*
X513779Y472047D02*
Y478740D01*
X569488Y475394D02*
X576181D01*
X572835Y472047D02*
Y478740D01*
X116240Y166339D02*
X119784D01*
X118012Y164567D02*
Y168110D01*
X51378Y166339D02*
X54921D01*
X53150Y164567D02*
Y168110D01*
X606004Y602756D02*
X609548D01*
X607776Y600984D02*
Y604528D01*
X541142Y602756D02*
X544685D01*
X542913Y600984D02*
Y604528D01*
X226673Y47244D02*
X230216D01*
X228445Y45472D02*
Y49016D01*
X291535Y47244D02*
X295079D01*
X293307Y45472D02*
Y49016D01*
X133169Y47244D02*
X136712D01*
X134941Y45472D02*
Y49016D01*
X198031Y47244D02*
X201575D01*
X199803Y45472D02*
Y49016D01*
X320177Y47244D02*
X323720D01*
X321949Y45472D02*
Y49016D01*
X385039Y47244D02*
X388583D01*
X386811Y45472D02*
Y49016D01*
X588386Y586910D02*
X591929D01*
X590158Y585138D02*
Y588681D01*
X588386Y522047D02*
X591929D01*
X590158Y520276D02*
Y523819D01*
X288110Y330649D02*
X291653D01*
X289882Y328878D02*
Y332421D01*
X288110Y395512D02*
X291653D01*
X289882Y393740D02*
Y397284D01*
X116339Y591535D02*
X119882D01*
X118110Y589764D02*
Y593307D01*
X116339Y615158D02*
X119882D01*
X118110Y613386D02*
Y616929D01*
X225590Y591535D02*
X229134D01*
X227362Y589764D02*
Y593307D01*
X225590Y615158D02*
X229134D01*
X227362Y613386D02*
Y616929D01*
X185508Y291339D02*
X188508D01*
X187008Y289839D02*
Y292839D01*
X205193Y291339D02*
X208193D01*
X206693Y289839D02*
Y292839D01*
X306496Y611221D02*
X310039D01*
X308268Y609449D02*
Y612992D01*
X306496Y591535D02*
X310039D01*
X308268Y589764D02*
Y593307D01*
X505523Y649586D02*
X509067D01*
X507295Y647815D02*
Y651358D01*
X495523Y649586D02*
X499067D01*
X497295Y647815D02*
Y651358D01*
X485523Y649586D02*
X489067D01*
X487295Y647815D02*
Y651358D01*
X475523Y649586D02*
X479067D01*
X477295Y647815D02*
Y651358D01*
X465523Y649586D02*
X469067D01*
X467295Y647815D02*
Y651358D01*
X455838Y649586D02*
X459382D01*
X457610Y647815D02*
Y651358D01*
X445838Y649586D02*
X449382D01*
X447610Y647815D02*
Y651358D01*
X435838Y649586D02*
X439382D01*
X437610Y647815D02*
Y651358D01*
X425838Y649586D02*
X429382D01*
X427610Y647815D02*
Y651358D01*
X415838Y649586D02*
X419382D01*
X417610Y647815D02*
Y651358D01*
X405838Y649586D02*
X409382D01*
X407610Y647815D02*
Y651358D01*
X395996Y649586D02*
X399539D01*
X397767Y647815D02*
Y651358D01*
X386153Y649586D02*
X389697D01*
X387925Y647815D02*
Y651358D01*
X376153Y649586D02*
X379697D01*
X377925Y647815D02*
Y651358D01*
X366153Y649586D02*
X369697D01*
X367925Y647815D02*
Y651358D01*
X356153Y649586D02*
X359697D01*
X357925Y647815D02*
Y651358D01*
X346153Y649586D02*
X349697D01*
X347925Y647815D02*
Y651358D01*
X336153Y649586D02*
X339697D01*
X337925Y647815D02*
Y651358D01*
X326153Y649586D02*
X329697D01*
X327925Y647815D02*
Y651358D01*
X316153Y649586D02*
X319697D01*
X317925Y647815D02*
Y651358D01*
X11496Y280945D02*
X18583D01*
X15039Y277402D02*
Y284488D01*
X11496Y320945D02*
X18583D01*
X15039Y317402D02*
Y324488D01*
X33268Y290945D02*
X36811D01*
X35039Y289173D02*
Y292717D01*
X33268Y300945D02*
X36811D01*
X35039Y299173D02*
Y302716D01*
X74445Y49055D02*
X77445D01*
X75945Y47555D02*
Y50555D01*
X84445Y59055D02*
X87445D01*
X85945Y57555D02*
Y60555D01*
X64445Y59055D02*
X67445D01*
X65945Y57555D02*
Y60555D01*
X68539Y294449D02*
X71539D01*
X70039Y292949D02*
Y295949D01*
X58539Y304449D02*
X61539D01*
X60039Y302949D02*
Y305949D01*
X58539Y284449D02*
X61539D01*
X60039Y282949D02*
Y285949D01*
X269012Y231457D02*
X272012D01*
X270512Y229957D02*
Y232957D01*
X259012Y221457D02*
X262012D01*
X260512Y219957D02*
Y222957D01*
X279012Y221457D02*
X282012D01*
X280512Y219957D02*
Y222957D01*
X143342Y266575D02*
X146343D01*
X144843Y265075D02*
Y268075D01*
X153342Y276575D02*
X156342D01*
X154842Y275075D02*
Y278075D01*
X133343Y276575D02*
X136343D01*
X134843Y275075D02*
Y278075D01*
X312634Y275748D02*
X315634D01*
X314134Y274248D02*
Y277248D01*
X302634Y285748D02*
X305634D01*
X304134Y284248D02*
Y287248D01*
X302634Y265748D02*
X305634D01*
X304134Y264248D02*
Y267248D01*
X344130Y275748D02*
X347130D01*
X345630Y274248D02*
Y277248D01*
X334130Y285748D02*
X337130D01*
X335630Y284248D02*
Y287248D01*
X334130Y265748D02*
X337130D01*
X335630Y264248D02*
Y267248D01*
X279724Y13780D02*
X283268D01*
X281496Y12008D02*
Y15551D01*
X269724Y13780D02*
X273268D01*
X271496Y12008D02*
Y15551D01*
X259724Y13780D02*
X263268D01*
X261496Y12008D02*
Y15551D01*
X249724Y13780D02*
X253268D01*
X251496Y12008D02*
Y15551D01*
X239724Y13780D02*
X243268D01*
X241496Y12008D02*
Y15551D01*
X554882Y627165D02*
X558661D01*
X556772Y625276D02*
Y629055D01*
X533937Y627165D02*
X537716D01*
X535827Y625276D02*
Y629055D01*
X544410Y627165D02*
X548189D01*
X546299Y625276D02*
Y629055D01*
X643780Y355728D02*
X647559D01*
X645669Y353839D02*
Y357618D01*
X643780Y376673D02*
X647559D01*
X645669Y374783D02*
Y378563D01*
X643780Y366201D02*
X647559D01*
X645669Y364311D02*
Y368091D01*
X643780Y260354D02*
X647559D01*
X645669Y258465D02*
Y262244D01*
X643780Y281299D02*
X647559D01*
X645669Y279409D02*
Y283189D01*
X643780Y270827D02*
X647559D01*
X645669Y268937D02*
Y272716D01*
X643780Y164980D02*
X647559D01*
X645669Y163091D02*
Y166870D01*
X643780Y185925D02*
X647559D01*
X645669Y184035D02*
Y187815D01*
X643780Y175453D02*
X647559D01*
X645669Y173563D02*
Y177342D01*
X166063Y649606D02*
X169843D01*
X167953Y647717D02*
Y651496D01*
X145118Y649606D02*
X148898D01*
X147008Y647717D02*
Y651496D01*
X155591Y649606D02*
X159370D01*
X157480Y647717D02*
Y651496D01*
X234606Y649606D02*
X238386D01*
X236496Y647717D02*
Y651496D01*
X213661Y649606D02*
X217441D01*
X215551Y647717D02*
Y651496D01*
X224134Y649606D02*
X227913D01*
X226024Y647717D02*
Y651496D01*
X643780Y451102D02*
X647559D01*
X645669Y449213D02*
Y452992D01*
X643780Y472047D02*
X647559D01*
X645669Y470157D02*
Y473937D01*
X643780Y461575D02*
X647559D01*
X645669Y459685D02*
Y463464D01*
X23753Y375984D02*
X27533D01*
X25643Y374095D02*
Y377874D01*
X23753Y355039D02*
X27533D01*
X25643Y353150D02*
Y356929D01*
X23753Y365512D02*
X27533D01*
X25643Y363622D02*
Y367402D01*
X643780Y69606D02*
X647559D01*
X645669Y67716D02*
Y71496D01*
X643780Y90551D02*
X647559D01*
X645669Y88661D02*
Y92441D01*
X643780Y80079D02*
X647559D01*
X645669Y78189D02*
Y81968D01*
X46654Y596063D02*
X58465D01*
X52559Y590158D02*
Y601968D01*
X57480Y614961D02*
X71260D01*
X64370Y608071D02*
Y621850D01*
X33858Y614961D02*
X45669D01*
X39764Y609055D02*
Y620866D01*
X622008Y627165D02*
X626024D01*
X624016Y625157D02*
Y629173D01*
X12008Y75787D02*
X15551D01*
X13780Y74016D02*
Y77559D01*
X12008Y85787D02*
X15551D01*
X13780Y84016D02*
Y87559D01*
X12008Y134016D02*
X15551D01*
X13780Y132244D02*
Y135787D01*
X12008Y124016D02*
X15551D01*
X13780Y122244D02*
Y125787D01*
X10039Y226378D02*
X13583D01*
X11811Y224606D02*
Y228150D01*
X10039Y236378D02*
X13583D01*
X11811Y234606D02*
Y238150D01*
X10039Y176024D02*
X13583D01*
X11811Y174252D02*
Y177795D01*
X10039Y186024D02*
X13583D01*
X11811Y184252D02*
Y187795D01*
X598779Y627165D02*
X602323D01*
X600551Y625394D02*
Y628937D01*
X588779Y627165D02*
X592323D01*
X590551Y625394D02*
Y628937D01*
X513307Y343701D02*
X516850D01*
X515079Y341929D02*
Y345472D01*
X518307Y343701D02*
X521850D01*
X520079Y341929D02*
Y345472D01*
X523307Y343701D02*
X526850D01*
X525079Y341929D02*
Y345472D01*
X514882Y144877D02*
X518425D01*
X516653Y143105D02*
Y146648D01*
X519882Y144877D02*
X523425D01*
X521654Y143105D02*
Y146648D01*
X524882Y144877D02*
X528425D01*
X526653Y143105D02*
Y146648D01*
X514094Y242520D02*
X517638D01*
X515866Y240748D02*
Y244291D01*
X519095Y242520D02*
X522638D01*
X520866Y240748D02*
Y244291D01*
X524094Y242520D02*
X527638D01*
X525866Y240748D02*
Y244291D01*
X514882Y24803D02*
X518425D01*
X516653Y23031D02*
Y26575D01*
X519882Y24803D02*
X523425D01*
X521654Y23031D02*
Y26575D01*
X524882Y24803D02*
X528425D01*
X526653Y23031D02*
Y26575D01*
X201929Y200787D02*
X205945D01*
X203937Y198779D02*
Y202795D01*
X77126Y343701D02*
X81142D01*
X79134Y341693D02*
Y345709D01*
X626732Y329921D02*
X630748D01*
X628740Y327913D02*
Y331929D01*
X291299Y115354D02*
X295315D01*
X293307Y113347D02*
Y117362D01*
X76578Y363946D02*
X80594D01*
X78586Y361938D02*
Y365954D01*
X200354Y304724D02*
X204370D01*
X202362Y302716D02*
Y306732D01*
X90512Y565354D02*
X94528D01*
X92520Y563346D02*
Y567362D01*
X176732Y329921D02*
X180748D01*
X178740Y327913D02*
Y331929D01*
X208228Y115354D02*
X212244D01*
X210236Y113347D02*
Y117362D01*
X168465Y304724D02*
X172480D01*
X170472Y302716D02*
Y306732D01*
X279488Y291339D02*
X283504D01*
X281496Y289331D02*
Y293346D01*
X34646Y555118D02*
X38189D01*
X36417Y553346D02*
Y556890D01*
X34646Y565118D02*
X38189D01*
X36417Y563346D02*
Y566890D01*
X495228Y591000D02*
X498772D01*
X497000Y589228D02*
Y592772D01*
X525228Y591000D02*
X528772D01*
X527000Y589228D02*
Y592772D01*
X525228Y581000D02*
X528772D01*
X527000Y579228D02*
Y582772D01*
X495228Y581000D02*
X498772D01*
X497000Y579228D02*
Y582772D01*
X66890Y209724D02*
X70433D01*
X68661Y207953D02*
Y211496D01*
X66890Y199724D02*
X70433D01*
X68661Y197953D02*
Y201496D01*
X96890Y199724D02*
X100433D01*
X98661Y197953D02*
Y201496D01*
X96890Y209724D02*
X100433D01*
X98661Y207953D02*
Y211496D01*
X95945Y649606D02*
X100276D01*
X98110Y647441D02*
Y651772D01*
X115945Y649606D02*
X120275D01*
X118110Y647441D02*
Y651772D01*
X369291Y465866D02*
X372835D01*
X371063Y464094D02*
Y467638D01*
X369291Y455866D02*
X372835D01*
X371063Y454095D02*
Y457638D01*
X369291Y475866D02*
X372835D01*
X371063Y474094D02*
Y477638D01*
X369291Y485866D02*
X372835D01*
X371063Y484094D02*
Y487638D01*
X369291Y495866D02*
X372835D01*
X371063Y494095D02*
Y497638D01*
X369291Y505866D02*
X372835D01*
X371063Y504095D02*
Y507638D01*
X369291Y445866D02*
X372835D01*
X371063Y444095D02*
Y447638D01*
X23625Y422913D02*
X27169D01*
X25397Y421142D02*
Y424685D01*
X23625Y452913D02*
X27169D01*
X25397Y451142D02*
Y454685D01*
X23625Y462913D02*
X27169D01*
X25397Y461142D02*
Y464685D01*
X23625Y472913D02*
X27169D01*
X25397Y471142D02*
Y474685D01*
X23625Y432913D02*
X27169D01*
X25397Y431142D02*
Y434685D01*
X23625Y442913D02*
X27169D01*
X25397Y441142D02*
Y444685D01*
X111181Y319882D02*
X115197D01*
X113189Y317874D02*
Y321890D01*
X204685Y144685D02*
X208701D01*
X206693Y142677D02*
Y146693D01*
X383819Y158465D02*
X387835D01*
X385827Y156457D02*
Y160472D01*
X13780Y19685D02*
X25591D01*
X19685Y13780D02*
Y25591D01*
X643701Y19685D02*
X655512D01*
X649606Y13780D02*
Y25591D01*
X643701Y653937D02*
X655512D01*
X649606Y648032D02*
Y659842D01*
X415551Y474409D02*
X416732D01*
X416142Y473819D02*
Y475000D01*
X45276Y211614D02*
X46457D01*
X45866Y211024D02*
Y212205D01*
X49409Y254331D02*
X50591D01*
X50000Y253740D02*
Y254921D01*
X82284Y149114D02*
X83465D01*
X82874Y148524D02*
Y149705D01*
X70768Y136319D02*
X71949D01*
X71358Y135728D02*
Y136909D01*
X81102Y76279D02*
X82284D01*
X81693Y75689D02*
Y76870D01*
X64961Y120965D02*
X66142D01*
X65551Y120374D02*
Y121555D01*
X89567Y109843D02*
X90748D01*
X90158Y109252D02*
Y110433D01*
X71850Y155118D02*
X73032D01*
X72441Y154528D02*
Y155709D01*
X76772Y28642D02*
X77953D01*
X77362Y28051D02*
Y29232D01*
X127362Y312992D02*
X128543D01*
X127953Y312402D02*
Y313583D01*
X98228Y316929D02*
X99410D01*
X98819Y316339D02*
Y317520D01*
X104429Y299902D02*
X105610D01*
X105020Y299311D02*
Y300492D01*
X99803Y308071D02*
X100984D01*
X100394Y307480D02*
Y308661D01*
X109449Y71752D02*
X110630D01*
X110039Y71161D02*
Y72342D01*
X134941Y181299D02*
X136122D01*
X135531Y180709D02*
Y181890D01*
X126969Y87008D02*
X128150D01*
X127559Y86417D02*
Y87598D01*
X145571Y147343D02*
X146752D01*
X146161Y146752D02*
Y147933D01*
X151378Y134646D02*
X152559D01*
X151969Y134055D02*
Y135236D01*
X126083Y66240D02*
X127264D01*
X126673Y65650D02*
Y66831D01*
X114764Y108268D02*
X115945D01*
X115354Y107677D02*
Y108858D01*
X153347Y526378D02*
X154528D01*
X153937Y525787D02*
Y526968D01*
X133169Y536909D02*
X134350D01*
X133760Y536319D02*
Y537500D01*
X123425Y535827D02*
X124606D01*
X124016Y535236D02*
Y536417D01*
X36811Y155512D02*
X37992D01*
X37402Y154921D02*
Y156102D01*
X106398Y219587D02*
X107579D01*
X106988Y218996D02*
Y220177D01*
X109843Y249606D02*
X111024D01*
X110433Y249016D02*
Y250197D01*
X92028Y243504D02*
X93209D01*
X92618Y242913D02*
Y244094D01*
X135728Y235236D02*
X136909D01*
X136319Y234646D02*
Y235827D01*
X128937Y248524D02*
X130118D01*
X129528Y247933D02*
Y249114D01*
X126378Y211713D02*
X127559D01*
X126969Y211122D02*
Y212303D01*
X114567Y234252D02*
X115748D01*
X115157Y233661D02*
Y234842D01*
X138598Y196063D02*
X139779D01*
X139189Y195472D02*
Y196653D01*
X97457Y274311D02*
X98638D01*
X98047Y273721D02*
Y274902D01*
X122441Y330709D02*
X123622D01*
X123031Y330118D02*
Y331299D01*
X43898Y362992D02*
X45079D01*
X44488Y362402D02*
Y363583D01*
X100618Y343674D02*
X101799D01*
X101208Y343083D02*
Y344264D01*
X135236Y386811D02*
X136417D01*
X135827Y386221D02*
Y387402D01*
X126181Y362598D02*
X127362D01*
X126772Y362008D02*
Y363189D01*
X116732Y390158D02*
X117913D01*
X117323Y389567D02*
Y390748D01*
X112795Y394488D02*
X113976D01*
X113386Y393898D02*
Y395079D01*
X38386Y370472D02*
X39567D01*
X38976Y369882D02*
Y371063D01*
X155905Y335630D02*
X157087D01*
X156496Y335039D02*
Y336221D01*
X150984Y341535D02*
X152165D01*
X151575Y340945D02*
Y342126D01*
X37598Y484646D02*
X38780D01*
X38189Y484055D02*
Y485236D01*
X93504Y426772D02*
X94685D01*
X94095Y426181D02*
Y427362D01*
X143110Y429134D02*
X144291D01*
X143701Y428543D02*
Y429724D01*
X130512Y478740D02*
X131693D01*
X131102Y478150D02*
Y479331D01*
X38780Y444095D02*
X39961D01*
X39370Y443504D02*
Y444685D01*
X162795Y166142D02*
X163976D01*
X163386Y165551D02*
Y166732D01*
X160039Y292126D02*
X161221D01*
X160630Y291535D02*
Y292717D01*
X179724Y270866D02*
X180905D01*
X180315Y270276D02*
Y271457D01*
X173031Y282677D02*
X174213D01*
X173622Y282087D02*
Y283268D01*
X169685Y255906D02*
X170866D01*
X170276Y255315D02*
Y256496D01*
X168307Y296457D02*
X169488D01*
X168898Y295866D02*
Y297047D01*
X129331Y572835D02*
X130512D01*
X129921Y572244D02*
Y573425D01*
X390354Y565748D02*
X391535D01*
X390945Y565158D02*
Y566339D01*
X386847Y363555D02*
X388029D01*
X387438Y362965D02*
Y364146D01*
X259252Y364567D02*
X260433D01*
X259842Y363976D02*
Y365158D01*
X252953Y360236D02*
X254134D01*
X253543Y359646D02*
Y360827D01*
X362598Y375000D02*
X363779D01*
X363189Y374410D02*
Y375590D01*
X311417Y443898D02*
X312598D01*
X312008Y443307D02*
Y444488D01*
X300197Y403150D02*
X301378D01*
X300787Y402559D02*
Y403740D01*
X388386Y524016D02*
X389567D01*
X388976Y523425D02*
Y524606D01*
X276181Y491732D02*
X277362D01*
X276772Y491142D02*
Y492323D01*
X410039Y474409D02*
X411221D01*
X410630Y473819D02*
Y475000D01*
X409646Y496457D02*
X410827D01*
X410236Y495866D02*
Y497047D01*
X293504Y497244D02*
X294685D01*
X294094Y496654D02*
Y497835D01*
X303660Y149526D02*
X304841D01*
X304251Y148936D02*
Y150117D01*
X268406Y175394D02*
X269587D01*
X268996Y174803D02*
Y175984D01*
X322638Y147244D02*
X323819D01*
X323228Y146653D02*
Y147835D01*
X244685Y193307D02*
X245866D01*
X245276Y192717D02*
Y193898D01*
X271063Y163386D02*
X272244D01*
X271654Y162795D02*
Y163976D01*
X404134Y409449D02*
X405315D01*
X404724Y408858D02*
Y410039D01*
X407677Y412992D02*
X408858D01*
X408268Y412402D02*
Y413583D01*
X399197Y425527D02*
X400378D01*
X399787Y424936D02*
Y426117D01*
X268701Y333858D02*
X269882D01*
X269291Y333268D02*
Y334449D01*
X277953Y276575D02*
X279134D01*
X278543Y275984D02*
Y277165D01*
X264370Y322457D02*
X265551D01*
X264961Y321866D02*
Y323047D01*
X250984Y323228D02*
X252165D01*
X251575Y322638D02*
Y323819D01*
X223425Y543307D02*
X224606D01*
X224016Y542717D02*
Y543898D01*
X255315Y476378D02*
X256496D01*
X255906Y475787D02*
Y476968D01*
X250197Y496850D02*
X251378D01*
X250787Y496260D02*
Y497441D01*
X262795Y469685D02*
X263976D01*
X263386Y469095D02*
Y470276D01*
X223425Y531496D02*
X224606D01*
X224016Y530905D02*
Y532087D01*
X163189Y537008D02*
X164370D01*
X163779Y536417D02*
Y537598D01*
X263189Y457677D02*
X264370D01*
X263779Y457087D02*
Y458268D01*
X223031Y485433D02*
X224213D01*
X223622Y484842D02*
Y486024D01*
X239567Y385039D02*
X240748D01*
X240158Y384449D02*
Y385630D01*
X236024Y131102D02*
X237205D01*
X236614Y130512D02*
Y131693D01*
X229724Y308661D02*
X230906D01*
X230315Y308071D02*
Y309252D01*
X226181Y301181D02*
X227362D01*
X226772Y300590D02*
Y301772D01*
X237992Y171653D02*
X239173D01*
X238583Y171063D02*
Y172244D01*
X236811Y162205D02*
X237992D01*
X237402Y161614D02*
Y162795D01*
X224606Y383858D02*
X225787D01*
X225197Y383268D02*
Y384449D01*
X236811Y293307D02*
X237992D01*
X237402Y292717D02*
Y293898D01*
X236417Y259842D02*
X237598D01*
X237008Y259252D02*
Y260433D01*
X233661Y344488D02*
X234842D01*
X234252Y343898D02*
Y345079D01*
X229724Y356299D02*
X230906D01*
X230315Y355709D02*
Y356890D01*
X212598Y129823D02*
X213779D01*
X213189Y129232D02*
Y130413D01*
X211221Y155512D02*
X212402D01*
X211811Y154921D02*
Y156102D01*
X190354Y354331D02*
X191535D01*
X190945Y353740D02*
Y354921D01*
X206102Y317913D02*
X207283D01*
X206693Y317323D02*
Y318504D01*
X205315Y274803D02*
X206496D01*
X205906Y274213D02*
Y275394D01*
X200591Y327953D02*
X201772D01*
X201181Y327362D02*
Y328543D01*
X186024Y172047D02*
X187205D01*
X186614Y171457D02*
Y172638D01*
X202559Y177657D02*
X203740D01*
X203150Y177067D02*
Y178248D01*
X186417Y112205D02*
X187598D01*
X187008Y111614D02*
Y112795D01*
X279331Y107874D02*
X280512D01*
X279921Y107283D02*
Y108465D01*
X373031Y107087D02*
X374213D01*
X373622Y106496D02*
Y107677D01*
X476575Y581890D02*
X477756D01*
X477165Y581299D02*
Y582480D01*
X482087Y581890D02*
X483268D01*
X482677Y581299D02*
Y582480D01*
X470291Y629134D02*
X471472D01*
X470882Y628543D02*
Y629724D01*
X448595Y624830D02*
X449776D01*
X449185Y624240D02*
Y625421D01*
X446654Y601181D02*
X447835D01*
X447244Y600591D02*
Y601772D01*
X392053Y598943D02*
X393234D01*
X392644Y598352D02*
Y599533D01*
X354134Y596457D02*
X355315D01*
X354724Y595866D02*
Y597047D01*
X328543Y611811D02*
X329724D01*
X329134Y611221D02*
Y612402D01*
X554134Y62205D02*
X555315D01*
X554724Y61614D02*
Y62795D01*
X613583Y332677D02*
X614764D01*
X614173Y332087D02*
Y333268D01*
X601772Y375984D02*
X602953D01*
X602362Y375394D02*
Y376575D01*
X540354Y375197D02*
X541535D01*
X540945Y374606D02*
Y375787D01*
X608661Y134843D02*
X609842D01*
X609252Y134252D02*
Y135433D01*
X605709Y30512D02*
X606890D01*
X606299Y29921D02*
Y31102D01*
X460532Y58366D02*
X461713D01*
X461122Y57776D02*
Y58957D01*
X399803Y579528D02*
X400984D01*
X400394Y578937D02*
Y580118D01*
X415158Y615354D02*
X416339D01*
X415748Y614764D02*
Y615945D01*
X432480Y640945D02*
X433661D01*
X433071Y640354D02*
Y641535D01*
X417520Y584646D02*
X418701D01*
X418110Y584055D02*
Y585236D01*
X417520Y537008D02*
X418701D01*
X418110Y536417D02*
Y537598D01*
X471358Y359350D02*
X472539D01*
X471949Y358760D02*
Y359941D01*
X464173Y149114D02*
X465354D01*
X464764Y148524D02*
Y149705D01*
X468898Y135827D02*
X470079D01*
X469488Y135236D02*
Y136417D01*
X468405Y253445D02*
X469587D01*
X468996Y252854D02*
Y254035D01*
X548228Y166929D02*
X549409D01*
X548819Y166339D02*
Y167520D01*
X643504Y329921D02*
X644685D01*
X644095Y329331D02*
Y330512D01*
X617913Y156693D02*
X619095D01*
X618504Y156102D02*
Y157283D01*
X618701Y62598D02*
X619882D01*
X619291Y62008D02*
Y63189D01*
X621850Y245276D02*
X623032D01*
X622441Y244685D02*
Y245866D01*
X547047Y269685D02*
X548228D01*
X547638Y269094D02*
Y270276D01*
X593898Y239173D02*
X595079D01*
X594488Y238583D02*
Y239764D01*
M02*
