G04*
G04 #@! TF.GenerationSoftware,Altium Limited,Altium Designer,21.6.1 (37)*
G04*
G04 Layer_Color=16711935*
%FSLAX25Y25*%
%MOIN*%
G70*
G04*
G04 #@! TF.SameCoordinates,2CCEC8D5-DFE6-49CD-9DF0-9BB73A36F05B*
G04*
G04*
G04 #@! TF.FilePolarity,Positive*
G04*
G01*
G75*
%ADD10C,0.00394*%
%ADD15C,0.00787*%
%ADD16C,0.00500*%
%ADD111C,0.04724*%
D10*
X395276Y600295D02*
G03*
X395276Y600295I-1969J0D01*
G01*
X144291Y326772D02*
G03*
X144291Y326772I-1969J0D01*
G01*
X72441Y99803D02*
G03*
X72441Y99803I-1969J0D01*
G01*
X178740Y159843D02*
G03*
X178740Y159843I-1969J0D01*
G01*
X350984Y203150D02*
G03*
X350984Y203150I-1969J0D01*
G01*
X253543Y283858D02*
G03*
X253543Y283858I-1969J0D01*
G01*
X527874Y337795D02*
G03*
X512284Y337795I-7795J5906D01*
G01*
X529449Y138971D02*
G03*
X513858Y138971I-7795J5906D01*
G01*
X528661Y236614D02*
G03*
X513071Y236614I-7795J5906D01*
G01*
X529449Y18898D02*
G03*
X513858Y18898I-7795J5906D01*
G01*
X505110Y592299D02*
G03*
X505110Y592299I-1969J0D01*
G01*
X76772Y211024D02*
G03*
X76772Y211024I-1969J0D01*
G01*
X338976Y150000D02*
X367717D01*
X338976Y166929D02*
X367717D01*
Y150000D02*
Y166929D01*
X338976Y150000D02*
Y166929D01*
X381299Y182480D02*
Y211221D01*
X398228Y182480D02*
Y211221D01*
X381299Y182480D02*
X398228D01*
X381299Y211221D02*
X398228D01*
X310433Y179528D02*
Y208268D01*
X327362Y179528D02*
Y208268D01*
X310433Y179528D02*
X327362D01*
X310433Y208268D02*
X327362D01*
X267717Y302756D02*
Y315354D01*
X244094Y302756D02*
Y315354D01*
Y302756D02*
X267717D01*
X244094Y315354D02*
X267717D01*
X389764Y562500D02*
Y603839D01*
X418898Y562500D02*
Y603839D01*
X389764D02*
X418898D01*
X389764Y562500D02*
X418898D01*
X138779Y295669D02*
X154527D01*
X138779Y330315D02*
X154527D01*
Y295669D02*
Y330315D01*
X138779Y295669D02*
Y330315D01*
X66929Y83661D02*
X82677D01*
X66929Y103347D02*
X82677D01*
Y83661D02*
Y103347D01*
X66929Y83661D02*
Y103347D01*
X173228Y143701D02*
X188976D01*
X173228Y163386D02*
X188976D01*
Y143701D02*
Y163386D01*
X173228Y143701D02*
Y163386D01*
X345472Y187008D02*
X361221D01*
X345472Y206693D02*
X361221D01*
Y187008D02*
Y206693D01*
X345472Y187008D02*
Y206693D01*
X248031Y267717D02*
X263779D01*
X248031Y287402D02*
X263779D01*
Y267717D02*
Y287402D01*
X248031Y267717D02*
Y287402D01*
X121555Y230315D02*
X128445D01*
X121555Y218504D02*
X128445D01*
X121555D02*
Y230315D01*
X128445Y218504D02*
Y230315D01*
X532693Y255403D02*
X541354D01*
X532693Y250088D02*
X541354D01*
Y255403D01*
X532693Y250088D02*
Y255403D01*
X535252Y153445D02*
X543913D01*
X535252Y148130D02*
X543913D01*
Y153445D01*
X535252Y148130D02*
Y153445D01*
X532693Y360776D02*
X541354D01*
X532693Y355461D02*
X541354D01*
Y360776D01*
X532693Y355461D02*
Y360776D01*
X362717Y360276D02*
Y368937D01*
X357402Y360276D02*
Y368937D01*
Y360276D02*
X362717D01*
X357402Y368937D02*
X362717D01*
X532693Y44657D02*
X541354D01*
X532693Y39342D02*
X541354D01*
Y44657D01*
X532693Y39342D02*
Y44657D01*
X475752Y279329D02*
Y331337D01*
X592248Y279329D02*
Y331337D01*
X475752D02*
X592248D01*
X475752Y279329D02*
X592248D01*
X475752Y174663D02*
Y226671D01*
X592248Y174663D02*
Y226671D01*
X475752D02*
X592248D01*
X475752Y174663D02*
X592248D01*
X475752Y383996D02*
Y436004D01*
X592248Y383996D02*
Y436004D01*
X475752D02*
X592248D01*
X475752Y383996D02*
X592248D01*
X475752Y69996D02*
Y122004D01*
X592248Y69996D02*
Y122004D01*
X475752D02*
X592248D01*
X475752Y69996D02*
X592248D01*
X184843Y224656D02*
Y245817D01*
Y224656D02*
X190600Y218898D01*
X197047D01*
Y251575D01*
X190600D02*
X197047D01*
X184843Y245817D02*
X190600Y251575D01*
X147898Y359419D02*
Y380581D01*
Y359419D02*
X153656Y353661D01*
X160102D01*
Y386339D01*
X153656D02*
X160102D01*
X147898Y380581D02*
X153656Y386339D01*
X250315Y79971D02*
Y101132D01*
Y79971D02*
X256073Y74213D01*
X262520D01*
Y106890D01*
X256073D02*
X262520D01*
X250315Y101132D02*
X256073Y106890D01*
X158268Y79971D02*
Y101132D01*
Y79971D02*
X164026Y74213D01*
X170473D01*
Y106890D01*
X164026D02*
X170473D01*
X158268Y101132D02*
X164026Y106890D01*
X342362Y79971D02*
Y101132D01*
Y79971D02*
X348120Y74213D01*
X354567D01*
Y106890D01*
X348120D02*
X354567D01*
X342362Y101132D02*
X348120Y106890D01*
X316703Y371890D02*
X337864D01*
X310945Y366132D02*
X316703Y371890D01*
X310945Y359685D02*
Y366132D01*
Y359685D02*
X343622D01*
Y366132D01*
X337864Y371890D02*
X343622Y366132D01*
X142520Y220866D02*
X148819D01*
X142520Y208268D02*
X148819D01*
Y220866D01*
X142520Y208268D02*
Y220866D01*
X45669Y90354D02*
Y96653D01*
X33071Y90354D02*
Y96653D01*
Y90354D02*
X45669D01*
X33071Y96653D02*
X45669D01*
X106890Y277362D02*
Y283661D01*
X119488Y277362D02*
Y283661D01*
X106890D02*
X119488D01*
X106890Y277362D02*
X119488D01*
X45669Y109055D02*
Y115354D01*
X33071Y109055D02*
Y115354D01*
Y109055D02*
X45669D01*
X33071Y115354D02*
X45669D01*
X239567Y232087D02*
Y238386D01*
X226969Y232087D02*
Y238386D01*
Y232087D02*
X239567D01*
X226969Y238386D02*
X239567D01*
X112598Y38189D02*
Y44488D01*
X100000Y38189D02*
Y44488D01*
Y38189D02*
X112598D01*
X100000Y44488D02*
X112598D01*
X100000Y58858D02*
Y65158D01*
X112598Y58858D02*
Y65158D01*
X100000D02*
X112598D01*
X100000Y58858D02*
X112598D01*
X226830Y282283D02*
X233129D01*
X226830Y269685D02*
X233129D01*
Y282283D01*
X226830Y269685D02*
Y282283D01*
X155020Y599409D02*
Y607283D01*
X159941Y599409D02*
Y607283D01*
X155020Y599409D02*
X159941D01*
X155020Y607283D02*
X159941D01*
X185531Y599409D02*
Y607283D01*
X190453Y599409D02*
Y607283D01*
X185531Y599409D02*
X190453D01*
X185531Y607283D02*
X190453D01*
X275020Y599409D02*
Y607283D01*
X279941Y599409D02*
Y607283D01*
X275020Y599409D02*
X279941D01*
X275020Y607283D02*
X279941D01*
X111122Y83957D02*
X118996D01*
X111122Y88878D02*
X118996D01*
Y83957D02*
Y88878D01*
X111122Y83957D02*
Y88878D01*
X108268Y346949D02*
X116142D01*
X108268Y342028D02*
X116142D01*
X108268D02*
Y346949D01*
X116142Y342028D02*
Y346949D01*
X186024Y263287D02*
X193898D01*
X186024Y268209D02*
X193898D01*
Y263287D02*
Y268209D01*
X186024Y263287D02*
Y268209D01*
X100787Y105807D02*
X108661D01*
X100787Y110728D02*
X108661D01*
Y105807D02*
Y110728D01*
X100787Y105807D02*
Y110728D01*
X150063Y393539D02*
X157937D01*
X150063Y398461D02*
X157937D01*
Y393539D02*
Y398461D01*
X150063Y393539D02*
Y398461D01*
X223425Y163878D02*
X231299D01*
X223425Y168799D02*
X231299D01*
Y163878D02*
Y168799D01*
X223425Y163878D02*
Y168799D01*
X203740Y341043D02*
X211614D01*
X203740Y345965D02*
X211614D01*
Y341043D02*
Y345965D01*
X203740Y341043D02*
Y345965D01*
X100394Y132382D02*
X108268D01*
X100394Y127461D02*
X108268D01*
X100394D02*
Y132382D01*
X108268Y127461D02*
Y132382D01*
X108268Y304626D02*
X116142D01*
X108268Y309547D02*
X116142D01*
Y304626D02*
Y309547D01*
X108268Y304626D02*
Y309547D01*
X33465Y77264D02*
X41339D01*
X33465Y72342D02*
X41339D01*
X33465D02*
Y77264D01*
X41339Y72342D02*
Y77264D01*
X89567Y235728D02*
X97441D01*
X89567Y230807D02*
X97441D01*
X89567D02*
Y235728D01*
X97441Y230807D02*
Y235728D01*
X66929D02*
X74803D01*
X66929Y230807D02*
X74803D01*
X66929D02*
Y235728D01*
X74803Y230807D02*
Y235728D01*
X228346Y189469D02*
X236221D01*
X228346Y194390D02*
X236221D01*
Y189469D02*
Y194390D01*
X228346Y189469D02*
Y194390D01*
X247047Y145177D02*
X254921D01*
X247047Y140256D02*
X254921D01*
X247047D02*
Y145177D01*
X254921Y140256D02*
Y145177D01*
X53150Y444390D02*
X61024D01*
X53150Y439468D02*
X61024D01*
X53150D02*
Y444390D01*
X61024Y439468D02*
Y444390D01*
X384350Y617717D02*
Y625591D01*
X379429Y617717D02*
Y625591D01*
X384350D01*
X379429Y617717D02*
X384350D01*
X403248D02*
Y625591D01*
X398327Y617717D02*
Y625591D01*
X403248D01*
X398327Y617717D02*
X403248D01*
X424114D02*
Y625591D01*
X419193Y617717D02*
Y625591D01*
X424114D01*
X419193Y617717D02*
X424114D01*
X79724Y127461D02*
X87598D01*
X79724Y132382D02*
X87598D01*
Y127461D02*
Y132382D01*
X79724Y127461D02*
Y132382D01*
X223425Y145177D02*
X231299D01*
X223425Y140256D02*
X231299D01*
X223425D02*
Y145177D01*
X231299Y140256D02*
Y145177D01*
X146461Y544063D02*
Y551937D01*
X141539Y544063D02*
Y551937D01*
X146461D01*
X141539Y544063D02*
X146461D01*
X116461D02*
Y551937D01*
X111539Y544063D02*
Y551937D01*
X116461D01*
X111539Y544063D02*
X116461D01*
X106461D02*
Y551937D01*
X101539Y544063D02*
Y551937D01*
X106461D01*
X101539Y544063D02*
X106461D01*
X216461Y542063D02*
Y549937D01*
X211539Y542063D02*
Y549937D01*
X216461D01*
X211539Y542063D02*
X216461D01*
X236461D02*
Y549937D01*
X231539Y542063D02*
Y549937D01*
X236461D01*
X231539Y542063D02*
X236461D01*
X237697Y395669D02*
Y403543D01*
X242618Y395669D02*
Y403543D01*
X237697Y395669D02*
X242618D01*
X237697Y403543D02*
X242618D01*
X222933Y396654D02*
Y404528D01*
X227854Y396654D02*
Y404528D01*
X222933Y396654D02*
X227854D01*
X222933Y404528D02*
X227854D01*
X121539Y406063D02*
Y413937D01*
X126461Y406063D02*
Y413937D01*
X121539Y406063D02*
X126461D01*
X121539Y413937D02*
X126461D01*
X111539Y406063D02*
Y413937D01*
X116461Y406063D02*
Y413937D01*
X111539Y406063D02*
X116461D01*
X111539Y413937D02*
X116461D01*
X182087Y315453D02*
X189961D01*
X182087Y320374D02*
X189961D01*
Y315453D02*
Y320374D01*
X182087Y315453D02*
Y320374D01*
X109252Y289764D02*
Y296850D01*
X115157Y289764D02*
Y296850D01*
X109252D02*
X115157D01*
X109252Y289764D02*
X115157D01*
X202756Y161811D02*
Y168898D01*
X208661Y161811D02*
Y168898D01*
X202756D02*
X208661D01*
X202756Y161811D02*
X208661D01*
X32480Y162795D02*
Y169882D01*
X38386Y162795D02*
Y169882D01*
X32480D02*
X38386D01*
X32480Y162795D02*
X38386D01*
X128150Y191732D02*
Y198819D01*
X122244Y191732D02*
Y198819D01*
Y191732D02*
X128150D01*
X122244Y198819D02*
X128150D01*
X513583Y609055D02*
Y616142D01*
X507677Y609055D02*
Y616142D01*
Y609055D02*
X513583D01*
X507677Y616142D02*
X513583D01*
X478543Y587402D02*
Y594488D01*
X484449Y587402D02*
Y594488D01*
X478543D02*
X484449D01*
X478543Y587402D02*
X484449D01*
X228346Y208071D02*
Y215158D01*
X234252Y208071D02*
Y215158D01*
X228346D02*
X234252D01*
X228346Y208071D02*
X234252D01*
X337402Y615945D02*
X344488D01*
X337402Y610039D02*
X344488D01*
Y615945D01*
X337402Y610039D02*
Y615945D01*
X245079Y161811D02*
Y168898D01*
X250984Y161811D02*
Y168898D01*
X245079D02*
X250984D01*
X245079Y161811D02*
X250984D01*
X572638Y149245D02*
X579724D01*
X572638Y143340D02*
X579724D01*
Y149245D01*
X572638Y143340D02*
Y149245D01*
Y356594D02*
X579724D01*
X572638Y350689D02*
X579724D01*
Y356594D01*
X572638Y350689D02*
Y356594D01*
Y252920D02*
X579724D01*
X572638Y247014D02*
X579724D01*
Y252920D01*
X572638Y247014D02*
Y252920D01*
X299606Y85630D02*
X306693D01*
X299606Y91535D02*
X306693D01*
X299606Y85630D02*
Y91535D01*
X306693Y85630D02*
Y91535D01*
X116142Y330118D02*
Y337205D01*
X110236Y330118D02*
Y337205D01*
Y330118D02*
X116142D01*
X110236Y337205D02*
X116142D01*
X205118Y84646D02*
X212205D01*
X205118Y90551D02*
X212205D01*
X205118Y84646D02*
Y90551D01*
X212205Y84646D02*
Y90551D01*
X487811Y40457D02*
Y47543D01*
X493716Y40457D02*
Y47543D01*
X487811D02*
X493716D01*
X487811Y40457D02*
X493716D01*
X487811Y250525D02*
Y257611D01*
X493716Y250525D02*
Y257611D01*
X487811D02*
X493716D01*
X487811Y250525D02*
X493716D01*
X487205Y155118D02*
Y162205D01*
X493110Y155118D02*
Y162205D01*
X487205D02*
X493110D01*
X487205Y155118D02*
X493110D01*
X487811Y355559D02*
Y362646D01*
X493716Y355559D02*
Y362646D01*
X487811D02*
X493716D01*
X487811Y355559D02*
X493716D01*
X393110Y84646D02*
X400197D01*
X393110Y90551D02*
X400197D01*
X393110Y84646D02*
Y90551D01*
X400197Y84646D02*
Y90551D01*
X172244Y339961D02*
Y347047D01*
X178150Y339961D02*
Y347047D01*
X172244D02*
X178150D01*
X172244Y339961D02*
X178150D01*
X374921Y360866D02*
X382008D01*
X374921Y354961D02*
X382008D01*
Y360866D01*
X374921Y354961D02*
Y360866D01*
X374921Y374646D02*
X382008D01*
X374921Y380551D02*
X382008D01*
X374921Y374646D02*
Y380551D01*
X382008Y374646D02*
Y380551D01*
X38386Y511221D02*
Y518307D01*
X44291Y511221D02*
Y518307D01*
X38386D02*
X44291D01*
X38386Y511221D02*
X44291D01*
X281496Y253346D02*
Y260433D01*
X287402Y253346D02*
Y260433D01*
X281496D02*
X287402D01*
X281496Y253346D02*
X287402D01*
X572638Y45571D02*
X579724D01*
X572638Y39665D02*
X579724D01*
Y45571D01*
X572638Y39665D02*
Y45571D01*
X206508Y376134D02*
X217492D01*
X206508Y387866D02*
X217492D01*
X206508Y376134D02*
Y387866D01*
X217492Y376134D02*
Y387866D01*
X184508Y376134D02*
X195492D01*
X184508Y387866D02*
X195492D01*
X184508Y376134D02*
Y387866D01*
X195492Y376134D02*
Y387866D01*
X619016Y622165D02*
Y632165D01*
X629016D01*
Y622165D02*
Y632165D01*
X619016Y622165D02*
X629016D01*
X512284Y337795D02*
X527874D01*
X513858Y138971D02*
X529449D01*
X513071Y236614D02*
X528661D01*
X513858Y18898D02*
X529449D01*
X198937Y195787D02*
X208937D01*
Y205787D01*
X198937D02*
X208937D01*
X198937Y195787D02*
Y205787D01*
X74134Y338701D02*
X84134D01*
Y348701D01*
X74134D02*
X84134D01*
X74134Y338701D02*
Y348701D01*
X623740Y324921D02*
X633740D01*
Y334921D01*
X623740D02*
X633740D01*
X623740Y324921D02*
Y334921D01*
X288307Y110354D02*
X298307D01*
Y120354D01*
X288307D02*
X298307D01*
X288307Y110354D02*
Y120354D01*
X73586Y358946D02*
X83586D01*
Y368946D01*
X73586D02*
X83586D01*
X73586Y358946D02*
Y368946D01*
X197362Y299724D02*
X207362D01*
Y309724D01*
X197362D02*
X207362D01*
X197362Y299724D02*
Y309724D01*
X87520Y560354D02*
X97520D01*
Y570354D01*
X87520D02*
X97520D01*
X87520Y560354D02*
Y570354D01*
X173740Y324921D02*
X183740D01*
Y334921D01*
X173740D02*
X183740D01*
X173740Y324921D02*
Y334921D01*
X205236Y110354D02*
X215236D01*
Y120354D01*
X205236D02*
X215236D01*
X205236Y110354D02*
Y120354D01*
X165472Y299724D02*
X175472D01*
Y309724D01*
X165472D02*
X175472D01*
X165472Y299724D02*
Y309724D01*
X276496Y286339D02*
X286496D01*
Y296339D01*
X276496D02*
X286496D01*
X276496Y286339D02*
Y296339D01*
X499598Y576158D02*
Y595843D01*
X524402Y576158D02*
Y595843D01*
X499598D02*
X524402D01*
X499598Y576158D02*
X524402D01*
X71260Y194882D02*
Y214567D01*
X96063Y194882D02*
Y214567D01*
X71260D02*
X96063D01*
X71260Y194882D02*
X96063D01*
X108189Y314882D02*
Y324882D01*
X118189D01*
Y314882D02*
Y324882D01*
X108189Y314882D02*
X118189D01*
X201693Y139685D02*
X211693D01*
Y149685D01*
X201693D02*
X211693D01*
X201693Y139685D02*
Y149685D01*
X380827Y153464D02*
X390827D01*
Y163464D01*
X380827D02*
X390827D01*
X380827Y153464D02*
Y163464D01*
D15*
X616850Y627165D02*
G03*
X616850Y627165I-394J0D01*
G01*
X196772Y200787D02*
G03*
X196772Y200787I-394J0D01*
G01*
X71969Y343701D02*
G03*
X71969Y343701I-394J0D01*
G01*
X621575Y329921D02*
G03*
X621575Y329921I-394J0D01*
G01*
X286142Y115354D02*
G03*
X286142Y115354I-394J0D01*
G01*
X71421Y363946D02*
G03*
X71421Y363946I-394J0D01*
G01*
X195197Y304724D02*
G03*
X195197Y304724I-394J0D01*
G01*
X85354Y565354D02*
G03*
X85354Y565354I-394J0D01*
G01*
X171575Y329921D02*
G03*
X171575Y329921I-394J0D01*
G01*
X203071Y115354D02*
G03*
X203071Y115354I-394J0D01*
G01*
X163307Y304724D02*
G03*
X163307Y304724I-394J0D01*
G01*
X274331Y291339D02*
G03*
X274331Y291339I-394J0D01*
G01*
X106024Y319882D02*
G03*
X106024Y319882I-394J0D01*
G01*
X199528Y144685D02*
G03*
X199528Y144685I-394J0D01*
G01*
X378661Y158465D02*
G03*
X378661Y158465I-394J0D01*
G01*
D16*
X188189Y407110D02*
Y420890D01*
Y407110D02*
X211811D01*
Y420890D01*
X188189D02*
X211811D01*
X58268Y380709D02*
X81890D01*
X58268D02*
Y404331D01*
X81890D01*
Y380709D02*
Y404331D01*
D111*
X0Y0D02*
X669291D01*
Y669291D01*
X0D02*
X669291D01*
X0Y0D02*
Y669291D01*
M02*
