G04*
G04 #@! TF.GenerationSoftware,Altium Limited,Altium Designer,21.6.1 (37)*
G04*
G04 Layer_Color=8421504*
%FSLAX44Y44*%
%MOMM*%
G71*
G04*
G04 #@! TF.SameCoordinates,E20D9ADD-B448-4F6B-AF7A-840ACA54CB8B*
G04*
G04*
G04 #@! TF.FilePolarity,Positive*
G04*
G01*
G75*
%ADD10C,0.1000*%
%ADD13C,0.2540*%
%ADD15C,0.2000*%
%ADD16C,0.1270*%
%ADD18C,1.2000*%
%ADD19C,0.0500*%
%ADD20R,1.8000X4.4500*%
%ADD21R,4.4500X1.8000*%
%ADD22R,1.8000X3.3500*%
%ADD23O,3.4000X0.5500*%
%ADD24R,1.4500X0.6000*%
%ADD25O,1.2500X0.5500*%
%ADD26R,1.2700X2.5000*%
%ADD27R,1.2700X2.5400*%
%ADD28R,0.8000X0.6000*%
%ADD29R,0.7000X1.0000*%
%ADD30R,1.0000X0.7000*%
%ADD31R,6.4500X13.3000*%
%ADD32R,5.1500X2.4500*%
%ADD33R,2.4500X5.1500*%
%ADD34R,1.6500X1.2000*%
%ADD35R,1.2000X1.6500*%
%ADD36R,1.3000X0.9000*%
%ADD37R,0.9000X1.3000*%
%ADD38R,0.8000X1.8500*%
%ADD39R,1.8500X0.8000*%
%ADD40R,2.9500X1.0000*%
%ADD41R,1.5240X1.5240*%
%ADD42R,1.5240X1.5240*%
%ADD43R,1.6000X2.5000*%
%ADD44R,1.9000X2.6000*%
G04:AMPARAMS|DCode=45|XSize=2.1mm|YSize=1.38mm|CornerRadius=0.1035mm|HoleSize=0mm|Usage=FLASHONLY|Rotation=270.000|XOffset=0mm|YOffset=0mm|HoleType=Round|Shape=RoundedRectangle|*
%AMROUNDEDRECTD45*
21,1,2.1000,1.1730,0,0,270.0*
21,1,1.8930,1.3800,0,0,270.0*
1,1,0.2070,-0.5865,-0.9465*
1,1,0.2070,-0.5865,0.9465*
1,1,0.2070,0.5865,0.9465*
1,1,0.2070,0.5865,-0.9465*
%
%ADD45ROUNDEDRECTD45*%
D10*
X1004000Y1524750D02*
G03*
X1004000Y1524750I-5000J0D01*
G01*
X366500Y830000D02*
G03*
X366500Y830000I-5000J0D01*
G01*
X184000Y253500D02*
G03*
X184000Y253500I-5000J0D01*
G01*
X454000Y406000D02*
G03*
X454000Y406000I-5000J0D01*
G01*
X891500Y516000D02*
G03*
X891500Y516000I-5000J0D01*
G01*
X644000Y721000D02*
G03*
X644000Y721000I-5000J0D01*
G01*
X1340800Y858000D02*
G03*
X1301200Y858000I-19800J15000D01*
G01*
X1344800Y352986D02*
G03*
X1305200Y352986I-19800J15000D01*
G01*
X1342800Y601000D02*
G03*
X1303200Y601000I-19800J15000D01*
G01*
X1344800Y48000D02*
G03*
X1305200Y48000I-19800J15000D01*
G01*
X1282980Y1504440D02*
G03*
X1282980Y1504440I-5000J0D01*
G01*
X195000Y536000D02*
G03*
X195000Y536000I-5000J0D01*
G01*
X861000Y381000D02*
X934000D01*
X861000Y424000D02*
X934000D01*
Y381000D02*
Y424000D01*
X861000Y381000D02*
Y424000D01*
X968500Y463500D02*
Y536500D01*
X1011500Y463500D02*
Y536500D01*
X968500Y463500D02*
X1011500D01*
X968500Y536500D02*
X1011500D01*
X788500Y456000D02*
Y529000D01*
X831500Y456000D02*
Y529000D01*
X788500Y456000D02*
X831500D01*
X788500Y529000D02*
X831500D01*
X680000Y769000D02*
Y801000D01*
X620000Y769000D02*
Y801000D01*
Y769000D02*
X680000D01*
X620000Y801000D02*
X680000D01*
X990000Y1428750D02*
Y1533750D01*
X1064000Y1428750D02*
Y1533750D01*
X990000D02*
X1064000D01*
X990000Y1428750D02*
X1064000D01*
X352500Y751000D02*
X392500D01*
X352500Y839000D02*
X392500D01*
Y751000D02*
Y839000D01*
X352500Y751000D02*
Y839000D01*
X170000Y212500D02*
X210000D01*
X170000Y262500D02*
X210000D01*
Y212500D02*
Y262500D01*
X170000Y212500D02*
Y262500D01*
X440000Y365000D02*
X480000D01*
X440000Y415000D02*
X480000D01*
Y365000D02*
Y415000D01*
X440000Y365000D02*
Y415000D01*
X877500Y475000D02*
X917500D01*
X877500Y525000D02*
X917500D01*
Y475000D02*
Y525000D01*
X877500Y475000D02*
Y525000D01*
X630000Y680000D02*
X670000D01*
X630000Y730000D02*
X670000D01*
Y680000D02*
Y730000D01*
X630000Y680000D02*
Y730000D01*
X308750Y585000D02*
X326250D01*
X308750Y555000D02*
X326250D01*
X308750D02*
Y585000D01*
X326250Y555000D02*
Y585000D01*
X1353040Y648723D02*
X1375040D01*
X1353040Y635223D02*
X1375040D01*
Y648723D01*
X1353040Y635223D02*
Y648723D01*
X1359540Y389750D02*
X1381540D01*
X1359540Y376250D02*
X1381540D01*
Y389750D01*
X1359540Y376250D02*
Y389750D01*
X1353040Y916370D02*
X1375040D01*
X1353040Y902870D02*
X1375040D01*
Y916370D01*
X1353040Y902870D02*
Y916370D01*
X921300Y915100D02*
Y937100D01*
X907800Y915100D02*
Y937100D01*
Y915100D02*
X921300D01*
X907800Y937100D02*
X921300D01*
X1353040Y113430D02*
X1375040D01*
X1353040Y99930D02*
X1375040D01*
Y113430D01*
X1353040Y99930D02*
Y113430D01*
X1208410Y709497D02*
Y841597D01*
X1504310Y709497D02*
Y841597D01*
X1208410D02*
X1504310D01*
X1208410Y709497D02*
X1504310D01*
X1208410Y443643D02*
Y575743D01*
X1504310Y443643D02*
Y575743D01*
X1208410D02*
X1504310D01*
X1208410Y443643D02*
X1504310D01*
X1208410Y975350D02*
Y1107450D01*
X1504310Y975350D02*
Y1107450D01*
X1208410D02*
X1504310D01*
X1208410Y975350D02*
X1504310D01*
X1208410Y177790D02*
Y309890D01*
X1504310Y177790D02*
Y309890D01*
X1208410D02*
X1504310D01*
X1208410Y177790D02*
X1504310D01*
X469500Y570625D02*
Y624375D01*
Y570625D02*
X484125Y556000D01*
X500500D01*
Y639000D01*
X484125D02*
X500500D01*
X469500Y624375D02*
X484125Y639000D01*
X375660Y912925D02*
Y966675D01*
Y912925D02*
X390285Y898300D01*
X406660D01*
Y981300D01*
X390285D02*
X406660D01*
X375660Y966675D02*
X390285Y981300D01*
X635800Y203125D02*
Y256875D01*
Y203125D02*
X650425Y188500D01*
X666800D01*
Y271500D01*
X650425D02*
X666800D01*
X635800Y256875D02*
X650425Y271500D01*
X402000Y203125D02*
Y256875D01*
Y203125D02*
X416625Y188500D01*
X433000D01*
Y271500D01*
X416625D02*
X433000D01*
X402000Y256875D02*
X416625Y271500D01*
X869600Y203125D02*
Y256875D01*
Y203125D02*
X884225Y188500D01*
X900600D01*
Y271500D01*
X884225D02*
X900600D01*
X869600Y256875D02*
X884225Y271500D01*
X804425Y944600D02*
X858175D01*
X789800Y929975D02*
X804425Y944600D01*
X789800Y913600D02*
Y929975D01*
Y913600D02*
X872800D01*
Y929975D01*
X858175Y944600D02*
X872800Y929975D01*
X362000Y561000D02*
X378000D01*
X362000Y529000D02*
X378000D01*
Y561000D01*
X362000Y529000D02*
Y561000D01*
X116000Y229500D02*
Y245500D01*
X84000Y229500D02*
Y245500D01*
Y229500D02*
X116000D01*
X84000Y245500D02*
X116000D01*
X271500Y704500D02*
Y720500D01*
X303500Y704500D02*
Y720500D01*
X271500D02*
X303500D01*
X271500Y704500D02*
X303500D01*
X116000Y277000D02*
Y293000D01*
X84000Y277000D02*
Y293000D01*
Y277000D02*
X116000D01*
X84000Y293000D02*
X116000D01*
X608500Y589500D02*
Y605500D01*
X576500Y589500D02*
Y605500D01*
Y589500D02*
X608500D01*
X576500Y605500D02*
X608500D01*
X286000Y97000D02*
Y113000D01*
X254000Y97000D02*
Y113000D01*
Y97000D02*
X286000D01*
X254000Y113000D02*
X286000D01*
X254000Y149500D02*
Y165500D01*
X286000Y149500D02*
Y165500D01*
X254000D02*
X286000D01*
X254000Y149500D02*
X286000D01*
X576147Y717000D02*
X592147D01*
X576147Y685000D02*
X592147D01*
Y717000D01*
X576147Y685000D02*
Y717000D01*
X393750Y1522500D02*
Y1542500D01*
X406250Y1522500D02*
Y1542500D01*
X393750Y1522500D02*
X406250D01*
X393750Y1542500D02*
X406250D01*
X471250Y1522500D02*
Y1542500D01*
X483750Y1522500D02*
Y1542500D01*
X471250Y1522500D02*
X483750D01*
X471250Y1542500D02*
X483750D01*
X698550Y1522500D02*
Y1542500D01*
X711050Y1522500D02*
Y1542500D01*
X698550Y1522500D02*
X711050D01*
X698550Y1542500D02*
X711050D01*
X282250Y213250D02*
X302250D01*
X282250Y225750D02*
X302250D01*
Y213250D02*
Y225750D01*
X282250Y213250D02*
Y225750D01*
X275000Y881250D02*
X295000D01*
X275000Y868750D02*
X295000D01*
X275000D02*
Y881250D01*
X295000Y868750D02*
Y881250D01*
X472500Y668750D02*
X492500D01*
X472500Y681250D02*
X492500D01*
Y668750D02*
Y681250D01*
X472500Y668750D02*
Y681250D01*
X256000Y268750D02*
X276000D01*
X256000Y281250D02*
X276000D01*
Y268750D02*
Y281250D01*
X256000Y268750D02*
Y281250D01*
X381160Y999590D02*
X401160D01*
X381160Y1012090D02*
X401160D01*
Y999590D02*
Y1012090D01*
X381160Y999590D02*
Y1012090D01*
X567500Y416250D02*
X587500D01*
X567500Y428750D02*
X587500D01*
Y416250D02*
Y428750D01*
X567500Y416250D02*
Y428750D01*
X517500Y866250D02*
X537500D01*
X517500Y878750D02*
X537500D01*
Y866250D02*
Y878750D01*
X517500Y866250D02*
Y878750D01*
X255000Y336250D02*
X275000D01*
X255000Y323750D02*
X275000D01*
X255000D02*
Y336250D01*
X275000Y323750D02*
Y336250D01*
X275000Y773750D02*
X295000D01*
X275000Y786250D02*
X295000D01*
Y773750D02*
Y786250D01*
X275000Y773750D02*
Y786250D01*
X85000Y196250D02*
X105000D01*
X85000Y183750D02*
X105000D01*
X85000D02*
Y196250D01*
X105000Y183750D02*
Y196250D01*
X227500Y598750D02*
X247500D01*
X227500Y586250D02*
X247500D01*
X227500D02*
Y598750D01*
X247500Y586250D02*
Y598750D01*
X170000D02*
X190000D01*
X170000Y586250D02*
X190000D01*
X170000D02*
Y598750D01*
X190000Y586250D02*
Y598750D01*
X580000Y481250D02*
X600000D01*
X580000Y493750D02*
X600000D01*
Y481250D02*
Y493750D01*
X580000Y481250D02*
Y493750D01*
X627500Y368750D02*
X647500D01*
X627500Y356250D02*
X647500D01*
X627500D02*
Y368750D01*
X647500Y356250D02*
Y368750D01*
X135000Y1128750D02*
X155000D01*
X135000Y1116250D02*
X155000D01*
X135000D02*
Y1128750D01*
X155000Y1116250D02*
Y1128750D01*
X976250Y1569000D02*
Y1589000D01*
X963750Y1569000D02*
Y1589000D01*
X976250D01*
X963750Y1569000D02*
X976250D01*
X1024250D02*
Y1589000D01*
X1011750Y1569000D02*
Y1589000D01*
X1024250D01*
X1011750Y1569000D02*
X1024250D01*
X1077250D02*
Y1589000D01*
X1064750Y1569000D02*
Y1589000D01*
X1077250D01*
X1064750Y1569000D02*
X1077250D01*
X202500Y323750D02*
X222500D01*
X202500Y336250D02*
X222500D01*
Y323750D02*
Y336250D01*
X202500Y323750D02*
Y336250D01*
X567500Y368750D02*
X587500D01*
X567500Y356250D02*
X587500D01*
X567500D02*
Y368750D01*
X587500Y356250D02*
Y368750D01*
X372010Y1381920D02*
Y1401920D01*
X359510Y1381920D02*
Y1401920D01*
X372010D01*
X359510Y1381920D02*
X372010D01*
X295810D02*
Y1401920D01*
X283310Y1381920D02*
Y1401920D01*
X295810D01*
X283310Y1381920D02*
X295810D01*
X270410D02*
Y1401920D01*
X257910Y1381920D02*
Y1401920D01*
X270410D01*
X257910Y1381920D02*
X270410D01*
X549810Y1376840D02*
Y1396840D01*
X537310Y1376840D02*
Y1396840D01*
X549810D01*
X537310Y1376840D02*
X549810D01*
X600610D02*
Y1396840D01*
X588110Y1376840D02*
Y1396840D01*
X600610D01*
X588110Y1376840D02*
X600610D01*
X603750Y1005000D02*
Y1025000D01*
X616250Y1005000D02*
Y1025000D01*
X603750Y1005000D02*
X616250D01*
X603750Y1025000D02*
X616250D01*
X566250Y1007500D02*
Y1027500D01*
X578750Y1007500D02*
Y1027500D01*
X566250Y1007500D02*
X578750D01*
X566250Y1027500D02*
X578750D01*
X308710Y1031400D02*
Y1051400D01*
X321210Y1031400D02*
Y1051400D01*
X308710Y1031400D02*
X321210D01*
X308710Y1051400D02*
X321210D01*
X283310Y1031400D02*
Y1051400D01*
X295810Y1031400D02*
Y1051400D01*
X283310Y1031400D02*
X295810D01*
X283310Y1051400D02*
X295810D01*
X462500Y801250D02*
X482500D01*
X462500Y813750D02*
X482500D01*
Y801250D02*
Y813750D01*
X462500Y801250D02*
Y813750D01*
X277500Y736000D02*
Y754000D01*
X292500Y736000D02*
Y754000D01*
X277500D02*
X292500D01*
X277500Y736000D02*
X292500D01*
X515000Y411000D02*
Y429000D01*
X530000Y411000D02*
Y429000D01*
X515000D02*
X530000D01*
X515000Y411000D02*
X530000D01*
X82500Y413500D02*
Y431500D01*
X97500Y413500D02*
Y431500D01*
X82500D02*
X97500D01*
X82500Y413500D02*
X97500D01*
X325500Y487000D02*
Y505000D01*
X310500Y487000D02*
Y505000D01*
Y487000D02*
X325500D01*
X310500Y505000D02*
X325500D01*
X1304500Y1547000D02*
Y1565000D01*
X1289500Y1547000D02*
Y1565000D01*
Y1547000D02*
X1304500D01*
X1289500Y1565000D02*
X1304500D01*
X1215500Y1492000D02*
Y1510000D01*
X1230500Y1492000D02*
Y1510000D01*
X1215500D02*
X1230500D01*
X1215500Y1492000D02*
X1230500D01*
X580000Y528500D02*
Y546500D01*
X595000Y528500D02*
Y546500D01*
X580000D02*
X595000D01*
X580000Y528500D02*
X595000D01*
X857000Y1564500D02*
X875000D01*
X857000Y1549500D02*
X875000D01*
Y1564500D01*
X857000Y1549500D02*
Y1564500D01*
X622500Y411000D02*
Y429000D01*
X637500Y411000D02*
Y429000D01*
X622500D02*
X637500D01*
X622500Y411000D02*
X637500D01*
X1454500Y379083D02*
X1472500D01*
X1454500Y364083D02*
X1472500D01*
Y379083D01*
X1454500Y364083D02*
Y379083D01*
Y905750D02*
X1472500D01*
X1454500Y890750D02*
X1472500D01*
Y905750D01*
X1454500Y890750D02*
Y905750D01*
Y642417D02*
X1472500D01*
X1454500Y627417D02*
X1472500D01*
Y642417D01*
X1454500Y627417D02*
Y642417D01*
X761000Y217500D02*
X779000D01*
X761000Y232500D02*
X779000D01*
X761000Y217500D02*
Y232500D01*
X779000Y217500D02*
Y232500D01*
X295000Y838500D02*
Y856500D01*
X280000Y838500D02*
Y856500D01*
Y838500D02*
X295000D01*
X280000Y856500D02*
X295000D01*
X521000Y215000D02*
X539000D01*
X521000Y230000D02*
X539000D01*
X521000Y215000D02*
Y230000D01*
X539000Y215000D02*
Y230000D01*
X1239040Y102760D02*
Y120760D01*
X1254040Y102760D02*
Y120760D01*
X1239040D02*
X1254040D01*
X1239040Y102760D02*
X1254040D01*
X1239040Y636333D02*
Y654333D01*
X1254040Y636333D02*
Y654333D01*
X1239040D02*
X1254040D01*
X1239040Y636333D02*
X1254040D01*
X1237500Y394000D02*
Y412000D01*
X1252500Y394000D02*
Y412000D01*
X1237500D02*
X1252500D01*
X1237500Y394000D02*
X1252500D01*
X1239040Y903120D02*
Y921120D01*
X1254040Y903120D02*
Y921120D01*
X1239040D02*
X1254040D01*
X1239040Y903120D02*
X1254040D01*
X998500Y215000D02*
X1016500D01*
X998500Y230000D02*
X1016500D01*
X998500Y215000D02*
Y230000D01*
X1016500Y215000D02*
Y230000D01*
X437500Y863500D02*
Y881500D01*
X452500Y863500D02*
Y881500D01*
X437500D02*
X452500D01*
X437500Y863500D02*
X452500D01*
X952300Y916600D02*
X970300D01*
X952300Y901600D02*
X970300D01*
Y916600D01*
X952300Y901600D02*
Y916600D01*
X952300Y951600D02*
X970300D01*
X952300Y966600D02*
X970300D01*
X952300Y951600D02*
Y966600D01*
X970300Y951600D02*
Y966600D01*
X97500Y1298500D02*
Y1316500D01*
X112500Y1298500D02*
Y1316500D01*
X97500D02*
X112500D01*
X97500Y1298500D02*
X112500D01*
X715000Y643500D02*
Y661500D01*
X730000Y643500D02*
Y661500D01*
X715000D02*
X730000D01*
X715000Y643500D02*
X730000D01*
X1454500Y115750D02*
X1472500D01*
X1454500Y100750D02*
X1472500D01*
Y115750D01*
X1454500Y100750D02*
Y115750D01*
X524530Y955380D02*
X552430D01*
X524530Y985180D02*
X552430D01*
X524530Y955380D02*
Y985180D01*
X552430Y955380D02*
Y985180D01*
X468650Y955380D02*
X496550D01*
X468650Y985180D02*
X496550D01*
X468650Y955380D02*
Y985180D01*
X496550Y955380D02*
Y985180D01*
X1572300Y1580300D02*
Y1605700D01*
X1597700D01*
Y1580300D02*
Y1605700D01*
X1572300Y1580300D02*
X1597700D01*
X1301200Y858000D02*
X1340800D01*
X1305200Y352986D02*
X1344800D01*
X1303200Y601000D02*
X1342800D01*
X1305200Y48000D02*
X1344800D01*
X505300Y497300D02*
X530700D01*
Y522700D01*
X505300D02*
X530700D01*
X505300Y497300D02*
Y522700D01*
X188300Y860300D02*
X213700D01*
Y885700D01*
X188300D02*
X213700D01*
X188300Y860300D02*
Y885700D01*
X1584300Y825300D02*
X1609700D01*
Y850700D01*
X1584300D02*
X1609700D01*
X1584300Y825300D02*
Y850700D01*
X732300Y280300D02*
X757700D01*
Y305700D01*
X732300D02*
X757700D01*
X732300Y280300D02*
Y305700D01*
X186909Y911722D02*
X212309D01*
Y937122D01*
X186909D02*
X212309D01*
X186909Y911722D02*
Y937122D01*
X501300Y761300D02*
X526700D01*
Y786700D01*
X501300D02*
X526700D01*
X501300Y761300D02*
Y786700D01*
X222300Y1423300D02*
X247700D01*
Y1448700D01*
X222300D02*
X247700D01*
X222300Y1423300D02*
Y1448700D01*
X441300Y825300D02*
X466700D01*
Y850700D01*
X441300D02*
X466700D01*
X441300Y825300D02*
Y850700D01*
X521300Y280300D02*
X546700D01*
Y305700D01*
X521300D02*
X546700D01*
X521300Y280300D02*
Y305700D01*
X420300Y761300D02*
X445700D01*
Y786700D01*
X420300D02*
X445700D01*
X420300Y761300D02*
Y786700D01*
X702300Y727300D02*
X727700D01*
Y752700D01*
X702300D02*
X727700D01*
X702300Y727300D02*
Y752700D01*
X1268980Y1463440D02*
Y1513440D01*
X1331980Y1463440D02*
Y1513440D01*
X1268980D02*
X1331980D01*
X1268980Y1463440D02*
X1331980D01*
X181000Y495000D02*
Y545000D01*
X244000Y495000D02*
Y545000D01*
X181000D02*
X244000D01*
X181000Y495000D02*
X244000D01*
X274800Y799800D02*
Y825200D01*
X300200D01*
Y799800D02*
Y825200D01*
X274800Y799800D02*
X300200D01*
X512300Y354800D02*
X537700D01*
Y380200D01*
X512300D02*
X537700D01*
X512300Y354800D02*
Y380200D01*
X967300Y389800D02*
X992700D01*
Y415200D01*
X967300D02*
X992700D01*
X967300Y389800D02*
Y415200D01*
X897500Y397500D02*
Y407500D01*
X892500Y402500D02*
X902500D01*
X985000Y500000D02*
X995000D01*
X990000Y495000D02*
Y505000D01*
X805000Y492500D02*
X815000D01*
X810000Y487500D02*
Y497500D01*
X645000Y785000D02*
X655000D01*
X650000Y780000D02*
Y790000D01*
X1022000Y1481250D02*
X1032000D01*
X1027000Y1476250D02*
Y1486250D01*
X372500Y790000D02*
Y800000D01*
X367500Y795000D02*
X377500D01*
X190000Y232500D02*
Y242500D01*
X185000Y237500D02*
X195000D01*
X460000Y385000D02*
Y395000D01*
X455000Y390000D02*
X465000D01*
X897500Y495000D02*
Y505000D01*
X892500Y500000D02*
X902500D01*
X650000Y700000D02*
Y710000D01*
X645000Y705000D02*
X655000D01*
X317500Y565000D02*
Y575000D01*
X312500Y570000D02*
X322500D01*
X1364040Y636973D02*
Y646973D01*
X1359040Y641973D02*
X1369040D01*
X1370540Y378000D02*
Y388000D01*
X1365540Y383000D02*
X1375540D01*
X1364040Y904620D02*
Y914620D01*
X1359040Y909620D02*
X1369040D01*
X909550Y926100D02*
X919550D01*
X914550Y921100D02*
Y931100D01*
X1364040Y101680D02*
Y111680D01*
X1359040Y106680D02*
X1369040D01*
X1351360Y775547D02*
X1361360D01*
X1356360Y770547D02*
Y780547D01*
X1351360Y509693D02*
X1361360D01*
X1356360Y504693D02*
Y514693D01*
X1351360Y1041400D02*
X1361360D01*
X1356360Y1036400D02*
Y1046400D01*
X1351360Y243840D02*
X1361360D01*
X1356360Y238840D02*
Y248840D01*
X485000Y592500D02*
Y602500D01*
X480000Y597500D02*
X490000D01*
X391160Y934800D02*
Y944800D01*
X386160Y939800D02*
X396160D01*
X651300Y225000D02*
Y235000D01*
X646300Y230000D02*
X656300D01*
X417500Y225000D02*
Y235000D01*
X412500Y230000D02*
X422500D01*
X885100Y225000D02*
Y235000D01*
X880100Y230000D02*
X890100D01*
X826300Y929100D02*
X836300D01*
X831300Y924100D02*
Y934100D01*
X370000Y540000D02*
Y550000D01*
X365000Y545000D02*
X375000D01*
X95000Y237500D02*
X105000D01*
X100000Y232500D02*
Y242500D01*
X282500Y712500D02*
X292500D01*
X287500Y707500D02*
Y717500D01*
X95000Y285000D02*
X105000D01*
X100000Y280000D02*
Y290000D01*
X587500Y597500D02*
X597500D01*
X592500Y592500D02*
Y602500D01*
X265000Y105000D02*
X275000D01*
X270000Y100000D02*
Y110000D01*
X265000Y157500D02*
X275000D01*
X270000Y152500D02*
Y162500D01*
X584147Y696000D02*
Y706000D01*
X579147Y701000D02*
X589147D01*
X395000Y1532500D02*
X405000D01*
X400000Y1527500D02*
Y1537500D01*
X472500Y1532500D02*
X482500D01*
X477500Y1527500D02*
Y1537500D01*
X699800Y1532500D02*
X709800D01*
X704800Y1527500D02*
Y1537500D01*
X292250Y214500D02*
Y224500D01*
X287250Y219500D02*
X297250D01*
X285000Y870000D02*
Y880000D01*
X280000Y875000D02*
X290000D01*
X482500Y670000D02*
Y680000D01*
X477500Y675000D02*
X487500D01*
X266000Y270000D02*
Y280000D01*
X261000Y275000D02*
X271000D01*
X391160Y1000840D02*
Y1010840D01*
X386160Y1005840D02*
X396160D01*
X577500Y417500D02*
Y427500D01*
X572500Y422500D02*
X582500D01*
X527500Y867500D02*
Y877500D01*
X522500Y872500D02*
X532500D01*
X265000Y325000D02*
Y335000D01*
X260000Y330000D02*
X270000D01*
X285000Y775000D02*
Y785000D01*
X280000Y780000D02*
X290000D01*
X95000Y185000D02*
Y195000D01*
X90000Y190000D02*
X100000D01*
X237500Y587500D02*
Y597500D01*
X232500Y592500D02*
X242500D01*
X180000Y587500D02*
Y597500D01*
X175000Y592500D02*
X185000D01*
X590000Y482500D02*
Y492500D01*
X585000Y487500D02*
X595000D01*
X637500Y357500D02*
Y367500D01*
X632500Y362500D02*
X642500D01*
X145000Y1117500D02*
Y1127500D01*
X140000Y1122500D02*
X150000D01*
X965000Y1579000D02*
X975000D01*
X970000Y1574000D02*
Y1584000D01*
X1013000Y1579000D02*
X1023000D01*
X1018000Y1574000D02*
Y1584000D01*
X1066000Y1579000D02*
X1076000D01*
X1071000Y1574000D02*
Y1584000D01*
X212500Y325000D02*
Y335000D01*
X207500Y330000D02*
X217500D01*
X577500Y357500D02*
Y367500D01*
X572500Y362500D02*
X582500D01*
X360760Y1391920D02*
X370760D01*
X365760Y1386920D02*
Y1396920D01*
X284560Y1391920D02*
X294560D01*
X289560Y1386920D02*
Y1396920D01*
X259160Y1391920D02*
X269160D01*
X264160Y1386920D02*
Y1396920D01*
X538560Y1386840D02*
X548560D01*
X543560Y1381840D02*
Y1391840D01*
X589360Y1386840D02*
X599360D01*
X594360Y1381840D02*
Y1391840D01*
X605000Y1015000D02*
X615000D01*
X610000Y1010000D02*
Y1020000D01*
X567500Y1017500D02*
X577500D01*
X572500Y1012500D02*
Y1022500D01*
X309960Y1041400D02*
X319960D01*
X314960Y1036400D02*
Y1046400D01*
X284560Y1041400D02*
X294560D01*
X289560Y1036400D02*
Y1046400D01*
X472500Y802500D02*
Y812500D01*
X467500Y807500D02*
X477500D01*
X280000Y745000D02*
X290000D01*
X285000Y740000D02*
Y750000D01*
X517500Y420000D02*
X527500D01*
X522500Y415000D02*
Y425000D01*
X85000Y422500D02*
X95000D01*
X90000Y417500D02*
Y427500D01*
X313000Y496000D02*
X323000D01*
X318000Y491000D02*
Y501000D01*
X1292000Y1556000D02*
X1302000D01*
X1297000Y1551000D02*
Y1561000D01*
X1218000Y1501000D02*
X1228000D01*
X1223000Y1496000D02*
Y1506000D01*
X582500Y537500D02*
X592500D01*
X587500Y532500D02*
Y542500D01*
X866000Y1552000D02*
Y1562000D01*
X861000Y1557000D02*
X871000D01*
X625000Y420000D02*
X635000D01*
X630000Y415000D02*
Y425000D01*
X1463500Y366583D02*
Y376583D01*
X1458500Y371583D02*
X1468500D01*
X1463500Y893250D02*
Y903250D01*
X1458500Y898250D02*
X1468500D01*
X1463500Y629917D02*
Y639917D01*
X1458500Y634917D02*
X1468500D01*
X770000Y220000D02*
Y230000D01*
X765000Y225000D02*
X775000D01*
X282500Y847500D02*
X292500D01*
X287500Y842500D02*
Y852500D01*
X530000Y217500D02*
Y227500D01*
X525000Y222500D02*
X535000D01*
X1241540Y111760D02*
X1251540D01*
X1246540Y106760D02*
Y116760D01*
X1241540Y645333D02*
X1251540D01*
X1246540Y640333D02*
Y650333D01*
X1240000Y403000D02*
X1250000D01*
X1245000Y398000D02*
Y408000D01*
X1241540Y912120D02*
X1251540D01*
X1246540Y907120D02*
Y917120D01*
X1007500Y217500D02*
Y227500D01*
X1002500Y222500D02*
X1012500D01*
X440000Y872500D02*
X450000D01*
X445000Y867500D02*
Y877500D01*
X961300Y904100D02*
Y914100D01*
X956300Y909100D02*
X966300D01*
X961300Y954100D02*
Y964100D01*
X956300Y959100D02*
X966300D01*
X100000Y1307500D02*
X110000D01*
X105000Y1302500D02*
Y1312500D01*
X717500Y652500D02*
X727500D01*
X722500Y647500D02*
Y657500D01*
X1463500Y103250D02*
Y113250D01*
X1458500Y108250D02*
X1468500D01*
X538480Y965280D02*
Y975280D01*
X533480Y970280D02*
X543480D01*
X482600Y965280D02*
Y975280D01*
X477600Y970280D02*
X487600D01*
X1316000Y873000D02*
X1326000D01*
X1321000Y868000D02*
Y878000D01*
X1320000Y367986D02*
X1330000D01*
X1325000Y362986D02*
Y372986D01*
X1318000Y616000D02*
X1328000D01*
X1323000Y611000D02*
Y621000D01*
X1320000Y63000D02*
X1330000D01*
X1325000Y58000D02*
Y68000D01*
X1295480Y1488440D02*
X1305480D01*
X1300480Y1483440D02*
Y1493440D01*
X207500Y520000D02*
X217500D01*
X212500Y515000D02*
Y525000D01*
D13*
X15086Y689000D02*
X109000D01*
X15086Y839000D02*
X109000D01*
X15086Y689000D02*
Y839000D01*
X109000Y689000D02*
Y839000D01*
X153250Y110250D02*
Y164750D01*
X232750Y110250D02*
Y164750D01*
X153250D02*
X232750D01*
X153250Y110250D02*
X232750D01*
X137750Y708250D02*
X192250D01*
X137750Y787750D02*
X192250D01*
X137750Y708250D02*
Y787750D01*
X192250Y708250D02*
Y787750D01*
X726750Y547750D02*
Y602250D01*
X647250Y547750D02*
Y602250D01*
Y547750D02*
X726750D01*
X647250Y602250D02*
X726750D01*
X328250Y662750D02*
Y717250D01*
X407750Y662750D02*
Y717250D01*
X328250D02*
X407750D01*
X328250Y662750D02*
X407750D01*
X757750Y660750D02*
X812250D01*
X757750Y740250D02*
X812250D01*
X757750Y660750D02*
Y740250D01*
X812250Y660750D02*
Y740250D01*
X837750Y660750D02*
X892250D01*
X837750Y740250D02*
X892250D01*
X837750Y660750D02*
Y740250D01*
X892250Y660750D02*
Y740250D01*
D15*
X1566800Y1593000D02*
G03*
X1566800Y1593000I-1000J0D01*
G01*
X499800Y510000D02*
G03*
X499800Y510000I-1000J0D01*
G01*
X182800Y873000D02*
G03*
X182800Y873000I-1000J0D01*
G01*
X1578800Y838000D02*
G03*
X1578800Y838000I-1000J0D01*
G01*
X726800Y293000D02*
G03*
X726800Y293000I-1000J0D01*
G01*
X181409Y924422D02*
G03*
X181409Y924422I-1000J0D01*
G01*
X495800Y774000D02*
G03*
X495800Y774000I-1000J0D01*
G01*
X216800Y1436000D02*
G03*
X216800Y1436000I-1000J0D01*
G01*
X435800Y838000D02*
G03*
X435800Y838000I-1000J0D01*
G01*
X515800Y293000D02*
G03*
X515800Y293000I-1000J0D01*
G01*
X414800Y774000D02*
G03*
X414800Y774000I-1000J0D01*
G01*
X696800Y740000D02*
G03*
X696800Y740000I-1000J0D01*
G01*
X269300Y812500D02*
G03*
X269300Y812500I-1000J0D01*
G01*
X506800Y367500D02*
G03*
X506800Y367500I-1000J0D01*
G01*
X961800Y402500D02*
G03*
X961800Y402500I-1000J0D01*
G01*
D16*
X478000Y1034060D02*
Y1069060D01*
Y1034060D02*
X538000D01*
Y1069060D01*
X478000D02*
X538000D01*
X148000Y967000D02*
X208000D01*
X148000D02*
Y1027000D01*
X208000D01*
Y967000D02*
Y1027000D01*
D18*
X0Y0D02*
X1700000D01*
Y1700000D01*
X0D02*
X1700000D01*
X0Y0D02*
Y1700000D01*
D19*
X854000Y377500D02*
X941000D01*
X854000Y427500D02*
X941000D01*
Y377500D02*
Y427500D01*
X854000Y377500D02*
Y427500D01*
X965000Y456500D02*
Y543500D01*
X1015000Y456500D02*
Y543500D01*
X965000Y456500D02*
X1015000D01*
X965000Y543500D02*
X1015000D01*
X785000Y449000D02*
Y536000D01*
X835000Y449000D02*
Y536000D01*
X785000Y449000D02*
X835000D01*
X785000Y536000D02*
X835000D01*
X687000Y765500D02*
Y804500D01*
X613000Y765500D02*
Y804500D01*
Y765500D02*
X687000D01*
X613000Y804500D02*
X687000D01*
X937000Y1427750D02*
Y1534750D01*
X1117000Y1427750D02*
Y1534750D01*
X937000D02*
X1117000D01*
X937000Y1427750D02*
X1117000D01*
X335500Y748500D02*
X409500D01*
X335500Y841500D02*
X409500D01*
Y748500D02*
Y841500D01*
X335500Y748500D02*
Y841500D01*
X156500Y211000D02*
X223500D01*
X156500Y264000D02*
X223500D01*
Y211000D02*
Y264000D01*
X156500Y211000D02*
Y264000D01*
X426500Y363500D02*
X493500D01*
X426500Y416500D02*
X493500D01*
Y363500D02*
Y416500D01*
X426500Y363500D02*
Y416500D01*
X864000Y473500D02*
X931000D01*
X864000Y526500D02*
X931000D01*
Y473500D02*
Y526500D01*
X864000Y473500D02*
Y526500D01*
X616500Y678500D02*
X683500D01*
X616500Y731500D02*
X683500D01*
Y678500D02*
Y731500D01*
X616500Y678500D02*
Y731500D01*
X298250Y587500D02*
X336750D01*
X298250Y552500D02*
X336750D01*
X298250D02*
Y587500D01*
X336750Y552500D02*
Y587500D01*
X1350540Y661223D02*
X1377540D01*
X1350540Y622723D02*
X1377540D01*
Y661223D01*
X1350540Y622723D02*
Y661223D01*
X1357040Y402250D02*
X1384040D01*
X1357040Y363750D02*
X1384040D01*
Y402250D01*
X1357040Y363750D02*
Y402250D01*
X1350540Y928870D02*
X1377540D01*
X1350540Y890370D02*
X1377540D01*
Y928870D01*
X1350540Y890370D02*
Y928870D01*
X933800Y912600D02*
Y939600D01*
X895300Y912600D02*
Y939600D01*
Y912600D02*
X933800D01*
X895300Y939600D02*
X933800D01*
X1350540Y125930D02*
X1377540D01*
X1350540Y87430D02*
X1377540D01*
Y125930D01*
X1350540Y87430D02*
Y125930D01*
X1201860Y706547D02*
Y844547D01*
X1510860Y706547D02*
Y844547D01*
X1201860D02*
X1510860D01*
X1201860Y706547D02*
X1510860D01*
X1201860Y440693D02*
Y578693D01*
X1510860Y440693D02*
Y578693D01*
X1201860D02*
X1510860D01*
X1201860Y440693D02*
X1510860D01*
X1201860Y972400D02*
Y1110400D01*
X1510860Y972400D02*
Y1110400D01*
X1201860D02*
X1510860D01*
X1201860Y972400D02*
X1510860D01*
X1201860Y174840D02*
Y312840D01*
X1510860Y174840D02*
Y312840D01*
X1201860D02*
X1510860D01*
X1201860Y174840D02*
X1510860D01*
X418500Y546000D02*
X551500D01*
X418500Y649000D02*
X551500D01*
Y546000D02*
Y649000D01*
X418500Y546000D02*
Y649000D01*
X324660Y888300D02*
X457660D01*
X324660Y991300D02*
X457660D01*
Y888300D02*
Y991300D01*
X324660Y888300D02*
Y991300D01*
X584800Y178500D02*
X717800D01*
X584800Y281500D02*
X717800D01*
Y178500D02*
Y281500D01*
X584800Y178500D02*
Y281500D01*
X351000Y178500D02*
X484000D01*
X351000Y281500D02*
X484000D01*
Y178500D02*
Y281500D01*
X351000Y178500D02*
Y281500D01*
X818600Y178500D02*
X951600D01*
X818600Y281500D02*
X951600D01*
Y178500D02*
Y281500D01*
X818600Y178500D02*
Y281500D01*
X779800Y862600D02*
Y995600D01*
X882800Y862600D02*
Y995600D01*
X779800Y862600D02*
X882800D01*
X779800Y995600D02*
X882800D01*
X359000Y567500D02*
X381000D01*
X359000Y522500D02*
X381000D01*
Y567500D01*
X359000Y522500D02*
Y567500D01*
X122500Y226500D02*
Y248500D01*
X77500Y226500D02*
Y248500D01*
Y226500D02*
X122500D01*
X77500Y248500D02*
X122500D01*
X265000Y701500D02*
Y723500D01*
X310000Y701500D02*
Y723500D01*
X265000D02*
X310000D01*
X265000Y701500D02*
X310000D01*
X122500Y274000D02*
Y296000D01*
X77500Y274000D02*
Y296000D01*
Y274000D02*
X122500D01*
X77500Y296000D02*
X122500D01*
X615000Y586500D02*
Y608500D01*
X570000Y586500D02*
Y608500D01*
Y586500D02*
X615000D01*
X570000Y608500D02*
X615000D01*
X292500Y94000D02*
Y116000D01*
X247500Y94000D02*
Y116000D01*
Y94000D02*
X292500D01*
X247500Y116000D02*
X292500D01*
X247500Y146500D02*
Y168500D01*
X292500Y146500D02*
Y168500D01*
X247500D02*
X292500D01*
X247500Y146500D02*
X292500D01*
X573147Y723500D02*
X595147D01*
X573147Y678500D02*
X595147D01*
Y723500D01*
X573147Y678500D02*
Y723500D01*
X391000Y1516000D02*
Y1549000D01*
X409000Y1516000D02*
Y1549000D01*
X391000Y1516000D02*
X409000D01*
X391000Y1549000D02*
X409000D01*
X468500Y1516000D02*
Y1549000D01*
X486500Y1516000D02*
Y1549000D01*
X468500Y1516000D02*
X486500D01*
X468500Y1549000D02*
X486500D01*
X695800Y1516000D02*
Y1549000D01*
X713800Y1516000D02*
Y1549000D01*
X695800Y1516000D02*
X713800D01*
X695800Y1549000D02*
X713800D01*
X275750Y210500D02*
X308750D01*
X275750Y228500D02*
X308750D01*
Y210500D02*
Y228500D01*
X275750Y210500D02*
Y228500D01*
X268500Y884000D02*
X301500D01*
X268500Y866000D02*
X301500D01*
X268500D02*
Y884000D01*
X301500Y866000D02*
Y884000D01*
X466000Y666000D02*
X499000D01*
X466000Y684000D02*
X499000D01*
Y666000D02*
Y684000D01*
X466000Y666000D02*
Y684000D01*
X249500Y266000D02*
X282500D01*
X249500Y284000D02*
X282500D01*
Y266000D02*
Y284000D01*
X249500Y266000D02*
Y284000D01*
X374660Y996840D02*
X407660D01*
X374660Y1014840D02*
X407660D01*
Y996840D02*
Y1014840D01*
X374660Y996840D02*
Y1014840D01*
X561000Y413500D02*
X594000D01*
X561000Y431500D02*
X594000D01*
Y413500D02*
Y431500D01*
X561000Y413500D02*
Y431500D01*
X511000Y863500D02*
X544000D01*
X511000Y881500D02*
X544000D01*
Y863500D02*
Y881500D01*
X511000Y863500D02*
Y881500D01*
X248500Y339000D02*
X281500D01*
X248500Y321000D02*
X281500D01*
X248500D02*
Y339000D01*
X281500Y321000D02*
Y339000D01*
X268500Y771000D02*
X301500D01*
X268500Y789000D02*
X301500D01*
Y771000D02*
Y789000D01*
X268500Y771000D02*
Y789000D01*
X78500Y199000D02*
X111500D01*
X78500Y181000D02*
X111500D01*
X78500D02*
Y199000D01*
X111500Y181000D02*
Y199000D01*
X221000Y601500D02*
X254000D01*
X221000Y583500D02*
X254000D01*
X221000D02*
Y601500D01*
X254000Y583500D02*
Y601500D01*
X163500D02*
X196500D01*
X163500Y583500D02*
X196500D01*
X163500D02*
Y601500D01*
X196500Y583500D02*
Y601500D01*
X573500Y478500D02*
X606500D01*
X573500Y496500D02*
X606500D01*
Y478500D02*
Y496500D01*
X573500Y478500D02*
Y496500D01*
X621000Y371500D02*
X654000D01*
X621000Y353500D02*
X654000D01*
X621000D02*
Y371500D01*
X654000Y353500D02*
Y371500D01*
X128500Y1131500D02*
X161500D01*
X128500Y1113500D02*
X161500D01*
X128500D02*
Y1131500D01*
X161500Y1113500D02*
Y1131500D01*
X979000Y1562500D02*
Y1595500D01*
X961000Y1562500D02*
Y1595500D01*
X979000D01*
X961000Y1562500D02*
X979000D01*
X1027000D02*
Y1595500D01*
X1009000Y1562500D02*
Y1595500D01*
X1027000D01*
X1009000Y1562500D02*
X1027000D01*
X1080000D02*
Y1595500D01*
X1062000Y1562500D02*
Y1595500D01*
X1080000D01*
X1062000Y1562500D02*
X1080000D01*
X196000Y321000D02*
X229000D01*
X196000Y339000D02*
X229000D01*
Y321000D02*
Y339000D01*
X196000Y321000D02*
Y339000D01*
X561000Y371500D02*
X594000D01*
X561000Y353500D02*
X594000D01*
X561000D02*
Y371500D01*
X594000Y353500D02*
Y371500D01*
X374760Y1375420D02*
Y1408420D01*
X356760Y1375420D02*
Y1408420D01*
X374760D01*
X356760Y1375420D02*
X374760D01*
X298560D02*
Y1408420D01*
X280560Y1375420D02*
Y1408420D01*
X298560D01*
X280560Y1375420D02*
X298560D01*
X273160D02*
Y1408420D01*
X255160Y1375420D02*
Y1408420D01*
X273160D01*
X255160Y1375420D02*
X273160D01*
X552560Y1370340D02*
Y1403340D01*
X534560Y1370340D02*
Y1403340D01*
X552560D01*
X534560Y1370340D02*
X552560D01*
X603360D02*
Y1403340D01*
X585360Y1370340D02*
Y1403340D01*
X603360D01*
X585360Y1370340D02*
X603360D01*
X601000Y998500D02*
Y1031500D01*
X619000Y998500D02*
Y1031500D01*
X601000Y998500D02*
X619000D01*
X601000Y1031500D02*
X619000D01*
X563500Y1001000D02*
Y1034000D01*
X581500Y1001000D02*
Y1034000D01*
X563500Y1001000D02*
X581500D01*
X563500Y1034000D02*
X581500D01*
X305960Y1024900D02*
Y1057900D01*
X323960Y1024900D02*
Y1057900D01*
X305960Y1024900D02*
X323960D01*
X305960Y1057900D02*
X323960D01*
X280560Y1024900D02*
Y1057900D01*
X298560Y1024900D02*
Y1057900D01*
X280560Y1024900D02*
X298560D01*
X280560Y1057900D02*
X298560D01*
X456000Y798500D02*
X489000D01*
X456000Y816500D02*
X489000D01*
Y798500D02*
Y816500D01*
X456000Y798500D02*
Y816500D01*
X272500Y733000D02*
Y757000D01*
X297500Y733000D02*
Y757000D01*
X272500D02*
X297500D01*
X272500Y733000D02*
X297500D01*
X510000Y408000D02*
Y432000D01*
X535000Y408000D02*
Y432000D01*
X510000D02*
X535000D01*
X510000Y408000D02*
X535000D01*
X77500Y410500D02*
Y434500D01*
X102500Y410500D02*
Y434500D01*
X77500D02*
X102500D01*
X77500Y410500D02*
X102500D01*
X330500Y484000D02*
Y508000D01*
X305500Y484000D02*
Y508000D01*
Y484000D02*
X330500D01*
X305500Y508000D02*
X330500D01*
X1309500Y1544000D02*
Y1568000D01*
X1284500Y1544000D02*
Y1568000D01*
Y1544000D02*
X1309500D01*
X1284500Y1568000D02*
X1309500D01*
X1210500Y1489000D02*
Y1513000D01*
X1235500Y1489000D02*
Y1513000D01*
X1210500D02*
X1235500D01*
X1210500Y1489000D02*
X1235500D01*
X575000Y525500D02*
Y549500D01*
X600000Y525500D02*
Y549500D01*
X575000D02*
X600000D01*
X575000Y525500D02*
X600000D01*
X854000Y1569500D02*
X878000D01*
X854000Y1544500D02*
X878000D01*
Y1569500D01*
X854000Y1544500D02*
Y1569500D01*
X617500Y408000D02*
Y432000D01*
X642500Y408000D02*
Y432000D01*
X617500D02*
X642500D01*
X617500Y408000D02*
X642500D01*
X1451500Y384083D02*
X1475500D01*
X1451500Y359083D02*
X1475500D01*
Y384083D01*
X1451500Y359083D02*
Y384083D01*
Y910750D02*
X1475500D01*
X1451500Y885750D02*
X1475500D01*
Y910750D01*
X1451500Y885750D02*
Y910750D01*
Y647417D02*
X1475500D01*
X1451500Y622417D02*
X1475500D01*
Y647417D01*
X1451500Y622417D02*
Y647417D01*
X758000Y212500D02*
X782000D01*
X758000Y237500D02*
X782000D01*
X758000Y212500D02*
Y237500D01*
X782000Y212500D02*
Y237500D01*
X300000Y835500D02*
Y859500D01*
X275000Y835500D02*
Y859500D01*
Y835500D02*
X300000D01*
X275000Y859500D02*
X300000D01*
X518000Y210000D02*
X542000D01*
X518000Y235000D02*
X542000D01*
X518000Y210000D02*
Y235000D01*
X542000Y210000D02*
Y235000D01*
X1234040Y99760D02*
Y123760D01*
X1259040Y99760D02*
Y123760D01*
X1234040D02*
X1259040D01*
X1234040Y99760D02*
X1259040D01*
X1234040Y633333D02*
Y657333D01*
X1259040Y633333D02*
Y657333D01*
X1234040D02*
X1259040D01*
X1234040Y633333D02*
X1259040D01*
X1232500Y391000D02*
Y415000D01*
X1257500Y391000D02*
Y415000D01*
X1232500D02*
X1257500D01*
X1232500Y391000D02*
X1257500D01*
X1234040Y900120D02*
Y924120D01*
X1259040Y900120D02*
Y924120D01*
X1234040D02*
X1259040D01*
X1234040Y900120D02*
X1259040D01*
X995500Y210000D02*
X1019500D01*
X995500Y235000D02*
X1019500D01*
X995500Y210000D02*
Y235000D01*
X1019500Y210000D02*
Y235000D01*
X432500Y860500D02*
Y884500D01*
X457500Y860500D02*
Y884500D01*
X432500D02*
X457500D01*
X432500Y860500D02*
X457500D01*
X949300Y921600D02*
X973300D01*
X949300Y896600D02*
X973300D01*
Y921600D01*
X949300Y896600D02*
Y921600D01*
Y946600D02*
X973300D01*
X949300Y971600D02*
X973300D01*
X949300Y946600D02*
Y971600D01*
X973300Y946600D02*
Y971600D01*
X92500Y1295500D02*
Y1319500D01*
X117500Y1295500D02*
Y1319500D01*
X92500D02*
X117500D01*
X92500Y1295500D02*
X117500D01*
X710000Y640500D02*
Y664500D01*
X735000Y640500D02*
Y664500D01*
X710000D02*
X735000D01*
X710000Y640500D02*
X735000D01*
X1451500Y120750D02*
X1475500D01*
X1451500Y95750D02*
X1475500D01*
Y120750D01*
X1451500Y95750D02*
Y120750D01*
X520980Y948780D02*
X555980D01*
X520980Y991780D02*
X555980D01*
X520980Y948780D02*
Y991780D01*
X555980Y948780D02*
Y991780D01*
X465100Y948780D02*
X500100D01*
X465100Y991780D02*
X500100D01*
X465100Y948780D02*
Y991780D01*
X500100Y948780D02*
Y991780D01*
X1569800Y1577800D02*
Y1608200D01*
X1600200D01*
Y1577800D02*
Y1608200D01*
X1569800Y1577800D02*
X1600200D01*
X502800Y494800D02*
X533200D01*
Y525200D01*
X502800D02*
X533200D01*
X502800Y494800D02*
Y525200D01*
X185800Y857800D02*
X216200D01*
Y888200D01*
X185800D02*
X216200D01*
X185800Y857800D02*
Y888200D01*
X1581800Y822800D02*
X1612200D01*
Y853200D01*
X1581800D02*
X1612200D01*
X1581800Y822800D02*
Y853200D01*
X729800Y277800D02*
X760200D01*
Y308200D01*
X729800D02*
X760200D01*
X729800Y277800D02*
Y308200D01*
X184409Y909222D02*
X214809D01*
Y939622D01*
X184409D02*
X214809D01*
X184409Y909222D02*
Y939622D01*
X498800Y758800D02*
X529200D01*
Y789200D01*
X498800D02*
X529200D01*
X498800Y758800D02*
Y789200D01*
X219800Y1420800D02*
X250200D01*
Y1451200D01*
X219800D02*
X250200D01*
X219800Y1420800D02*
Y1451200D01*
X438800Y822800D02*
X469200D01*
Y853200D01*
X438800D02*
X469200D01*
X438800Y822800D02*
Y853200D01*
X518800Y277800D02*
X549200D01*
Y308200D01*
X518800D02*
X549200D01*
X518800Y277800D02*
Y308200D01*
X417800Y758800D02*
X448200D01*
Y789200D01*
X417800D02*
X448200D01*
X417800Y758800D02*
Y789200D01*
X699800Y724800D02*
X730200D01*
Y755200D01*
X699800D02*
X730200D01*
X699800Y724800D02*
Y755200D01*
X474500Y1031560D02*
Y1071560D01*
Y1031560D02*
X541500D01*
Y1071560D01*
X474500D02*
X541500D01*
X145500Y938000D02*
X210500D01*
X145500D02*
Y1056000D01*
X210500D01*
Y938000D02*
Y1056000D01*
X272300Y797300D02*
Y827700D01*
X302700D01*
Y797300D02*
Y827700D01*
X272300Y797300D02*
X302700D01*
X509800Y352300D02*
X540200D01*
Y382700D01*
X509800D02*
X540200D01*
X509800Y352300D02*
Y382700D01*
X964800Y387300D02*
X995200D01*
Y417700D01*
X964800D02*
X995200D01*
X964800Y387300D02*
Y417700D01*
D20*
X929250Y402500D02*
D03*
X865750D02*
D03*
D21*
X990000Y468250D02*
D03*
Y531750D02*
D03*
X810000Y460750D02*
D03*
Y524250D02*
D03*
D22*
X675250Y785000D02*
D03*
X624750D02*
D03*
D23*
X955000Y1525700D02*
D03*
Y1513000D02*
D03*
Y1500300D02*
D03*
Y1487600D02*
D03*
Y1474900D02*
D03*
Y1462200D02*
D03*
Y1449500D02*
D03*
Y1436800D02*
D03*
X1099000Y1525700D02*
D03*
Y1513000D02*
D03*
Y1500300D02*
D03*
Y1487600D02*
D03*
Y1474900D02*
D03*
Y1462200D02*
D03*
Y1449500D02*
D03*
Y1436800D02*
D03*
D24*
X399750Y756900D02*
D03*
Y769600D02*
D03*
Y782300D02*
D03*
Y795000D02*
D03*
Y807700D02*
D03*
Y820400D02*
D03*
Y833100D02*
D03*
X345250Y756900D02*
D03*
Y769600D02*
D03*
Y782300D02*
D03*
Y795000D02*
D03*
Y807700D02*
D03*
Y820400D02*
D03*
Y833100D02*
D03*
D25*
X216250Y218450D02*
D03*
Y231150D02*
D03*
Y243850D02*
D03*
Y256550D02*
D03*
X163750Y218450D02*
D03*
Y231150D02*
D03*
Y243850D02*
D03*
Y256550D02*
D03*
X486250Y370950D02*
D03*
Y383650D02*
D03*
Y396350D02*
D03*
Y409050D02*
D03*
X433750Y370950D02*
D03*
Y383650D02*
D03*
Y396350D02*
D03*
Y409050D02*
D03*
X923750Y480950D02*
D03*
Y493650D02*
D03*
Y506350D02*
D03*
Y519050D02*
D03*
X871250Y480950D02*
D03*
Y493650D02*
D03*
Y506350D02*
D03*
Y519050D02*
D03*
X676250Y685950D02*
D03*
Y698650D02*
D03*
Y711350D02*
D03*
Y724050D02*
D03*
X623750Y685950D02*
D03*
Y698650D02*
D03*
Y711350D02*
D03*
Y724050D02*
D03*
D26*
X187960Y1300480D02*
D03*
D27*
X441960D02*
D03*
X416560D02*
D03*
X391160D02*
D03*
X365760D02*
D03*
X340360D02*
D03*
X670560D02*
D03*
X645160D02*
D03*
X619760D02*
D03*
X594360D02*
D03*
X568960D02*
D03*
X543560D02*
D03*
X518160D02*
D03*
X492760D02*
D03*
X467360D02*
D03*
X264160D02*
D03*
X238760D02*
D03*
X289560D02*
D03*
X213360D02*
D03*
X314960D02*
D03*
X187960Y1122680D02*
D03*
X213360D02*
D03*
X238760D02*
D03*
X264160D02*
D03*
X289560D02*
D03*
X314960D02*
D03*
X340360D02*
D03*
X365760D02*
D03*
X391160D02*
D03*
X416560D02*
D03*
X594360D02*
D03*
X518160D02*
D03*
X543560D02*
D03*
X568960D02*
D03*
X619760D02*
D03*
X645160D02*
D03*
X670560D02*
D03*
X492760D02*
D03*
X467360D02*
D03*
X441960D02*
D03*
D28*
X304750Y560500D02*
D03*
Y570000D02*
D03*
Y579500D02*
D03*
X330250D02*
D03*
Y570000D02*
D03*
Y560500D02*
D03*
D29*
X1370540Y653723D02*
D03*
X1357540D02*
D03*
X1364040Y630223D02*
D03*
X1377040Y394750D02*
D03*
X1364040D02*
D03*
X1370540Y371250D02*
D03*
X1370540Y921370D02*
D03*
X1357540D02*
D03*
X1364040Y897870D02*
D03*
X1370540Y118430D02*
D03*
X1357540D02*
D03*
X1364040Y94930D02*
D03*
D30*
X926300Y919600D02*
D03*
Y932600D02*
D03*
X902800Y926100D02*
D03*
D31*
X1236610Y775547D02*
D03*
X1476110D02*
D03*
X1236610Y509693D02*
D03*
X1476110D02*
D03*
X1236610Y1041400D02*
D03*
X1476110D02*
D03*
X1236610Y243840D02*
D03*
X1476110D02*
D03*
D32*
X515500Y597500D02*
D03*
X454500D02*
D03*
X421660Y939800D02*
D03*
X360660D02*
D03*
X681800Y230000D02*
D03*
X620800D02*
D03*
X448000D02*
D03*
X387000D02*
D03*
X915600D02*
D03*
X854600D02*
D03*
D33*
X831300Y898600D02*
D03*
Y959600D02*
D03*
D34*
X370000Y558750D02*
D03*
Y531250D02*
D03*
X584147Y714750D02*
D03*
Y687250D02*
D03*
D35*
X113750Y237500D02*
D03*
X86250D02*
D03*
X273750Y712500D02*
D03*
X301250D02*
D03*
X113750Y285000D02*
D03*
X86250D02*
D03*
X606250Y597500D02*
D03*
X578750D02*
D03*
X283750Y105000D02*
D03*
X256250D02*
D03*
X256250Y157500D02*
D03*
X283750D02*
D03*
D36*
X400000Y1523250D02*
D03*
Y1541750D02*
D03*
X477500Y1523250D02*
D03*
Y1541750D02*
D03*
X704800Y1523250D02*
D03*
Y1541750D02*
D03*
X970000Y1588250D02*
D03*
Y1569750D02*
D03*
X1018000Y1588250D02*
D03*
Y1569750D02*
D03*
X1071000Y1588250D02*
D03*
Y1569750D02*
D03*
X365760Y1401170D02*
D03*
Y1382670D02*
D03*
X289560Y1401170D02*
D03*
Y1382670D02*
D03*
X264160Y1401170D02*
D03*
Y1382670D02*
D03*
X543560Y1396090D02*
D03*
Y1377590D02*
D03*
X594360Y1396090D02*
D03*
Y1377590D02*
D03*
X610000Y1005750D02*
D03*
Y1024250D02*
D03*
X572500Y1008250D02*
D03*
Y1026750D02*
D03*
X314960Y1032150D02*
D03*
Y1050650D02*
D03*
X289560Y1032150D02*
D03*
Y1050650D02*
D03*
D37*
X301500Y219500D02*
D03*
X283000D02*
D03*
X275750Y875000D02*
D03*
X294250D02*
D03*
X491750Y675000D02*
D03*
X473250D02*
D03*
X275250Y275000D02*
D03*
X256750D02*
D03*
X400410Y1005840D02*
D03*
X381910D02*
D03*
X586750Y422500D02*
D03*
X568250D02*
D03*
X536750Y872500D02*
D03*
X518250D02*
D03*
X255750Y330000D02*
D03*
X274250D02*
D03*
X294250Y780000D02*
D03*
X275750D02*
D03*
X85750Y190000D02*
D03*
X104250D02*
D03*
X228250Y592500D02*
D03*
X246750D02*
D03*
X170750D02*
D03*
X189250D02*
D03*
X599250Y487500D02*
D03*
X580750D02*
D03*
X628250Y362500D02*
D03*
X646750D02*
D03*
X135750Y1122500D02*
D03*
X154250D02*
D03*
X221750Y330000D02*
D03*
X203250D02*
D03*
X568250Y362500D02*
D03*
X586750D02*
D03*
X481750Y807500D02*
D03*
X463250D02*
D03*
D38*
X279250Y745000D02*
D03*
X290750D02*
D03*
X516750Y420000D02*
D03*
X528250D02*
D03*
X84250Y422500D02*
D03*
X95750D02*
D03*
X323750Y496000D02*
D03*
X312250D02*
D03*
X1302750Y1556000D02*
D03*
X1291250D02*
D03*
X1217250Y1501000D02*
D03*
X1228750D02*
D03*
X581750Y537500D02*
D03*
X593250D02*
D03*
X624250Y420000D02*
D03*
X635750D02*
D03*
X293250Y847500D02*
D03*
X281750D02*
D03*
X1240790Y111760D02*
D03*
X1252290D02*
D03*
X1240790Y645333D02*
D03*
X1252290D02*
D03*
X1239250Y403000D02*
D03*
X1250750D02*
D03*
X1240790Y912120D02*
D03*
X1252290D02*
D03*
X439250Y872500D02*
D03*
X450750D02*
D03*
X99250Y1307500D02*
D03*
X110750D02*
D03*
X716750Y652500D02*
D03*
X728250D02*
D03*
D39*
X866000Y1562750D02*
D03*
Y1551250D02*
D03*
X1463500Y377333D02*
D03*
Y365833D02*
D03*
Y904000D02*
D03*
Y892500D02*
D03*
Y640667D02*
D03*
Y629167D02*
D03*
X770000Y219250D02*
D03*
Y230750D02*
D03*
X530000Y216750D02*
D03*
Y228250D02*
D03*
X1007500Y216750D02*
D03*
Y228250D02*
D03*
X961300Y914850D02*
D03*
Y903350D02*
D03*
Y953350D02*
D03*
Y964850D02*
D03*
X1463500Y114000D02*
D03*
Y102500D02*
D03*
D40*
X538480Y956030D02*
D03*
Y984530D02*
D03*
X482600Y956030D02*
D03*
Y984530D02*
D03*
D41*
X587500Y1050000D02*
D03*
X264160Y1336040D02*
D03*
X289560Y1082040D02*
D03*
Y1336040D02*
D03*
X594360D02*
D03*
X314960Y1082040D02*
D03*
X365760Y1336040D02*
D03*
X543560D02*
D03*
X1146750Y1474750D02*
D03*
D42*
X555131Y1050631D02*
D03*
D43*
X64254Y1309000D02*
D03*
Y1341000D02*
D03*
D44*
X529500Y1051560D02*
D03*
X486500D02*
D03*
D45*
X155600Y1042500D02*
D03*
Y951500D02*
D03*
X200400Y1042500D02*
D03*
Y951500D02*
D03*
M02*
