G04*
G04 #@! TF.GenerationSoftware,Altium Limited,Altium Designer,21.6.1 (37)*
G04*
G04 Layer_Color=2752767*
%FSLAX25Y25*%
%MOIN*%
G70*
G04*
G04 #@! TF.SameCoordinates,2CCEC8D5-DFE6-49CD-9DF0-9BB73A36F05B*
G04*
G04*
G04 #@! TF.FilePolarity,Positive*
G04*
G01*
G75*
%ADD113C,0.00200*%
%ADD114C,0.00267*%
%ADD115C,0.00133*%
D113*
X18885Y653137D02*
Y654737D01*
X20485D01*
Y653137D01*
X18885D01*
X644291Y534633D02*
X643491Y536233D01*
X645091D01*
X644291Y534633D01*
Y514633D02*
X643491Y516233D01*
X645091D01*
X644291Y514633D01*
X233268Y562192D02*
X233668Y562592D01*
X234068D01*
X233668Y562992D01*
X234068Y563392D01*
X233668D01*
X233268Y563792D01*
X232868Y563392D01*
X232468D01*
X232868Y562992D01*
X232468Y562592D01*
X232868D01*
X233268Y562192D01*
X223425D02*
X223825Y562592D01*
X224225D01*
X223825Y562992D01*
X224225Y563392D01*
X223825D01*
X223425Y563792D01*
X223025Y563392D01*
X222625D01*
X223025Y562992D01*
X222625Y562592D01*
X223025D01*
X223425Y562192D01*
X213583D02*
X213983Y562592D01*
X214383D01*
X213983Y562992D01*
X214383Y563392D01*
X213983D01*
X213583Y563792D01*
X213183Y563392D01*
X212783D01*
X213183Y562992D01*
X212783Y562592D01*
X213183D01*
X213583Y562192D01*
X203740D02*
X204140Y562592D01*
X204540D01*
X204140Y562992D01*
X204540Y563392D01*
X204140D01*
X203740Y563792D01*
X203340Y563392D01*
X202940D01*
X203340Y562992D01*
X202940Y562592D01*
X203340D01*
X203740Y562192D01*
X193898D02*
X194298Y562592D01*
X194698D01*
X194298Y562992D01*
X194698Y563392D01*
X194298D01*
X193898Y563792D01*
X193498Y563392D01*
X193098D01*
X193498Y562992D01*
X193098Y562592D01*
X193498D01*
X193898Y562192D01*
X184055D02*
X184455Y562592D01*
X184855D01*
X184455Y562992D01*
X184855Y563392D01*
X184455D01*
X184055Y563792D01*
X183655Y563392D01*
X183255D01*
X183655Y562992D01*
X183255Y562592D01*
X183655D01*
X184055Y562192D01*
X174213D02*
X174613Y562592D01*
X175013D01*
X174613Y562992D01*
X175013Y563392D01*
X174613D01*
X174213Y563792D01*
X173813Y563392D01*
X173413D01*
X173813Y562992D01*
X173413Y562592D01*
X173813D01*
X174213Y562192D01*
X243110D02*
X243510Y562592D01*
X243910D01*
X243510Y562992D01*
X243910Y563392D01*
X243510D01*
X243110Y563792D01*
X242710Y563392D01*
X242310D01*
X242710Y562992D01*
X242310Y562592D01*
X242710D01*
X243110Y562192D01*
X294000Y527200D02*
X294400Y527600D01*
X294800D01*
X294400Y528000D01*
X294800Y528400D01*
X294400D01*
X294000Y528800D01*
X293600Y528400D01*
X293200D01*
X293600Y528000D01*
X293200Y527600D01*
X293600D01*
X294000Y527200D01*
X304000D02*
X304400Y527600D01*
X304800D01*
X304400Y528000D01*
X304800Y528400D01*
X304400D01*
X304000Y528800D01*
X303600Y528400D01*
X303200D01*
X303600Y528000D01*
X303200Y527600D01*
X303600D01*
X304000Y527200D01*
X314000D02*
X314400Y527600D01*
X314800D01*
X314400Y528000D01*
X314800Y528400D01*
X314400D01*
X314000Y528800D01*
X313600Y528400D01*
X313200D01*
X313600Y528000D01*
X313200Y527600D01*
X313600D01*
X314000Y527200D01*
X324000D02*
X324400Y527600D01*
X324800D01*
X324400Y528000D01*
X324800Y528400D01*
X324400D01*
X324000Y528800D01*
X323600Y528400D01*
X323200D01*
X323600Y528000D01*
X323200Y527600D01*
X323600D01*
X324000Y527200D01*
X334000D02*
X334400Y527600D01*
X334800D01*
X334400Y528000D01*
X334800Y528400D01*
X334400D01*
X334000Y528800D01*
X333600Y528400D01*
X333200D01*
X333600Y528000D01*
X333200Y527600D01*
X333600D01*
X334000Y527200D01*
X289079Y426600D02*
X289479Y427000D01*
X289879D01*
X289479Y427400D01*
X289879Y427800D01*
X289479D01*
X289079Y428200D01*
X288679Y427800D01*
X288279D01*
X288679Y427400D01*
X288279Y427000D01*
X288679D01*
X289079Y426600D01*
X299079Y426602D02*
X299479Y427002D01*
X299879D01*
X299479Y427402D01*
X299879Y427802D01*
X299479D01*
X299079Y428202D01*
X298679Y427802D01*
X298279D01*
X298679Y427402D01*
X298279Y427002D01*
X298679D01*
X299079Y426602D01*
X309079D02*
X309479Y427002D01*
X309879D01*
X309479Y427402D01*
X309879Y427802D01*
X309479D01*
X309079Y428202D01*
X308679Y427802D01*
X308279D01*
X308679Y427402D01*
X308279Y427002D01*
X308679D01*
X309079Y426602D01*
X319079D02*
X319479Y427002D01*
X319879D01*
X319479Y427402D01*
X319879Y427802D01*
X319479D01*
X319079Y428202D01*
X318679Y427802D01*
X318279D01*
X318679Y427402D01*
X318279Y427002D01*
X318679D01*
X319079Y426602D01*
X329079D02*
X329479Y427002D01*
X329879D01*
X329479Y427402D01*
X329879Y427802D01*
X329479D01*
X329079Y428202D01*
X328679Y427802D01*
X328279D01*
X328679Y427402D01*
X328279Y427002D01*
X328679D01*
X329079Y426602D01*
X339079D02*
X339479Y427002D01*
X339879D01*
X339479Y427402D01*
X339879Y427802D01*
X339479D01*
X339079Y428202D01*
X338679Y427802D01*
X338279D01*
X338679Y427402D01*
X338279Y427002D01*
X338679D01*
X339079Y426602D01*
X349079D02*
X349479Y427002D01*
X349879D01*
X349479Y427402D01*
X349879Y427802D01*
X349479D01*
X349079Y428202D01*
X348679Y427802D01*
X348279D01*
X348679Y427402D01*
X348279Y427002D01*
X348679D01*
X349079Y426602D01*
X483452Y474594D02*
X483852Y475394D01*
X483452Y476194D01*
X484252Y475794D01*
X485052Y476194D01*
X484652Y475394D01*
X485052Y474594D01*
X484252Y474994D01*
X483452Y474594D01*
X601562D02*
X601962Y475394D01*
X601562Y476194D01*
X602362Y475794D01*
X603162Y476194D01*
X602762Y475394D01*
X603162Y474594D01*
X602362Y474994D01*
X601562Y474594D01*
X512980D02*
X513379Y475394D01*
X512980Y476194D01*
X513779Y475794D01*
X514579Y476194D01*
X514180Y475394D01*
X514579Y474594D01*
X513779Y474994D01*
X512980Y474594D01*
X572035D02*
X572435Y475394D01*
X572035Y476194D01*
X572835Y475794D01*
X573635Y476194D01*
X573235Y475394D01*
X573635Y474594D01*
X572835Y474994D01*
X572035Y474594D01*
X118012Y165539D02*
X118412Y165939D01*
X118812D01*
X118412Y166339D01*
X118812Y166739D01*
X118412D01*
X118012Y167139D01*
X117612Y166739D01*
X117212D01*
X117612Y166339D01*
X117212Y165939D01*
X117612D01*
X118012Y165539D01*
X53150D02*
X53550Y165939D01*
X53950D01*
X53550Y166339D01*
X53950Y166739D01*
X53550D01*
X53150Y167139D01*
X52750Y166739D01*
X52350D01*
X52750Y166339D01*
X52350Y165939D01*
X52750D01*
X53150Y165539D01*
X607776Y601956D02*
X608176Y602356D01*
X608576D01*
X608176Y602756D01*
X608576Y603156D01*
X608176D01*
X607776Y603556D01*
X607376Y603156D01*
X606976D01*
X607376Y602756D01*
X606976Y602356D01*
X607376D01*
X607776Y601956D01*
X542913D02*
X543313Y602356D01*
X543713D01*
X543313Y602756D01*
X543713Y603156D01*
X543313D01*
X542913Y603556D01*
X542513Y603156D01*
X542113D01*
X542513Y602756D01*
X542113Y602356D01*
X542513D01*
X542913Y601956D01*
X228445Y46444D02*
X228845Y46844D01*
X229245D01*
X228845Y47244D01*
X229245Y47644D01*
X228845D01*
X228445Y48044D01*
X228045Y47644D01*
X227645D01*
X228045Y47244D01*
X227645Y46844D01*
X228045D01*
X228445Y46444D01*
X293307D02*
X293707Y46844D01*
X294107D01*
X293707Y47244D01*
X294107Y47644D01*
X293707D01*
X293307Y48044D01*
X292907Y47644D01*
X292507D01*
X292907Y47244D01*
X292507Y46844D01*
X292907D01*
X293307Y46444D01*
X134941D02*
X135341Y46844D01*
X135741D01*
X135341Y47244D01*
X135741Y47644D01*
X135341D01*
X134941Y48044D01*
X134541Y47644D01*
X134141D01*
X134541Y47244D01*
X134141Y46844D01*
X134541D01*
X134941Y46444D01*
X199803D02*
X200203Y46844D01*
X200603D01*
X200203Y47244D01*
X200603Y47644D01*
X200203D01*
X199803Y48044D01*
X199403Y47644D01*
X199003D01*
X199403Y47244D01*
X199003Y46844D01*
X199403D01*
X199803Y46444D01*
X321949D02*
X322349Y46844D01*
X322749D01*
X322349Y47244D01*
X322749Y47644D01*
X322349D01*
X321949Y48044D01*
X321549Y47644D01*
X321149D01*
X321549Y47244D01*
X321149Y46844D01*
X321549D01*
X321949Y46444D01*
X386811D02*
X387211Y46844D01*
X387611D01*
X387211Y47244D01*
X387611Y47644D01*
X387211D01*
X386811Y48044D01*
X386411Y47644D01*
X386011D01*
X386411Y47244D01*
X386011Y46844D01*
X386411D01*
X386811Y46444D01*
X590158Y586110D02*
X590557Y586510D01*
X590957D01*
X590557Y586910D01*
X590957Y587310D01*
X590557D01*
X590158Y587710D01*
X589757Y587310D01*
X589358D01*
X589757Y586910D01*
X589358Y586510D01*
X589757D01*
X590158Y586110D01*
Y521247D02*
X590557Y521647D01*
X590957D01*
X590557Y522047D01*
X590957Y522447D01*
X590557D01*
X590158Y522847D01*
X589757Y522447D01*
X589358D01*
X589757Y522047D01*
X589358Y521647D01*
X589757D01*
X590158Y521247D01*
X289882Y329849D02*
X290282Y330249D01*
X290682D01*
X290282Y330649D01*
X290682Y331049D01*
X290282D01*
X289882Y331449D01*
X289482Y331049D01*
X289082D01*
X289482Y330649D01*
X289082Y330249D01*
X289482D01*
X289882Y329849D01*
Y394712D02*
X290282Y395112D01*
X290682D01*
X290282Y395512D01*
X290682Y395912D01*
X290282D01*
X289882Y396312D01*
X289482Y395912D01*
X289082D01*
X289482Y395512D01*
X289082Y395112D01*
X289482D01*
X289882Y394712D01*
X118110Y590735D02*
X118510Y591135D01*
X118910D01*
X118510Y591535D01*
X118910Y591935D01*
X118510D01*
X118110Y592335D01*
X117710Y591935D01*
X117310D01*
X117710Y591535D01*
X117310Y591135D01*
X117710D01*
X118110Y590735D01*
Y614358D02*
X118510Y614757D01*
X118910D01*
X118510Y615158D01*
X118910Y615557D01*
X118510D01*
X118110Y615957D01*
X117710Y615557D01*
X117310D01*
X117710Y615158D01*
X117310Y614757D01*
X117710D01*
X118110Y614358D01*
X227362Y590735D02*
X227762Y591135D01*
X228162D01*
X227762Y591535D01*
X228162Y591935D01*
X227762D01*
X227362Y592335D01*
X226962Y591935D01*
X226562D01*
X226962Y591535D01*
X226562Y591135D01*
X226962D01*
X227362Y590735D01*
Y614358D02*
X227762Y614757D01*
X228162D01*
X227762Y615158D01*
X228162Y615557D01*
X227762D01*
X227362Y615957D01*
X226962Y615557D01*
X226562D01*
X226962Y615158D01*
X226562Y614757D01*
X226962D01*
X227362Y614358D01*
X187008Y290539D02*
X186208Y292139D01*
X187808D01*
X187008Y290539D01*
X206693D02*
X205893Y292139D01*
X207493D01*
X206693Y290539D01*
X308268Y610421D02*
X308668Y610820D01*
X309068D01*
X308668Y611221D01*
X309068Y611621D01*
X308668D01*
X308268Y612020D01*
X307868Y611621D01*
X307468D01*
X307868Y611221D01*
X307468Y610820D01*
X307868D01*
X308268Y610421D01*
Y590735D02*
X308668Y591135D01*
X309068D01*
X308668Y591535D01*
X309068Y591935D01*
X308668D01*
X308268Y592335D01*
X307868Y591935D01*
X307468D01*
X307868Y591535D01*
X307468Y591135D01*
X307868D01*
X308268Y590735D01*
X507295Y648786D02*
X507695Y649186D01*
X508095D01*
X507695Y649586D01*
X508095Y649986D01*
X507695D01*
X507295Y650386D01*
X506895Y649986D01*
X506495D01*
X506895Y649586D01*
X506495Y649186D01*
X506895D01*
X507295Y648786D01*
X497295D02*
X497695Y649186D01*
X498095D01*
X497695Y649586D01*
X498095Y649986D01*
X497695D01*
X497295Y650386D01*
X496895Y649986D01*
X496495D01*
X496895Y649586D01*
X496495Y649186D01*
X496895D01*
X497295Y648786D01*
X487295D02*
X487695Y649186D01*
X488095D01*
X487695Y649586D01*
X488095Y649986D01*
X487695D01*
X487295Y650386D01*
X486895Y649986D01*
X486495D01*
X486895Y649586D01*
X486495Y649186D01*
X486895D01*
X487295Y648786D01*
X477295D02*
X477695Y649186D01*
X478095D01*
X477695Y649586D01*
X478095Y649986D01*
X477695D01*
X477295Y650386D01*
X476895Y649986D01*
X476495D01*
X476895Y649586D01*
X476495Y649186D01*
X476895D01*
X477295Y648786D01*
X467295D02*
X467695Y649186D01*
X468095D01*
X467695Y649586D01*
X468095Y649986D01*
X467695D01*
X467295Y650386D01*
X466895Y649986D01*
X466495D01*
X466895Y649586D01*
X466495Y649186D01*
X466895D01*
X467295Y648786D01*
X457610D02*
X458010Y649186D01*
X458410D01*
X458010Y649586D01*
X458410Y649986D01*
X458010D01*
X457610Y650386D01*
X457210Y649986D01*
X456810D01*
X457210Y649586D01*
X456810Y649186D01*
X457210D01*
X457610Y648786D01*
X447610D02*
X448010Y649186D01*
X448410D01*
X448010Y649586D01*
X448410Y649986D01*
X448010D01*
X447610Y650386D01*
X447210Y649986D01*
X446810D01*
X447210Y649586D01*
X446810Y649186D01*
X447210D01*
X447610Y648786D01*
X437610D02*
X438010Y649186D01*
X438410D01*
X438010Y649586D01*
X438410Y649986D01*
X438010D01*
X437610Y650386D01*
X437210Y649986D01*
X436810D01*
X437210Y649586D01*
X436810Y649186D01*
X437210D01*
X437610Y648786D01*
X427610D02*
X428010Y649186D01*
X428410D01*
X428010Y649586D01*
X428410Y649986D01*
X428010D01*
X427610Y650386D01*
X427210Y649986D01*
X426810D01*
X427210Y649586D01*
X426810Y649186D01*
X427210D01*
X427610Y648786D01*
X417610D02*
X418010Y649186D01*
X418410D01*
X418010Y649586D01*
X418410Y649986D01*
X418010D01*
X417610Y650386D01*
X417210Y649986D01*
X416810D01*
X417210Y649586D01*
X416810Y649186D01*
X417210D01*
X417610Y648786D01*
X407610D02*
X408010Y649186D01*
X408410D01*
X408010Y649586D01*
X408410Y649986D01*
X408010D01*
X407610Y650386D01*
X407210Y649986D01*
X406810D01*
X407210Y649586D01*
X406810Y649186D01*
X407210D01*
X407610Y648786D01*
X397767D02*
X398167Y649186D01*
X398567D01*
X398167Y649586D01*
X398567Y649986D01*
X398167D01*
X397767Y650386D01*
X397367Y649986D01*
X396967D01*
X397367Y649586D01*
X396967Y649186D01*
X397367D01*
X397767Y648786D01*
X387925D02*
X388325Y649186D01*
X388725D01*
X388325Y649586D01*
X388725Y649986D01*
X388325D01*
X387925Y650386D01*
X387525Y649986D01*
X387125D01*
X387525Y649586D01*
X387125Y649186D01*
X387525D01*
X387925Y648786D01*
X377925D02*
X378325Y649186D01*
X378725D01*
X378325Y649586D01*
X378725Y649986D01*
X378325D01*
X377925Y650386D01*
X377525Y649986D01*
X377125D01*
X377525Y649586D01*
X377125Y649186D01*
X377525D01*
X377925Y648786D01*
X367925D02*
X368325Y649186D01*
X368725D01*
X368325Y649586D01*
X368725Y649986D01*
X368325D01*
X367925Y650386D01*
X367525Y649986D01*
X367125D01*
X367525Y649586D01*
X367125Y649186D01*
X367525D01*
X367925Y648786D01*
X357925D02*
X358325Y649186D01*
X358725D01*
X358325Y649586D01*
X358725Y649986D01*
X358325D01*
X357925Y650386D01*
X357525Y649986D01*
X357125D01*
X357525Y649586D01*
X357125Y649186D01*
X357525D01*
X357925Y648786D01*
X347925D02*
X348325Y649186D01*
X348725D01*
X348325Y649586D01*
X348725Y649986D01*
X348325D01*
X347925Y650386D01*
X347525Y649986D01*
X347125D01*
X347525Y649586D01*
X347125Y649186D01*
X347525D01*
X347925Y648786D01*
X337925D02*
X338325Y649186D01*
X338725D01*
X338325Y649586D01*
X338725Y649986D01*
X338325D01*
X337925Y650386D01*
X337525Y649986D01*
X337125D01*
X337525Y649586D01*
X337125Y649186D01*
X337525D01*
X337925Y648786D01*
X327925D02*
X328325Y649186D01*
X328725D01*
X328325Y649586D01*
X328725Y649986D01*
X328325D01*
X327925Y650386D01*
X327525Y649986D01*
X327125D01*
X327525Y649586D01*
X327125Y649186D01*
X327525D01*
X327925Y648786D01*
X317925D02*
X318325Y649186D01*
X318725D01*
X318325Y649586D01*
X318725Y649986D01*
X318325D01*
X317925Y650386D01*
X317525Y649986D01*
X317125D01*
X317525Y649586D01*
X317125Y649186D01*
X317525D01*
X317925Y648786D01*
X14639Y280545D02*
Y280145D01*
X15439D01*
Y280545D01*
X15839D01*
Y281345D01*
X15439D01*
Y281745D01*
X14639D01*
Y281345D01*
X14239D01*
Y280545D01*
X14639D01*
Y320545D02*
Y320145D01*
X15439D01*
Y320545D01*
X15839D01*
Y321345D01*
X15439D01*
Y321745D01*
X14639D01*
Y321345D01*
X14239D01*
Y320545D01*
X14639D01*
X35039Y290145D02*
X35439Y290545D01*
X35839D01*
X35439Y290945D01*
X35839Y291345D01*
X35439D01*
X35039Y291745D01*
X34639Y291345D01*
X34239D01*
X34639Y290945D01*
X34239Y290545D01*
X34639D01*
X35039Y290145D01*
Y300145D02*
X35439Y300545D01*
X35839D01*
X35439Y300945D01*
X35839Y301345D01*
X35439D01*
X35039Y301745D01*
X34639Y301345D01*
X34239D01*
X34639Y300945D01*
X34239Y300545D01*
X34639D01*
X35039Y300145D01*
X75945Y48255D02*
X75145Y49855D01*
X76745D01*
X75945Y48255D01*
X85945Y58255D02*
X85145Y59855D01*
X86745D01*
X85945Y58255D01*
X65945D02*
X65145Y59855D01*
X66745D01*
X65945Y58255D01*
X70039Y293649D02*
X69239Y295249D01*
X70839D01*
X70039Y293649D01*
X60039Y303649D02*
X59239Y305249D01*
X60839D01*
X60039Y303649D01*
Y283649D02*
X59239Y285249D01*
X60839D01*
X60039Y283649D01*
X270512Y230657D02*
X269712Y232257D01*
X271312D01*
X270512Y230657D01*
X260512Y220657D02*
X259712Y222257D01*
X261312D01*
X260512Y220657D01*
X280512D02*
X279712Y222257D01*
X281312D01*
X280512Y220657D01*
X144843Y265775D02*
X144043Y267375D01*
X145642D01*
X144843Y265775D01*
X154842Y275775D02*
X154042Y277375D01*
X155642D01*
X154842Y275775D01*
X134843D02*
X134043Y277375D01*
X135643D01*
X134843Y275775D01*
X314134Y274948D02*
X313334Y276548D01*
X314934D01*
X314134Y274948D01*
X304134Y284948D02*
X303334Y286548D01*
X304934D01*
X304134Y284948D01*
Y264948D02*
X303334Y266548D01*
X304934D01*
X304134Y264948D01*
X345630Y274948D02*
X344830Y276548D01*
X346430D01*
X345630Y274948D01*
X335630Y284948D02*
X334830Y286548D01*
X336430D01*
X335630Y284948D01*
Y264948D02*
X334830Y266548D01*
X336430D01*
X335630Y264948D01*
X281496Y12979D02*
X281896Y13379D01*
X282296D01*
X281896Y13780D01*
X282296Y14179D01*
X281896D01*
X281496Y14580D01*
X281096Y14179D01*
X280696D01*
X281096Y13780D01*
X280696Y13379D01*
X281096D01*
X281496Y12979D01*
X271496D02*
X271896Y13379D01*
X272296D01*
X271896Y13780D01*
X272296Y14179D01*
X271896D01*
X271496Y14580D01*
X271096Y14179D01*
X270696D01*
X271096Y13780D01*
X270696Y13379D01*
X271096D01*
X271496Y12979D01*
X261496D02*
X261896Y13379D01*
X262296D01*
X261896Y13780D01*
X262296Y14179D01*
X261896D01*
X261496Y14580D01*
X261096Y14179D01*
X260696D01*
X261096Y13780D01*
X260696Y13379D01*
X261096D01*
X261496Y12979D01*
X251496D02*
X251896Y13379D01*
X252296D01*
X251896Y13780D01*
X252296Y14179D01*
X251896D01*
X251496Y14580D01*
X251096Y14179D01*
X250696D01*
X251096Y13780D01*
X250696Y13379D01*
X251096D01*
X251496Y12979D01*
X241496D02*
X241896Y13379D01*
X242296D01*
X241896Y13780D01*
X242296Y14179D01*
X241896D01*
X241496Y14580D01*
X241096Y14179D01*
X240696D01*
X241096Y13780D01*
X240696Y13379D01*
X241096D01*
X241496Y12979D01*
X555972Y626365D02*
X556372D01*
X556772Y626765D01*
X557172Y626365D01*
X557572D01*
Y626765D01*
X557172Y627165D01*
X557572Y627565D01*
Y627965D01*
X557172D01*
X556772Y627565D01*
X556372Y627965D01*
X555972D01*
Y627565D01*
X556372Y627165D01*
X555972Y626765D01*
Y626365D01*
X535027D02*
X535427D01*
X535827Y626765D01*
X536227Y626365D01*
X536627D01*
Y626765D01*
X536227Y627165D01*
X536627Y627565D01*
Y627965D01*
X536227D01*
X535827Y627565D01*
X535427Y627965D01*
X535027D01*
Y627565D01*
X535427Y627165D01*
X535027Y626765D01*
Y626365D01*
X545499D02*
X545899D01*
X546299Y626765D01*
X546699Y626365D01*
X547099D01*
Y626765D01*
X546699Y627165D01*
X547099Y627565D01*
Y627965D01*
X546699D01*
X546299Y627565D01*
X545899Y627965D01*
X545499D01*
Y627565D01*
X545899Y627165D01*
X545499Y626765D01*
Y626365D01*
X644869Y354928D02*
X645269D01*
X645669Y355328D01*
X646069Y354928D01*
X646469D01*
Y355328D01*
X646069Y355728D01*
X646469Y356128D01*
Y356528D01*
X646069D01*
X645669Y356128D01*
X645269Y356528D01*
X644869D01*
Y356128D01*
X645269Y355728D01*
X644869Y355328D01*
Y354928D01*
Y375873D02*
X645269D01*
X645669Y376273D01*
X646069Y375873D01*
X646469D01*
Y376273D01*
X646069Y376673D01*
X646469Y377073D01*
Y377473D01*
X646069D01*
X645669Y377073D01*
X645269Y377473D01*
X644869D01*
Y377073D01*
X645269Y376673D01*
X644869Y376273D01*
Y375873D01*
Y365401D02*
X645269D01*
X645669Y365801D01*
X646069Y365401D01*
X646469D01*
Y365801D01*
X646069Y366201D01*
X646469Y366601D01*
Y367001D01*
X646069D01*
X645669Y366601D01*
X645269Y367001D01*
X644869D01*
Y366601D01*
X645269Y366201D01*
X644869Y365801D01*
Y365401D01*
Y259554D02*
X645269D01*
X645669Y259954D01*
X646069Y259554D01*
X646469D01*
Y259954D01*
X646069Y260354D01*
X646469Y260754D01*
Y261154D01*
X646069D01*
X645669Y260754D01*
X645269Y261154D01*
X644869D01*
Y260754D01*
X645269Y260354D01*
X644869Y259954D01*
Y259554D01*
Y280499D02*
X645269D01*
X645669Y280899D01*
X646069Y280499D01*
X646469D01*
Y280899D01*
X646069Y281299D01*
X646469Y281699D01*
Y282099D01*
X646069D01*
X645669Y281699D01*
X645269Y282099D01*
X644869D01*
Y281699D01*
X645269Y281299D01*
X644869Y280899D01*
Y280499D01*
Y270027D02*
X645269D01*
X645669Y270427D01*
X646069Y270027D01*
X646469D01*
Y270427D01*
X646069Y270827D01*
X646469Y271227D01*
Y271627D01*
X646069D01*
X645669Y271227D01*
X645269Y271627D01*
X644869D01*
Y271227D01*
X645269Y270827D01*
X644869Y270427D01*
Y270027D01*
Y164180D02*
X645269D01*
X645669Y164580D01*
X646069Y164180D01*
X646469D01*
Y164580D01*
X646069Y164980D01*
X646469Y165380D01*
Y165780D01*
X646069D01*
X645669Y165380D01*
X645269Y165780D01*
X644869D01*
Y165380D01*
X645269Y164980D01*
X644869Y164580D01*
Y164180D01*
Y185125D02*
X645269D01*
X645669Y185525D01*
X646069Y185125D01*
X646469D01*
Y185525D01*
X646069Y185925D01*
X646469Y186325D01*
Y186725D01*
X646069D01*
X645669Y186325D01*
X645269Y186725D01*
X644869D01*
Y186325D01*
X645269Y185925D01*
X644869Y185525D01*
Y185125D01*
Y174653D02*
X645269D01*
X645669Y175053D01*
X646069Y174653D01*
X646469D01*
Y175053D01*
X646069Y175453D01*
X646469Y175853D01*
Y176253D01*
X646069D01*
X645669Y175853D01*
X645269Y176253D01*
X644869D01*
Y175853D01*
X645269Y175453D01*
X644869Y175053D01*
Y174653D01*
X167153Y648806D02*
X167553D01*
X167953Y649206D01*
X168353Y648806D01*
X168753D01*
Y649206D01*
X168353Y649606D01*
X168753Y650006D01*
Y650406D01*
X168353D01*
X167953Y650006D01*
X167553Y650406D01*
X167153D01*
Y650006D01*
X167553Y649606D01*
X167153Y649206D01*
Y648806D01*
X146208D02*
X146608D01*
X147008Y649206D01*
X147408Y648806D01*
X147808D01*
Y649206D01*
X147408Y649606D01*
X147808Y650006D01*
Y650406D01*
X147408D01*
X147008Y650006D01*
X146608Y650406D01*
X146208D01*
Y650006D01*
X146608Y649606D01*
X146208Y649206D01*
Y648806D01*
X156680D02*
X157080D01*
X157480Y649206D01*
X157880Y648806D01*
X158280D01*
Y649206D01*
X157880Y649606D01*
X158280Y650006D01*
Y650406D01*
X157880D01*
X157480Y650006D01*
X157080Y650406D01*
X156680D01*
Y650006D01*
X157080Y649606D01*
X156680Y649206D01*
Y648806D01*
X235696D02*
X236096D01*
X236496Y649206D01*
X236896Y648806D01*
X237296D01*
Y649206D01*
X236896Y649606D01*
X237296Y650006D01*
Y650406D01*
X236896D01*
X236496Y650006D01*
X236096Y650406D01*
X235696D01*
Y650006D01*
X236096Y649606D01*
X235696Y649206D01*
Y648806D01*
X214751D02*
X215151D01*
X215551Y649206D01*
X215951Y648806D01*
X216351D01*
Y649206D01*
X215951Y649606D01*
X216351Y650006D01*
Y650406D01*
X215951D01*
X215551Y650006D01*
X215151Y650406D01*
X214751D01*
Y650006D01*
X215151Y649606D01*
X214751Y649206D01*
Y648806D01*
X225224D02*
X225624D01*
X226024Y649206D01*
X226424Y648806D01*
X226824D01*
Y649206D01*
X226424Y649606D01*
X226824Y650006D01*
Y650406D01*
X226424D01*
X226024Y650006D01*
X225624Y650406D01*
X225224D01*
Y650006D01*
X225624Y649606D01*
X225224Y649206D01*
Y648806D01*
X644869Y450302D02*
X645269D01*
X645669Y450702D01*
X646069Y450302D01*
X646469D01*
Y450702D01*
X646069Y451102D01*
X646469Y451502D01*
Y451902D01*
X646069D01*
X645669Y451502D01*
X645269Y451902D01*
X644869D01*
Y451502D01*
X645269Y451102D01*
X644869Y450702D01*
Y450302D01*
Y471247D02*
X645269D01*
X645669Y471647D01*
X646069Y471247D01*
X646469D01*
Y471647D01*
X646069Y472047D01*
X646469Y472447D01*
Y472847D01*
X646069D01*
X645669Y472447D01*
X645269Y472847D01*
X644869D01*
Y472447D01*
X645269Y472047D01*
X644869Y471647D01*
Y471247D01*
Y460775D02*
X645269D01*
X645669Y461175D01*
X646069Y460775D01*
X646469D01*
Y461175D01*
X646069Y461575D01*
X646469Y461975D01*
Y462375D01*
X646069D01*
X645669Y461975D01*
X645269Y462375D01*
X644869D01*
Y461975D01*
X645269Y461575D01*
X644869Y461175D01*
Y460775D01*
X24843Y375184D02*
X25243D01*
X25643Y375584D01*
X26043Y375184D01*
X26443D01*
Y375584D01*
X26043Y375984D01*
X26443Y376384D01*
Y376784D01*
X26043D01*
X25643Y376384D01*
X25243Y376784D01*
X24843D01*
Y376384D01*
X25243Y375984D01*
X24843Y375584D01*
Y375184D01*
Y354239D02*
X25243D01*
X25643Y354639D01*
X26043Y354239D01*
X26443D01*
Y354639D01*
X26043Y355039D01*
X26443Y355439D01*
Y355839D01*
X26043D01*
X25643Y355439D01*
X25243Y355839D01*
X24843D01*
Y355439D01*
X25243Y355039D01*
X24843Y354639D01*
Y354239D01*
Y364712D02*
X25243D01*
X25643Y365112D01*
X26043Y364712D01*
X26443D01*
Y365112D01*
X26043Y365512D01*
X26443Y365912D01*
Y366312D01*
X26043D01*
X25643Y365912D01*
X25243Y366312D01*
X24843D01*
Y365912D01*
X25243Y365512D01*
X24843Y365112D01*
Y364712D01*
X644869Y68806D02*
X645269D01*
X645669Y69206D01*
X646069Y68806D01*
X646469D01*
Y69206D01*
X646069Y69606D01*
X646469Y70006D01*
Y70406D01*
X646069D01*
X645669Y70006D01*
X645269Y70406D01*
X644869D01*
Y70006D01*
X645269Y69606D01*
X644869Y69206D01*
Y68806D01*
Y89751D02*
X645269D01*
X645669Y90151D01*
X646069Y89751D01*
X646469D01*
Y90151D01*
X646069Y90551D01*
X646469Y90951D01*
Y91351D01*
X646069D01*
X645669Y90951D01*
X645269Y91351D01*
X644869D01*
Y90951D01*
X645269Y90551D01*
X644869Y90151D01*
Y89751D01*
Y79279D02*
X645269D01*
X645669Y79679D01*
X646069Y79279D01*
X646469D01*
Y79679D01*
X646069Y80079D01*
X646469Y80479D01*
Y80879D01*
X646069D01*
X645669Y80479D01*
X645269Y80879D01*
X644869D01*
Y80479D01*
X645269Y80079D01*
X644869Y79679D01*
Y79279D01*
X51759Y596063D02*
X52559Y596863D01*
X53359Y596063D01*
X52559Y595263D01*
X51759Y596063D01*
X63570Y614161D02*
Y615761D01*
X65170D01*
Y614161D01*
X63570D01*
X63970Y614561D02*
Y615361D01*
X64770D01*
Y614561D01*
X63970D01*
X38964Y614961D02*
X39764Y615761D01*
X40564Y614961D01*
X39764Y614161D01*
X38964Y614961D01*
X13780Y74987D02*
X14179Y75387D01*
X14580D01*
X14179Y75787D01*
X14580Y76187D01*
X14179D01*
X13780Y76587D01*
X13379Y76187D01*
X12979D01*
X13379Y75787D01*
X12979Y75387D01*
X13379D01*
X13780Y74987D01*
Y84987D02*
X14179Y85387D01*
X14580D01*
X14179Y85787D01*
X14580Y86187D01*
X14179D01*
X13780Y86587D01*
X13379Y86187D01*
X12979D01*
X13379Y85787D01*
X12979Y85387D01*
X13379D01*
X13780Y84987D01*
Y133216D02*
X14179Y133616D01*
X14580D01*
X14179Y134016D01*
X14580Y134416D01*
X14179D01*
X13780Y134816D01*
X13379Y134416D01*
X12979D01*
X13379Y134016D01*
X12979Y133616D01*
X13379D01*
X13780Y133216D01*
Y123216D02*
X14179Y123616D01*
X14580D01*
X14179Y124016D01*
X14580Y124416D01*
X14179D01*
X13780Y124816D01*
X13379Y124416D01*
X12979D01*
X13379Y124016D01*
X12979Y123616D01*
X13379D01*
X13780Y123216D01*
X11811Y225578D02*
X12211Y225978D01*
X12611D01*
X12211Y226378D01*
X12611Y226778D01*
X12211D01*
X11811Y227178D01*
X11411Y226778D01*
X11011D01*
X11411Y226378D01*
X11011Y225978D01*
X11411D01*
X11811Y225578D01*
Y235578D02*
X12211Y235978D01*
X12611D01*
X12211Y236378D01*
X12611Y236778D01*
X12211D01*
X11811Y237178D01*
X11411Y236778D01*
X11011D01*
X11411Y236378D01*
X11011Y235978D01*
X11411D01*
X11811Y235578D01*
Y175224D02*
X12211Y175624D01*
X12611D01*
X12211Y176024D01*
X12611Y176424D01*
X12211D01*
X11811Y176824D01*
X11411Y176424D01*
X11011D01*
X11411Y176024D01*
X11011Y175624D01*
X11411D01*
X11811Y175224D01*
Y185224D02*
X12211Y185624D01*
X12611D01*
X12211Y186024D01*
X12611Y186424D01*
X12211D01*
X11811Y186824D01*
X11411Y186424D01*
X11011D01*
X11411Y186024D01*
X11011Y185624D01*
X11411D01*
X11811Y185224D01*
X600551Y626365D02*
X600951Y626765D01*
X601351D01*
X600951Y627165D01*
X601351Y627565D01*
X600951D01*
X600551Y627965D01*
X600151Y627565D01*
X599751D01*
X600151Y627165D01*
X599751Y626765D01*
X600151D01*
X600551Y626365D01*
X590551D02*
X590951Y626765D01*
X591351D01*
X590951Y627165D01*
X591351Y627565D01*
X590951D01*
X590551Y627965D01*
X590151Y627565D01*
X589751D01*
X590151Y627165D01*
X589751Y626765D01*
X590151D01*
X590551Y626365D01*
X515079Y342901D02*
X515479Y343301D01*
X515879D01*
X515479Y343701D01*
X515879Y344101D01*
X515479D01*
X515079Y344501D01*
X514679Y344101D01*
X514279D01*
X514679Y343701D01*
X514279Y343301D01*
X514679D01*
X515079Y342901D01*
X520079D02*
X520479Y343301D01*
X520879D01*
X520479Y343701D01*
X520879Y344101D01*
X520479D01*
X520079Y344501D01*
X519679Y344101D01*
X519279D01*
X519679Y343701D01*
X519279Y343301D01*
X519679D01*
X520079Y342901D01*
X525079D02*
X525479Y343301D01*
X525879D01*
X525479Y343701D01*
X525879Y344101D01*
X525479D01*
X525079Y344501D01*
X524679Y344101D01*
X524279D01*
X524679Y343701D01*
X524279Y343301D01*
X524679D01*
X525079Y342901D01*
X516653Y144077D02*
X517054Y144476D01*
X517453D01*
X517054Y144877D01*
X517453Y145276D01*
X517054D01*
X516653Y145677D01*
X516254Y145276D01*
X515854D01*
X516254Y144877D01*
X515854Y144476D01*
X516254D01*
X516653Y144077D01*
X521654D02*
X522053Y144476D01*
X522453D01*
X522053Y144877D01*
X522453Y145276D01*
X522053D01*
X521654Y145677D01*
X521253Y145276D01*
X520854D01*
X521253Y144877D01*
X520854Y144476D01*
X521253D01*
X521654Y144077D01*
X526653D02*
X527053Y144476D01*
X527454D01*
X527053Y144877D01*
X527454Y145276D01*
X527053D01*
X526653Y145677D01*
X526254Y145276D01*
X525853D01*
X526254Y144877D01*
X525853Y144476D01*
X526254D01*
X526653Y144077D01*
X515866Y241720D02*
X516266Y242120D01*
X516666D01*
X516266Y242520D01*
X516666Y242920D01*
X516266D01*
X515866Y243320D01*
X515466Y242920D01*
X515066D01*
X515466Y242520D01*
X515066Y242120D01*
X515466D01*
X515866Y241720D01*
X520866D02*
X521266Y242120D01*
X521666D01*
X521266Y242520D01*
X521666Y242920D01*
X521266D01*
X520866Y243320D01*
X520466Y242920D01*
X520066D01*
X520466Y242520D01*
X520066Y242120D01*
X520466D01*
X520866Y241720D01*
X525866D02*
X526266Y242120D01*
X526666D01*
X526266Y242520D01*
X526666Y242920D01*
X526266D01*
X525866Y243320D01*
X525466Y242920D01*
X525066D01*
X525466Y242520D01*
X525066Y242120D01*
X525466D01*
X525866Y241720D01*
X516653Y24003D02*
X517054Y24403D01*
X517453D01*
X517054Y24803D01*
X517453Y25203D01*
X517054D01*
X516653Y25603D01*
X516254Y25203D01*
X515854D01*
X516254Y24803D01*
X515854Y24403D01*
X516254D01*
X516653Y24003D01*
X521654D02*
X522053Y24403D01*
X522453D01*
X522053Y24803D01*
X522453Y25203D01*
X522053D01*
X521654Y25603D01*
X521253Y25203D01*
X520854D01*
X521253Y24803D01*
X520854Y24403D01*
X521253D01*
X521654Y24003D01*
X526653D02*
X527053Y24403D01*
X527454D01*
X527053Y24803D01*
X527454Y25203D01*
X527053D01*
X526653Y25603D01*
X526254Y25203D01*
X525853D01*
X526254Y24803D01*
X525853Y24403D01*
X526254D01*
X526653Y24003D01*
X36417Y554318D02*
X36817Y554718D01*
X37217D01*
X36817Y555118D01*
X37217Y555518D01*
X36817D01*
X36417Y555918D01*
X36017Y555518D01*
X35617D01*
X36017Y555118D01*
X35617Y554718D01*
X36017D01*
X36417Y554318D01*
Y564318D02*
X36817Y564718D01*
X37217D01*
X36817Y565118D01*
X37217Y565518D01*
X36817D01*
X36417Y565918D01*
X36017Y565518D01*
X35617D01*
X36017Y565118D01*
X35617Y564718D01*
X36017D01*
X36417Y564318D01*
X497000Y590200D02*
X497400Y590600D01*
X497800D01*
X497400Y591000D01*
X497800Y591400D01*
X497400D01*
X497000Y591800D01*
X496600Y591400D01*
X496200D01*
X496600Y591000D01*
X496200Y590600D01*
X496600D01*
X497000Y590200D01*
X527000D02*
X527400Y590600D01*
X527800D01*
X527400Y591000D01*
X527800Y591400D01*
X527400D01*
X527000Y591800D01*
X526600Y591400D01*
X526200D01*
X526600Y591000D01*
X526200Y590600D01*
X526600D01*
X527000Y590200D01*
Y580200D02*
X527400Y580600D01*
X527800D01*
X527400Y581000D01*
X527800Y581400D01*
X527400D01*
X527000Y581800D01*
X526600Y581400D01*
X526200D01*
X526600Y581000D01*
X526200Y580600D01*
X526600D01*
X527000Y580200D01*
X497000D02*
X497400Y580600D01*
X497800D01*
X497400Y581000D01*
X497800Y581400D01*
X497400D01*
X497000Y581800D01*
X496600Y581400D01*
X496200D01*
X496600Y581000D01*
X496200Y580600D01*
X496600D01*
X497000Y580200D01*
X68661Y208924D02*
X69061Y209324D01*
X69461D01*
X69061Y209724D01*
X69461Y210124D01*
X69061D01*
X68661Y210524D01*
X68261Y210124D01*
X67861D01*
X68261Y209724D01*
X67861Y209324D01*
X68261D01*
X68661Y208924D01*
Y198924D02*
X69061Y199324D01*
X69461D01*
X69061Y199724D01*
X69461Y200124D01*
X69061D01*
X68661Y200524D01*
X68261Y200124D01*
X67861D01*
X68261Y199724D01*
X67861Y199324D01*
X68261D01*
X68661Y198924D01*
X98661D02*
X99061Y199324D01*
X99461D01*
X99061Y199724D01*
X99461Y200124D01*
X99061D01*
X98661Y200524D01*
X98261Y200124D01*
X97861D01*
X98261Y199724D01*
X97861Y199324D01*
X98261D01*
X98661Y198924D01*
Y208924D02*
X99061Y209324D01*
X99461D01*
X99061Y209724D01*
X99461Y210124D01*
X99061D01*
X98661Y210524D01*
X98261Y210124D01*
X97861D01*
X98261Y209724D01*
X97861Y209324D01*
X98261D01*
X98661Y208924D01*
X98110Y648806D02*
X97310Y650406D01*
X98910D01*
X98110Y648806D01*
Y649206D02*
X97710Y650006D01*
X98510D01*
X98110Y649206D01*
X118110Y648806D02*
X117310Y650406D01*
X118910D01*
X118110Y648806D01*
Y649206D02*
X117710Y650006D01*
X118510D01*
X118110Y649206D01*
X371063Y465066D02*
X371463Y465466D01*
X371863D01*
X371463Y465866D01*
X371863Y466266D01*
X371463D01*
X371063Y466666D01*
X370663Y466266D01*
X370263D01*
X370663Y465866D01*
X370263Y465466D01*
X370663D01*
X371063Y465066D01*
Y455066D02*
X371463Y455466D01*
X371863D01*
X371463Y455866D01*
X371863Y456266D01*
X371463D01*
X371063Y456666D01*
X370663Y456266D01*
X370263D01*
X370663Y455866D01*
X370263Y455466D01*
X370663D01*
X371063Y455066D01*
Y475066D02*
X371463Y475466D01*
X371863D01*
X371463Y475866D01*
X371863Y476266D01*
X371463D01*
X371063Y476666D01*
X370663Y476266D01*
X370263D01*
X370663Y475866D01*
X370263Y475466D01*
X370663D01*
X371063Y475066D01*
Y485066D02*
X371463Y485466D01*
X371863D01*
X371463Y485866D01*
X371863Y486266D01*
X371463D01*
X371063Y486666D01*
X370663Y486266D01*
X370263D01*
X370663Y485866D01*
X370263Y485466D01*
X370663D01*
X371063Y485066D01*
Y495066D02*
X371463Y495466D01*
X371863D01*
X371463Y495866D01*
X371863Y496266D01*
X371463D01*
X371063Y496666D01*
X370663Y496266D01*
X370263D01*
X370663Y495866D01*
X370263Y495466D01*
X370663D01*
X371063Y495066D01*
Y505066D02*
X371463Y505466D01*
X371863D01*
X371463Y505866D01*
X371863Y506266D01*
X371463D01*
X371063Y506666D01*
X370663Y506266D01*
X370263D01*
X370663Y505866D01*
X370263Y505466D01*
X370663D01*
X371063Y505066D01*
Y445066D02*
X371463Y445466D01*
X371863D01*
X371463Y445866D01*
X371863Y446266D01*
X371463D01*
X371063Y446666D01*
X370663Y446266D01*
X370263D01*
X370663Y445866D01*
X370263Y445466D01*
X370663D01*
X371063Y445066D01*
X25397Y422113D02*
X25797Y422513D01*
X26197D01*
X25797Y422913D01*
X26197Y423313D01*
X25797D01*
X25397Y423713D01*
X24997Y423313D01*
X24597D01*
X24997Y422913D01*
X24597Y422513D01*
X24997D01*
X25397Y422113D01*
Y452113D02*
X25797Y452513D01*
X26197D01*
X25797Y452913D01*
X26197Y453313D01*
X25797D01*
X25397Y453713D01*
X24997Y453313D01*
X24597D01*
X24997Y452913D01*
X24597Y452513D01*
X24997D01*
X25397Y452113D01*
Y462113D02*
X25797Y462513D01*
X26197D01*
X25797Y462913D01*
X26197Y463313D01*
X25797D01*
X25397Y463713D01*
X24997Y463313D01*
X24597D01*
X24997Y462913D01*
X24597Y462513D01*
X24997D01*
X25397Y462113D01*
Y472113D02*
X25797Y472513D01*
X26197D01*
X25797Y472913D01*
X26197Y473313D01*
X25797D01*
X25397Y473713D01*
X24997Y473313D01*
X24597D01*
X24997Y472913D01*
X24597Y472513D01*
X24997D01*
X25397Y472113D01*
Y432113D02*
X25797Y432513D01*
X26197D01*
X25797Y432913D01*
X26197Y433313D01*
X25797D01*
X25397Y433713D01*
X24997Y433313D01*
X24597D01*
X24997Y432913D01*
X24597Y432513D01*
X24997D01*
X25397Y432113D01*
Y442113D02*
X25797Y442513D01*
X26197D01*
X25797Y442913D01*
X26197Y443313D01*
X25797D01*
X25397Y443713D01*
X24997Y443313D01*
X24597D01*
X24997Y442913D01*
X24597Y442513D01*
X24997D01*
X25397Y442113D01*
X18885Y18885D02*
Y20485D01*
X20485D01*
Y18885D01*
X18885D01*
X648806D02*
Y20485D01*
X650406D01*
Y18885D01*
X648806D01*
Y653137D02*
Y654737D01*
X650406D01*
Y653137D01*
X648806D01*
X416142Y473609D02*
X416542Y474010D01*
X416942D01*
X416542Y474409D01*
X416942Y474810D01*
X416542D01*
X416142Y475210D01*
X415742Y474810D01*
X415342D01*
X415742Y474409D01*
X415342Y474010D01*
X415742D01*
X416142Y473609D01*
Y474010D02*
X416342Y474209D01*
X416542D01*
X416342Y474409D01*
X416542Y474610D01*
X416342D01*
X416142Y474810D01*
X415942Y474610D01*
X415742D01*
X415942Y474409D01*
X415742Y474209D01*
X415942D01*
X416142Y474010D01*
X45866Y210814D02*
X46266Y211214D01*
X46666D01*
X46266Y211614D01*
X46666Y212014D01*
X46266D01*
X45866Y212414D01*
X45466Y212014D01*
X45066D01*
X45466Y211614D01*
X45066Y211214D01*
X45466D01*
X45866Y210814D01*
Y211214D02*
X46066Y211414D01*
X46266D01*
X46066Y211614D01*
X46266Y211814D01*
X46066D01*
X45866Y212014D01*
X45666Y211814D01*
X45466D01*
X45666Y211614D01*
X45466Y211414D01*
X45666D01*
X45866Y211214D01*
X50000Y253531D02*
X50400Y253931D01*
X50800D01*
X50400Y254331D01*
X50800Y254731D01*
X50400D01*
X50000Y255131D01*
X49600Y254731D01*
X49200D01*
X49600Y254331D01*
X49200Y253931D01*
X49600D01*
X50000Y253531D01*
Y253931D02*
X50200Y254131D01*
X50400D01*
X50200Y254331D01*
X50400Y254531D01*
X50200D01*
X50000Y254731D01*
X49800Y254531D01*
X49600D01*
X49800Y254331D01*
X49600Y254131D01*
X49800D01*
X50000Y253931D01*
X82874Y148314D02*
X83274Y148714D01*
X83674D01*
X83274Y149114D01*
X83674Y149514D01*
X83274D01*
X82874Y149914D01*
X82474Y149514D01*
X82074D01*
X82474Y149114D01*
X82074Y148714D01*
X82474D01*
X82874Y148314D01*
Y148714D02*
X83074Y148914D01*
X83274D01*
X83074Y149114D01*
X83274Y149314D01*
X83074D01*
X82874Y149514D01*
X82674Y149314D01*
X82474D01*
X82674Y149114D01*
X82474Y148914D01*
X82674D01*
X82874Y148714D01*
X71358Y135519D02*
X71758Y135919D01*
X72158D01*
X71758Y136319D01*
X72158Y136719D01*
X71758D01*
X71358Y137119D01*
X70958Y136719D01*
X70558D01*
X70958Y136319D01*
X70558Y135919D01*
X70958D01*
X71358Y135519D01*
Y135919D02*
X71558Y136119D01*
X71758D01*
X71558Y136319D01*
X71758Y136519D01*
X71558D01*
X71358Y136719D01*
X71158Y136519D01*
X70958D01*
X71158Y136319D01*
X70958Y136119D01*
X71158D01*
X71358Y135919D01*
X81693Y75480D02*
X82093Y75880D01*
X82493D01*
X82093Y76279D01*
X82493Y76679D01*
X82093D01*
X81693Y77079D01*
X81293Y76679D01*
X80893D01*
X81293Y76279D01*
X80893Y75880D01*
X81293D01*
X81693Y75480D01*
Y75880D02*
X81893Y76079D01*
X82093D01*
X81893Y76279D01*
X82093Y76480D01*
X81893D01*
X81693Y76679D01*
X81493Y76480D01*
X81293D01*
X81493Y76279D01*
X81293Y76079D01*
X81493D01*
X81693Y75880D01*
X65551Y120165D02*
X65951Y120565D01*
X66351D01*
X65951Y120965D01*
X66351Y121365D01*
X65951D01*
X65551Y121765D01*
X65151Y121365D01*
X64751D01*
X65151Y120965D01*
X64751Y120565D01*
X65151D01*
X65551Y120165D01*
Y120565D02*
X65751Y120765D01*
X65951D01*
X65751Y120965D01*
X65951Y121165D01*
X65751D01*
X65551Y121365D01*
X65351Y121165D01*
X65151D01*
X65351Y120965D01*
X65151Y120765D01*
X65351D01*
X65551Y120565D01*
X90158Y109043D02*
X90557Y109442D01*
X90957D01*
X90557Y109843D01*
X90957Y110242D01*
X90557D01*
X90158Y110643D01*
X89758Y110242D01*
X89358D01*
X89758Y109843D01*
X89358Y109442D01*
X89758D01*
X90158Y109043D01*
Y109442D02*
X90358Y109643D01*
X90557D01*
X90358Y109843D01*
X90557Y110043D01*
X90358D01*
X90158Y110242D01*
X89957Y110043D01*
X89758D01*
X89957Y109843D01*
X89758Y109643D01*
X89957D01*
X90158Y109442D01*
X72441Y154318D02*
X72841Y154718D01*
X73241D01*
X72841Y155118D01*
X73241Y155518D01*
X72841D01*
X72441Y155918D01*
X72041Y155518D01*
X71641D01*
X72041Y155118D01*
X71641Y154718D01*
X72041D01*
X72441Y154318D01*
Y154718D02*
X72641Y154918D01*
X72841D01*
X72641Y155118D01*
X72841Y155318D01*
X72641D01*
X72441Y155518D01*
X72241Y155318D01*
X72041D01*
X72241Y155118D01*
X72041Y154918D01*
X72241D01*
X72441Y154718D01*
X77362Y27842D02*
X77762Y28242D01*
X78162D01*
X77762Y28642D01*
X78162Y29042D01*
X77762D01*
X77362Y29442D01*
X76962Y29042D01*
X76562D01*
X76962Y28642D01*
X76562Y28242D01*
X76962D01*
X77362Y27842D01*
Y28242D02*
X77562Y28442D01*
X77762D01*
X77562Y28642D01*
X77762Y28842D01*
X77562D01*
X77362Y29042D01*
X77162Y28842D01*
X76962D01*
X77162Y28642D01*
X76962Y28442D01*
X77162D01*
X77362Y28242D01*
X127953Y312192D02*
X128353Y312592D01*
X128753D01*
X128353Y312992D01*
X128753Y313392D01*
X128353D01*
X127953Y313792D01*
X127553Y313392D01*
X127153D01*
X127553Y312992D01*
X127153Y312592D01*
X127553D01*
X127953Y312192D01*
Y312592D02*
X128153Y312792D01*
X128353D01*
X128153Y312992D01*
X128353Y313192D01*
X128153D01*
X127953Y313392D01*
X127753Y313192D01*
X127553D01*
X127753Y312992D01*
X127553Y312792D01*
X127753D01*
X127953Y312592D01*
X98819Y316129D02*
X99219Y316529D01*
X99619D01*
X99219Y316929D01*
X99619Y317329D01*
X99219D01*
X98819Y317729D01*
X98419Y317329D01*
X98019D01*
X98419Y316929D01*
X98019Y316529D01*
X98419D01*
X98819Y316129D01*
Y316529D02*
X99019Y316729D01*
X99219D01*
X99019Y316929D01*
X99219Y317129D01*
X99019D01*
X98819Y317329D01*
X98619Y317129D01*
X98419D01*
X98619Y316929D01*
X98419Y316729D01*
X98619D01*
X98819Y316529D01*
X105020Y299102D02*
X105420Y299502D01*
X105820D01*
X105420Y299902D01*
X105820Y300302D01*
X105420D01*
X105020Y300702D01*
X104620Y300302D01*
X104220D01*
X104620Y299902D01*
X104220Y299502D01*
X104620D01*
X105020Y299102D01*
Y299502D02*
X105220Y299702D01*
X105420D01*
X105220Y299902D01*
X105420Y300102D01*
X105220D01*
X105020Y300302D01*
X104820Y300102D01*
X104620D01*
X104820Y299902D01*
X104620Y299702D01*
X104820D01*
X105020Y299502D01*
X100394Y307271D02*
X100794Y307671D01*
X101194D01*
X100794Y308071D01*
X101194Y308471D01*
X100794D01*
X100394Y308871D01*
X99994Y308471D01*
X99594D01*
X99994Y308071D01*
X99594Y307671D01*
X99994D01*
X100394Y307271D01*
Y307671D02*
X100594Y307871D01*
X100794D01*
X100594Y308071D01*
X100794Y308271D01*
X100594D01*
X100394Y308471D01*
X100194Y308271D01*
X99994D01*
X100194Y308071D01*
X99994Y307871D01*
X100194D01*
X100394Y307671D01*
X110039Y70952D02*
X110439Y71352D01*
X110839D01*
X110439Y71752D01*
X110839Y72152D01*
X110439D01*
X110039Y72552D01*
X109639Y72152D01*
X109239D01*
X109639Y71752D01*
X109239Y71352D01*
X109639D01*
X110039Y70952D01*
Y71352D02*
X110239Y71552D01*
X110439D01*
X110239Y71752D01*
X110439Y71952D01*
X110239D01*
X110039Y72152D01*
X109839Y71952D01*
X109639D01*
X109839Y71752D01*
X109639Y71552D01*
X109839D01*
X110039Y71352D01*
X135531Y180499D02*
X135932Y180899D01*
X136331D01*
X135932Y181299D01*
X136331Y181699D01*
X135932D01*
X135531Y182099D01*
X135132Y181699D01*
X134731D01*
X135132Y181299D01*
X134731Y180899D01*
X135132D01*
X135531Y180499D01*
Y180899D02*
X135731Y181099D01*
X135932D01*
X135731Y181299D01*
X135932Y181499D01*
X135731D01*
X135531Y181699D01*
X135331Y181499D01*
X135132D01*
X135331Y181299D01*
X135132Y181099D01*
X135331D01*
X135531Y180899D01*
X127559Y86208D02*
X127959Y86608D01*
X128359D01*
X127959Y87008D01*
X128359Y87408D01*
X127959D01*
X127559Y87808D01*
X127159Y87408D01*
X126759D01*
X127159Y87008D01*
X126759Y86608D01*
X127159D01*
X127559Y86208D01*
Y86608D02*
X127759Y86808D01*
X127959D01*
X127759Y87008D01*
X127959Y87208D01*
X127759D01*
X127559Y87408D01*
X127359Y87208D01*
X127159D01*
X127359Y87008D01*
X127159Y86808D01*
X127359D01*
X127559Y86608D01*
X146161Y146543D02*
X146561Y146942D01*
X146961D01*
X146561Y147343D01*
X146961Y147742D01*
X146561D01*
X146161Y148143D01*
X145761Y147742D01*
X145361D01*
X145761Y147343D01*
X145361Y146942D01*
X145761D01*
X146161Y146543D01*
Y146942D02*
X146361Y147143D01*
X146561D01*
X146361Y147343D01*
X146561Y147543D01*
X146361D01*
X146161Y147742D01*
X145961Y147543D01*
X145761D01*
X145961Y147343D01*
X145761Y147143D01*
X145961D01*
X146161Y146942D01*
X151969Y133846D02*
X152368Y134246D01*
X152769D01*
X152368Y134646D01*
X152769Y135046D01*
X152368D01*
X151969Y135446D01*
X151568Y135046D01*
X151169D01*
X151568Y134646D01*
X151169Y134246D01*
X151568D01*
X151969Y133846D01*
Y134246D02*
X152169Y134446D01*
X152368D01*
X152169Y134646D01*
X152368Y134846D01*
X152169D01*
X151969Y135046D01*
X151769Y134846D01*
X151568D01*
X151769Y134646D01*
X151568Y134446D01*
X151769D01*
X151969Y134246D01*
X126673Y65440D02*
X127073Y65840D01*
X127473D01*
X127073Y66240D01*
X127473Y66640D01*
X127073D01*
X126673Y67040D01*
X126273Y66640D01*
X125873D01*
X126273Y66240D01*
X125873Y65840D01*
X126273D01*
X126673Y65440D01*
Y65840D02*
X126873Y66040D01*
X127073D01*
X126873Y66240D01*
X127073Y66440D01*
X126873D01*
X126673Y66640D01*
X126473Y66440D01*
X126273D01*
X126473Y66240D01*
X126273Y66040D01*
X126473D01*
X126673Y65840D01*
X115354Y107468D02*
X115754Y107868D01*
X116154D01*
X115754Y108268D01*
X116154Y108668D01*
X115754D01*
X115354Y109068D01*
X114954Y108668D01*
X114554D01*
X114954Y108268D01*
X114554Y107868D01*
X114954D01*
X115354Y107468D01*
Y107868D02*
X115554Y108068D01*
X115754D01*
X115554Y108268D01*
X115754Y108468D01*
X115554D01*
X115354Y108668D01*
X115154Y108468D01*
X114954D01*
X115154Y108268D01*
X114954Y108068D01*
X115154D01*
X115354Y107868D01*
X153937Y525578D02*
X154337Y525978D01*
X154737D01*
X154337Y526378D01*
X154737Y526778D01*
X154337D01*
X153937Y527178D01*
X153537Y526778D01*
X153137D01*
X153537Y526378D01*
X153137Y525978D01*
X153537D01*
X153937Y525578D01*
Y525978D02*
X154137Y526178D01*
X154337D01*
X154137Y526378D01*
X154337Y526578D01*
X154137D01*
X153937Y526778D01*
X153737Y526578D01*
X153537D01*
X153737Y526378D01*
X153537Y526178D01*
X153737D01*
X153937Y525978D01*
X133760Y536109D02*
X134160Y536510D01*
X134560D01*
X134160Y536909D01*
X134560Y537310D01*
X134160D01*
X133760Y537710D01*
X133360Y537310D01*
X132960D01*
X133360Y536909D01*
X132960Y536510D01*
X133360D01*
X133760Y536109D01*
Y536510D02*
X133960Y536709D01*
X134160D01*
X133960Y536909D01*
X134160Y537110D01*
X133960D01*
X133760Y537310D01*
X133560Y537110D01*
X133360D01*
X133560Y536909D01*
X133360Y536709D01*
X133560D01*
X133760Y536510D01*
X124016Y535027D02*
X124416Y535427D01*
X124816D01*
X124416Y535827D01*
X124816Y536227D01*
X124416D01*
X124016Y536627D01*
X123616Y536227D01*
X123216D01*
X123616Y535827D01*
X123216Y535427D01*
X123616D01*
X124016Y535027D01*
Y535427D02*
X124216Y535627D01*
X124416D01*
X124216Y535827D01*
X124416Y536027D01*
X124216D01*
X124016Y536227D01*
X123816Y536027D01*
X123616D01*
X123816Y535827D01*
X123616Y535627D01*
X123816D01*
X124016Y535427D01*
X37402Y154712D02*
X37802Y155112D01*
X38202D01*
X37802Y155512D01*
X38202Y155912D01*
X37802D01*
X37402Y156312D01*
X37002Y155912D01*
X36602D01*
X37002Y155512D01*
X36602Y155112D01*
X37002D01*
X37402Y154712D01*
Y155112D02*
X37602Y155312D01*
X37802D01*
X37602Y155512D01*
X37802Y155712D01*
X37602D01*
X37402Y155912D01*
X37202Y155712D01*
X37002D01*
X37202Y155512D01*
X37002Y155312D01*
X37202D01*
X37402Y155112D01*
X106988Y218787D02*
X107388Y219187D01*
X107788D01*
X107388Y219587D01*
X107788Y219987D01*
X107388D01*
X106988Y220387D01*
X106588Y219987D01*
X106188D01*
X106588Y219587D01*
X106188Y219187D01*
X106588D01*
X106988Y218787D01*
Y219187D02*
X107188Y219387D01*
X107388D01*
X107188Y219587D01*
X107388Y219787D01*
X107188D01*
X106988Y219987D01*
X106788Y219787D01*
X106588D01*
X106788Y219587D01*
X106588Y219387D01*
X106788D01*
X106988Y219187D01*
X110433Y248806D02*
X110833Y249206D01*
X111233D01*
X110833Y249606D01*
X111233Y250006D01*
X110833D01*
X110433Y250406D01*
X110033Y250006D01*
X109633D01*
X110033Y249606D01*
X109633Y249206D01*
X110033D01*
X110433Y248806D01*
Y249206D02*
X110633Y249406D01*
X110833D01*
X110633Y249606D01*
X110833Y249806D01*
X110633D01*
X110433Y250006D01*
X110233Y249806D01*
X110033D01*
X110233Y249606D01*
X110033Y249406D01*
X110233D01*
X110433Y249206D01*
X92618Y242704D02*
X93018Y243104D01*
X93418D01*
X93018Y243504D01*
X93418Y243904D01*
X93018D01*
X92618Y244304D01*
X92218Y243904D01*
X91818D01*
X92218Y243504D01*
X91818Y243104D01*
X92218D01*
X92618Y242704D01*
Y243104D02*
X92818Y243304D01*
X93018D01*
X92818Y243504D01*
X93018Y243704D01*
X92818D01*
X92618Y243904D01*
X92418Y243704D01*
X92218D01*
X92418Y243504D01*
X92218Y243304D01*
X92418D01*
X92618Y243104D01*
X136319Y234436D02*
X136719Y234836D01*
X137119D01*
X136719Y235236D01*
X137119Y235636D01*
X136719D01*
X136319Y236036D01*
X135919Y235636D01*
X135519D01*
X135919Y235236D01*
X135519Y234836D01*
X135919D01*
X136319Y234436D01*
Y234836D02*
X136519Y235036D01*
X136719D01*
X136519Y235236D01*
X136719Y235436D01*
X136519D01*
X136319Y235636D01*
X136119Y235436D01*
X135919D01*
X136119Y235236D01*
X135919Y235036D01*
X136119D01*
X136319Y234836D01*
X129528Y247724D02*
X129928Y248124D01*
X130328D01*
X129928Y248524D01*
X130328Y248924D01*
X129928D01*
X129528Y249324D01*
X129128Y248924D01*
X128728D01*
X129128Y248524D01*
X128728Y248124D01*
X129128D01*
X129528Y247724D01*
Y248124D02*
X129728Y248324D01*
X129928D01*
X129728Y248524D01*
X129928Y248724D01*
X129728D01*
X129528Y248924D01*
X129328Y248724D01*
X129128D01*
X129328Y248524D01*
X129128Y248324D01*
X129328D01*
X129528Y248124D01*
X126969Y210913D02*
X127368Y211313D01*
X127769D01*
X127368Y211713D01*
X127769Y212113D01*
X127368D01*
X126969Y212513D01*
X126568Y212113D01*
X126169D01*
X126568Y211713D01*
X126169Y211313D01*
X126568D01*
X126969Y210913D01*
Y211313D02*
X127169Y211513D01*
X127368D01*
X127169Y211713D01*
X127368Y211913D01*
X127169D01*
X126969Y212113D01*
X126769Y211913D01*
X126568D01*
X126769Y211713D01*
X126568Y211513D01*
X126769D01*
X126969Y211313D01*
X115157Y233452D02*
X115558Y233852D01*
X115957D01*
X115558Y234252D01*
X115957Y234652D01*
X115558D01*
X115157Y235052D01*
X114758Y234652D01*
X114357D01*
X114758Y234252D01*
X114357Y233852D01*
X114758D01*
X115157Y233452D01*
Y233852D02*
X115357Y234052D01*
X115558D01*
X115357Y234252D01*
X115558Y234452D01*
X115357D01*
X115157Y234652D01*
X114957Y234452D01*
X114758D01*
X114957Y234252D01*
X114758Y234052D01*
X114957D01*
X115157Y233852D01*
X139189Y195263D02*
X139589Y195663D01*
X139989D01*
X139589Y196063D01*
X139989Y196463D01*
X139589D01*
X139189Y196863D01*
X138789Y196463D01*
X138389D01*
X138789Y196063D01*
X138389Y195663D01*
X138789D01*
X139189Y195263D01*
Y195663D02*
X139389Y195863D01*
X139589D01*
X139389Y196063D01*
X139589Y196263D01*
X139389D01*
X139189Y196463D01*
X138989Y196263D01*
X138789D01*
X138989Y196063D01*
X138789Y195863D01*
X138989D01*
X139189Y195663D01*
X98047Y273511D02*
X98447Y273911D01*
X98847D01*
X98447Y274311D01*
X98847Y274711D01*
X98447D01*
X98047Y275111D01*
X97647Y274711D01*
X97247D01*
X97647Y274311D01*
X97247Y273911D01*
X97647D01*
X98047Y273511D01*
Y273911D02*
X98247Y274111D01*
X98447D01*
X98247Y274311D01*
X98447Y274511D01*
X98247D01*
X98047Y274711D01*
X97847Y274511D01*
X97647D01*
X97847Y274311D01*
X97647Y274111D01*
X97847D01*
X98047Y273911D01*
X123031Y329909D02*
X123432Y330309D01*
X123831D01*
X123432Y330709D01*
X123831Y331109D01*
X123432D01*
X123031Y331509D01*
X122632Y331109D01*
X122231D01*
X122632Y330709D01*
X122231Y330309D01*
X122632D01*
X123031Y329909D01*
Y330309D02*
X123231Y330509D01*
X123432D01*
X123231Y330709D01*
X123432Y330909D01*
X123231D01*
X123031Y331109D01*
X122831Y330909D01*
X122632D01*
X122831Y330709D01*
X122632Y330509D01*
X122831D01*
X123031Y330309D01*
X44488Y362192D02*
X44888Y362592D01*
X45288D01*
X44888Y362992D01*
X45288Y363392D01*
X44888D01*
X44488Y363792D01*
X44088Y363392D01*
X43688D01*
X44088Y362992D01*
X43688Y362592D01*
X44088D01*
X44488Y362192D01*
Y362592D02*
X44688Y362792D01*
X44888D01*
X44688Y362992D01*
X44888Y363192D01*
X44688D01*
X44488Y363392D01*
X44288Y363192D01*
X44088D01*
X44288Y362992D01*
X44088Y362792D01*
X44288D01*
X44488Y362592D01*
X101208Y342874D02*
X101608Y343274D01*
X102008D01*
X101608Y343674D01*
X102008Y344074D01*
X101608D01*
X101208Y344474D01*
X100808Y344074D01*
X100408D01*
X100808Y343674D01*
X100408Y343274D01*
X100808D01*
X101208Y342874D01*
Y343274D02*
X101408Y343474D01*
X101608D01*
X101408Y343674D01*
X101608Y343874D01*
X101408D01*
X101208Y344074D01*
X101008Y343874D01*
X100808D01*
X101008Y343674D01*
X100808Y343474D01*
X101008D01*
X101208Y343274D01*
X135827Y386011D02*
X136227Y386411D01*
X136627D01*
X136227Y386811D01*
X136627Y387211D01*
X136227D01*
X135827Y387611D01*
X135427Y387211D01*
X135027D01*
X135427Y386811D01*
X135027Y386411D01*
X135427D01*
X135827Y386011D01*
Y386411D02*
X136027Y386611D01*
X136227D01*
X136027Y386811D01*
X136227Y387011D01*
X136027D01*
X135827Y387211D01*
X135627Y387011D01*
X135427D01*
X135627Y386811D01*
X135427Y386611D01*
X135627D01*
X135827Y386411D01*
X126772Y361798D02*
X127172Y362198D01*
X127572D01*
X127172Y362598D01*
X127572Y362998D01*
X127172D01*
X126772Y363398D01*
X126372Y362998D01*
X125972D01*
X126372Y362598D01*
X125972Y362198D01*
X126372D01*
X126772Y361798D01*
Y362198D02*
X126972Y362398D01*
X127172D01*
X126972Y362598D01*
X127172Y362798D01*
X126972D01*
X126772Y362998D01*
X126572Y362798D01*
X126372D01*
X126572Y362598D01*
X126372Y362398D01*
X126572D01*
X126772Y362198D01*
X117323Y389357D02*
X117723Y389757D01*
X118123D01*
X117723Y390158D01*
X118123Y390558D01*
X117723D01*
X117323Y390957D01*
X116923Y390558D01*
X116523D01*
X116923Y390158D01*
X116523Y389757D01*
X116923D01*
X117323Y389357D01*
Y389757D02*
X117523Y389957D01*
X117723D01*
X117523Y390158D01*
X117723Y390357D01*
X117523D01*
X117323Y390558D01*
X117123Y390357D01*
X116923D01*
X117123Y390158D01*
X116923Y389957D01*
X117123D01*
X117323Y389757D01*
X113386Y393688D02*
X113786Y394088D01*
X114186D01*
X113786Y394488D01*
X114186Y394888D01*
X113786D01*
X113386Y395288D01*
X112986Y394888D01*
X112586D01*
X112986Y394488D01*
X112586Y394088D01*
X112986D01*
X113386Y393688D01*
Y394088D02*
X113586Y394288D01*
X113786D01*
X113586Y394488D01*
X113786Y394688D01*
X113586D01*
X113386Y394888D01*
X113186Y394688D01*
X112986D01*
X113186Y394488D01*
X112986Y394288D01*
X113186D01*
X113386Y394088D01*
X38976Y369672D02*
X39376Y370072D01*
X39776D01*
X39376Y370472D01*
X39776Y370872D01*
X39376D01*
X38976Y371272D01*
X38576Y370872D01*
X38176D01*
X38576Y370472D01*
X38176Y370072D01*
X38576D01*
X38976Y369672D01*
Y370072D02*
X39176Y370272D01*
X39376D01*
X39176Y370472D01*
X39376Y370672D01*
X39176D01*
X38976Y370872D01*
X38776Y370672D01*
X38576D01*
X38776Y370472D01*
X38576Y370272D01*
X38776D01*
X38976Y370072D01*
X156496Y334830D02*
X156896Y335230D01*
X157296D01*
X156896Y335630D01*
X157296Y336030D01*
X156896D01*
X156496Y336430D01*
X156096Y336030D01*
X155696D01*
X156096Y335630D01*
X155696Y335230D01*
X156096D01*
X156496Y334830D01*
Y335230D02*
X156696Y335430D01*
X156896D01*
X156696Y335630D01*
X156896Y335830D01*
X156696D01*
X156496Y336030D01*
X156296Y335830D01*
X156096D01*
X156296Y335630D01*
X156096Y335430D01*
X156296D01*
X156496Y335230D01*
X151575Y340735D02*
X151975Y341135D01*
X152375D01*
X151975Y341535D01*
X152375Y341935D01*
X151975D01*
X151575Y342335D01*
X151175Y341935D01*
X150775D01*
X151175Y341535D01*
X150775Y341135D01*
X151175D01*
X151575Y340735D01*
Y341135D02*
X151775Y341335D01*
X151975D01*
X151775Y341535D01*
X151975Y341735D01*
X151775D01*
X151575Y341935D01*
X151375Y341735D01*
X151175D01*
X151375Y341535D01*
X151175Y341335D01*
X151375D01*
X151575Y341135D01*
X38189Y483846D02*
X38589Y484246D01*
X38989D01*
X38589Y484646D01*
X38989Y485046D01*
X38589D01*
X38189Y485446D01*
X37789Y485046D01*
X37389D01*
X37789Y484646D01*
X37389Y484246D01*
X37789D01*
X38189Y483846D01*
Y484246D02*
X38389Y484446D01*
X38589D01*
X38389Y484646D01*
X38589Y484846D01*
X38389D01*
X38189Y485046D01*
X37989Y484846D01*
X37789D01*
X37989Y484646D01*
X37789Y484446D01*
X37989D01*
X38189Y484246D01*
X94095Y425972D02*
X94494Y426372D01*
X94894D01*
X94494Y426772D01*
X94894Y427172D01*
X94494D01*
X94095Y427572D01*
X93695Y427172D01*
X93295D01*
X93695Y426772D01*
X93295Y426372D01*
X93695D01*
X94095Y425972D01*
Y426372D02*
X94295Y426572D01*
X94494D01*
X94295Y426772D01*
X94494Y426972D01*
X94295D01*
X94095Y427172D01*
X93894Y426972D01*
X93695D01*
X93894Y426772D01*
X93695Y426572D01*
X93894D01*
X94095Y426372D01*
X143701Y428334D02*
X144101Y428734D01*
X144501D01*
X144101Y429134D01*
X144501Y429534D01*
X144101D01*
X143701Y429934D01*
X143301Y429534D01*
X142901D01*
X143301Y429134D01*
X142901Y428734D01*
X143301D01*
X143701Y428334D01*
Y428734D02*
X143901Y428934D01*
X144101D01*
X143901Y429134D01*
X144101Y429334D01*
X143901D01*
X143701Y429534D01*
X143501Y429334D01*
X143301D01*
X143501Y429134D01*
X143301Y428934D01*
X143501D01*
X143701Y428734D01*
X131102Y477940D02*
X131502Y478340D01*
X131902D01*
X131502Y478740D01*
X131902Y479140D01*
X131502D01*
X131102Y479540D01*
X130702Y479140D01*
X130302D01*
X130702Y478740D01*
X130302Y478340D01*
X130702D01*
X131102Y477940D01*
Y478340D02*
X131302Y478540D01*
X131502D01*
X131302Y478740D01*
X131502Y478940D01*
X131302D01*
X131102Y479140D01*
X130902Y478940D01*
X130702D01*
X130902Y478740D01*
X130702Y478540D01*
X130902D01*
X131102Y478340D01*
X39370Y443294D02*
X39770Y443694D01*
X40170D01*
X39770Y444095D01*
X40170Y444494D01*
X39770D01*
X39370Y444895D01*
X38970Y444494D01*
X38570D01*
X38970Y444095D01*
X38570Y443694D01*
X38970D01*
X39370Y443294D01*
Y443694D02*
X39570Y443894D01*
X39770D01*
X39570Y444095D01*
X39770Y444295D01*
X39570D01*
X39370Y444494D01*
X39170Y444295D01*
X38970D01*
X39170Y444095D01*
X38970Y443894D01*
X39170D01*
X39370Y443694D01*
X163386Y165342D02*
X163786Y165742D01*
X164186D01*
X163786Y166142D01*
X164186Y166542D01*
X163786D01*
X163386Y166942D01*
X162986Y166542D01*
X162586D01*
X162986Y166142D01*
X162586Y165742D01*
X162986D01*
X163386Y165342D01*
Y165742D02*
X163586Y165942D01*
X163786D01*
X163586Y166142D01*
X163786Y166342D01*
X163586D01*
X163386Y166542D01*
X163186Y166342D01*
X162986D01*
X163186Y166142D01*
X162986Y165942D01*
X163186D01*
X163386Y165742D01*
X160630Y291326D02*
X161030Y291726D01*
X161430D01*
X161030Y292126D01*
X161430Y292526D01*
X161030D01*
X160630Y292926D01*
X160230Y292526D01*
X159830D01*
X160230Y292126D01*
X159830Y291726D01*
X160230D01*
X160630Y291326D01*
Y291726D02*
X160830Y291926D01*
X161030D01*
X160830Y292126D01*
X161030Y292326D01*
X160830D01*
X160630Y292526D01*
X160430Y292326D01*
X160230D01*
X160430Y292126D01*
X160230Y291926D01*
X160430D01*
X160630Y291726D01*
X180315Y270066D02*
X180715Y270466D01*
X181115D01*
X180715Y270866D01*
X181115Y271266D01*
X180715D01*
X180315Y271666D01*
X179915Y271266D01*
X179515D01*
X179915Y270866D01*
X179515Y270466D01*
X179915D01*
X180315Y270066D01*
Y270466D02*
X180515Y270666D01*
X180715D01*
X180515Y270866D01*
X180715Y271066D01*
X180515D01*
X180315Y271266D01*
X180115Y271066D01*
X179915D01*
X180115Y270866D01*
X179915Y270666D01*
X180115D01*
X180315Y270466D01*
X173622Y281877D02*
X174022Y282277D01*
X174422D01*
X174022Y282677D01*
X174422Y283077D01*
X174022D01*
X173622Y283477D01*
X173222Y283077D01*
X172822D01*
X173222Y282677D01*
X172822Y282277D01*
X173222D01*
X173622Y281877D01*
Y282277D02*
X173822Y282477D01*
X174022D01*
X173822Y282677D01*
X174022Y282877D01*
X173822D01*
X173622Y283077D01*
X173422Y282877D01*
X173222D01*
X173422Y282677D01*
X173222Y282477D01*
X173422D01*
X173622Y282277D01*
X170276Y255105D02*
X170676Y255505D01*
X171076D01*
X170676Y255906D01*
X171076Y256306D01*
X170676D01*
X170276Y256705D01*
X169876Y256306D01*
X169476D01*
X169876Y255906D01*
X169476Y255505D01*
X169876D01*
X170276Y255105D01*
Y255505D02*
X170476Y255705D01*
X170676D01*
X170476Y255906D01*
X170676Y256105D01*
X170476D01*
X170276Y256306D01*
X170076Y256105D01*
X169876D01*
X170076Y255906D01*
X169876Y255705D01*
X170076D01*
X170276Y255505D01*
X168898Y295657D02*
X169298Y296057D01*
X169698D01*
X169298Y296457D01*
X169698Y296857D01*
X169298D01*
X168898Y297257D01*
X168498Y296857D01*
X168098D01*
X168498Y296457D01*
X168098Y296057D01*
X168498D01*
X168898Y295657D01*
Y296057D02*
X169098Y296257D01*
X169298D01*
X169098Y296457D01*
X169298Y296657D01*
X169098D01*
X168898Y296857D01*
X168698Y296657D01*
X168498D01*
X168698Y296457D01*
X168498Y296257D01*
X168698D01*
X168898Y296057D01*
X129921Y572035D02*
X130321Y572435D01*
X130721D01*
X130321Y572835D01*
X130721Y573235D01*
X130321D01*
X129921Y573635D01*
X129521Y573235D01*
X129121D01*
X129521Y572835D01*
X129121Y572435D01*
X129521D01*
X129921Y572035D01*
Y572435D02*
X130121Y572635D01*
X130321D01*
X130121Y572835D01*
X130321Y573035D01*
X130121D01*
X129921Y573235D01*
X129721Y573035D01*
X129521D01*
X129721Y572835D01*
X129521Y572635D01*
X129721D01*
X129921Y572435D01*
X390945Y564948D02*
X391345Y565348D01*
X391745D01*
X391345Y565748D01*
X391745Y566148D01*
X391345D01*
X390945Y566548D01*
X390545Y566148D01*
X390145D01*
X390545Y565748D01*
X390145Y565348D01*
X390545D01*
X390945Y564948D01*
Y565348D02*
X391145Y565548D01*
X391345D01*
X391145Y565748D01*
X391345Y565948D01*
X391145D01*
X390945Y566148D01*
X390745Y565948D01*
X390545D01*
X390745Y565748D01*
X390545Y565548D01*
X390745D01*
X390945Y565348D01*
X387438Y362755D02*
X387838Y363155D01*
X388238D01*
X387838Y363555D01*
X388238Y363955D01*
X387838D01*
X387438Y364355D01*
X387038Y363955D01*
X386638D01*
X387038Y363555D01*
X386638Y363155D01*
X387038D01*
X387438Y362755D01*
Y363155D02*
X387638Y363355D01*
X387838D01*
X387638Y363555D01*
X387838Y363755D01*
X387638D01*
X387438Y363955D01*
X387238Y363755D01*
X387038D01*
X387238Y363555D01*
X387038Y363355D01*
X387238D01*
X387438Y363155D01*
X259842Y363767D02*
X260243Y364167D01*
X260643D01*
X260243Y364567D01*
X260643Y364967D01*
X260243D01*
X259842Y365367D01*
X259442Y364967D01*
X259043D01*
X259442Y364567D01*
X259043Y364167D01*
X259442D01*
X259842Y363767D01*
Y364167D02*
X260043Y364367D01*
X260243D01*
X260043Y364567D01*
X260243Y364767D01*
X260043D01*
X259842Y364967D01*
X259643Y364767D01*
X259442D01*
X259643Y364567D01*
X259442Y364367D01*
X259643D01*
X259842Y364167D01*
X253543Y359436D02*
X253943Y359836D01*
X254343D01*
X253943Y360236D01*
X254343Y360636D01*
X253943D01*
X253543Y361036D01*
X253143Y360636D01*
X252743D01*
X253143Y360236D01*
X252743Y359836D01*
X253143D01*
X253543Y359436D01*
Y359836D02*
X253743Y360036D01*
X253943D01*
X253743Y360236D01*
X253943Y360436D01*
X253743D01*
X253543Y360636D01*
X253343Y360436D01*
X253143D01*
X253343Y360236D01*
X253143Y360036D01*
X253343D01*
X253543Y359836D01*
X363189Y374200D02*
X363589Y374600D01*
X363989D01*
X363589Y375000D01*
X363989Y375400D01*
X363589D01*
X363189Y375800D01*
X362789Y375400D01*
X362389D01*
X362789Y375000D01*
X362389Y374600D01*
X362789D01*
X363189Y374200D01*
Y374600D02*
X363389Y374800D01*
X363589D01*
X363389Y375000D01*
X363589Y375200D01*
X363389D01*
X363189Y375400D01*
X362989Y375200D01*
X362789D01*
X362989Y375000D01*
X362789Y374800D01*
X362989D01*
X363189Y374600D01*
X312008Y443098D02*
X312408Y443498D01*
X312808D01*
X312408Y443898D01*
X312808Y444298D01*
X312408D01*
X312008Y444698D01*
X311608Y444298D01*
X311208D01*
X311608Y443898D01*
X311208Y443498D01*
X311608D01*
X312008Y443098D01*
Y443498D02*
X312208Y443698D01*
X312408D01*
X312208Y443898D01*
X312408Y444098D01*
X312208D01*
X312008Y444298D01*
X311808Y444098D01*
X311608D01*
X311808Y443898D01*
X311608Y443698D01*
X311808D01*
X312008Y443498D01*
X300787Y402350D02*
X301187Y402750D01*
X301587D01*
X301187Y403150D01*
X301587Y403550D01*
X301187D01*
X300787Y403950D01*
X300387Y403550D01*
X299987D01*
X300387Y403150D01*
X299987Y402750D01*
X300387D01*
X300787Y402350D01*
Y402750D02*
X300987Y402950D01*
X301187D01*
X300987Y403150D01*
X301187Y403350D01*
X300987D01*
X300787Y403550D01*
X300587Y403350D01*
X300387D01*
X300587Y403150D01*
X300387Y402950D01*
X300587D01*
X300787Y402750D01*
X388976Y523216D02*
X389376Y523616D01*
X389776D01*
X389376Y524016D01*
X389776Y524416D01*
X389376D01*
X388976Y524816D01*
X388576Y524416D01*
X388176D01*
X388576Y524016D01*
X388176Y523616D01*
X388576D01*
X388976Y523216D01*
Y523616D02*
X389176Y523816D01*
X389376D01*
X389176Y524016D01*
X389376Y524216D01*
X389176D01*
X388976Y524416D01*
X388776Y524216D01*
X388576D01*
X388776Y524016D01*
X388576Y523816D01*
X388776D01*
X388976Y523616D01*
X276772Y490932D02*
X277172Y491332D01*
X277572D01*
X277172Y491732D01*
X277572Y492132D01*
X277172D01*
X276772Y492532D01*
X276372Y492132D01*
X275972D01*
X276372Y491732D01*
X275972Y491332D01*
X276372D01*
X276772Y490932D01*
Y491332D02*
X276972Y491532D01*
X277172D01*
X276972Y491732D01*
X277172Y491932D01*
X276972D01*
X276772Y492132D01*
X276572Y491932D01*
X276372D01*
X276572Y491732D01*
X276372Y491532D01*
X276572D01*
X276772Y491332D01*
X410630Y473609D02*
X411030Y474010D01*
X411430D01*
X411030Y474409D01*
X411430Y474810D01*
X411030D01*
X410630Y475210D01*
X410230Y474810D01*
X409830D01*
X410230Y474409D01*
X409830Y474010D01*
X410230D01*
X410630Y473609D01*
Y474010D02*
X410830Y474209D01*
X411030D01*
X410830Y474409D01*
X411030Y474610D01*
X410830D01*
X410630Y474810D01*
X410430Y474610D01*
X410230D01*
X410430Y474409D01*
X410230Y474209D01*
X410430D01*
X410630Y474010D01*
X410236Y495657D02*
X410636Y496057D01*
X411036D01*
X410636Y496457D01*
X411036Y496857D01*
X410636D01*
X410236Y497257D01*
X409836Y496857D01*
X409436D01*
X409836Y496457D01*
X409436Y496057D01*
X409836D01*
X410236Y495657D01*
Y496057D02*
X410436Y496257D01*
X410636D01*
X410436Y496457D01*
X410636Y496657D01*
X410436D01*
X410236Y496857D01*
X410036Y496657D01*
X409836D01*
X410036Y496457D01*
X409836Y496257D01*
X410036D01*
X410236Y496057D01*
X294094Y496444D02*
X294495Y496844D01*
X294895D01*
X294495Y497244D01*
X294895Y497644D01*
X294495D01*
X294094Y498044D01*
X293694Y497644D01*
X293295D01*
X293694Y497244D01*
X293295Y496844D01*
X293694D01*
X294094Y496444D01*
Y496844D02*
X294295Y497044D01*
X294495D01*
X294295Y497244D01*
X294495Y497444D01*
X294295D01*
X294094Y497644D01*
X293895Y497444D01*
X293694D01*
X293895Y497244D01*
X293694Y497044D01*
X293895D01*
X294094Y496844D01*
X304251Y148726D02*
X304651Y149126D01*
X305051D01*
X304651Y149526D01*
X305051Y149926D01*
X304651D01*
X304251Y150326D01*
X303851Y149926D01*
X303451D01*
X303851Y149526D01*
X303451Y149126D01*
X303851D01*
X304251Y148726D01*
Y149126D02*
X304451Y149326D01*
X304651D01*
X304451Y149526D01*
X304651Y149726D01*
X304451D01*
X304251Y149926D01*
X304051Y149726D01*
X303851D01*
X304051Y149526D01*
X303851Y149326D01*
X304051D01*
X304251Y149126D01*
X268996Y174594D02*
X269396Y174994D01*
X269796D01*
X269396Y175394D01*
X269796Y175794D01*
X269396D01*
X268996Y176194D01*
X268596Y175794D01*
X268196D01*
X268596Y175394D01*
X268196Y174994D01*
X268596D01*
X268996Y174594D01*
Y174994D02*
X269196Y175194D01*
X269396D01*
X269196Y175394D01*
X269396Y175594D01*
X269196D01*
X268996Y175794D01*
X268796Y175594D01*
X268596D01*
X268796Y175394D01*
X268596Y175194D01*
X268796D01*
X268996Y174994D01*
X323228Y146444D02*
X323628Y146844D01*
X324028D01*
X323628Y147244D01*
X324028Y147644D01*
X323628D01*
X323228Y148044D01*
X322828Y147644D01*
X322428D01*
X322828Y147244D01*
X322428Y146844D01*
X322828D01*
X323228Y146444D01*
Y146844D02*
X323428Y147044D01*
X323628D01*
X323428Y147244D01*
X323628Y147444D01*
X323428D01*
X323228Y147644D01*
X323028Y147444D01*
X322828D01*
X323028Y147244D01*
X322828Y147044D01*
X323028D01*
X323228Y146844D01*
X245276Y192507D02*
X245676Y192907D01*
X246076D01*
X245676Y193307D01*
X246076Y193707D01*
X245676D01*
X245276Y194107D01*
X244876Y193707D01*
X244476D01*
X244876Y193307D01*
X244476Y192907D01*
X244876D01*
X245276Y192507D01*
Y192907D02*
X245476Y193107D01*
X245676D01*
X245476Y193307D01*
X245676Y193507D01*
X245476D01*
X245276Y193707D01*
X245076Y193507D01*
X244876D01*
X245076Y193307D01*
X244876Y193107D01*
X245076D01*
X245276Y192907D01*
X271654Y162586D02*
X272054Y162986D01*
X272453D01*
X272054Y163386D01*
X272453Y163786D01*
X272054D01*
X271654Y164186D01*
X271253Y163786D01*
X270853D01*
X271253Y163386D01*
X270853Y162986D01*
X271253D01*
X271654Y162586D01*
Y162986D02*
X271853Y163186D01*
X272054D01*
X271853Y163386D01*
X272054Y163586D01*
X271853D01*
X271654Y163786D01*
X271453Y163586D01*
X271253D01*
X271453Y163386D01*
X271253Y163186D01*
X271453D01*
X271654Y162986D01*
X404724Y408649D02*
X405124Y409049D01*
X405524D01*
X405124Y409449D01*
X405524Y409849D01*
X405124D01*
X404724Y410249D01*
X404324Y409849D01*
X403924D01*
X404324Y409449D01*
X403924Y409049D01*
X404324D01*
X404724Y408649D01*
Y409049D02*
X404924Y409249D01*
X405124D01*
X404924Y409449D01*
X405124Y409649D01*
X404924D01*
X404724Y409849D01*
X404524Y409649D01*
X404324D01*
X404524Y409449D01*
X404324Y409249D01*
X404524D01*
X404724Y409049D01*
X408268Y412192D02*
X408668Y412592D01*
X409068D01*
X408668Y412992D01*
X409068Y413392D01*
X408668D01*
X408268Y413792D01*
X407868Y413392D01*
X407468D01*
X407868Y412992D01*
X407468Y412592D01*
X407868D01*
X408268Y412192D01*
Y412592D02*
X408468Y412792D01*
X408668D01*
X408468Y412992D01*
X408668Y413192D01*
X408468D01*
X408268Y413392D01*
X408068Y413192D01*
X407868D01*
X408068Y412992D01*
X407868Y412792D01*
X408068D01*
X408268Y412592D01*
X399787Y424727D02*
X400187Y425127D01*
X400587D01*
X400187Y425527D01*
X400587Y425927D01*
X400187D01*
X399787Y426327D01*
X399387Y425927D01*
X398987D01*
X399387Y425527D01*
X398987Y425127D01*
X399387D01*
X399787Y424727D01*
Y425127D02*
X399987Y425327D01*
X400187D01*
X399987Y425527D01*
X400187Y425727D01*
X399987D01*
X399787Y425927D01*
X399587Y425727D01*
X399387D01*
X399587Y425527D01*
X399387Y425327D01*
X399587D01*
X399787Y425127D01*
X269291Y333058D02*
X269691Y333458D01*
X270091D01*
X269691Y333858D01*
X270091Y334258D01*
X269691D01*
X269291Y334658D01*
X268891Y334258D01*
X268491D01*
X268891Y333858D01*
X268491Y333458D01*
X268891D01*
X269291Y333058D01*
Y333458D02*
X269491Y333658D01*
X269691D01*
X269491Y333858D01*
X269691Y334058D01*
X269491D01*
X269291Y334258D01*
X269091Y334058D01*
X268891D01*
X269091Y333858D01*
X268891Y333658D01*
X269091D01*
X269291Y333458D01*
X278543Y275775D02*
X278943Y276175D01*
X279343D01*
X278943Y276575D01*
X279343Y276975D01*
X278943D01*
X278543Y277375D01*
X278143Y276975D01*
X277743D01*
X278143Y276575D01*
X277743Y276175D01*
X278143D01*
X278543Y275775D01*
Y276175D02*
X278743Y276375D01*
X278943D01*
X278743Y276575D01*
X278943Y276775D01*
X278743D01*
X278543Y276975D01*
X278343Y276775D01*
X278143D01*
X278343Y276575D01*
X278143Y276375D01*
X278343D01*
X278543Y276175D01*
X264961Y321657D02*
X265361Y322057D01*
X265761D01*
X265361Y322457D01*
X265761Y322857D01*
X265361D01*
X264961Y323257D01*
X264561Y322857D01*
X264161D01*
X264561Y322457D01*
X264161Y322057D01*
X264561D01*
X264961Y321657D01*
Y322057D02*
X265161Y322257D01*
X265361D01*
X265161Y322457D01*
X265361Y322657D01*
X265161D01*
X264961Y322857D01*
X264761Y322657D01*
X264561D01*
X264761Y322457D01*
X264561Y322257D01*
X264761D01*
X264961Y322057D01*
X251575Y322428D02*
X251975Y322828D01*
X252375D01*
X251975Y323228D01*
X252375Y323628D01*
X251975D01*
X251575Y324028D01*
X251175Y323628D01*
X250775D01*
X251175Y323228D01*
X250775Y322828D01*
X251175D01*
X251575Y322428D01*
Y322828D02*
X251775Y323028D01*
X251975D01*
X251775Y323228D01*
X251975Y323428D01*
X251775D01*
X251575Y323628D01*
X251375Y323428D01*
X251175D01*
X251375Y323228D01*
X251175Y323028D01*
X251375D01*
X251575Y322828D01*
X224016Y542507D02*
X224416Y542907D01*
X224816D01*
X224416Y543307D01*
X224816Y543707D01*
X224416D01*
X224016Y544107D01*
X223616Y543707D01*
X223216D01*
X223616Y543307D01*
X223216Y542907D01*
X223616D01*
X224016Y542507D01*
Y542907D02*
X224216Y543107D01*
X224416D01*
X224216Y543307D01*
X224416Y543507D01*
X224216D01*
X224016Y543707D01*
X223816Y543507D01*
X223616D01*
X223816Y543307D01*
X223616Y543107D01*
X223816D01*
X224016Y542907D01*
X255906Y475578D02*
X256306Y475978D01*
X256705D01*
X256306Y476378D01*
X256705Y476778D01*
X256306D01*
X255906Y477178D01*
X255505Y476778D01*
X255105D01*
X255505Y476378D01*
X255105Y475978D01*
X255505D01*
X255906Y475578D01*
Y475978D02*
X256105Y476178D01*
X256306D01*
X256105Y476378D01*
X256306Y476578D01*
X256105D01*
X255906Y476778D01*
X255705Y476578D01*
X255505D01*
X255705Y476378D01*
X255505Y476178D01*
X255705D01*
X255906Y475978D01*
X250787Y496050D02*
X251187Y496450D01*
X251587D01*
X251187Y496850D01*
X251587Y497250D01*
X251187D01*
X250787Y497650D01*
X250387Y497250D01*
X249987D01*
X250387Y496850D01*
X249987Y496450D01*
X250387D01*
X250787Y496050D01*
Y496450D02*
X250987Y496650D01*
X251187D01*
X250987Y496850D01*
X251187Y497050D01*
X250987D01*
X250787Y497250D01*
X250587Y497050D01*
X250387D01*
X250587Y496850D01*
X250387Y496650D01*
X250587D01*
X250787Y496450D01*
X263386Y468885D02*
X263786Y469285D01*
X264186D01*
X263786Y469685D01*
X264186Y470085D01*
X263786D01*
X263386Y470485D01*
X262986Y470085D01*
X262586D01*
X262986Y469685D01*
X262586Y469285D01*
X262986D01*
X263386Y468885D01*
Y469285D02*
X263586Y469485D01*
X263786D01*
X263586Y469685D01*
X263786Y469885D01*
X263586D01*
X263386Y470085D01*
X263186Y469885D01*
X262986D01*
X263186Y469685D01*
X262986Y469485D01*
X263186D01*
X263386Y469285D01*
X224016Y530696D02*
X224416Y531096D01*
X224816D01*
X224416Y531496D01*
X224816Y531896D01*
X224416D01*
X224016Y532296D01*
X223616Y531896D01*
X223216D01*
X223616Y531496D01*
X223216Y531096D01*
X223616D01*
X224016Y530696D01*
Y531096D02*
X224216Y531296D01*
X224416D01*
X224216Y531496D01*
X224416Y531696D01*
X224216D01*
X224016Y531896D01*
X223816Y531696D01*
X223616D01*
X223816Y531496D01*
X223616Y531296D01*
X223816D01*
X224016Y531096D01*
X163779Y536208D02*
X164180Y536608D01*
X164579D01*
X164180Y537008D01*
X164579Y537408D01*
X164180D01*
X163779Y537808D01*
X163380Y537408D01*
X162979D01*
X163380Y537008D01*
X162979Y536608D01*
X163380D01*
X163779Y536208D01*
Y536608D02*
X163979Y536808D01*
X164180D01*
X163979Y537008D01*
X164180Y537208D01*
X163979D01*
X163779Y537408D01*
X163579Y537208D01*
X163380D01*
X163579Y537008D01*
X163380Y536808D01*
X163579D01*
X163779Y536608D01*
X263779Y456877D02*
X264179Y457277D01*
X264580D01*
X264179Y457677D01*
X264580Y458077D01*
X264179D01*
X263779Y458477D01*
X263380Y458077D01*
X262980D01*
X263380Y457677D01*
X262980Y457277D01*
X263380D01*
X263779Y456877D01*
Y457277D02*
X263980Y457477D01*
X264179D01*
X263980Y457677D01*
X264179Y457877D01*
X263980D01*
X263779Y458077D01*
X263580Y457877D01*
X263380D01*
X263580Y457677D01*
X263380Y457477D01*
X263580D01*
X263779Y457277D01*
X223622Y484633D02*
X224022Y485033D01*
X224422D01*
X224022Y485433D01*
X224422Y485833D01*
X224022D01*
X223622Y486233D01*
X223222Y485833D01*
X222822D01*
X223222Y485433D01*
X222822Y485033D01*
X223222D01*
X223622Y484633D01*
Y485033D02*
X223822Y485233D01*
X224022D01*
X223822Y485433D01*
X224022Y485633D01*
X223822D01*
X223622Y485833D01*
X223422Y485633D01*
X223222D01*
X223422Y485433D01*
X223222Y485233D01*
X223422D01*
X223622Y485033D01*
X240158Y384239D02*
X240558Y384639D01*
X240957D01*
X240558Y385039D01*
X240957Y385439D01*
X240558D01*
X240158Y385839D01*
X239757Y385439D01*
X239357D01*
X239757Y385039D01*
X239357Y384639D01*
X239757D01*
X240158Y384239D01*
Y384639D02*
X240357Y384839D01*
X240558D01*
X240357Y385039D01*
X240558Y385239D01*
X240357D01*
X240158Y385439D01*
X239957Y385239D01*
X239757D01*
X239957Y385039D01*
X239757Y384839D01*
X239957D01*
X240158Y384639D01*
X236614Y130302D02*
X237014Y130702D01*
X237414D01*
X237014Y131102D01*
X237414Y131502D01*
X237014D01*
X236614Y131902D01*
X236214Y131502D01*
X235814D01*
X236214Y131102D01*
X235814Y130702D01*
X236214D01*
X236614Y130302D01*
Y130702D02*
X236814Y130902D01*
X237014D01*
X236814Y131102D01*
X237014Y131302D01*
X236814D01*
X236614Y131502D01*
X236414Y131302D01*
X236214D01*
X236414Y131102D01*
X236214Y130902D01*
X236414D01*
X236614Y130702D01*
X230315Y307861D02*
X230715Y308261D01*
X231115D01*
X230715Y308661D01*
X231115Y309061D01*
X230715D01*
X230315Y309461D01*
X229915Y309061D01*
X229515D01*
X229915Y308661D01*
X229515Y308261D01*
X229915D01*
X230315Y307861D01*
Y308261D02*
X230515Y308461D01*
X230715D01*
X230515Y308661D01*
X230715Y308861D01*
X230515D01*
X230315Y309061D01*
X230115Y308861D01*
X229915D01*
X230115Y308661D01*
X229915Y308461D01*
X230115D01*
X230315Y308261D01*
X226772Y300381D02*
X227172Y300781D01*
X227572D01*
X227172Y301181D01*
X227572Y301581D01*
X227172D01*
X226772Y301981D01*
X226372Y301581D01*
X225972D01*
X226372Y301181D01*
X225972Y300781D01*
X226372D01*
X226772Y300381D01*
Y300781D02*
X226972Y300981D01*
X227172D01*
X226972Y301181D01*
X227172Y301381D01*
X226972D01*
X226772Y301581D01*
X226572Y301381D01*
X226372D01*
X226572Y301181D01*
X226372Y300981D01*
X226572D01*
X226772Y300781D01*
X238583Y170853D02*
X238983Y171254D01*
X239383D01*
X238983Y171653D01*
X239383Y172054D01*
X238983D01*
X238583Y172453D01*
X238183Y172054D01*
X237783D01*
X238183Y171653D01*
X237783Y171254D01*
X238183D01*
X238583Y170853D01*
Y171254D02*
X238783Y171453D01*
X238983D01*
X238783Y171653D01*
X238983Y171853D01*
X238783D01*
X238583Y172054D01*
X238383Y171853D01*
X238183D01*
X238383Y171653D01*
X238183Y171453D01*
X238383D01*
X238583Y171254D01*
X237402Y161405D02*
X237802Y161805D01*
X238202D01*
X237802Y162205D01*
X238202Y162605D01*
X237802D01*
X237402Y163005D01*
X237002Y162605D01*
X236602D01*
X237002Y162205D01*
X236602Y161805D01*
X237002D01*
X237402Y161405D01*
Y161805D02*
X237602Y162005D01*
X237802D01*
X237602Y162205D01*
X237802Y162405D01*
X237602D01*
X237402Y162605D01*
X237202Y162405D01*
X237002D01*
X237202Y162205D01*
X237002Y162005D01*
X237202D01*
X237402Y161805D01*
X225197Y383058D02*
X225597Y383458D01*
X225997D01*
X225597Y383858D01*
X225997Y384258D01*
X225597D01*
X225197Y384658D01*
X224797Y384258D01*
X224397D01*
X224797Y383858D01*
X224397Y383458D01*
X224797D01*
X225197Y383058D01*
Y383458D02*
X225397Y383658D01*
X225597D01*
X225397Y383858D01*
X225597Y384058D01*
X225397D01*
X225197Y384258D01*
X224997Y384058D01*
X224797D01*
X224997Y383858D01*
X224797Y383658D01*
X224997D01*
X225197Y383458D01*
X237402Y292507D02*
X237802Y292907D01*
X238202D01*
X237802Y293307D01*
X238202Y293707D01*
X237802D01*
X237402Y294107D01*
X237002Y293707D01*
X236602D01*
X237002Y293307D01*
X236602Y292907D01*
X237002D01*
X237402Y292507D01*
Y292907D02*
X237602Y293107D01*
X237802D01*
X237602Y293307D01*
X237802Y293507D01*
X237602D01*
X237402Y293707D01*
X237202Y293507D01*
X237002D01*
X237202Y293307D01*
X237002Y293107D01*
X237202D01*
X237402Y292907D01*
X237008Y259043D02*
X237408Y259442D01*
X237808D01*
X237408Y259842D01*
X237808Y260243D01*
X237408D01*
X237008Y260643D01*
X236608Y260243D01*
X236208D01*
X236608Y259842D01*
X236208Y259442D01*
X236608D01*
X237008Y259043D01*
Y259442D02*
X237208Y259643D01*
X237408D01*
X237208Y259842D01*
X237408Y260043D01*
X237208D01*
X237008Y260243D01*
X236808Y260043D01*
X236608D01*
X236808Y259842D01*
X236608Y259643D01*
X236808D01*
X237008Y259442D01*
X234252Y343688D02*
X234652Y344088D01*
X235052D01*
X234652Y344488D01*
X235052Y344888D01*
X234652D01*
X234252Y345288D01*
X233852Y344888D01*
X233452D01*
X233852Y344488D01*
X233452Y344088D01*
X233852D01*
X234252Y343688D01*
Y344088D02*
X234452Y344288D01*
X234652D01*
X234452Y344488D01*
X234652Y344688D01*
X234452D01*
X234252Y344888D01*
X234052Y344688D01*
X233852D01*
X234052Y344488D01*
X233852Y344288D01*
X234052D01*
X234252Y344088D01*
X230315Y355499D02*
X230715Y355899D01*
X231115D01*
X230715Y356299D01*
X231115Y356699D01*
X230715D01*
X230315Y357099D01*
X229915Y356699D01*
X229515D01*
X229915Y356299D01*
X229515Y355899D01*
X229915D01*
X230315Y355499D01*
Y355899D02*
X230515Y356099D01*
X230715D01*
X230515Y356299D01*
X230715Y356499D01*
X230515D01*
X230315Y356699D01*
X230115Y356499D01*
X229915D01*
X230115Y356299D01*
X229915Y356099D01*
X230115D01*
X230315Y355899D01*
X213189Y129023D02*
X213589Y129423D01*
X213989D01*
X213589Y129823D01*
X213989Y130223D01*
X213589D01*
X213189Y130623D01*
X212789Y130223D01*
X212389D01*
X212789Y129823D01*
X212389Y129423D01*
X212789D01*
X213189Y129023D01*
Y129423D02*
X213389Y129623D01*
X213589D01*
X213389Y129823D01*
X213589Y130023D01*
X213389D01*
X213189Y130223D01*
X212989Y130023D01*
X212789D01*
X212989Y129823D01*
X212789Y129623D01*
X212989D01*
X213189Y129423D01*
X211811Y154712D02*
X212211Y155112D01*
X212611D01*
X212211Y155512D01*
X212611Y155912D01*
X212211D01*
X211811Y156312D01*
X211411Y155912D01*
X211011D01*
X211411Y155512D01*
X211011Y155112D01*
X211411D01*
X211811Y154712D01*
Y155112D02*
X212011Y155312D01*
X212211D01*
X212011Y155512D01*
X212211Y155712D01*
X212011D01*
X211811Y155912D01*
X211611Y155712D01*
X211411D01*
X211611Y155512D01*
X211411Y155312D01*
X211611D01*
X211811Y155112D01*
X190945Y353531D02*
X191345Y353931D01*
X191745D01*
X191345Y354331D01*
X191745Y354731D01*
X191345D01*
X190945Y355131D01*
X190545Y354731D01*
X190145D01*
X190545Y354331D01*
X190145Y353931D01*
X190545D01*
X190945Y353531D01*
Y353931D02*
X191145Y354131D01*
X191345D01*
X191145Y354331D01*
X191345Y354531D01*
X191145D01*
X190945Y354731D01*
X190745Y354531D01*
X190545D01*
X190745Y354331D01*
X190545Y354131D01*
X190745D01*
X190945Y353931D01*
X206693Y317113D02*
X207093Y317513D01*
X207493D01*
X207093Y317913D01*
X207493Y318313D01*
X207093D01*
X206693Y318713D01*
X206293Y318313D01*
X205893D01*
X206293Y317913D01*
X205893Y317513D01*
X206293D01*
X206693Y317113D01*
Y317513D02*
X206893Y317713D01*
X207093D01*
X206893Y317913D01*
X207093Y318113D01*
X206893D01*
X206693Y318313D01*
X206493Y318113D01*
X206293D01*
X206493Y317913D01*
X206293Y317713D01*
X206493D01*
X206693Y317513D01*
X205906Y274003D02*
X206306Y274403D01*
X206705D01*
X206306Y274803D01*
X206705Y275203D01*
X206306D01*
X205906Y275603D01*
X205505Y275203D01*
X205105D01*
X205505Y274803D01*
X205105Y274403D01*
X205505D01*
X205906Y274003D01*
Y274403D02*
X206105Y274603D01*
X206306D01*
X206105Y274803D01*
X206306Y275003D01*
X206105D01*
X205906Y275203D01*
X205705Y275003D01*
X205505D01*
X205705Y274803D01*
X205505Y274603D01*
X205705D01*
X205906Y274403D01*
X201181Y327153D02*
X201581Y327553D01*
X201981D01*
X201581Y327953D01*
X201981Y328353D01*
X201581D01*
X201181Y328753D01*
X200781Y328353D01*
X200381D01*
X200781Y327953D01*
X200381Y327553D01*
X200781D01*
X201181Y327153D01*
Y327553D02*
X201381Y327753D01*
X201581D01*
X201381Y327953D01*
X201581Y328153D01*
X201381D01*
X201181Y328353D01*
X200981Y328153D01*
X200781D01*
X200981Y327953D01*
X200781Y327753D01*
X200981D01*
X201181Y327553D01*
X186614Y171247D02*
X187014Y171647D01*
X187414D01*
X187014Y172047D01*
X187414Y172447D01*
X187014D01*
X186614Y172847D01*
X186214Y172447D01*
X185814D01*
X186214Y172047D01*
X185814Y171647D01*
X186214D01*
X186614Y171247D01*
Y171647D02*
X186814Y171847D01*
X187014D01*
X186814Y172047D01*
X187014Y172247D01*
X186814D01*
X186614Y172447D01*
X186414Y172247D01*
X186214D01*
X186414Y172047D01*
X186214Y171847D01*
X186414D01*
X186614Y171647D01*
X203150Y176857D02*
X203550Y177258D01*
X203950D01*
X203550Y177657D01*
X203950Y178058D01*
X203550D01*
X203150Y178457D01*
X202750Y178058D01*
X202350D01*
X202750Y177657D01*
X202350Y177258D01*
X202750D01*
X203150Y176857D01*
Y177258D02*
X203350Y177457D01*
X203550D01*
X203350Y177657D01*
X203550Y177857D01*
X203350D01*
X203150Y178058D01*
X202950Y177857D01*
X202750D01*
X202950Y177657D01*
X202750Y177457D01*
X202950D01*
X203150Y177258D01*
X187008Y111405D02*
X187408Y111805D01*
X187808D01*
X187408Y112205D01*
X187808Y112605D01*
X187408D01*
X187008Y113005D01*
X186608Y112605D01*
X186208D01*
X186608Y112205D01*
X186208Y111805D01*
X186608D01*
X187008Y111405D01*
Y111805D02*
X187208Y112005D01*
X187408D01*
X187208Y112205D01*
X187408Y112405D01*
X187208D01*
X187008Y112605D01*
X186808Y112405D01*
X186608D01*
X186808Y112205D01*
X186608Y112005D01*
X186808D01*
X187008Y111805D01*
X279921Y107074D02*
X280321Y107474D01*
X280721D01*
X280321Y107874D01*
X280721Y108274D01*
X280321D01*
X279921Y108674D01*
X279521Y108274D01*
X279121D01*
X279521Y107874D01*
X279121Y107474D01*
X279521D01*
X279921Y107074D01*
Y107474D02*
X280121Y107674D01*
X280321D01*
X280121Y107874D01*
X280321Y108074D01*
X280121D01*
X279921Y108274D01*
X279721Y108074D01*
X279521D01*
X279721Y107874D01*
X279521Y107674D01*
X279721D01*
X279921Y107474D01*
X373622Y106287D02*
X374022Y106687D01*
X374422D01*
X374022Y107087D01*
X374422Y107487D01*
X374022D01*
X373622Y107887D01*
X373222Y107487D01*
X372822D01*
X373222Y107087D01*
X372822Y106687D01*
X373222D01*
X373622Y106287D01*
Y106687D02*
X373822Y106887D01*
X374022D01*
X373822Y107087D01*
X374022Y107287D01*
X373822D01*
X373622Y107487D01*
X373422Y107287D01*
X373222D01*
X373422Y107087D01*
X373222Y106887D01*
X373422D01*
X373622Y106687D01*
X477165Y581090D02*
X477565Y581490D01*
X477965D01*
X477565Y581890D01*
X477965Y582290D01*
X477565D01*
X477165Y582690D01*
X476765Y582290D01*
X476365D01*
X476765Y581890D01*
X476365Y581490D01*
X476765D01*
X477165Y581090D01*
Y581490D02*
X477365Y581690D01*
X477565D01*
X477365Y581890D01*
X477565Y582090D01*
X477365D01*
X477165Y582290D01*
X476965Y582090D01*
X476765D01*
X476965Y581890D01*
X476765Y581690D01*
X476965D01*
X477165Y581490D01*
X482677Y581090D02*
X483077Y581490D01*
X483477D01*
X483077Y581890D01*
X483477Y582290D01*
X483077D01*
X482677Y582690D01*
X482277Y582290D01*
X481877D01*
X482277Y581890D01*
X481877Y581490D01*
X482277D01*
X482677Y581090D01*
Y581490D02*
X482877Y581690D01*
X483077D01*
X482877Y581890D01*
X483077Y582090D01*
X482877D01*
X482677Y582290D01*
X482477Y582090D01*
X482277D01*
X482477Y581890D01*
X482277Y581690D01*
X482477D01*
X482677Y581490D01*
X470882Y628334D02*
X471282Y628734D01*
X471682D01*
X471282Y629134D01*
X471682Y629534D01*
X471282D01*
X470882Y629934D01*
X470482Y629534D01*
X470082D01*
X470482Y629134D01*
X470082Y628734D01*
X470482D01*
X470882Y628334D01*
Y628734D02*
X471082Y628934D01*
X471282D01*
X471082Y629134D01*
X471282Y629334D01*
X471082D01*
X470882Y629534D01*
X470682Y629334D01*
X470482D01*
X470682Y629134D01*
X470482Y628934D01*
X470682D01*
X470882Y628734D01*
X449185Y624030D02*
X449585Y624430D01*
X449985D01*
X449585Y624830D01*
X449985Y625230D01*
X449585D01*
X449185Y625630D01*
X448785Y625230D01*
X448385D01*
X448785Y624830D01*
X448385Y624430D01*
X448785D01*
X449185Y624030D01*
Y624430D02*
X449385Y624630D01*
X449585D01*
X449385Y624830D01*
X449585Y625030D01*
X449385D01*
X449185Y625230D01*
X448985Y625030D01*
X448785D01*
X448985Y624830D01*
X448785Y624630D01*
X448985D01*
X449185Y624430D01*
X447244Y600381D02*
X447644Y600781D01*
X448044D01*
X447644Y601181D01*
X448044Y601581D01*
X447644D01*
X447244Y601981D01*
X446844Y601581D01*
X446444D01*
X446844Y601181D01*
X446444Y600781D01*
X446844D01*
X447244Y600381D01*
Y600781D02*
X447444Y600981D01*
X447644D01*
X447444Y601181D01*
X447644Y601381D01*
X447444D01*
X447244Y601581D01*
X447044Y601381D01*
X446844D01*
X447044Y601181D01*
X446844Y600981D01*
X447044D01*
X447244Y600781D01*
X392644Y598143D02*
X393044Y598543D01*
X393444D01*
X393044Y598943D01*
X393444Y599343D01*
X393044D01*
X392644Y599743D01*
X392244Y599343D01*
X391844D01*
X392244Y598943D01*
X391844Y598543D01*
X392244D01*
X392644Y598143D01*
Y598543D02*
X392844Y598743D01*
X393044D01*
X392844Y598943D01*
X393044Y599143D01*
X392844D01*
X392644Y599343D01*
X392444Y599143D01*
X392244D01*
X392444Y598943D01*
X392244Y598743D01*
X392444D01*
X392644Y598543D01*
X354724Y595657D02*
X355124Y596057D01*
X355524D01*
X355124Y596457D01*
X355524Y596857D01*
X355124D01*
X354724Y597257D01*
X354324Y596857D01*
X353924D01*
X354324Y596457D01*
X353924Y596057D01*
X354324D01*
X354724Y595657D01*
Y596057D02*
X354924Y596257D01*
X355124D01*
X354924Y596457D01*
X355124Y596657D01*
X354924D01*
X354724Y596857D01*
X354524Y596657D01*
X354324D01*
X354524Y596457D01*
X354324Y596257D01*
X354524D01*
X354724Y596057D01*
X329134Y611011D02*
X329534Y611411D01*
X329934D01*
X329534Y611811D01*
X329934Y612211D01*
X329534D01*
X329134Y612611D01*
X328734Y612211D01*
X328334D01*
X328734Y611811D01*
X328334Y611411D01*
X328734D01*
X329134Y611011D01*
Y611411D02*
X329334Y611611D01*
X329534D01*
X329334Y611811D01*
X329534Y612011D01*
X329334D01*
X329134Y612211D01*
X328934Y612011D01*
X328734D01*
X328934Y611811D01*
X328734Y611611D01*
X328934D01*
X329134Y611411D01*
X554724Y61405D02*
X555124Y61805D01*
X555524D01*
X555124Y62205D01*
X555524Y62605D01*
X555124D01*
X554724Y63005D01*
X554324Y62605D01*
X553924D01*
X554324Y62205D01*
X553924Y61805D01*
X554324D01*
X554724Y61405D01*
Y61805D02*
X554924Y62005D01*
X555124D01*
X554924Y62205D01*
X555124Y62405D01*
X554924D01*
X554724Y62605D01*
X554524Y62405D01*
X554324D01*
X554524Y62205D01*
X554324Y62005D01*
X554524D01*
X554724Y61805D01*
X614173Y331877D02*
X614573Y332277D01*
X614973D01*
X614573Y332677D01*
X614973Y333077D01*
X614573D01*
X614173Y333477D01*
X613773Y333077D01*
X613373D01*
X613773Y332677D01*
X613373Y332277D01*
X613773D01*
X614173Y331877D01*
Y332277D02*
X614373Y332477D01*
X614573D01*
X614373Y332677D01*
X614573Y332877D01*
X614373D01*
X614173Y333077D01*
X613973Y332877D01*
X613773D01*
X613973Y332677D01*
X613773Y332477D01*
X613973D01*
X614173Y332277D01*
X602362Y375184D02*
X602762Y375584D01*
X603162D01*
X602762Y375984D01*
X603162Y376384D01*
X602762D01*
X602362Y376784D01*
X601962Y376384D01*
X601562D01*
X601962Y375984D01*
X601562Y375584D01*
X601962D01*
X602362Y375184D01*
Y375584D02*
X602562Y375784D01*
X602762D01*
X602562Y375984D01*
X602762Y376184D01*
X602562D01*
X602362Y376384D01*
X602162Y376184D01*
X601962D01*
X602162Y375984D01*
X601962Y375784D01*
X602162D01*
X602362Y375584D01*
X540945Y374397D02*
X541345Y374797D01*
X541745D01*
X541345Y375197D01*
X541745Y375597D01*
X541345D01*
X540945Y375997D01*
X540545Y375597D01*
X540145D01*
X540545Y375197D01*
X540145Y374797D01*
X540545D01*
X540945Y374397D01*
Y374797D02*
X541145Y374997D01*
X541345D01*
X541145Y375197D01*
X541345Y375397D01*
X541145D01*
X540945Y375597D01*
X540745Y375397D01*
X540545D01*
X540745Y375197D01*
X540545Y374997D01*
X540745D01*
X540945Y374797D01*
X609252Y134043D02*
X609652Y134442D01*
X610052D01*
X609652Y134843D01*
X610052Y135242D01*
X609652D01*
X609252Y135643D01*
X608852Y135242D01*
X608452D01*
X608852Y134843D01*
X608452Y134442D01*
X608852D01*
X609252Y134043D01*
Y134442D02*
X609452Y134643D01*
X609652D01*
X609452Y134843D01*
X609652Y135043D01*
X609452D01*
X609252Y135242D01*
X609052Y135043D01*
X608852D01*
X609052Y134843D01*
X608852Y134643D01*
X609052D01*
X609252Y134442D01*
X606299Y29712D02*
X606699Y30112D01*
X607099D01*
X606699Y30512D01*
X607099Y30912D01*
X606699D01*
X606299Y31312D01*
X605899Y30912D01*
X605499D01*
X605899Y30512D01*
X605499Y30112D01*
X605899D01*
X606299Y29712D01*
Y30112D02*
X606499Y30312D01*
X606699D01*
X606499Y30512D01*
X606699Y30712D01*
X606499D01*
X606299Y30912D01*
X606099Y30712D01*
X605899D01*
X606099Y30512D01*
X605899Y30312D01*
X606099D01*
X606299Y30112D01*
X461122Y57566D02*
X461522Y57966D01*
X461922D01*
X461522Y58366D01*
X461922Y58766D01*
X461522D01*
X461122Y59166D01*
X460722Y58766D01*
X460322D01*
X460722Y58366D01*
X460322Y57966D01*
X460722D01*
X461122Y57566D01*
Y57966D02*
X461322Y58166D01*
X461522D01*
X461322Y58366D01*
X461522Y58566D01*
X461322D01*
X461122Y58766D01*
X460922Y58566D01*
X460722D01*
X460922Y58366D01*
X460722Y58166D01*
X460922D01*
X461122Y57966D01*
X400394Y578728D02*
X400794Y579128D01*
X401194D01*
X400794Y579528D01*
X401194Y579928D01*
X400794D01*
X400394Y580328D01*
X399994Y579928D01*
X399594D01*
X399994Y579528D01*
X399594Y579128D01*
X399994D01*
X400394Y578728D01*
Y579128D02*
X400594Y579328D01*
X400794D01*
X400594Y579528D01*
X400794Y579728D01*
X400594D01*
X400394Y579928D01*
X400194Y579728D01*
X399994D01*
X400194Y579528D01*
X399994Y579328D01*
X400194D01*
X400394Y579128D01*
X415748Y614554D02*
X416148Y614954D01*
X416548D01*
X416148Y615354D01*
X416548Y615754D01*
X416148D01*
X415748Y616154D01*
X415348Y615754D01*
X414948D01*
X415348Y615354D01*
X414948Y614954D01*
X415348D01*
X415748Y614554D01*
Y614954D02*
X415948Y615154D01*
X416148D01*
X415948Y615354D01*
X416148Y615554D01*
X415948D01*
X415748Y615754D01*
X415548Y615554D01*
X415348D01*
X415548Y615354D01*
X415348Y615154D01*
X415548D01*
X415748Y614954D01*
X433071Y640145D02*
X433471Y640545D01*
X433871D01*
X433471Y640945D01*
X433871Y641345D01*
X433471D01*
X433071Y641745D01*
X432671Y641345D01*
X432271D01*
X432671Y640945D01*
X432271Y640545D01*
X432671D01*
X433071Y640145D01*
Y640545D02*
X433271Y640745D01*
X433471D01*
X433271Y640945D01*
X433471Y641145D01*
X433271D01*
X433071Y641345D01*
X432871Y641145D01*
X432671D01*
X432871Y640945D01*
X432671Y640745D01*
X432871D01*
X433071Y640545D01*
X418110Y583846D02*
X418510Y584246D01*
X418910D01*
X418510Y584646D01*
X418910Y585046D01*
X418510D01*
X418110Y585446D01*
X417710Y585046D01*
X417310D01*
X417710Y584646D01*
X417310Y584246D01*
X417710D01*
X418110Y583846D01*
Y584246D02*
X418310Y584446D01*
X418510D01*
X418310Y584646D01*
X418510Y584846D01*
X418310D01*
X418110Y585046D01*
X417910Y584846D01*
X417710D01*
X417910Y584646D01*
X417710Y584446D01*
X417910D01*
X418110Y584246D01*
Y536208D02*
X418510Y536608D01*
X418910D01*
X418510Y537008D01*
X418910Y537408D01*
X418510D01*
X418110Y537808D01*
X417710Y537408D01*
X417310D01*
X417710Y537008D01*
X417310Y536608D01*
X417710D01*
X418110Y536208D01*
Y536608D02*
X418310Y536808D01*
X418510D01*
X418310Y537008D01*
X418510Y537208D01*
X418310D01*
X418110Y537408D01*
X417910Y537208D01*
X417710D01*
X417910Y537008D01*
X417710Y536808D01*
X417910D01*
X418110Y536608D01*
X471949Y358550D02*
X472349Y358950D01*
X472749D01*
X472349Y359350D01*
X472749Y359750D01*
X472349D01*
X471949Y360150D01*
X471549Y359750D01*
X471149D01*
X471549Y359350D01*
X471149Y358950D01*
X471549D01*
X471949Y358550D01*
Y358950D02*
X472149Y359150D01*
X472349D01*
X472149Y359350D01*
X472349Y359550D01*
X472149D01*
X471949Y359750D01*
X471749Y359550D01*
X471549D01*
X471749Y359350D01*
X471549Y359150D01*
X471749D01*
X471949Y358950D01*
X464764Y148314D02*
X465164Y148714D01*
X465564D01*
X465164Y149114D01*
X465564Y149514D01*
X465164D01*
X464764Y149914D01*
X464364Y149514D01*
X463964D01*
X464364Y149114D01*
X463964Y148714D01*
X464364D01*
X464764Y148314D01*
Y148714D02*
X464964Y148914D01*
X465164D01*
X464964Y149114D01*
X465164Y149314D01*
X464964D01*
X464764Y149514D01*
X464564Y149314D01*
X464364D01*
X464564Y149114D01*
X464364Y148914D01*
X464564D01*
X464764Y148714D01*
X469488Y135027D02*
X469888Y135427D01*
X470288D01*
X469888Y135827D01*
X470288Y136227D01*
X469888D01*
X469488Y136627D01*
X469088Y136227D01*
X468688D01*
X469088Y135827D01*
X468688Y135427D01*
X469088D01*
X469488Y135027D01*
Y135427D02*
X469688Y135627D01*
X469888D01*
X469688Y135827D01*
X469888Y136027D01*
X469688D01*
X469488Y136227D01*
X469288Y136027D01*
X469088D01*
X469288Y135827D01*
X469088Y135627D01*
X469288D01*
X469488Y135427D01*
X468996Y252645D02*
X469396Y253045D01*
X469796D01*
X469396Y253445D01*
X469796Y253845D01*
X469396D01*
X468996Y254245D01*
X468596Y253845D01*
X468196D01*
X468596Y253445D01*
X468196Y253045D01*
X468596D01*
X468996Y252645D01*
Y253045D02*
X469196Y253245D01*
X469396D01*
X469196Y253445D01*
X469396Y253645D01*
X469196D01*
X468996Y253845D01*
X468796Y253645D01*
X468596D01*
X468796Y253445D01*
X468596Y253245D01*
X468796D01*
X468996Y253045D01*
X548819Y166129D02*
X549219Y166529D01*
X549619D01*
X549219Y166929D01*
X549619Y167329D01*
X549219D01*
X548819Y167729D01*
X548419Y167329D01*
X548019D01*
X548419Y166929D01*
X548019Y166529D01*
X548419D01*
X548819Y166129D01*
Y166529D02*
X549019Y166729D01*
X549219D01*
X549019Y166929D01*
X549219Y167129D01*
X549019D01*
X548819Y167329D01*
X548619Y167129D01*
X548419D01*
X548619Y166929D01*
X548419Y166729D01*
X548619D01*
X548819Y166529D01*
X644095Y329121D02*
X644494Y329521D01*
X644895D01*
X644494Y329921D01*
X644895Y330321D01*
X644494D01*
X644095Y330721D01*
X643694Y330321D01*
X643294D01*
X643694Y329921D01*
X643294Y329521D01*
X643694D01*
X644095Y329121D01*
Y329521D02*
X644295Y329721D01*
X644494D01*
X644295Y329921D01*
X644494Y330121D01*
X644295D01*
X644095Y330321D01*
X643894Y330121D01*
X643694D01*
X643894Y329921D01*
X643694Y329721D01*
X643894D01*
X644095Y329521D01*
X618504Y155893D02*
X618904Y156293D01*
X619304D01*
X618904Y156693D01*
X619304Y157093D01*
X618904D01*
X618504Y157493D01*
X618104Y157093D01*
X617704D01*
X618104Y156693D01*
X617704Y156293D01*
X618104D01*
X618504Y155893D01*
Y156293D02*
X618704Y156493D01*
X618904D01*
X618704Y156693D01*
X618904Y156893D01*
X618704D01*
X618504Y157093D01*
X618304Y156893D01*
X618104D01*
X618304Y156693D01*
X618104Y156493D01*
X618304D01*
X618504Y156293D01*
X619291Y61798D02*
X619691Y62198D01*
X620091D01*
X619691Y62598D01*
X620091Y62998D01*
X619691D01*
X619291Y63398D01*
X618891Y62998D01*
X618491D01*
X618891Y62598D01*
X618491Y62198D01*
X618891D01*
X619291Y61798D01*
Y62198D02*
X619491Y62398D01*
X619691D01*
X619491Y62598D01*
X619691Y62798D01*
X619491D01*
X619291Y62998D01*
X619091Y62798D01*
X618891D01*
X619091Y62598D01*
X618891Y62398D01*
X619091D01*
X619291Y62198D01*
X622441Y244476D02*
X622841Y244876D01*
X623241D01*
X622841Y245276D01*
X623241Y245676D01*
X622841D01*
X622441Y246076D01*
X622041Y245676D01*
X621641D01*
X622041Y245276D01*
X621641Y244876D01*
X622041D01*
X622441Y244476D01*
Y244876D02*
X622641Y245076D01*
X622841D01*
X622641Y245276D01*
X622841Y245476D01*
X622641D01*
X622441Y245676D01*
X622241Y245476D01*
X622041D01*
X622241Y245276D01*
X622041Y245076D01*
X622241D01*
X622441Y244876D01*
X547638Y268885D02*
X548038Y269285D01*
X548438D01*
X548038Y269685D01*
X548438Y270085D01*
X548038D01*
X547638Y270485D01*
X547238Y270085D01*
X546838D01*
X547238Y269685D01*
X546838Y269285D01*
X547238D01*
X547638Y268885D01*
Y269285D02*
X547838Y269485D01*
X548038D01*
X547838Y269685D01*
X548038Y269885D01*
X547838D01*
X547638Y270085D01*
X547438Y269885D01*
X547238D01*
X547438Y269685D01*
X547238Y269485D01*
X547438D01*
X547638Y269285D01*
X594488Y238373D02*
X594888Y238773D01*
X595288D01*
X594888Y239173D01*
X595288Y239573D01*
X594888D01*
X594488Y239973D01*
X594088Y239573D01*
X593688D01*
X594088Y239173D01*
X593688Y238773D01*
X594088D01*
X594488Y238373D01*
Y238773D02*
X594688Y238973D01*
X594888D01*
X594688Y239173D01*
X594888Y239373D01*
X594688D01*
X594488Y239573D01*
X594288Y239373D01*
X594088D01*
X594288Y239173D01*
X594088Y238973D01*
X594288D01*
X594488Y238773D01*
D114*
X651391Y556973D02*
G03*
X651391Y556973I-800J0D01*
G01*
Y622905D02*
G03*
X651391Y622905I-800J0D01*
G01*
X624816Y609842D02*
G03*
X624816Y609842I-800J0D01*
G01*
Y577165D02*
G03*
X624816Y577165I-800J0D01*
G01*
X624816Y627165D02*
G03*
X624816Y627165I-800J0D01*
G01*
X204737Y200787D02*
G03*
X204737Y200787I-800J0D01*
G01*
X79934Y343701D02*
G03*
X79934Y343701I-800J0D01*
G01*
X629540Y329921D02*
G03*
X629540Y329921I-800J0D01*
G01*
X294107Y115354D02*
G03*
X294107Y115354I-800J0D01*
G01*
X79386Y363946D02*
G03*
X79386Y363946I-800J0D01*
G01*
X203162Y304724D02*
G03*
X203162Y304724I-800J0D01*
G01*
X93320Y565354D02*
G03*
X93320Y565354I-800J0D01*
G01*
X179540Y329921D02*
G03*
X179540Y329921I-800J0D01*
G01*
X211036Y115354D02*
G03*
X211036Y115354I-800J0D01*
G01*
X171272Y304724D02*
G03*
X171272Y304724I-800J0D01*
G01*
X282296Y291339D02*
G03*
X282296Y291339I-800J0D01*
G01*
X113989Y319882D02*
G03*
X113989Y319882I-800J0D01*
G01*
X207493Y144685D02*
G03*
X207493Y144685I-800J0D01*
G01*
X386627Y158465D02*
G03*
X386627Y158465I-800J0D01*
G01*
D115*
X624416Y627165D02*
G03*
X624416Y627165I-400J0D01*
G01*
X204337Y200787D02*
G03*
X204337Y200787I-400J0D01*
G01*
X79534Y343701D02*
G03*
X79534Y343701I-400J0D01*
G01*
X629140Y329921D02*
G03*
X629140Y329921I-400J0D01*
G01*
X293707Y115354D02*
G03*
X293707Y115354I-400J0D01*
G01*
X78986Y363946D02*
G03*
X78986Y363946I-400J0D01*
G01*
X202762Y304724D02*
G03*
X202762Y304724I-400J0D01*
G01*
X92920Y565354D02*
G03*
X92920Y565354I-400J0D01*
G01*
X179140Y329921D02*
G03*
X179140Y329921I-400J0D01*
G01*
X210636Y115354D02*
G03*
X210636Y115354I-400J0D01*
G01*
X170872Y304724D02*
G03*
X170872Y304724I-400J0D01*
G01*
X281896Y291339D02*
G03*
X281896Y291339I-400J0D01*
G01*
X113589Y319882D02*
G03*
X113589Y319882I-400J0D01*
G01*
X207093Y144685D02*
G03*
X207093Y144685I-400J0D01*
G01*
X386227Y158465D02*
G03*
X386227Y158465I-400J0D01*
G01*
M02*
