G04*
G04 #@! TF.GenerationSoftware,Altium Limited,Altium Designer,21.6.1 (37)*
G04*
G04 Layer_Physical_Order=4*
G04 Layer_Color=16711680*
%FSLAX25Y25*%
%MOIN*%
G70*
G04*
G04 #@! TF.SameCoordinates,2CCEC8D5-DFE6-49CD-9DF0-9BB73A36F05B*
G04*
G04*
G04 #@! TF.FilePolarity,Positive*
G04*
G01*
G75*
%ADD87C,0.11811*%
%ADD88C,0.02953*%
%ADD89C,0.07874*%
%ADD90C,0.03937*%
%ADD92C,0.19685*%
%ADD93C,0.09843*%
%ADD94C,0.23622*%
%ADD95C,0.15748*%
%ADD96C,0.06000*%
%ADD97C,0.05118*%
%ADD98C,0.09843*%
%ADD99C,0.05906*%
%ADD100R,0.12598X0.03937*%
%ADD101R,0.04724X0.14567*%
%ADD102R,0.03937X0.12598*%
%ADD103R,0.05394X0.05394*%
%ADD104R,0.05906X0.05906*%
%ADD105R,0.05906X0.05906*%
%ADD106O,0.03937X0.07874*%
%ADD107O,0.03937X0.07874*%
%ADD108R,0.07284X0.07284*%
%ADD109C,0.07284*%
%ADD110C,0.02362*%
G36*
X396063Y532677D02*
Y40157D01*
X6693D01*
Y533071D01*
X221853D01*
X222100Y532571D01*
X221835Y531930D01*
Y531062D01*
X222167Y530261D01*
X222780Y529647D01*
X223582Y529315D01*
X224450D01*
X225251Y529647D01*
X225865Y530261D01*
X226197Y531062D01*
Y531930D01*
X225931Y532571D01*
X226179Y533071D01*
X395669D01*
X396063Y532677D01*
D02*
G37*
G36*
X512795Y634842D02*
X231102D01*
Y652573D01*
X233153D01*
X233344Y652111D01*
X233295Y652062D01*
X232769Y651150D01*
X232496Y650133D01*
Y650106D01*
X240496D01*
Y650133D01*
X240224Y651150D01*
X239697Y652062D01*
X239648Y652111D01*
X239840Y652573D01*
X314601D01*
X314793Y652111D01*
X314724Y652042D01*
X314197Y651130D01*
X313925Y650113D01*
Y649060D01*
X314197Y648042D01*
X314724Y647130D01*
X315469Y646386D01*
X316381Y645859D01*
X317398Y645586D01*
X318451D01*
X319469Y645859D01*
X320381Y646386D01*
X321126Y647130D01*
X321652Y648042D01*
X321925Y649060D01*
Y650113D01*
X321652Y651130D01*
X321126Y652042D01*
X321057Y652111D01*
X321249Y652573D01*
X324601D01*
X324793Y652111D01*
X324724Y652042D01*
X324198Y651130D01*
X323925Y650113D01*
Y649060D01*
X324198Y648042D01*
X324724Y647130D01*
X325469Y646386D01*
X326381Y645859D01*
X327398Y645586D01*
X328451D01*
X329469Y645859D01*
X330381Y646386D01*
X331126Y647130D01*
X331652Y648042D01*
X331925Y649060D01*
Y650113D01*
X331652Y651130D01*
X331126Y652042D01*
X331057Y652111D01*
X331249Y652573D01*
X334601D01*
X334793Y652111D01*
X334724Y652042D01*
X334197Y651130D01*
X333925Y650113D01*
Y649060D01*
X334197Y648042D01*
X334724Y647130D01*
X335469Y646386D01*
X336381Y645859D01*
X337398Y645586D01*
X338452D01*
X339469Y645859D01*
X340381Y646386D01*
X341126Y647130D01*
X341652Y648042D01*
X341925Y649060D01*
Y650113D01*
X341652Y651130D01*
X341126Y652042D01*
X341057Y652111D01*
X341249Y652573D01*
X344601D01*
X344793Y652111D01*
X344724Y652042D01*
X344198Y651130D01*
X343925Y650113D01*
Y649060D01*
X344198Y648042D01*
X344724Y647130D01*
X345469Y646386D01*
X346381Y645859D01*
X347398Y645586D01*
X348451D01*
X349469Y645859D01*
X350381Y646386D01*
X351126Y647130D01*
X351652Y648042D01*
X351925Y649060D01*
Y650113D01*
X351652Y651130D01*
X351126Y652042D01*
X351057Y652111D01*
X351249Y652573D01*
X354601D01*
X354793Y652111D01*
X354724Y652042D01*
X354198Y651130D01*
X353925Y650113D01*
Y649060D01*
X354198Y648042D01*
X354724Y647130D01*
X355469Y646386D01*
X356381Y645859D01*
X357398Y645586D01*
X358452D01*
X359469Y645859D01*
X360381Y646386D01*
X361126Y647130D01*
X361652Y648042D01*
X361925Y649060D01*
Y650113D01*
X361652Y651130D01*
X361126Y652042D01*
X361057Y652111D01*
X361249Y652573D01*
X364601D01*
X364793Y652111D01*
X364724Y652042D01*
X364197Y651130D01*
X363925Y650113D01*
Y650086D01*
X367925D01*
Y649586D01*
D01*
Y650086D01*
X371925D01*
Y650113D01*
X371652Y651130D01*
X371126Y652042D01*
X371057Y652111D01*
X371249Y652573D01*
X374601D01*
X374793Y652111D01*
X374724Y652042D01*
X374198Y651130D01*
X373925Y650113D01*
Y649060D01*
X374198Y648042D01*
X374724Y647130D01*
X375469Y646386D01*
X376381Y645859D01*
X377398Y645586D01*
X378451D01*
X379469Y645859D01*
X380381Y646386D01*
X381126Y647130D01*
X381652Y648042D01*
X381925Y649060D01*
Y650113D01*
X381652Y651130D01*
X381126Y652042D01*
X381057Y652111D01*
X381249Y652573D01*
X384601D01*
X384793Y652111D01*
X384724Y652042D01*
X384197Y651130D01*
X383925Y650113D01*
Y649060D01*
X384197Y648042D01*
X384724Y647130D01*
X385469Y646386D01*
X386381Y645859D01*
X387398Y645586D01*
X388452D01*
X389469Y645859D01*
X390381Y646386D01*
X391126Y647130D01*
X391652Y648042D01*
X391925Y649060D01*
Y650113D01*
X391652Y651130D01*
X391126Y652042D01*
X391057Y652111D01*
X391249Y652573D01*
X394444D01*
X394635Y652111D01*
X394567Y652042D01*
X394040Y651130D01*
X393767Y650113D01*
Y649060D01*
X394040Y648042D01*
X394567Y647130D01*
X395311Y646386D01*
X396223Y645859D01*
X397241Y645586D01*
X398294D01*
X399311Y645859D01*
X400223Y646386D01*
X400968Y647130D01*
X401495Y648042D01*
X401767Y649060D01*
Y650113D01*
X401495Y651130D01*
X400968Y652042D01*
X400900Y652111D01*
X401091Y652573D01*
X404286D01*
X404478Y652111D01*
X404409Y652042D01*
X403883Y651130D01*
X403610Y650113D01*
Y649060D01*
X403883Y648042D01*
X404409Y647130D01*
X405154Y646386D01*
X406066Y645859D01*
X407083Y645586D01*
X408137D01*
X409154Y645859D01*
X410066Y646386D01*
X410811Y647130D01*
X411337Y648042D01*
X411610Y649060D01*
Y650113D01*
X411337Y651130D01*
X410811Y652042D01*
X410742Y652111D01*
X410934Y652573D01*
X414286D01*
X414478Y652111D01*
X414409Y652042D01*
X413882Y651130D01*
X413610Y650113D01*
Y649060D01*
X413882Y648042D01*
X414409Y647130D01*
X415154Y646386D01*
X416066Y645859D01*
X417083Y645586D01*
X418137D01*
X419154Y645859D01*
X420066Y646386D01*
X420811Y647130D01*
X421337Y648042D01*
X421610Y649060D01*
Y650113D01*
X421337Y651130D01*
X420811Y652042D01*
X420742Y652111D01*
X420934Y652573D01*
X424286D01*
X424478Y652111D01*
X424409Y652042D01*
X423882Y651130D01*
X423610Y650113D01*
Y649060D01*
X423882Y648042D01*
X424409Y647130D01*
X425154Y646386D01*
X426066Y645859D01*
X427083Y645586D01*
X428137D01*
X429154Y645859D01*
X430066Y646386D01*
X430811Y647130D01*
X431337Y648042D01*
X431610Y649060D01*
Y650113D01*
X431337Y651130D01*
X430811Y652042D01*
X430742Y652111D01*
X430934Y652573D01*
X434286D01*
X434478Y652111D01*
X434409Y652042D01*
X433883Y651130D01*
X433610Y650113D01*
Y649060D01*
X433883Y648042D01*
X434409Y647130D01*
X435154Y646386D01*
X436066Y645859D01*
X437083Y645586D01*
X438137D01*
X439154Y645859D01*
X440066Y646386D01*
X440811Y647130D01*
X441337Y648042D01*
X441610Y649060D01*
Y650113D01*
X441337Y651130D01*
X440811Y652042D01*
X440742Y652111D01*
X440934Y652573D01*
X444286D01*
X444478Y652111D01*
X444409Y652042D01*
X443883Y651130D01*
X443610Y650113D01*
Y649060D01*
X443883Y648042D01*
X444409Y647130D01*
X445154Y646386D01*
X446066Y645859D01*
X447083Y645586D01*
X448137D01*
X449154Y645859D01*
X450066Y646386D01*
X450811Y647130D01*
X451337Y648042D01*
X451610Y649060D01*
Y650113D01*
X451337Y651130D01*
X450811Y652042D01*
X450742Y652111D01*
X450934Y652573D01*
X454286D01*
X454478Y652111D01*
X454409Y652042D01*
X453883Y651130D01*
X453610Y650113D01*
Y649060D01*
X453883Y648042D01*
X454409Y647130D01*
X455154Y646386D01*
X456066Y645859D01*
X457083Y645586D01*
X458137D01*
X459154Y645859D01*
X460066Y646386D01*
X460811Y647130D01*
X461337Y648042D01*
X461610Y649060D01*
Y650113D01*
X461337Y651130D01*
X460811Y652042D01*
X460742Y652111D01*
X460934Y652573D01*
X463971D01*
X464163Y652111D01*
X464094Y652042D01*
X463568Y651130D01*
X463295Y650113D01*
Y649060D01*
X463568Y648042D01*
X464094Y647130D01*
X464839Y646386D01*
X465751Y645859D01*
X466768Y645586D01*
X467822D01*
X468839Y645859D01*
X469751Y646386D01*
X470496Y647130D01*
X471022Y648042D01*
X471295Y649060D01*
Y650113D01*
X471022Y651130D01*
X470496Y652042D01*
X470427Y652111D01*
X470619Y652573D01*
X473971D01*
X474163Y652111D01*
X474094Y652042D01*
X473568Y651130D01*
X473295Y650113D01*
Y649060D01*
X473568Y648042D01*
X474094Y647130D01*
X474839Y646386D01*
X475751Y645859D01*
X476768Y645586D01*
X477822D01*
X478839Y645859D01*
X479751Y646386D01*
X480496Y647130D01*
X481022Y648042D01*
X481295Y649060D01*
Y650113D01*
X481022Y651130D01*
X480496Y652042D01*
X480427Y652111D01*
X480619Y652573D01*
X483971D01*
X484163Y652111D01*
X484094Y652042D01*
X483568Y651130D01*
X483295Y650113D01*
Y649060D01*
X483568Y648042D01*
X484094Y647130D01*
X484839Y646386D01*
X485751Y645859D01*
X486768Y645586D01*
X487822D01*
X488839Y645859D01*
X489751Y646386D01*
X490496Y647130D01*
X491022Y648042D01*
X491295Y649060D01*
Y650113D01*
X491022Y651130D01*
X490496Y652042D01*
X490427Y652111D01*
X490619Y652573D01*
X493971D01*
X494163Y652111D01*
X494094Y652042D01*
X493568Y651130D01*
X493295Y650113D01*
Y650086D01*
X497295D01*
X501295D01*
Y650113D01*
X501022Y651130D01*
X500496Y652042D01*
X500427Y652111D01*
X500619Y652573D01*
X503971D01*
X504163Y652111D01*
X504094Y652042D01*
X503568Y651130D01*
X503295Y650113D01*
Y649060D01*
X503568Y648042D01*
X504094Y647130D01*
X504839Y646386D01*
X505751Y645859D01*
X506768Y645586D01*
X507822D01*
X508839Y645859D01*
X509751Y646386D01*
X510496Y647130D01*
X511022Y648042D01*
X511295Y649060D01*
Y650113D01*
X511022Y651130D01*
X510496Y652042D01*
X510427Y652111D01*
X510619Y652573D01*
X512795D01*
Y634842D01*
D02*
G37*
G36*
X631496Y620472D02*
X595669D01*
Y662598D01*
X631496D01*
Y620472D01*
D02*
G37*
%LPC*%
G36*
X304527Y532000D02*
X304500D01*
Y528500D01*
X308000D01*
Y528527D01*
X307727Y529544D01*
X307201Y530456D01*
X306456Y531201D01*
X305544Y531727D01*
X304527Y532000D01*
D02*
G37*
G36*
X303500D02*
X303473D01*
X302456Y531727D01*
X301544Y531201D01*
X300799Y530456D01*
X300273Y529544D01*
X300000Y528527D01*
Y528500D01*
X303500D01*
Y532000D01*
D02*
G37*
G36*
X154437Y528532D02*
Y526878D01*
X156091D01*
X155786Y527613D01*
X155173Y528227D01*
X154437Y528532D01*
D02*
G37*
G36*
X153437D02*
X152701Y528227D01*
X152088Y527613D01*
X151783Y526878D01*
X153437D01*
Y528532D01*
D02*
G37*
G36*
X156091Y525878D02*
X154437D01*
Y524224D01*
X155173Y524529D01*
X155786Y525142D01*
X156091Y525878D01*
D02*
G37*
G36*
X153437D02*
X151783D01*
X152088Y525142D01*
X152701Y524529D01*
X153437Y524224D01*
Y525878D01*
D02*
G37*
G36*
X334527Y532000D02*
X333473D01*
X332456Y531727D01*
X331544Y531201D01*
X330799Y530456D01*
X330273Y529544D01*
X330000Y528527D01*
Y527473D01*
X330273Y526456D01*
X330799Y525544D01*
X331544Y524799D01*
X332456Y524273D01*
X333473Y524000D01*
X334527D01*
X335544Y524273D01*
X336456Y524799D01*
X337201Y525544D01*
X337727Y526456D01*
X338000Y527473D01*
Y528527D01*
X337727Y529544D01*
X337201Y530456D01*
X336456Y531201D01*
X335544Y531727D01*
X334527Y532000D01*
D02*
G37*
G36*
X324527D02*
X323473D01*
X322456Y531727D01*
X321544Y531201D01*
X320799Y530456D01*
X320273Y529544D01*
X320000Y528527D01*
Y527473D01*
X320273Y526456D01*
X320799Y525544D01*
X321544Y524799D01*
X322456Y524273D01*
X323473Y524000D01*
X324527D01*
X325544Y524273D01*
X326456Y524799D01*
X327201Y525544D01*
X327727Y526456D01*
X328000Y527473D01*
Y528527D01*
X327727Y529544D01*
X327201Y530456D01*
X326456Y531201D01*
X325544Y531727D01*
X324527Y532000D01*
D02*
G37*
G36*
X314527D02*
X313473D01*
X312456Y531727D01*
X311544Y531201D01*
X310799Y530456D01*
X310273Y529544D01*
X310000Y528527D01*
Y527473D01*
X310273Y526456D01*
X310799Y525544D01*
X311544Y524799D01*
X312456Y524273D01*
X313473Y524000D01*
X314527D01*
X315544Y524273D01*
X316456Y524799D01*
X317201Y525544D01*
X317727Y526456D01*
X318000Y527473D01*
Y528527D01*
X317727Y529544D01*
X317201Y530456D01*
X316456Y531201D01*
X315544Y531727D01*
X314527Y532000D01*
D02*
G37*
G36*
X308000Y527500D02*
X304500D01*
Y524000D01*
X304527D01*
X305544Y524273D01*
X306456Y524799D01*
X307201Y525544D01*
X307727Y526456D01*
X308000Y527473D01*
Y527500D01*
D02*
G37*
G36*
X303500D02*
X300000D01*
Y527473D01*
X300273Y526456D01*
X300799Y525544D01*
X301544Y524799D01*
X302456Y524273D01*
X303473Y524000D01*
X303500D01*
Y527500D01*
D02*
G37*
G36*
X294527Y532000D02*
X293473D01*
X292456Y531727D01*
X291544Y531201D01*
X290799Y530456D01*
X290273Y529544D01*
X290000Y528527D01*
Y527473D01*
X290273Y526456D01*
X290799Y525544D01*
X291544Y524799D01*
X292456Y524273D01*
X293473Y524000D01*
X294527D01*
X295544Y524273D01*
X296456Y524799D01*
X297201Y525544D01*
X297727Y526456D01*
X298000Y527473D01*
Y528527D01*
X297727Y529544D01*
X297201Y530456D01*
X296456Y531201D01*
X295544Y531727D01*
X294527Y532000D01*
D02*
G37*
G36*
X389410Y526197D02*
X388543D01*
X387741Y525865D01*
X387127Y525251D01*
X386795Y524450D01*
Y523582D01*
X387127Y522780D01*
X387741Y522167D01*
X388543Y521835D01*
X389410D01*
X390212Y522167D01*
X390825Y522780D01*
X391158Y523582D01*
Y524450D01*
X390825Y525251D01*
X390212Y525865D01*
X389410Y526197D01*
D02*
G37*
G36*
X371584Y509819D02*
X371563D01*
Y506366D01*
X375016D01*
Y506387D01*
X374746Y507392D01*
X374226Y508293D01*
X373490Y509029D01*
X372589Y509550D01*
X371584Y509819D01*
D02*
G37*
G36*
X370563D02*
X370543D01*
X369537Y509550D01*
X368636Y509029D01*
X367900Y508293D01*
X367380Y507392D01*
X367110Y506387D01*
Y506366D01*
X370563D01*
Y509819D01*
D02*
G37*
G36*
X375016Y505366D02*
X371563D01*
Y501913D01*
X371584D01*
X372589Y502183D01*
X373490Y502703D01*
X374226Y503439D01*
X374746Y504341D01*
X375016Y505346D01*
Y505366D01*
D02*
G37*
G36*
X370563D02*
X367110D01*
Y505346D01*
X367380Y504341D01*
X367900Y503439D01*
X368636Y502703D01*
X369537Y502183D01*
X370543Y501913D01*
X370563D01*
Y505366D01*
D02*
G37*
G36*
X294528Y499425D02*
X293661D01*
X292859Y499093D01*
X292245Y498480D01*
X291913Y497678D01*
Y496810D01*
X292245Y496009D01*
X292859Y495395D01*
X293661Y495063D01*
X294528D01*
X295330Y495395D01*
X295943Y496009D01*
X296276Y496810D01*
Y497678D01*
X295943Y498480D01*
X295330Y499093D01*
X294528Y499425D01*
D02*
G37*
G36*
X251221Y499031D02*
X250354D01*
X249552Y498699D01*
X248938Y498086D01*
X248606Y497284D01*
Y496417D01*
X248938Y495615D01*
X249552Y495001D01*
X250354Y494669D01*
X251221D01*
X252023Y495001D01*
X252637Y495615D01*
X252969Y496417D01*
Y497284D01*
X252637Y498086D01*
X252023Y498699D01*
X251221Y499031D01*
D02*
G37*
G36*
X371584Y499819D02*
X370543D01*
X369537Y499549D01*
X368636Y499029D01*
X367900Y498293D01*
X367380Y497392D01*
X367110Y496387D01*
Y495346D01*
X367380Y494341D01*
X367900Y493439D01*
X368636Y492703D01*
X369537Y492183D01*
X370543Y491913D01*
X371584D01*
X372589Y492183D01*
X373490Y492703D01*
X374226Y493439D01*
X374746Y494341D01*
X375016Y495346D01*
Y496387D01*
X374746Y497392D01*
X374226Y498293D01*
X373490Y499029D01*
X372589Y499549D01*
X371584Y499819D01*
D02*
G37*
G36*
X277205Y493913D02*
X276338D01*
X275536Y493581D01*
X274923Y492968D01*
X274590Y492166D01*
Y491298D01*
X274923Y490497D01*
X275536Y489883D01*
X276338Y489551D01*
X277205D01*
X278007Y489883D01*
X278621Y490497D01*
X278953Y491298D01*
Y492166D01*
X278621Y492968D01*
X278007Y493581D01*
X277205Y493913D01*
D02*
G37*
G36*
X38689Y486799D02*
Y485146D01*
X40343D01*
X40038Y485881D01*
X39424Y486495D01*
X38689Y486799D01*
D02*
G37*
G36*
X37689D02*
X36953Y486495D01*
X36340Y485881D01*
X36035Y485146D01*
X37689D01*
Y486799D01*
D02*
G37*
G36*
X224056Y487614D02*
X223188D01*
X222387Y487282D01*
X221773Y486669D01*
X221441Y485867D01*
Y484999D01*
X221773Y484198D01*
X222387Y483584D01*
X223188Y483252D01*
X224056D01*
X224857Y483584D01*
X225471Y484198D01*
X225803Y484999D01*
Y485867D01*
X225471Y486669D01*
X224857Y487282D01*
X224056Y487614D01*
D02*
G37*
G36*
X40343Y484146D02*
X38689D01*
Y482492D01*
X39424Y482797D01*
X40038Y483410D01*
X40343Y484146D01*
D02*
G37*
G36*
X37689D02*
X36035D01*
X36340Y483410D01*
X36953Y482797D01*
X37689Y482492D01*
Y484146D01*
D02*
G37*
G36*
X371584Y489819D02*
X370543D01*
X369537Y489549D01*
X368636Y489029D01*
X367900Y488293D01*
X367380Y487392D01*
X367110Y486387D01*
Y485346D01*
X367380Y484340D01*
X367900Y483439D01*
X368636Y482703D01*
X369537Y482183D01*
X370543Y481913D01*
X371584D01*
X372589Y482183D01*
X373490Y482703D01*
X374226Y483439D01*
X374746Y484340D01*
X375016Y485346D01*
Y486387D01*
X374746Y487392D01*
X374226Y488293D01*
X373490Y489029D01*
X372589Y489549D01*
X371584Y489819D01*
D02*
G37*
G36*
X131536Y480921D02*
X130668D01*
X129867Y480589D01*
X129253Y479976D01*
X128921Y479174D01*
Y478306D01*
X129253Y477505D01*
X129867Y476891D01*
X130668Y476559D01*
X131536D01*
X132338Y476891D01*
X132951Y477505D01*
X133283Y478306D01*
Y479174D01*
X132951Y479976D01*
X132338Y480589D01*
X131536Y480921D01*
D02*
G37*
G36*
X256339Y478559D02*
X255472D01*
X254670Y478227D01*
X254057Y477613D01*
X253724Y476812D01*
Y475944D01*
X254057Y475142D01*
X254670Y474529D01*
X255472Y474197D01*
X256339D01*
X257141Y474529D01*
X257755Y475142D01*
X258087Y475944D01*
Y476812D01*
X257755Y477613D01*
X257141Y478227D01*
X256339Y478559D01*
D02*
G37*
G36*
X371584Y479819D02*
X370543D01*
X369537Y479550D01*
X368636Y479029D01*
X367900Y478293D01*
X367380Y477392D01*
X367110Y476387D01*
Y475346D01*
X367380Y474340D01*
X367900Y473439D01*
X368636Y472703D01*
X369537Y472183D01*
X370543Y471913D01*
X371584D01*
X372589Y472183D01*
X373490Y472703D01*
X374226Y473439D01*
X374746Y474340D01*
X375016Y475346D01*
Y476387D01*
X374746Y477392D01*
X374226Y478293D01*
X373490Y479029D01*
X372589Y479550D01*
X371584Y479819D01*
D02*
G37*
G36*
X25917Y476866D02*
X24877D01*
X23871Y476597D01*
X22970Y476076D01*
X22234Y475340D01*
X21713Y474439D01*
X21444Y473434D01*
Y472393D01*
X21713Y471388D01*
X22234Y470486D01*
X22970Y469750D01*
X23871Y469230D01*
X24877Y468961D01*
X25917D01*
X26923Y469230D01*
X27824Y469750D01*
X28560Y470486D01*
X29080Y471388D01*
X29350Y472393D01*
Y473434D01*
X29080Y474439D01*
X28560Y475340D01*
X27824Y476076D01*
X26923Y476597D01*
X25917Y476866D01*
D02*
G37*
G36*
X263820Y471866D02*
X262952D01*
X262150Y471534D01*
X261537Y470921D01*
X261205Y470119D01*
Y469251D01*
X261537Y468449D01*
X262150Y467836D01*
X262952Y467504D01*
X263820D01*
X264621Y467836D01*
X265235Y468449D01*
X265567Y469251D01*
Y470119D01*
X265235Y470921D01*
X264621Y471534D01*
X263820Y471866D01*
D02*
G37*
G36*
X371584Y469819D02*
X370543D01*
X369537Y469550D01*
X368636Y469029D01*
X367900Y468293D01*
X367380Y467392D01*
X367110Y466387D01*
Y465346D01*
X367380Y464340D01*
X367900Y463439D01*
X368636Y462703D01*
X369537Y462183D01*
X370543Y461913D01*
X371584D01*
X372589Y462183D01*
X373490Y462703D01*
X374226Y463439D01*
X374746Y464340D01*
X375016Y465346D01*
Y466387D01*
X374746Y467392D01*
X374226Y468293D01*
X373490Y469029D01*
X372589Y469550D01*
X371584Y469819D01*
D02*
G37*
G36*
X25917Y466866D02*
X24877D01*
X23871Y466597D01*
X22970Y466076D01*
X22234Y465340D01*
X21713Y464439D01*
X21444Y463434D01*
Y462393D01*
X21713Y461388D01*
X22234Y460486D01*
X22970Y459750D01*
X23871Y459230D01*
X24877Y458961D01*
X25917D01*
X26923Y459230D01*
X27824Y459750D01*
X28560Y460486D01*
X29080Y461388D01*
X29350Y462393D01*
Y463434D01*
X29080Y464439D01*
X28560Y465340D01*
X27824Y466076D01*
X26923Y466597D01*
X25917Y466866D01*
D02*
G37*
G36*
X264213Y459858D02*
X263346D01*
X262544Y459526D01*
X261930Y458913D01*
X261598Y458111D01*
Y457243D01*
X261930Y456442D01*
X262544Y455828D01*
X263346Y455496D01*
X264213D01*
X265015Y455828D01*
X265629Y456442D01*
X265961Y457243D01*
Y458111D01*
X265629Y458913D01*
X265015Y459526D01*
X264213Y459858D01*
D02*
G37*
G36*
X371584Y459819D02*
X370543D01*
X369537Y459550D01*
X368636Y459029D01*
X367900Y458293D01*
X367380Y457392D01*
X367110Y456387D01*
Y455346D01*
X367380Y454341D01*
X367900Y453439D01*
X368636Y452703D01*
X369537Y452183D01*
X370543Y451913D01*
X371584D01*
X372589Y452183D01*
X373490Y452703D01*
X374226Y453439D01*
X374746Y454341D01*
X375016Y455346D01*
Y456387D01*
X374746Y457392D01*
X374226Y458293D01*
X373490Y459029D01*
X372589Y459550D01*
X371584Y459819D01*
D02*
G37*
G36*
X25917Y456866D02*
X24877D01*
X23871Y456597D01*
X22970Y456076D01*
X22234Y455340D01*
X21713Y454439D01*
X21444Y453434D01*
Y452393D01*
X21713Y451388D01*
X22234Y450486D01*
X22970Y449750D01*
X23871Y449230D01*
X24877Y448961D01*
X25917D01*
X26923Y449230D01*
X27824Y449750D01*
X28560Y450486D01*
X29080Y451388D01*
X29350Y452393D01*
Y453434D01*
X29080Y454439D01*
X28560Y455340D01*
X27824Y456076D01*
X26923Y456597D01*
X25917Y456866D01*
D02*
G37*
G36*
X39870Y446248D02*
Y444594D01*
X41524D01*
X41219Y445330D01*
X40606Y445943D01*
X39870Y446248D01*
D02*
G37*
G36*
X38870D02*
X38135Y445943D01*
X37521Y445330D01*
X37216Y444594D01*
X38870D01*
Y446248D01*
D02*
G37*
G36*
X41524Y443595D02*
X39870D01*
Y441941D01*
X40606Y442245D01*
X41219Y442859D01*
X41524Y443595D01*
D02*
G37*
G36*
X38870D02*
X37216D01*
X37521Y442859D01*
X38135Y442245D01*
X38870Y441941D01*
Y443595D01*
D02*
G37*
G36*
X375016Y449819D02*
X367110D01*
Y441913D01*
X375016D01*
Y449819D01*
D02*
G37*
G36*
X312442Y446079D02*
X311574D01*
X310772Y445747D01*
X310159Y445133D01*
X309827Y444332D01*
Y443464D01*
X310159Y442662D01*
X310772Y442049D01*
X311574Y441716D01*
X312442D01*
X313243Y442049D01*
X313857Y442662D01*
X314189Y443464D01*
Y444332D01*
X313857Y445133D01*
X313243Y445747D01*
X312442Y446079D01*
D02*
G37*
G36*
X25917Y446866D02*
X24877D01*
X23871Y446597D01*
X22970Y446076D01*
X22234Y445340D01*
X21713Y444439D01*
X21444Y443434D01*
Y442393D01*
X21713Y441388D01*
X22234Y440486D01*
X22970Y439750D01*
X23871Y439230D01*
X24877Y438961D01*
X25917D01*
X26923Y439230D01*
X27824Y439750D01*
X28560Y440486D01*
X29080Y441388D01*
X29350Y442393D01*
Y443434D01*
X29080Y444439D01*
X28560Y445340D01*
X27824Y446076D01*
X26923Y446597D01*
X25917Y446866D01*
D02*
G37*
G36*
Y436866D02*
X25897D01*
Y433413D01*
X29350D01*
Y433434D01*
X29080Y434439D01*
X28560Y435340D01*
X27824Y436076D01*
X26923Y436597D01*
X25917Y436866D01*
D02*
G37*
G36*
X24897D02*
X24877D01*
X23871Y436597D01*
X22970Y436076D01*
X22234Y435340D01*
X21713Y434439D01*
X21444Y433434D01*
Y433413D01*
X24897D01*
Y436866D01*
D02*
G37*
G36*
X29350Y432413D02*
X25897D01*
Y428961D01*
X25917D01*
X26923Y429230D01*
X27824Y429750D01*
X28560Y430486D01*
X29080Y431388D01*
X29350Y432393D01*
Y432413D01*
D02*
G37*
G36*
X24897D02*
X21444D01*
Y432393D01*
X21713Y431388D01*
X22234Y430486D01*
X22970Y429750D01*
X23871Y429230D01*
X24877Y428961D01*
X24897D01*
Y432413D01*
D02*
G37*
G36*
X309605Y431402D02*
X309579D01*
Y427902D01*
X313079D01*
Y427928D01*
X312806Y428945D01*
X312280Y429858D01*
X311535Y430602D01*
X310623Y431129D01*
X309605Y431402D01*
D02*
G37*
G36*
X308579D02*
X308552D01*
X307535Y431129D01*
X306623Y430602D01*
X305878Y429858D01*
X305351Y428945D01*
X305079Y427928D01*
Y427902D01*
X308579D01*
Y431402D01*
D02*
G37*
G36*
X144135Y431315D02*
X143267D01*
X142465Y430983D01*
X141852Y430369D01*
X141520Y429568D01*
Y428700D01*
X141852Y427898D01*
X142465Y427285D01*
X143267Y426953D01*
X144135D01*
X144936Y427285D01*
X145550Y427898D01*
X145882Y428700D01*
Y429568D01*
X145550Y430369D01*
X144936Y430983D01*
X144135Y431315D01*
D02*
G37*
G36*
X94528Y428953D02*
X93661D01*
X92859Y428621D01*
X92245Y428007D01*
X91913Y427206D01*
Y426338D01*
X92245Y425536D01*
X92859Y424923D01*
X93661Y424590D01*
X94528D01*
X95330Y424923D01*
X95943Y425536D01*
X96276Y426338D01*
Y427206D01*
X95943Y428007D01*
X95330Y428621D01*
X94528Y428953D01*
D02*
G37*
G36*
X349605Y431402D02*
X348552D01*
X347535Y431129D01*
X346623Y430602D01*
X345878Y429858D01*
X345351Y428945D01*
X345079Y427928D01*
Y426875D01*
X345351Y425858D01*
X345878Y424945D01*
X346623Y424201D01*
X347535Y423674D01*
X348552Y423402D01*
X349605D01*
X350623Y423674D01*
X351535Y424201D01*
X352279Y424945D01*
X352806Y425858D01*
X353079Y426875D01*
Y427928D01*
X352806Y428945D01*
X352279Y429858D01*
X351535Y430602D01*
X350623Y431129D01*
X349605Y431402D01*
D02*
G37*
G36*
X339605D02*
X338552D01*
X337535Y431129D01*
X336623Y430602D01*
X335878Y429858D01*
X335351Y428945D01*
X335079Y427928D01*
Y426875D01*
X335351Y425858D01*
X335878Y424945D01*
X336623Y424201D01*
X337535Y423674D01*
X338552Y423402D01*
X339605D01*
X340623Y423674D01*
X341535Y424201D01*
X342280Y424945D01*
X342806Y425858D01*
X343079Y426875D01*
Y427928D01*
X342806Y428945D01*
X342280Y429858D01*
X341535Y430602D01*
X340623Y431129D01*
X339605Y431402D01*
D02*
G37*
G36*
X329605D02*
X328552D01*
X327535Y431129D01*
X326623Y430602D01*
X325878Y429858D01*
X325351Y428945D01*
X325079Y427928D01*
Y426875D01*
X325351Y425858D01*
X325878Y424945D01*
X326623Y424201D01*
X327535Y423674D01*
X328552Y423402D01*
X329605D01*
X330623Y423674D01*
X331535Y424201D01*
X332279Y424945D01*
X332806Y425858D01*
X333079Y426875D01*
Y427928D01*
X332806Y428945D01*
X332279Y429858D01*
X331535Y430602D01*
X330623Y431129D01*
X329605Y431402D01*
D02*
G37*
G36*
X319605D02*
X318552D01*
X317535Y431129D01*
X316623Y430602D01*
X315878Y429858D01*
X315351Y428945D01*
X315079Y427928D01*
Y426875D01*
X315351Y425858D01*
X315878Y424945D01*
X316623Y424201D01*
X317535Y423674D01*
X318552Y423402D01*
X319605D01*
X320623Y423674D01*
X321535Y424201D01*
X322280Y424945D01*
X322806Y425858D01*
X323079Y426875D01*
Y427928D01*
X322806Y428945D01*
X322280Y429858D01*
X321535Y430602D01*
X320623Y431129D01*
X319605Y431402D01*
D02*
G37*
G36*
X313079Y426902D02*
X309579D01*
Y423402D01*
X309605D01*
X310623Y423674D01*
X311535Y424201D01*
X312280Y424945D01*
X312806Y425858D01*
X313079Y426875D01*
Y426902D01*
D02*
G37*
G36*
X308579D02*
X305079D01*
Y426875D01*
X305351Y425858D01*
X305878Y424945D01*
X306623Y424201D01*
X307535Y423674D01*
X308552Y423402D01*
X308579D01*
Y426902D01*
D02*
G37*
G36*
X299605Y431402D02*
X298552D01*
X297535Y431129D01*
X296623Y430602D01*
X295878Y429858D01*
X295351Y428945D01*
X295079Y427928D01*
Y426875D01*
X295351Y425858D01*
X295878Y424945D01*
X296623Y424201D01*
X297535Y423674D01*
X298552Y423402D01*
X299605D01*
X300623Y423674D01*
X301535Y424201D01*
X302279Y424945D01*
X302806Y425858D01*
X303079Y426875D01*
Y427928D01*
X302806Y428945D01*
X302279Y429858D01*
X301535Y430602D01*
X300623Y431129D01*
X299605Y431402D01*
D02*
G37*
G36*
X289605Y431400D02*
X288552D01*
X287535Y431127D01*
X286623Y430601D01*
X285878Y429856D01*
X285351Y428944D01*
X285079Y427927D01*
Y426873D01*
X285351Y425856D01*
X285878Y424944D01*
X286623Y424199D01*
X287535Y423673D01*
X288552Y423400D01*
X289605D01*
X290623Y423673D01*
X291535Y424199D01*
X292280Y424944D01*
X292806Y425856D01*
X293079Y426873D01*
Y427927D01*
X292806Y428944D01*
X292280Y429856D01*
X291535Y430601D01*
X290623Y431127D01*
X289605Y431400D01*
D02*
G37*
G36*
X29350Y426866D02*
X21444D01*
Y418961D01*
X29350D01*
Y426866D01*
D02*
G37*
G36*
X301287Y405303D02*
Y403650D01*
X302941D01*
X302637Y404385D01*
X302023Y404999D01*
X301287Y405303D01*
D02*
G37*
G36*
X300287D02*
X299552Y404999D01*
X298938Y404385D01*
X298634Y403650D01*
X300287D01*
Y405303D01*
D02*
G37*
G36*
X302941Y402650D02*
X301287D01*
Y400996D01*
X302023Y401301D01*
X302637Y401914D01*
X302941Y402650D01*
D02*
G37*
G36*
X300287D02*
X298634D01*
X298938Y401914D01*
X299552Y401301D01*
X300287Y400996D01*
Y402650D01*
D02*
G37*
G36*
X113820Y396669D02*
X112952D01*
X112150Y396337D01*
X111537Y395724D01*
X111205Y394922D01*
Y394054D01*
X111537Y393253D01*
X112150Y392639D01*
X112952Y392307D01*
X113820D01*
X114621Y392639D01*
X115235Y393253D01*
X115567Y394054D01*
Y394922D01*
X115235Y395724D01*
X114621Y396337D01*
X113820Y396669D01*
D02*
G37*
G36*
X290402Y399465D02*
X289362D01*
X288356Y399195D01*
X287455Y398675D01*
X286719Y397939D01*
X286198Y397038D01*
X285929Y396032D01*
Y394991D01*
X286198Y393986D01*
X286719Y393085D01*
X287455Y392349D01*
X288356Y391828D01*
X289362Y391559D01*
X290402D01*
X291408Y391828D01*
X292309Y392349D01*
X293045Y393085D01*
X293565Y393986D01*
X293835Y394991D01*
Y396032D01*
X293565Y397038D01*
X293045Y397939D01*
X292309Y398675D01*
X291408Y399195D01*
X290402Y399465D01*
D02*
G37*
G36*
X117757Y392339D02*
X116889D01*
X116087Y392006D01*
X115474Y391393D01*
X115142Y390591D01*
Y389724D01*
X115474Y388922D01*
X116087Y388308D01*
X116889Y387976D01*
X117757D01*
X118558Y388308D01*
X119172Y388922D01*
X119504Y389724D01*
Y390591D01*
X119172Y391393D01*
X118558Y392006D01*
X117757Y392339D01*
D02*
G37*
G36*
X136261Y388992D02*
X135393D01*
X134591Y388660D01*
X133978Y388047D01*
X133646Y387245D01*
Y386377D01*
X133978Y385576D01*
X134591Y384962D01*
X135393Y384630D01*
X136261D01*
X137062Y384962D01*
X137676Y385576D01*
X138008Y386377D01*
Y387245D01*
X137676Y388047D01*
X137062Y388660D01*
X136261Y388992D01*
D02*
G37*
G36*
X240591Y387221D02*
X239724D01*
X238922Y386888D01*
X238308Y386275D01*
X237976Y385473D01*
Y384606D01*
X238308Y383804D01*
X238922Y383190D01*
X239724Y382858D01*
X240591D01*
X241393Y383190D01*
X242006Y383804D01*
X242339Y384606D01*
Y385473D01*
X242006Y386275D01*
X241393Y386888D01*
X240591Y387221D01*
D02*
G37*
G36*
X225631Y386039D02*
X224763D01*
X223961Y385707D01*
X223348Y385094D01*
X223016Y384292D01*
Y383424D01*
X223348Y382623D01*
X223961Y382009D01*
X224763Y381677D01*
X225631D01*
X226432Y382009D01*
X227046Y382623D01*
X227378Y383424D01*
Y384292D01*
X227046Y385094D01*
X226432Y385707D01*
X225631Y386039D01*
D02*
G37*
G36*
X363623Y377181D02*
X362755D01*
X361953Y376849D01*
X361340Y376236D01*
X361008Y375434D01*
Y374566D01*
X361340Y373764D01*
X361953Y373151D01*
X362755Y372819D01*
X363623D01*
X364424Y373151D01*
X365038Y373764D01*
X365370Y374566D01*
Y375434D01*
X365038Y376236D01*
X364424Y376849D01*
X363623Y377181D01*
D02*
G37*
G36*
X26170Y379984D02*
X25116D01*
X24099Y379712D01*
X23187Y379185D01*
X22442Y378440D01*
X21915Y377528D01*
X21643Y376511D01*
Y375458D01*
X21915Y374440D01*
X22442Y373528D01*
X23187Y372783D01*
X24099Y372257D01*
X25116Y371984D01*
X26170D01*
X27187Y372257D01*
X28099Y372783D01*
X28844Y373528D01*
X29370Y374440D01*
X29643Y375458D01*
Y376511D01*
X29370Y377528D01*
X28844Y378440D01*
X28099Y379185D01*
X27187Y379712D01*
X26170Y379984D01*
D02*
G37*
G36*
X39410Y372654D02*
X38543D01*
X37741Y372322D01*
X37127Y371708D01*
X36795Y370906D01*
Y370039D01*
X37127Y369237D01*
X37741Y368623D01*
X38543Y368291D01*
X39410D01*
X40212Y368623D01*
X40825Y369237D01*
X41157Y370039D01*
Y370906D01*
X40825Y371708D01*
X40212Y372322D01*
X39410Y372654D01*
D02*
G37*
G36*
X127272Y364752D02*
Y363098D01*
X128925D01*
X128621Y363834D01*
X128007Y364447D01*
X127272Y364752D01*
D02*
G37*
G36*
X126272D02*
X125536Y364447D01*
X124923Y363834D01*
X124618Y363098D01*
X126272D01*
Y364752D01*
D02*
G37*
G36*
X260276Y366748D02*
X259409D01*
X258607Y366416D01*
X257994Y365802D01*
X257661Y365001D01*
Y364133D01*
X257994Y363331D01*
X258607Y362718D01*
X259409Y362386D01*
X260276D01*
X261078Y362718D01*
X261692Y363331D01*
X262024Y364133D01*
Y365001D01*
X261692Y365802D01*
X261078Y366416D01*
X260276Y366748D01*
D02*
G37*
G36*
X26170Y369512D02*
X25116D01*
X24099Y369239D01*
X23187Y368713D01*
X22442Y367968D01*
X21915Y367056D01*
X21643Y366038D01*
Y364985D01*
X21915Y363968D01*
X22442Y363056D01*
X23187Y362311D01*
X24099Y361784D01*
X25116Y361512D01*
X26170D01*
X27187Y361784D01*
X28099Y362311D01*
X28844Y363056D01*
X29370Y363968D01*
X29643Y364985D01*
Y366038D01*
X29370Y367056D01*
X28844Y367968D01*
X28099Y368713D01*
X27187Y369239D01*
X26170Y369512D01*
D02*
G37*
G36*
X387872Y365737D02*
X387004D01*
X386203Y365404D01*
X385589Y364791D01*
X385257Y363989D01*
Y363122D01*
X385589Y362320D01*
X386203Y361706D01*
X387004Y361374D01*
X387872D01*
X388673Y361706D01*
X389287Y362320D01*
X389619Y363122D01*
Y363989D01*
X389287Y364791D01*
X388673Y365404D01*
X387872Y365737D01*
D02*
G37*
G36*
X44922Y365173D02*
X44054D01*
X43253Y364841D01*
X42639Y364228D01*
X42307Y363426D01*
Y362558D01*
X42639Y361757D01*
X43253Y361143D01*
X44054Y360811D01*
X44922D01*
X45724Y361143D01*
X46337Y361757D01*
X46669Y362558D01*
Y363426D01*
X46337Y364228D01*
X45724Y364841D01*
X44922Y365173D01*
D02*
G37*
G36*
X128925Y362098D02*
X127272D01*
Y360445D01*
X128007Y360749D01*
X128621Y361363D01*
X128925Y362098D01*
D02*
G37*
G36*
X126272D02*
X124618D01*
X124923Y361363D01*
X125536Y360749D01*
X126272Y360445D01*
Y362098D01*
D02*
G37*
G36*
X82283Y367643D02*
X74889D01*
Y360249D01*
X82283D01*
Y367643D01*
D02*
G37*
G36*
X253977Y362417D02*
X253110D01*
X252308Y362085D01*
X251694Y361472D01*
X251362Y360670D01*
Y359802D01*
X251694Y359001D01*
X252308Y358387D01*
X253110Y358055D01*
X253977D01*
X254779Y358387D01*
X255392Y359001D01*
X255724Y359802D01*
Y360670D01*
X255392Y361472D01*
X254779Y362085D01*
X253977Y362417D01*
D02*
G37*
G36*
X26170Y359039D02*
X26143D01*
Y355539D01*
X29643D01*
Y355566D01*
X29370Y356583D01*
X28844Y357495D01*
X28099Y358240D01*
X27187Y358767D01*
X26170Y359039D01*
D02*
G37*
G36*
X25143D02*
X25116D01*
X24099Y358767D01*
X23187Y358240D01*
X22442Y357495D01*
X21915Y356583D01*
X21643Y355566D01*
Y355539D01*
X25143D01*
Y359039D01*
D02*
G37*
G36*
X230749Y358480D02*
X229881D01*
X229080Y358148D01*
X228466Y357535D01*
X228134Y356733D01*
Y355865D01*
X228466Y355064D01*
X229080Y354450D01*
X229881Y354118D01*
X230749D01*
X231551Y354450D01*
X232164Y355064D01*
X232496Y355865D01*
Y356733D01*
X232164Y357535D01*
X231551Y358148D01*
X230749Y358480D01*
D02*
G37*
G36*
X191379Y356512D02*
X190511D01*
X189709Y356180D01*
X189096Y355566D01*
X188764Y354765D01*
Y353897D01*
X189096Y353095D01*
X189709Y352482D01*
X190511Y352150D01*
X191379D01*
X192180Y352482D01*
X192794Y353095D01*
X193126Y353897D01*
Y354765D01*
X192794Y355566D01*
X192180Y356180D01*
X191379Y356512D01*
D02*
G37*
G36*
X29643Y354539D02*
X26143D01*
Y351039D01*
X26170D01*
X27187Y351312D01*
X28099Y351839D01*
X28844Y352583D01*
X29370Y353495D01*
X29643Y354513D01*
Y354539D01*
D02*
G37*
G36*
X25143D02*
X21643D01*
Y354513D01*
X21915Y353495D01*
X22442Y352583D01*
X23187Y351839D01*
X24099Y351312D01*
X25116Y351039D01*
X25143D01*
Y354539D01*
D02*
G37*
G36*
X234686Y346669D02*
X233818D01*
X233016Y346337D01*
X232403Y345724D01*
X232071Y344922D01*
Y344054D01*
X232403Y343253D01*
X233016Y342639D01*
X233818Y342307D01*
X234686D01*
X235488Y342639D01*
X236101Y343253D01*
X236433Y344054D01*
Y344922D01*
X236101Y345724D01*
X235488Y346337D01*
X234686Y346669D01*
D02*
G37*
G36*
X101642Y345855D02*
X100774D01*
X99973Y345523D01*
X99359Y344909D01*
X99027Y344108D01*
Y343240D01*
X99359Y342438D01*
X99973Y341825D01*
X100774Y341493D01*
X101642D01*
X102444Y341825D01*
X103057Y342438D01*
X103389Y343240D01*
Y344108D01*
X103057Y344909D01*
X102444Y345523D01*
X101642Y345855D01*
D02*
G37*
G36*
X82831Y347398D02*
X75437D01*
Y340004D01*
X82831D01*
Y347398D01*
D02*
G37*
G36*
X152009Y343717D02*
X151141D01*
X150339Y343385D01*
X149726Y342771D01*
X149394Y341969D01*
Y341102D01*
X149726Y340300D01*
X150339Y339686D01*
X151141Y339354D01*
X152009D01*
X152810Y339686D01*
X153424Y340300D01*
X153756Y341102D01*
Y341969D01*
X153424Y342771D01*
X152810Y343385D01*
X152009Y343717D01*
D02*
G37*
G36*
X156930Y337811D02*
X156062D01*
X155261Y337479D01*
X154647Y336865D01*
X154315Y336064D01*
Y335196D01*
X154647Y334394D01*
X155261Y333781D01*
X156062Y333449D01*
X156930D01*
X157731Y333781D01*
X158345Y334394D01*
X158677Y335196D01*
Y336064D01*
X158345Y336865D01*
X157731Y337479D01*
X156930Y337811D01*
D02*
G37*
G36*
X269725Y336039D02*
X268858D01*
X268056Y335707D01*
X267442Y335094D01*
X267110Y334292D01*
Y333424D01*
X267442Y332623D01*
X268056Y332009D01*
X268858Y331677D01*
X269725D01*
X270527Y332009D01*
X271140Y332623D01*
X271472Y333424D01*
Y334292D01*
X271140Y335094D01*
X270527Y335707D01*
X269725Y336039D01*
D02*
G37*
G36*
X123465Y332890D02*
X122598D01*
X121796Y332558D01*
X121182Y331944D01*
X120850Y331142D01*
Y330275D01*
X121182Y329473D01*
X121796Y328860D01*
X122598Y328528D01*
X123465D01*
X124267Y328860D01*
X124881Y329473D01*
X125213Y330275D01*
Y331142D01*
X124881Y331944D01*
X124267Y332558D01*
X123465Y332890D01*
D02*
G37*
G36*
X290402Y334602D02*
X289362D01*
X288356Y334333D01*
X287455Y333812D01*
X286719Y333077D01*
X286198Y332175D01*
X285929Y331170D01*
Y330129D01*
X286198Y329124D01*
X286719Y328222D01*
X287455Y327486D01*
X288356Y326966D01*
X289362Y326697D01*
X290402D01*
X291408Y326966D01*
X292309Y327486D01*
X293045Y328222D01*
X293565Y329124D01*
X293835Y330129D01*
Y331170D01*
X293565Y332175D01*
X293045Y333077D01*
X292309Y333812D01*
X291408Y334333D01*
X290402Y334602D01*
D02*
G37*
G36*
X182437Y333618D02*
X175043D01*
Y326224D01*
X182437D01*
Y333618D01*
D02*
G37*
G36*
X201615Y330134D02*
X200747D01*
X199946Y329802D01*
X199332Y329188D01*
X199000Y328387D01*
Y327519D01*
X199332Y326717D01*
X199946Y326104D01*
X200747Y325772D01*
X201615D01*
X202417Y326104D01*
X203030Y326717D01*
X203362Y327519D01*
Y328387D01*
X203030Y329188D01*
X202417Y329802D01*
X201615Y330134D01*
D02*
G37*
G36*
X252009Y325410D02*
X251141D01*
X250339Y325077D01*
X249726Y324464D01*
X249394Y323662D01*
Y322795D01*
X249726Y321993D01*
X250339Y321379D01*
X251141Y321047D01*
X252009D01*
X252810Y321379D01*
X253424Y321993D01*
X253756Y322795D01*
Y323662D01*
X253424Y324464D01*
X252810Y325077D01*
X252009Y325410D01*
D02*
G37*
G36*
X265394Y324638D02*
X264527D01*
X263725Y324306D01*
X263112Y323692D01*
X262779Y322890D01*
Y322023D01*
X263112Y321221D01*
X263725Y320608D01*
X264527Y320276D01*
X265394D01*
X266196Y320608D01*
X266810Y321221D01*
X267142Y322023D01*
Y322890D01*
X266810Y323692D01*
X266196Y324306D01*
X265394Y324638D01*
D02*
G37*
G36*
X116886Y323579D02*
X109492D01*
Y316185D01*
X116886D01*
Y323579D01*
D02*
G37*
G36*
X207127Y320094D02*
X206259D01*
X205457Y319762D01*
X204844Y319149D01*
X204512Y318347D01*
Y317479D01*
X204844Y316678D01*
X205457Y316064D01*
X206259Y315732D01*
X207127D01*
X207928Y316064D01*
X208542Y316678D01*
X208874Y317479D01*
Y318347D01*
X208542Y319149D01*
X207928Y319762D01*
X207127Y320094D01*
D02*
G37*
G36*
X15623Y326866D02*
X14456D01*
X13312Y326639D01*
X12235Y326192D01*
X11265Y325544D01*
X10440Y324720D01*
X9792Y323750D01*
X9346Y322672D01*
X9118Y321528D01*
Y320362D01*
X9346Y319218D01*
X9792Y318140D01*
X10440Y317170D01*
X11265Y316346D01*
X12235Y315698D01*
X13312Y315251D01*
X14456Y315024D01*
X15623D01*
X16767Y315251D01*
X17844Y315698D01*
X18814Y316346D01*
X19639Y317170D01*
X20287Y318140D01*
X20733Y319218D01*
X20961Y320362D01*
Y321528D01*
X20733Y322672D01*
X20287Y323750D01*
X19639Y324720D01*
X18814Y325544D01*
X17844Y326192D01*
X16767Y326639D01*
X15623Y326866D01*
D02*
G37*
G36*
X99253Y319110D02*
X98385D01*
X97583Y318778D01*
X96970Y318165D01*
X96638Y317363D01*
Y316495D01*
X96970Y315694D01*
X97583Y315080D01*
X98385Y314748D01*
X99253D01*
X100054Y315080D01*
X100668Y315694D01*
X101000Y316495D01*
Y317363D01*
X100668Y318165D01*
X100054Y318778D01*
X99253Y319110D01*
D02*
G37*
G36*
X128453Y315146D02*
Y313492D01*
X130106D01*
X129802Y314228D01*
X129188Y314841D01*
X128453Y315146D01*
D02*
G37*
G36*
X127453D02*
X126717Y314841D01*
X126104Y314228D01*
X125799Y313492D01*
X127453D01*
Y315146D01*
D02*
G37*
G36*
X130106Y312492D02*
X128453D01*
Y310838D01*
X129188Y311143D01*
X129802Y311757D01*
X130106Y312492D01*
D02*
G37*
G36*
X127453D02*
X125799D01*
X126104Y311757D01*
X126717Y311143D01*
X127453Y310838D01*
Y312492D01*
D02*
G37*
G36*
X230749Y310842D02*
X229881D01*
X229080Y310510D01*
X228466Y309897D01*
X228134Y309095D01*
Y308228D01*
X228466Y307426D01*
X229080Y306812D01*
X229881Y306480D01*
X230749D01*
X231551Y306812D01*
X232164Y307426D01*
X232496Y308228D01*
Y309095D01*
X232164Y309897D01*
X231551Y310510D01*
X230749Y310842D01*
D02*
G37*
G36*
X100828Y310252D02*
X99960D01*
X99158Y309920D01*
X98545Y309306D01*
X98213Y308505D01*
Y307637D01*
X98545Y306835D01*
X99158Y306222D01*
X99960Y305890D01*
X100828D01*
X101629Y306222D01*
X102243Y306835D01*
X102575Y307637D01*
Y308505D01*
X102243Y309306D01*
X101629Y309920D01*
X100828Y310252D01*
D02*
G37*
G36*
X206059Y308421D02*
X198665D01*
Y301028D01*
X206059D01*
Y308421D01*
D02*
G37*
G36*
X174169D02*
X166776D01*
Y301028D01*
X174169D01*
Y308421D01*
D02*
G37*
G36*
X60566Y308449D02*
X59513D01*
X58495Y308176D01*
X57583Y307650D01*
X56839Y306905D01*
X56312Y305993D01*
X56039Y304975D01*
Y303922D01*
X56312Y302905D01*
X56839Y301993D01*
X57583Y301248D01*
X58495Y300721D01*
X59513Y300449D01*
X60566D01*
X61583Y300721D01*
X62495Y301248D01*
X63240Y301993D01*
X63767Y302905D01*
X64039Y303922D01*
Y304975D01*
X63767Y305993D01*
X63240Y306905D01*
X62495Y307650D01*
X61583Y308176D01*
X60566Y308449D01*
D02*
G37*
G36*
X227205Y303362D02*
X226338D01*
X225536Y303030D01*
X224923Y302417D01*
X224590Y301615D01*
Y300747D01*
X224923Y299946D01*
X225536Y299332D01*
X226338Y299000D01*
X227205D01*
X228007Y299332D01*
X228621Y299946D01*
X228953Y300747D01*
Y301615D01*
X228621Y302417D01*
X228007Y303030D01*
X227205Y303362D01*
D02*
G37*
G36*
X105454Y302083D02*
X104586D01*
X103784Y301751D01*
X103171Y301137D01*
X102839Y300335D01*
Y299468D01*
X103171Y298666D01*
X103784Y298053D01*
X104586Y297721D01*
X105454D01*
X106255Y298053D01*
X106869Y298666D01*
X107201Y299468D01*
Y300335D01*
X106869Y301137D01*
X106255Y301751D01*
X105454Y302083D01*
D02*
G37*
G36*
X35566Y304945D02*
X34513D01*
X33495Y304672D01*
X32583Y304146D01*
X31839Y303401D01*
X31312Y302489D01*
X31039Y301471D01*
Y300418D01*
X31312Y299401D01*
X31839Y298489D01*
X32583Y297744D01*
X33495Y297217D01*
X34513Y296945D01*
X35566D01*
X36583Y297217D01*
X37495Y297744D01*
X38240Y298489D01*
X38767Y299401D01*
X39039Y300418D01*
Y301471D01*
X38767Y302489D01*
X38240Y303401D01*
X37495Y304146D01*
X36583Y304672D01*
X35566Y304945D01*
D02*
G37*
G36*
X169332Y298638D02*
X168464D01*
X167662Y298306D01*
X167049Y297692D01*
X166717Y296890D01*
Y296023D01*
X167049Y295221D01*
X167662Y294608D01*
X168464Y294276D01*
X169332D01*
X170133Y294608D01*
X170747Y295221D01*
X171079Y296023D01*
Y296890D01*
X170747Y297692D01*
X170133Y298306D01*
X169332Y298638D01*
D02*
G37*
G36*
X237902Y295461D02*
Y293807D01*
X239555D01*
X239251Y294543D01*
X238637Y295156D01*
X237902Y295461D01*
D02*
G37*
G36*
X236902D02*
X236166Y295156D01*
X235553Y294543D01*
X235248Y293807D01*
X236902D01*
Y295461D01*
D02*
G37*
G36*
X239555Y292807D02*
X237902D01*
Y291153D01*
X238637Y291458D01*
X239251Y292072D01*
X239555Y292807D01*
D02*
G37*
G36*
X236902D02*
X235248D01*
X235553Y292072D01*
X236166Y291458D01*
X236902Y291153D01*
Y292807D01*
D02*
G37*
G36*
X70566Y298449D02*
X69513D01*
X68495Y298176D01*
X67583Y297650D01*
X66839Y296905D01*
X66312Y295993D01*
X66039Y294975D01*
Y293922D01*
X66312Y292905D01*
X66839Y291993D01*
X67583Y291248D01*
X68495Y290721D01*
X69513Y290449D01*
X70566D01*
X71583Y290721D01*
X72495Y291248D01*
X73240Y291993D01*
X73767Y292905D01*
X74039Y293922D01*
Y294975D01*
X73767Y295993D01*
X73240Y296905D01*
X72495Y297650D01*
X71583Y298176D01*
X70566Y298449D01*
D02*
G37*
G36*
X161064Y294307D02*
X160196D01*
X159394Y293975D01*
X158781Y293361D01*
X158449Y292560D01*
Y291692D01*
X158781Y290891D01*
X159394Y290277D01*
X160196Y289945D01*
X161064D01*
X161865Y290277D01*
X162479Y290891D01*
X162811Y291692D01*
Y292560D01*
X162479Y293361D01*
X161865Y293975D01*
X161064Y294307D01*
D02*
G37*
G36*
X285193Y295035D02*
X277799D01*
Y287642D01*
X285193D01*
Y295035D01*
D02*
G37*
G36*
X207220Y295339D02*
X206166D01*
X205149Y295066D01*
X204237Y294539D01*
X203492Y293795D01*
X202965Y292882D01*
X202693Y291865D01*
Y290812D01*
X202965Y289795D01*
X203492Y288882D01*
X204237Y288138D01*
X205149Y287611D01*
X206166Y287339D01*
X207220D01*
X208237Y287611D01*
X209149Y288138D01*
X209894Y288882D01*
X210420Y289795D01*
X210693Y290812D01*
Y291865D01*
X210420Y292882D01*
X209894Y293795D01*
X209149Y294539D01*
X208237Y295066D01*
X207220Y295339D01*
D02*
G37*
G36*
X187534D02*
X186481D01*
X185464Y295066D01*
X184552Y294539D01*
X183807Y293795D01*
X183281Y292882D01*
X183008Y291865D01*
Y290812D01*
X183281Y289795D01*
X183807Y288882D01*
X184552Y288138D01*
X185464Y287611D01*
X186481Y287339D01*
X187534D01*
X188552Y287611D01*
X189464Y288138D01*
X190209Y288882D01*
X190735Y289795D01*
X191008Y290812D01*
Y291865D01*
X190735Y292882D01*
X190209Y293795D01*
X189464Y294539D01*
X188552Y295066D01*
X187534Y295339D01*
D02*
G37*
G36*
X35566Y294945D02*
X34513D01*
X33495Y294672D01*
X32583Y294146D01*
X31839Y293401D01*
X31312Y292489D01*
X31039Y291472D01*
Y290418D01*
X31312Y289401D01*
X31839Y288489D01*
X32583Y287744D01*
X33495Y287217D01*
X34513Y286945D01*
X35566D01*
X36583Y287217D01*
X37495Y287744D01*
X38240Y288489D01*
X38767Y289401D01*
X39039Y290418D01*
Y291472D01*
X38767Y292489D01*
X38240Y293401D01*
X37495Y294146D01*
X36583Y294672D01*
X35566Y294945D01*
D02*
G37*
G36*
X336157Y289748D02*
X335103D01*
X334086Y289475D01*
X333174Y288949D01*
X332429Y288204D01*
X331903Y287292D01*
X331630Y286275D01*
Y285221D01*
X331903Y284204D01*
X332429Y283292D01*
X333174Y282547D01*
X334086Y282021D01*
X335103Y281748D01*
X336157D01*
X337174Y282021D01*
X338086Y282547D01*
X338831Y283292D01*
X339357Y284204D01*
X339630Y285221D01*
Y286275D01*
X339357Y287292D01*
X338831Y288204D01*
X338086Y288949D01*
X337174Y289475D01*
X336157Y289748D01*
D02*
G37*
G36*
X304660D02*
X303607D01*
X302590Y289475D01*
X301678Y288949D01*
X300933Y288204D01*
X300406Y287292D01*
X300134Y286275D01*
Y285221D01*
X300406Y284204D01*
X300933Y283292D01*
X301678Y282547D01*
X302590Y282021D01*
X303607Y281748D01*
X304660D01*
X305678Y282021D01*
X306590Y282547D01*
X307335Y283292D01*
X307861Y284204D01*
X308134Y285221D01*
Y286275D01*
X307861Y287292D01*
X307335Y288204D01*
X306590Y288949D01*
X305678Y289475D01*
X304660Y289748D01*
D02*
G37*
G36*
X174056Y284858D02*
X173188D01*
X172387Y284526D01*
X171773Y283913D01*
X171441Y283111D01*
Y282243D01*
X171773Y281442D01*
X172387Y280828D01*
X173188Y280496D01*
X174056D01*
X174857Y280828D01*
X175471Y281442D01*
X175803Y282243D01*
Y283111D01*
X175471Y283913D01*
X174857Y284526D01*
X174056Y284858D01*
D02*
G37*
G36*
X60566Y288449D02*
X59513D01*
X58495Y288176D01*
X57583Y287650D01*
X56839Y286905D01*
X56312Y285993D01*
X56039Y284975D01*
Y283922D01*
X56312Y282905D01*
X56839Y281993D01*
X57583Y281248D01*
X58495Y280721D01*
X59513Y280449D01*
X60566D01*
X61583Y280721D01*
X62495Y281248D01*
X63240Y281993D01*
X63767Y282905D01*
X64039Y283922D01*
Y284975D01*
X63767Y285993D01*
X63240Y286905D01*
X62495Y287650D01*
X61583Y288176D01*
X60566Y288449D01*
D02*
G37*
G36*
X15623Y286866D02*
X14456D01*
X13312Y286639D01*
X12235Y286192D01*
X11265Y285544D01*
X10440Y284719D01*
X9792Y283750D01*
X9346Y282672D01*
X9118Y281528D01*
Y280362D01*
X9346Y279218D01*
X9792Y278140D01*
X10440Y277170D01*
X11265Y276345D01*
X12235Y275697D01*
X13312Y275251D01*
X14456Y275024D01*
X15623D01*
X16767Y275251D01*
X17844Y275697D01*
X18814Y276345D01*
X19639Y277170D01*
X20287Y278140D01*
X20733Y279218D01*
X20961Y280362D01*
Y281528D01*
X20733Y282672D01*
X20287Y283750D01*
X19639Y284719D01*
X18814Y285544D01*
X17844Y286192D01*
X16767Y286639D01*
X15623Y286866D01*
D02*
G37*
G36*
X278977Y278756D02*
X278110D01*
X277308Y278424D01*
X276694Y277810D01*
X276362Y277009D01*
Y276141D01*
X276694Y275339D01*
X277308Y274726D01*
X278110Y274394D01*
X278977D01*
X279779Y274726D01*
X280392Y275339D01*
X280724Y276141D01*
Y277009D01*
X280392Y277810D01*
X279779Y278424D01*
X278977Y278756D01*
D02*
G37*
G36*
X206339Y276984D02*
X205472D01*
X204670Y276652D01*
X204057Y276039D01*
X203724Y275237D01*
Y274369D01*
X204057Y273568D01*
X204670Y272954D01*
X205472Y272622D01*
X206339D01*
X207141Y272954D01*
X207755Y273568D01*
X208087Y274369D01*
Y275237D01*
X207755Y276039D01*
X207141Y276652D01*
X206339Y276984D01*
D02*
G37*
G36*
X155369Y280575D02*
X154316D01*
X153299Y280302D01*
X152386Y279776D01*
X151642Y279031D01*
X151115Y278119D01*
X150842Y277101D01*
Y276048D01*
X151115Y275031D01*
X151642Y274119D01*
X152386Y273374D01*
X153299Y272847D01*
X154316Y272575D01*
X155369D01*
X156386Y272847D01*
X157299Y273374D01*
X158043Y274119D01*
X158570Y275031D01*
X158843Y276048D01*
Y277101D01*
X158570Y278119D01*
X158043Y279031D01*
X157299Y279776D01*
X156386Y280302D01*
X155369Y280575D01*
D02*
G37*
G36*
X135369D02*
X134316D01*
X133299Y280302D01*
X132387Y279776D01*
X131642Y279031D01*
X131115Y278119D01*
X130842Y277101D01*
Y276048D01*
X131115Y275031D01*
X131642Y274119D01*
X132387Y273374D01*
X133299Y272847D01*
X134316Y272575D01*
X135369D01*
X136387Y272847D01*
X137299Y273374D01*
X138043Y274119D01*
X138570Y275031D01*
X138842Y276048D01*
Y277101D01*
X138570Y278119D01*
X138043Y279031D01*
X137299Y279776D01*
X136387Y280302D01*
X135369Y280575D01*
D02*
G37*
G36*
X98481Y276492D02*
X97613D01*
X96812Y276160D01*
X96198Y275547D01*
X95866Y274745D01*
Y273877D01*
X96198Y273076D01*
X96812Y272462D01*
X97613Y272130D01*
X98481D01*
X99283Y272462D01*
X99896Y273076D01*
X100228Y273877D01*
Y274745D01*
X99896Y275547D01*
X99283Y276160D01*
X98481Y276492D01*
D02*
G37*
G36*
X346157Y279748D02*
X345103D01*
X344086Y279475D01*
X343174Y278949D01*
X342429Y278204D01*
X341902Y277292D01*
X341630Y276275D01*
Y275221D01*
X341902Y274204D01*
X342429Y273292D01*
X343174Y272547D01*
X344086Y272021D01*
X345103Y271748D01*
X346157D01*
X347174Y272021D01*
X348086Y272547D01*
X348831Y273292D01*
X349357Y274204D01*
X349630Y275221D01*
Y276275D01*
X349357Y277292D01*
X348831Y278204D01*
X348086Y278949D01*
X347174Y279475D01*
X346157Y279748D01*
D02*
G37*
G36*
X314660D02*
X313607D01*
X312590Y279475D01*
X311678Y278949D01*
X310933Y278204D01*
X310406Y277292D01*
X310134Y276275D01*
Y275221D01*
X310406Y274204D01*
X310933Y273292D01*
X311678Y272547D01*
X312590Y272021D01*
X313607Y271748D01*
X314660D01*
X315678Y272021D01*
X316590Y272547D01*
X317335Y273292D01*
X317861Y274204D01*
X318134Y275221D01*
Y276275D01*
X317861Y277292D01*
X317335Y278204D01*
X316590Y278949D01*
X315678Y279475D01*
X314660Y279748D01*
D02*
G37*
G36*
X180749Y273047D02*
X179881D01*
X179079Y272715D01*
X178466Y272102D01*
X178134Y271300D01*
Y270432D01*
X178466Y269631D01*
X179079Y269017D01*
X179881Y268685D01*
X180749D01*
X181551Y269017D01*
X182164Y269631D01*
X182496Y270432D01*
Y271300D01*
X182164Y272102D01*
X181551Y272715D01*
X180749Y273047D01*
D02*
G37*
G36*
X145369Y270575D02*
X144316D01*
X143299Y270302D01*
X142386Y269776D01*
X141642Y269031D01*
X141115Y268119D01*
X140842Y267101D01*
Y266048D01*
X141115Y265031D01*
X141642Y264119D01*
X142386Y263374D01*
X143299Y262847D01*
X144316Y262575D01*
X145369D01*
X146387Y262847D01*
X147299Y263374D01*
X148043Y264119D01*
X148570Y265031D01*
X148843Y266048D01*
Y267101D01*
X148570Y268119D01*
X148043Y269031D01*
X147299Y269776D01*
X146387Y270302D01*
X145369Y270575D01*
D02*
G37*
G36*
X336157Y269748D02*
X335103D01*
X334086Y269476D01*
X333174Y268949D01*
X332429Y268204D01*
X331903Y267292D01*
X331630Y266275D01*
Y265221D01*
X331903Y264204D01*
X332429Y263292D01*
X333174Y262547D01*
X334086Y262021D01*
X335103Y261748D01*
X336157D01*
X337174Y262021D01*
X338086Y262547D01*
X338831Y263292D01*
X339357Y264204D01*
X339630Y265221D01*
Y266275D01*
X339357Y267292D01*
X338831Y268204D01*
X338086Y268949D01*
X337174Y269476D01*
X336157Y269748D01*
D02*
G37*
G36*
X304660D02*
X303607D01*
X302590Y269476D01*
X301678Y268949D01*
X300933Y268204D01*
X300406Y267292D01*
X300134Y266275D01*
Y265221D01*
X300406Y264204D01*
X300933Y263292D01*
X301678Y262547D01*
X302590Y262021D01*
X303607Y261748D01*
X304660D01*
X305678Y262021D01*
X306590Y262547D01*
X307335Y263292D01*
X307861Y264204D01*
X308134Y265221D01*
Y266275D01*
X307861Y267292D01*
X307335Y268204D01*
X306590Y268949D01*
X305678Y269476D01*
X304660Y269748D01*
D02*
G37*
G36*
X237442Y262024D02*
X236574D01*
X235772Y261692D01*
X235159Y261078D01*
X234827Y260276D01*
Y259409D01*
X235159Y258607D01*
X235772Y257994D01*
X236574Y257661D01*
X237442D01*
X238243Y257994D01*
X238857Y258607D01*
X239189Y259409D01*
Y260276D01*
X238857Y261078D01*
X238243Y261692D01*
X237442Y262024D01*
D02*
G37*
G36*
X170776Y258059D02*
Y256405D01*
X172429D01*
X172125Y257141D01*
X171511Y257755D01*
X170776Y258059D01*
D02*
G37*
G36*
X169776D02*
X169040Y257755D01*
X168427Y257141D01*
X168122Y256405D01*
X169776D01*
Y258059D01*
D02*
G37*
G36*
X172429Y255405D02*
X170776D01*
Y253752D01*
X171511Y254057D01*
X172125Y254670D01*
X172429Y255405D01*
D02*
G37*
G36*
X169776D02*
X168122D01*
X168427Y254670D01*
X169040Y254057D01*
X169776Y253752D01*
Y255405D01*
D02*
G37*
G36*
X50434Y256512D02*
X49566D01*
X48765Y256180D01*
X48151Y255566D01*
X47819Y254765D01*
Y253897D01*
X48151Y253095D01*
X48765Y252482D01*
X49566Y252150D01*
X50434D01*
X51236Y252482D01*
X51849Y253095D01*
X52181Y253897D01*
Y254765D01*
X51849Y255566D01*
X51236Y256180D01*
X50434Y256512D01*
D02*
G37*
G36*
X110867Y251787D02*
X109999D01*
X109198Y251455D01*
X108584Y250842D01*
X108252Y250040D01*
Y249172D01*
X108584Y248371D01*
X109198Y247757D01*
X109999Y247425D01*
X110867D01*
X111669Y247757D01*
X112282Y248371D01*
X112614Y249172D01*
Y250040D01*
X112282Y250842D01*
X111669Y251455D01*
X110867Y251787D01*
D02*
G37*
G36*
X129961Y250705D02*
X129094D01*
X128292Y250373D01*
X127679Y249759D01*
X127347Y248957D01*
Y248090D01*
X127679Y247288D01*
X128292Y246675D01*
X129094Y246342D01*
X129961D01*
X130763Y246675D01*
X131377Y247288D01*
X131709Y248090D01*
Y248957D01*
X131377Y249759D01*
X130763Y250373D01*
X129961Y250705D01*
D02*
G37*
G36*
X93052Y245685D02*
X92184D01*
X91383Y245353D01*
X90769Y244739D01*
X90437Y243938D01*
Y243070D01*
X90769Y242268D01*
X91383Y241655D01*
X92184Y241323D01*
X93052D01*
X93854Y241655D01*
X94467Y242268D01*
X94799Y243070D01*
Y243938D01*
X94467Y244739D01*
X93854Y245353D01*
X93052Y245685D01*
D02*
G37*
G36*
X136753Y237417D02*
X135885D01*
X135083Y237085D01*
X134470Y236472D01*
X134138Y235670D01*
Y234802D01*
X134470Y234001D01*
X135083Y233387D01*
X135885Y233055D01*
X136753D01*
X137554Y233387D01*
X138168Y234001D01*
X138500Y234802D01*
Y235670D01*
X138168Y236472D01*
X137554Y237085D01*
X136753Y237417D01*
D02*
G37*
G36*
X12331Y240331D02*
X11291D01*
X10285Y240061D01*
X9384Y239541D01*
X8648Y238805D01*
X8128Y237904D01*
X7858Y236898D01*
Y235858D01*
X8128Y234852D01*
X8648Y233951D01*
X9384Y233215D01*
X10285Y232695D01*
X11291Y232425D01*
X12331D01*
X13337Y232695D01*
X14238Y233215D01*
X14974Y233951D01*
X15494Y234852D01*
X15764Y235858D01*
Y236898D01*
X15494Y237904D01*
X14974Y238805D01*
X14238Y239541D01*
X13337Y240061D01*
X12331Y240331D01*
D02*
G37*
G36*
X115591Y236433D02*
X114724D01*
X113922Y236101D01*
X113308Y235488D01*
X112976Y234686D01*
Y233818D01*
X113308Y233016D01*
X113922Y232403D01*
X114724Y232071D01*
X115591D01*
X116393Y232403D01*
X117007Y233016D01*
X117339Y233818D01*
Y234686D01*
X117007Y235488D01*
X116393Y236101D01*
X115591Y236433D01*
D02*
G37*
G36*
X271038Y235457D02*
X269985D01*
X268968Y235184D01*
X268056Y234658D01*
X267311Y233913D01*
X266784Y233001D01*
X266512Y231983D01*
Y230930D01*
X266784Y229913D01*
X267311Y229001D01*
X268056Y228256D01*
X268968Y227729D01*
X269985Y227457D01*
X271038D01*
X272056Y227729D01*
X272968Y228256D01*
X273713Y229001D01*
X274239Y229913D01*
X274512Y230930D01*
Y231983D01*
X274239Y233001D01*
X273713Y233913D01*
X272968Y234658D01*
X272056Y235184D01*
X271038Y235457D01*
D02*
G37*
G36*
X15764Y230331D02*
X12311D01*
Y226878D01*
X15764D01*
Y230331D01*
D02*
G37*
G36*
X11311D02*
X7858D01*
Y226878D01*
X11311D01*
Y230331D01*
D02*
G37*
G36*
X15764Y225878D02*
X12311D01*
Y222425D01*
X15764D01*
Y225878D01*
D02*
G37*
G36*
X11311D02*
X7858D01*
Y222425D01*
X11311D01*
Y225878D01*
D02*
G37*
G36*
X107488Y221740D02*
Y220087D01*
X109142D01*
X108837Y220822D01*
X108224Y221436D01*
X107488Y221740D01*
D02*
G37*
G36*
X106488D02*
X105753Y221436D01*
X105139Y220822D01*
X104834Y220087D01*
X106488D01*
Y221740D01*
D02*
G37*
G36*
X281038Y225457D02*
X279985D01*
X278968Y225184D01*
X278056Y224658D01*
X277311Y223913D01*
X276784Y223001D01*
X276512Y221983D01*
Y220930D01*
X276784Y219913D01*
X277311Y219001D01*
X278056Y218256D01*
X278968Y217729D01*
X279985Y217457D01*
X281038D01*
X282056Y217729D01*
X282968Y218256D01*
X283713Y219001D01*
X284239Y219913D01*
X284512Y220930D01*
Y221983D01*
X284239Y223001D01*
X283713Y223913D01*
X282968Y224658D01*
X282056Y225184D01*
X281038Y225457D01*
D02*
G37*
G36*
X261038D02*
X259985D01*
X258968Y225184D01*
X258056Y224658D01*
X257311Y223913D01*
X256784Y223001D01*
X256512Y221983D01*
Y220930D01*
X256784Y219913D01*
X257311Y219001D01*
X258056Y218256D01*
X258968Y217729D01*
X259985Y217457D01*
X261038D01*
X262056Y217729D01*
X262968Y218256D01*
X263713Y219001D01*
X264239Y219913D01*
X264512Y220930D01*
Y221983D01*
X264239Y223001D01*
X263713Y223913D01*
X262968Y224658D01*
X262056Y225184D01*
X261038Y225457D01*
D02*
G37*
G36*
X109142Y219087D02*
X107488D01*
Y217433D01*
X108224Y217738D01*
X108837Y218351D01*
X109142Y219087D01*
D02*
G37*
G36*
X106488D02*
X104834D01*
X105139Y218351D01*
X105753Y217738D01*
X106488Y217433D01*
Y219087D01*
D02*
G37*
G36*
X46366Y213768D02*
Y212114D01*
X48020D01*
X47715Y212850D01*
X47102Y213463D01*
X46366Y213768D01*
D02*
G37*
G36*
X45366D02*
X44631Y213463D01*
X44017Y212850D01*
X43712Y212114D01*
X45366D01*
Y213768D01*
D02*
G37*
G36*
X99182Y213677D02*
X99161D01*
Y210224D01*
X102614D01*
Y210245D01*
X102345Y211250D01*
X101824Y212152D01*
X101089Y212887D01*
X100187Y213408D01*
X99182Y213677D01*
D02*
G37*
G36*
X98161D02*
X98141D01*
X97136Y213408D01*
X96234Y212887D01*
X95498Y212152D01*
X94978Y211250D01*
X94709Y210245D01*
Y210224D01*
X98161D01*
Y213677D01*
D02*
G37*
G36*
X127402Y213894D02*
X126535D01*
X125733Y213562D01*
X125119Y212948D01*
X124787Y212146D01*
Y211279D01*
X125119Y210477D01*
X125733Y209863D01*
X126535Y209531D01*
X127402D01*
X128204Y209863D01*
X128818Y210477D01*
X129150Y211279D01*
Y212146D01*
X128818Y212948D01*
X128204Y213562D01*
X127402Y213894D01*
D02*
G37*
G36*
X48020Y211114D02*
X46366D01*
Y209460D01*
X47102Y209765D01*
X47715Y210379D01*
X48020Y211114D01*
D02*
G37*
G36*
X45366D02*
X43712D01*
X44017Y210379D01*
X44631Y209765D01*
X45366Y209460D01*
Y211114D01*
D02*
G37*
G36*
X102614Y209224D02*
X99161D01*
Y205772D01*
X99182D01*
X100187Y206041D01*
X101089Y206561D01*
X101824Y207297D01*
X102345Y208199D01*
X102614Y209204D01*
Y209224D01*
D02*
G37*
G36*
X98161D02*
X94709D01*
Y209204D01*
X94978Y208199D01*
X95498Y207297D01*
X96234Y206561D01*
X97136Y206041D01*
X98141Y205772D01*
X98161D01*
Y209224D01*
D02*
G37*
G36*
X72614Y213677D02*
X64709D01*
Y205772D01*
X72614D01*
Y213677D01*
D02*
G37*
G36*
X207634Y204484D02*
X204437D01*
Y201287D01*
X207634D01*
Y204484D01*
D02*
G37*
G36*
X203437D02*
X200240D01*
Y201287D01*
X203437D01*
Y204484D01*
D02*
G37*
G36*
X207634Y200287D02*
X204437D01*
Y197091D01*
X207634D01*
Y200287D01*
D02*
G37*
G36*
X203437D02*
X200240D01*
Y197091D01*
X203437D01*
Y200287D01*
D02*
G37*
G36*
X99182Y203677D02*
X98141D01*
X97136Y203408D01*
X96234Y202887D01*
X95498Y202151D01*
X94978Y201250D01*
X94709Y200245D01*
Y199204D01*
X94978Y198199D01*
X95498Y197297D01*
X96234Y196561D01*
X97136Y196041D01*
X98141Y195772D01*
X99182D01*
X100187Y196041D01*
X101089Y196561D01*
X101824Y197297D01*
X102345Y198199D01*
X102614Y199204D01*
Y200245D01*
X102345Y201250D01*
X101824Y202151D01*
X101089Y202887D01*
X100187Y203408D01*
X99182Y203677D01*
D02*
G37*
G36*
X69182D02*
X68141D01*
X67136Y203408D01*
X66234Y202887D01*
X65498Y202151D01*
X64978Y201250D01*
X64709Y200245D01*
Y199204D01*
X64978Y198199D01*
X65498Y197297D01*
X66234Y196561D01*
X67136Y196041D01*
X68141Y195772D01*
X69182D01*
X70187Y196041D01*
X71088Y196561D01*
X71824Y197297D01*
X72345Y198199D01*
X72614Y199204D01*
Y200245D01*
X72345Y201250D01*
X71824Y202151D01*
X71088Y202887D01*
X70187Y203408D01*
X69182Y203677D01*
D02*
G37*
G36*
X139623Y198244D02*
X138755D01*
X137953Y197912D01*
X137340Y197299D01*
X137008Y196497D01*
Y195629D01*
X137340Y194827D01*
X137953Y194214D01*
X138755Y193882D01*
X139623D01*
X140425Y194214D01*
X141038Y194827D01*
X141370Y195629D01*
Y196497D01*
X141038Y197299D01*
X140425Y197912D01*
X139623Y198244D01*
D02*
G37*
G36*
X245709Y195488D02*
X244842D01*
X244040Y195156D01*
X243426Y194543D01*
X243094Y193741D01*
Y192873D01*
X243426Y192072D01*
X244040Y191458D01*
X244842Y191126D01*
X245709D01*
X246511Y191458D01*
X247125Y192072D01*
X247457Y192873D01*
Y193741D01*
X247125Y194543D01*
X246511Y195156D01*
X245709Y195488D01*
D02*
G37*
G36*
X15764Y189976D02*
X7858D01*
Y182071D01*
X15764D01*
Y189976D01*
D02*
G37*
G36*
X135965Y183480D02*
X135098D01*
X134296Y183148D01*
X133682Y182535D01*
X133350Y181733D01*
Y180865D01*
X133682Y180064D01*
X134296Y179450D01*
X135098Y179118D01*
X135965D01*
X136767Y179450D01*
X137381Y180064D01*
X137713Y180865D01*
Y181733D01*
X137381Y182535D01*
X136767Y183148D01*
X135965Y183480D01*
D02*
G37*
G36*
X203584Y179839D02*
X202716D01*
X201914Y179507D01*
X201301Y178893D01*
X200969Y178091D01*
Y177224D01*
X201301Y176422D01*
X201914Y175808D01*
X202716Y175476D01*
X203584D01*
X204385Y175808D01*
X204999Y176422D01*
X205331Y177224D01*
Y178091D01*
X204999Y178893D01*
X204385Y179507D01*
X203584Y179839D01*
D02*
G37*
G36*
X269430Y177575D02*
X268562D01*
X267761Y177243D01*
X267147Y176629D01*
X266815Y175828D01*
Y174960D01*
X267147Y174158D01*
X267761Y173545D01*
X268562Y173213D01*
X269430D01*
X270232Y173545D01*
X270845Y174158D01*
X271177Y174960D01*
Y175828D01*
X270845Y176629D01*
X270232Y177243D01*
X269430Y177575D01*
D02*
G37*
G36*
X12331Y179976D02*
X11291D01*
X10285Y179707D01*
X9384Y179187D01*
X8648Y178451D01*
X8128Y177549D01*
X7858Y176544D01*
Y175503D01*
X8128Y174498D01*
X8648Y173597D01*
X9384Y172861D01*
X10285Y172340D01*
X11291Y172071D01*
X12331D01*
X13337Y172340D01*
X14238Y172861D01*
X14974Y173597D01*
X15494Y174498D01*
X15764Y175503D01*
Y176544D01*
X15494Y177549D01*
X14974Y178451D01*
X14238Y179187D01*
X13337Y179707D01*
X12331Y179976D01*
D02*
G37*
G36*
X187048Y174228D02*
X186180D01*
X185379Y173896D01*
X184765Y173283D01*
X184433Y172481D01*
Y171613D01*
X184765Y170812D01*
X185379Y170198D01*
X186180Y169866D01*
X187048D01*
X187850Y170198D01*
X188463Y170812D01*
X188795Y171613D01*
Y172481D01*
X188463Y173283D01*
X187850Y173896D01*
X187048Y174228D01*
D02*
G37*
G36*
X239017Y173835D02*
X238149D01*
X237347Y173503D01*
X236734Y172889D01*
X236402Y172087D01*
Y171220D01*
X236734Y170418D01*
X237347Y169805D01*
X238149Y169472D01*
X239017D01*
X239818Y169805D01*
X240432Y170418D01*
X240764Y171220D01*
Y172087D01*
X240432Y172889D01*
X239818Y173503D01*
X239017Y173835D01*
D02*
G37*
G36*
X163820Y168323D02*
X162952D01*
X162150Y167991D01*
X161537Y167377D01*
X161205Y166576D01*
Y165708D01*
X161537Y164906D01*
X162150Y164293D01*
X162952Y163961D01*
X163820D01*
X164621Y164293D01*
X165235Y164906D01*
X165567Y165708D01*
Y166576D01*
X165235Y167377D01*
X164621Y167991D01*
X163820Y168323D01*
D02*
G37*
G36*
X118532Y170291D02*
X117492D01*
X116486Y170022D01*
X115585Y169502D01*
X114849Y168766D01*
X114329Y167864D01*
X114059Y166859D01*
Y165818D01*
X114329Y164813D01*
X114849Y163911D01*
X115585Y163176D01*
X116486Y162655D01*
X117492Y162386D01*
X118532D01*
X119538Y162655D01*
X120439Y163176D01*
X121175Y163911D01*
X121695Y164813D01*
X121965Y165818D01*
Y166859D01*
X121695Y167864D01*
X121175Y168766D01*
X120439Y169502D01*
X119538Y170022D01*
X118532Y170291D01*
D02*
G37*
G36*
X53670D02*
X52629D01*
X51624Y170022D01*
X50723Y169502D01*
X49987Y168766D01*
X49466Y167864D01*
X49197Y166859D01*
Y165818D01*
X49466Y164813D01*
X49987Y163911D01*
X50723Y163176D01*
X51624Y162655D01*
X52629Y162386D01*
X53670D01*
X54675Y162655D01*
X55577Y163176D01*
X56313Y163911D01*
X56833Y164813D01*
X57102Y165818D01*
Y166859D01*
X56833Y167864D01*
X56313Y168766D01*
X55577Y169502D01*
X54675Y170022D01*
X53670Y170291D01*
D02*
G37*
G36*
X272087Y165567D02*
X271220D01*
X270418Y165235D01*
X269805Y164621D01*
X269472Y163820D01*
Y162952D01*
X269805Y162150D01*
X270418Y161537D01*
X271220Y161205D01*
X272087D01*
X272889Y161537D01*
X273503Y162150D01*
X273835Y162952D01*
Y163820D01*
X273503Y164621D01*
X272889Y165235D01*
X272087Y165567D01*
D02*
G37*
G36*
X237835Y164386D02*
X236968D01*
X236166Y164054D01*
X235553Y163440D01*
X235221Y162639D01*
Y161771D01*
X235553Y160969D01*
X236166Y160356D01*
X236968Y160024D01*
X237835D01*
X238637Y160356D01*
X239251Y160969D01*
X239583Y161771D01*
Y162639D01*
X239251Y163440D01*
X238637Y164054D01*
X237835Y164386D01*
D02*
G37*
G36*
X389524Y162161D02*
X382130D01*
Y154768D01*
X389524D01*
Y162161D01*
D02*
G37*
G36*
X212245Y157693D02*
X211377D01*
X210576Y157361D01*
X209962Y156747D01*
X209630Y155946D01*
Y155078D01*
X209962Y154276D01*
X210576Y153663D01*
X211377Y153331D01*
X212245D01*
X213047Y153663D01*
X213660Y154276D01*
X213992Y155078D01*
Y155946D01*
X213660Y156747D01*
X213047Y157361D01*
X212245Y157693D01*
D02*
G37*
G36*
X37835D02*
X36968D01*
X36166Y157361D01*
X35552Y156747D01*
X35221Y155946D01*
Y155078D01*
X35552Y154276D01*
X36166Y153663D01*
X36968Y153331D01*
X37835D01*
X38637Y153663D01*
X39251Y154276D01*
X39583Y155078D01*
Y155946D01*
X39251Y156747D01*
X38637Y157361D01*
X37835Y157693D01*
D02*
G37*
G36*
X72875Y157299D02*
X72007D01*
X71205Y156967D01*
X70592Y156354D01*
X70260Y155552D01*
Y154684D01*
X70592Y153883D01*
X71205Y153269D01*
X72007Y152937D01*
X72875D01*
X73676Y153269D01*
X74290Y153883D01*
X74622Y154684D01*
Y155552D01*
X74290Y156354D01*
X73676Y156967D01*
X72875Y157299D01*
D02*
G37*
G36*
X304685Y151707D02*
X303817D01*
X303015Y151375D01*
X302402Y150762D01*
X302070Y149960D01*
Y149093D01*
X302402Y148291D01*
X303015Y147677D01*
X303817Y147345D01*
X304685D01*
X305486Y147677D01*
X306100Y148291D01*
X306432Y149093D01*
Y149960D01*
X306100Y150762D01*
X305486Y151375D01*
X304685Y151707D01*
D02*
G37*
G36*
X83308Y151295D02*
X82440D01*
X81638Y150963D01*
X81025Y150350D01*
X80693Y149548D01*
Y148680D01*
X81025Y147879D01*
X81638Y147265D01*
X82440Y146933D01*
X83308D01*
X84109Y147265D01*
X84723Y147879D01*
X85055Y148680D01*
Y149548D01*
X84723Y150350D01*
X84109Y150963D01*
X83308Y151295D01*
D02*
G37*
G36*
X146595Y149524D02*
X145728D01*
X144926Y149192D01*
X144312Y148578D01*
X143980Y147776D01*
Y146909D01*
X144312Y146107D01*
X144926Y145493D01*
X145728Y145161D01*
X146595D01*
X147397Y145493D01*
X148011Y146107D01*
X148343Y146909D01*
Y147776D01*
X148011Y148578D01*
X147397Y149192D01*
X146595Y149524D01*
D02*
G37*
G36*
X323662Y149425D02*
X322795D01*
X321993Y149093D01*
X321379Y148480D01*
X321047Y147678D01*
Y146810D01*
X321379Y146009D01*
X321993Y145395D01*
X322795Y145063D01*
X323662D01*
X324464Y145395D01*
X325077Y146009D01*
X325410Y146810D01*
Y147678D01*
X325077Y148480D01*
X324464Y149093D01*
X323662Y149425D01*
D02*
G37*
G36*
X210390Y148382D02*
X202996D01*
Y140988D01*
X210390D01*
Y148382D01*
D02*
G37*
G36*
X71792Y138500D02*
X70924D01*
X70123Y138168D01*
X69509Y137554D01*
X69177Y136753D01*
Y135885D01*
X69509Y135083D01*
X70123Y134470D01*
X70924Y134138D01*
X71792D01*
X72594Y134470D01*
X73207Y135083D01*
X73539Y135885D01*
Y136753D01*
X73207Y137554D01*
X72594Y138168D01*
X71792Y138500D01*
D02*
G37*
G36*
X152402Y136827D02*
X151535D01*
X150733Y136495D01*
X150119Y135881D01*
X149787Y135080D01*
Y134212D01*
X150119Y133410D01*
X150733Y132797D01*
X151535Y132465D01*
X152402D01*
X153204Y132797D01*
X153818Y133410D01*
X154150Y134212D01*
Y135080D01*
X153818Y135881D01*
X153204Y136495D01*
X152402Y136827D01*
D02*
G37*
G36*
X14300Y137969D02*
X13259D01*
X12254Y137699D01*
X11353Y137179D01*
X10616Y136443D01*
X10096Y135541D01*
X9827Y134536D01*
Y133495D01*
X10096Y132490D01*
X10616Y131589D01*
X11353Y130853D01*
X12254Y130332D01*
X13259Y130063D01*
X14300D01*
X15305Y130332D01*
X16207Y130853D01*
X16942Y131589D01*
X17463Y132490D01*
X17732Y133495D01*
Y134536D01*
X17463Y135541D01*
X16942Y136443D01*
X16207Y137179D01*
X15305Y137699D01*
X14300Y137969D01*
D02*
G37*
G36*
X237048Y133283D02*
X236180D01*
X235379Y132951D01*
X234765Y132338D01*
X234433Y131536D01*
Y130668D01*
X234765Y129867D01*
X235379Y129253D01*
X236180Y128921D01*
X237048D01*
X237850Y129253D01*
X238463Y129867D01*
X238795Y130668D01*
Y131536D01*
X238463Y132338D01*
X237850Y132951D01*
X237048Y133283D01*
D02*
G37*
G36*
X213623Y132004D02*
X212755D01*
X211953Y131672D01*
X211340Y131058D01*
X211008Y130257D01*
Y129389D01*
X211340Y128587D01*
X211953Y127974D01*
X212755Y127642D01*
X213623D01*
X214424Y127974D01*
X215038Y128587D01*
X215370Y129389D01*
Y130257D01*
X215038Y131058D01*
X214424Y131672D01*
X213623Y132004D01*
D02*
G37*
G36*
X17732Y127969D02*
X9827D01*
Y120063D01*
X17732D01*
Y127969D01*
D02*
G37*
G36*
X65985Y123146D02*
X65117D01*
X64316Y122814D01*
X63702Y122200D01*
X63370Y121398D01*
Y120531D01*
X63702Y119729D01*
X64316Y119115D01*
X65117Y118783D01*
X65985D01*
X66787Y119115D01*
X67400Y119729D01*
X67732Y120531D01*
Y121398D01*
X67400Y122200D01*
X66787Y122814D01*
X65985Y123146D01*
D02*
G37*
G36*
X213933Y119051D02*
X210736D01*
Y115854D01*
X213933D01*
Y119051D01*
D02*
G37*
G36*
X209736D02*
X206539D01*
Y115854D01*
X209736D01*
Y119051D01*
D02*
G37*
G36*
X297004D02*
X289610D01*
Y111658D01*
X297004D01*
Y119051D01*
D02*
G37*
G36*
X213933Y114854D02*
X210736D01*
Y111658D01*
X213933D01*
Y114854D01*
D02*
G37*
G36*
X209736D02*
X206539D01*
Y111658D01*
X209736D01*
Y114854D01*
D02*
G37*
G36*
X90658Y111996D02*
Y110343D01*
X92311D01*
X92006Y111078D01*
X91393Y111692D01*
X90658Y111996D01*
D02*
G37*
G36*
X89657D02*
X88922Y111692D01*
X88308Y111078D01*
X88004Y110343D01*
X89657D01*
Y111996D01*
D02*
G37*
G36*
X187442Y114386D02*
X186574D01*
X185772Y114054D01*
X185159Y113440D01*
X184827Y112639D01*
Y111771D01*
X185159Y110969D01*
X185772Y110356D01*
X186574Y110024D01*
X187442D01*
X188243Y110356D01*
X188857Y110969D01*
X189189Y111771D01*
Y112639D01*
X188857Y113440D01*
X188243Y114054D01*
X187442Y114386D01*
D02*
G37*
G36*
X92311Y109343D02*
X90658D01*
Y107689D01*
X91393Y107993D01*
X92006Y108607D01*
X92311Y109343D01*
D02*
G37*
G36*
X89657D02*
X88004D01*
X88308Y108607D01*
X88922Y107993D01*
X89657Y107689D01*
Y109343D01*
D02*
G37*
G36*
X115788Y110449D02*
X114920D01*
X114119Y110117D01*
X113505Y109503D01*
X113173Y108702D01*
Y107834D01*
X113505Y107032D01*
X114119Y106419D01*
X114920Y106087D01*
X115788D01*
X116590Y106419D01*
X117203Y107032D01*
X117535Y107834D01*
Y108702D01*
X117203Y109503D01*
X116590Y110117D01*
X115788Y110449D01*
D02*
G37*
G36*
X280355Y110055D02*
X279487D01*
X278686Y109723D01*
X278072Y109109D01*
X277740Y108308D01*
Y107440D01*
X278072Y106639D01*
X278686Y106025D01*
X279487Y105693D01*
X280355D01*
X281157Y106025D01*
X281770Y106639D01*
X282102Y107440D01*
Y108308D01*
X281770Y109109D01*
X281157Y109723D01*
X280355Y110055D01*
D02*
G37*
G36*
X374056Y109268D02*
X373188D01*
X372387Y108936D01*
X371773Y108322D01*
X371441Y107520D01*
Y106653D01*
X371773Y105851D01*
X372387Y105238D01*
X373188Y104905D01*
X374056D01*
X374857Y105238D01*
X375471Y105851D01*
X375803Y106653D01*
Y107520D01*
X375471Y108322D01*
X374857Y108936D01*
X374056Y109268D01*
D02*
G37*
G36*
X127993Y89189D02*
X127125D01*
X126324Y88857D01*
X125710Y88243D01*
X125378Y87442D01*
Y86574D01*
X125710Y85772D01*
X126324Y85159D01*
X127125Y84827D01*
X127993D01*
X128795Y85159D01*
X129408Y85772D01*
X129740Y86574D01*
Y87442D01*
X129408Y88243D01*
X128795Y88857D01*
X127993Y89189D01*
D02*
G37*
G36*
X14300Y89740D02*
X13259D01*
X12254Y89471D01*
X11353Y88950D01*
X10616Y88214D01*
X10096Y87313D01*
X9827Y86308D01*
Y85267D01*
X10096Y84262D01*
X10616Y83360D01*
X11353Y82624D01*
X12254Y82104D01*
X13259Y81835D01*
X14300D01*
X15305Y82104D01*
X16207Y82624D01*
X16942Y83360D01*
X17463Y84262D01*
X17732Y85267D01*
Y86308D01*
X17463Y87313D01*
X16942Y88214D01*
X16207Y88950D01*
X15305Y89471D01*
X14300Y89740D01*
D02*
G37*
G36*
X82127Y78461D02*
X81259D01*
X80457Y78129D01*
X79844Y77515D01*
X79512Y76713D01*
Y75846D01*
X79844Y75044D01*
X80457Y74431D01*
X81259Y74098D01*
X82127D01*
X82928Y74431D01*
X83542Y75044D01*
X83874Y75846D01*
Y76713D01*
X83542Y77515D01*
X82928Y78129D01*
X82127Y78461D01*
D02*
G37*
G36*
X17732Y79740D02*
X9827D01*
Y71835D01*
X17732D01*
Y79740D01*
D02*
G37*
G36*
X110473Y73933D02*
X109606D01*
X108804Y73601D01*
X108190Y72988D01*
X107858Y72186D01*
Y71318D01*
X108190Y70517D01*
X108804Y69903D01*
X109606Y69571D01*
X110473D01*
X111275Y69903D01*
X111888Y70517D01*
X112221Y71318D01*
Y72186D01*
X111888Y72988D01*
X111275Y73601D01*
X110473Y73933D01*
D02*
G37*
G36*
X127107Y68421D02*
X126239D01*
X125438Y68089D01*
X124824Y67476D01*
X124492Y66674D01*
Y65806D01*
X124824Y65005D01*
X125438Y64391D01*
X126239Y64059D01*
X127107D01*
X127909Y64391D01*
X128522Y65005D01*
X128854Y65806D01*
Y66674D01*
X128522Y67476D01*
X127909Y68089D01*
X127107Y68421D01*
D02*
G37*
G36*
X86471Y63055D02*
X85418D01*
X84401Y62783D01*
X83489Y62256D01*
X82744Y61511D01*
X82218Y60599D01*
X81945Y59582D01*
Y58529D01*
X82218Y57511D01*
X82744Y56599D01*
X83489Y55854D01*
X84401Y55328D01*
X85418Y55055D01*
X86471D01*
X87489Y55328D01*
X88401Y55854D01*
X89146Y56599D01*
X89672Y57511D01*
X89945Y58529D01*
Y59582D01*
X89672Y60599D01*
X89146Y61511D01*
X88401Y62256D01*
X87489Y62783D01*
X86471Y63055D01*
D02*
G37*
G36*
X66471D02*
X65418D01*
X64401Y62783D01*
X63489Y62256D01*
X62744Y61511D01*
X62217Y60599D01*
X61945Y59582D01*
Y58529D01*
X62217Y57511D01*
X62744Y56599D01*
X63489Y55854D01*
X64401Y55328D01*
X65418Y55055D01*
X66471D01*
X67489Y55328D01*
X68401Y55854D01*
X69146Y56599D01*
X69672Y57511D01*
X69945Y58529D01*
Y59582D01*
X69672Y60599D01*
X69146Y61511D01*
X68401Y62256D01*
X67489Y62783D01*
X66471Y63055D01*
D02*
G37*
G36*
X76472Y53055D02*
X76445D01*
Y49555D01*
X79945D01*
Y49582D01*
X79672Y50599D01*
X79146Y51511D01*
X78401Y52256D01*
X77489Y52782D01*
X76472Y53055D01*
D02*
G37*
G36*
X75445D02*
X75418D01*
X74401Y52782D01*
X73489Y52256D01*
X72744Y51511D01*
X72218Y50599D01*
X71945Y49582D01*
Y49555D01*
X75445D01*
Y53055D01*
D02*
G37*
G36*
X79945Y48555D02*
X76445D01*
Y45055D01*
X76472D01*
X77489Y45328D01*
X78401Y45854D01*
X79146Y46599D01*
X79672Y47511D01*
X79945Y48529D01*
Y48555D01*
D02*
G37*
G36*
X75445D02*
X71945D01*
Y48529D01*
X72218Y47511D01*
X72744Y46599D01*
X73489Y45854D01*
X74401Y45328D01*
X75418Y45055D01*
X75445D01*
Y48555D01*
D02*
G37*
G36*
X387331Y51197D02*
X386291D01*
X385285Y50928D01*
X384384Y50407D01*
X383648Y49671D01*
X383128Y48770D01*
X382858Y47765D01*
Y46724D01*
X383128Y45718D01*
X383648Y44817D01*
X384384Y44081D01*
X385285Y43561D01*
X386291Y43291D01*
X387331D01*
X388337Y43561D01*
X389238Y44081D01*
X389974Y44817D01*
X390494Y45718D01*
X390764Y46724D01*
Y47765D01*
X390494Y48770D01*
X389974Y49671D01*
X389238Y50407D01*
X388337Y50928D01*
X387331Y51197D01*
D02*
G37*
G36*
X322469D02*
X321428D01*
X320423Y50928D01*
X319522Y50407D01*
X318786Y49671D01*
X318265Y48770D01*
X317996Y47765D01*
Y46724D01*
X318265Y45718D01*
X318786Y44817D01*
X319522Y44081D01*
X320423Y43561D01*
X321428Y43291D01*
X322469D01*
X323474Y43561D01*
X324376Y44081D01*
X325112Y44817D01*
X325632Y45718D01*
X325901Y46724D01*
Y47765D01*
X325632Y48770D01*
X325112Y49671D01*
X324376Y50407D01*
X323474Y50928D01*
X322469Y51197D01*
D02*
G37*
G36*
X293828D02*
X292787D01*
X291781Y50928D01*
X290880Y50407D01*
X290144Y49671D01*
X289624Y48770D01*
X289354Y47765D01*
Y46724D01*
X289624Y45718D01*
X290144Y44817D01*
X290880Y44081D01*
X291781Y43561D01*
X292787Y43291D01*
X293828D01*
X294833Y43561D01*
X295734Y44081D01*
X296470Y44817D01*
X296990Y45718D01*
X297260Y46724D01*
Y47765D01*
X296990Y48770D01*
X296470Y49671D01*
X295734Y50407D01*
X294833Y50928D01*
X293828Y51197D01*
D02*
G37*
G36*
X228965D02*
X227924D01*
X226919Y50928D01*
X226018Y50407D01*
X225282Y49671D01*
X224761Y48770D01*
X224492Y47765D01*
Y46724D01*
X224761Y45718D01*
X225282Y44817D01*
X226018Y44081D01*
X226919Y43561D01*
X227924Y43291D01*
X228965D01*
X229970Y43561D01*
X230872Y44081D01*
X231608Y44817D01*
X232128Y45718D01*
X232397Y46724D01*
Y47765D01*
X232128Y48770D01*
X231608Y49671D01*
X230872Y50407D01*
X229970Y50928D01*
X228965Y51197D01*
D02*
G37*
G36*
X200324D02*
X199283D01*
X198277Y50928D01*
X197376Y50407D01*
X196640Y49671D01*
X196120Y48770D01*
X195850Y47765D01*
Y46724D01*
X196120Y45718D01*
X196640Y44817D01*
X197376Y44081D01*
X198277Y43561D01*
X199283Y43291D01*
X200324D01*
X201329Y43561D01*
X202230Y44081D01*
X202966Y44817D01*
X203486Y45718D01*
X203756Y46724D01*
Y47765D01*
X203486Y48770D01*
X202966Y49671D01*
X202230Y50407D01*
X201329Y50928D01*
X200324Y51197D01*
D02*
G37*
G36*
X135461D02*
X134420D01*
X133415Y50928D01*
X132514Y50407D01*
X131778Y49671D01*
X131257Y48770D01*
X130988Y47765D01*
Y46724D01*
X131257Y45718D01*
X131778Y44817D01*
X132514Y44081D01*
X133415Y43561D01*
X134420Y43291D01*
X135461D01*
X136467Y43561D01*
X137368Y44081D01*
X138104Y44817D01*
X138624Y45718D01*
X138893Y46724D01*
Y47765D01*
X138624Y48770D01*
X138104Y49671D01*
X137368Y50407D01*
X136467Y50928D01*
X135461Y51197D01*
D02*
G37*
G36*
X240496Y649106D02*
X236996D01*
Y645606D01*
X237023D01*
X238040Y645879D01*
X238952Y646406D01*
X239697Y647150D01*
X240224Y648062D01*
X240496Y649080D01*
Y649106D01*
D02*
G37*
G36*
X235996D02*
X232496D01*
Y649080D01*
X232769Y648062D01*
X233295Y647150D01*
X234040Y646406D01*
X234952Y645879D01*
X235969Y645606D01*
X235996D01*
Y649106D01*
D02*
G37*
G36*
X501295Y649086D02*
X497795D01*
Y645586D01*
X497822D01*
X498839Y645859D01*
X499751Y646386D01*
X500496Y647130D01*
X501022Y648042D01*
X501295Y649060D01*
Y649086D01*
D02*
G37*
G36*
X496795D02*
X493295D01*
Y649060D01*
X493568Y648042D01*
X494094Y647130D01*
X494839Y646386D01*
X495751Y645859D01*
X496768Y645586D01*
X496795D01*
Y649086D01*
D02*
G37*
G36*
X371925D02*
X368425D01*
Y645586D01*
X368451D01*
X369469Y645859D01*
X370381Y646386D01*
X371126Y647130D01*
X371652Y648042D01*
X371925Y649060D01*
Y649086D01*
D02*
G37*
G36*
X367425D02*
X363925D01*
Y649060D01*
X364197Y648042D01*
X364724Y647130D01*
X365469Y646386D01*
X366381Y645859D01*
X367398Y645586D01*
X367425D01*
Y649086D01*
D02*
G37*
G36*
X433571Y643099D02*
Y641445D01*
X435225D01*
X434920Y642180D01*
X434306Y642794D01*
X433571Y643099D01*
D02*
G37*
G36*
X432571D02*
X431835Y642794D01*
X431222Y642180D01*
X430917Y641445D01*
X432571D01*
Y643099D01*
D02*
G37*
G36*
X435225Y640445D02*
X433571D01*
Y638791D01*
X434306Y639096D01*
X434920Y639709D01*
X435225Y640445D01*
D02*
G37*
G36*
X432571D02*
X430917D01*
X431222Y639709D01*
X431835Y639096D01*
X432571Y638791D01*
Y640445D01*
D02*
G37*
G36*
X627713Y630862D02*
X624516D01*
Y627665D01*
X627713D01*
Y630862D01*
D02*
G37*
G36*
X623516D02*
X620319D01*
Y627665D01*
X623516D01*
Y630862D01*
D02*
G37*
G36*
X604504Y631118D02*
X601051D01*
Y627665D01*
X604504D01*
Y631118D01*
D02*
G37*
G36*
X600051D02*
X596598D01*
Y627665D01*
X600051D01*
Y631118D01*
D02*
G37*
G36*
X627713Y626665D02*
X624516D01*
Y623468D01*
X627713D01*
Y626665D01*
D02*
G37*
G36*
X623516D02*
X620319D01*
Y623468D01*
X623516D01*
Y626665D01*
D02*
G37*
G36*
X604504Y626665D02*
X601051D01*
Y623213D01*
X604504D01*
Y626665D01*
D02*
G37*
G36*
X600051D02*
X596598D01*
Y623213D01*
X600051D01*
Y626665D01*
D02*
G37*
%LPD*%
D87*
X214462Y659512D02*
X597968D01*
X601968Y655512D01*
X204724Y649606D02*
Y649774D01*
X214462Y659512D01*
X118110Y633858D02*
Y649606D01*
X135827Y649606D01*
X616535Y655905D02*
X624016Y648425D01*
X616142Y655905D02*
X616535D01*
X118110Y615158D02*
Y633858D01*
Y615158D02*
X118110Y615158D01*
X605029Y451102D02*
X635433Y451181D01*
X87598Y648622D02*
X97126D01*
X602362Y453769D02*
X605029Y451102D01*
X602362Y453769D02*
Y475394D01*
D88*
X318898Y625984D02*
Y638583D01*
Y625984D02*
X329134Y615748D01*
Y611811D02*
Y615748D01*
X457087Y627559D02*
Y636221D01*
X447244Y617717D02*
X457087Y627559D01*
X447244Y601181D02*
Y617717D01*
D89*
X135827Y649606D02*
X147008D01*
X211417Y620079D02*
X216339Y615158D01*
X211417Y620079D02*
Y634744D01*
X216339Y615158D02*
X227362D01*
X209941Y636221D02*
X211417Y634744D01*
X645590Y451181D02*
X645669Y451102D01*
X635433Y451181D02*
X645590D01*
D90*
X52165Y555118D02*
X55118Y558071D01*
X92520Y565354D02*
X101181Y574016D01*
Y626378D02*
X108661Y633858D01*
X118110D01*
X101181Y574016D02*
Y626378D01*
D92*
X204724Y649606D02*
X211614D01*
X622835Y570586D02*
Y575984D01*
X553937Y537402D02*
X575591Y559055D01*
X611303D02*
X622835Y570586D01*
X575591Y559055D02*
X611303D01*
X624016Y576098D02*
Y577165D01*
Y576098D02*
X635547Y564567D01*
X642520D01*
X650787Y556299D01*
X411811Y410236D02*
Y470079D01*
X416142Y474409D01*
X405512Y410236D02*
X419291Y396457D01*
X209941Y636221D02*
Y647933D01*
X483205Y622968D02*
X495669Y635433D01*
X483205Y582417D02*
Y622968D01*
X482677Y581890D02*
X483205Y582417D01*
X209941Y647933D02*
X211614Y649606D01*
X48228Y555118D02*
X75311Y582200D01*
Y604020D01*
X553937Y515551D02*
Y537402D01*
X513779Y475394D02*
X553937Y515551D01*
X64370Y614961D02*
Y637091D01*
X75901Y648622D02*
X87598D01*
X64370Y637091D02*
X75901Y648622D01*
X64370Y614961D02*
X75311Y604020D01*
X407760Y61039D02*
X419291Y72571D01*
X381097Y61039D02*
X407760D01*
X378139Y58082D02*
X381097Y61039D01*
X419291Y72571D02*
Y396457D01*
D93*
X36417Y555118D02*
X52165D01*
D94*
X19685Y653937D02*
D03*
Y19685D02*
D03*
X649606D02*
D03*
Y653937D02*
D03*
D95*
X650591Y556973D02*
D03*
Y622905D02*
D03*
X624016Y609842D02*
D03*
Y577165D02*
D03*
D96*
X644291Y535433D02*
D03*
Y515433D02*
D03*
X294000Y528000D02*
D03*
X304000D02*
D03*
X314000D02*
D03*
X324000D02*
D03*
X334000D02*
D03*
X289079Y427400D02*
D03*
X299079Y427402D02*
D03*
X309079D02*
D03*
X319079D02*
D03*
X329079D02*
D03*
X339079D02*
D03*
X349079D02*
D03*
X187008Y291339D02*
D03*
X206693D02*
D03*
X507295Y649586D02*
D03*
X497295D02*
D03*
X487295D02*
D03*
X477295D02*
D03*
X467295D02*
D03*
X457610D02*
D03*
X447610D02*
D03*
X437610D02*
D03*
X427610D02*
D03*
X417610D02*
D03*
X407610D02*
D03*
X397767D02*
D03*
X387925D02*
D03*
X377925D02*
D03*
X367925D02*
D03*
X357925D02*
D03*
X347925D02*
D03*
X337925D02*
D03*
X327925D02*
D03*
X317925D02*
D03*
X35039Y290945D02*
D03*
Y300945D02*
D03*
X75945Y49055D02*
D03*
X85945Y59055D02*
D03*
X65945D02*
D03*
X70039Y294449D02*
D03*
X60039Y304449D02*
D03*
Y284449D02*
D03*
X270512Y231457D02*
D03*
X260512Y221457D02*
D03*
X280512D02*
D03*
X144843Y266575D02*
D03*
X154842Y276575D02*
D03*
X134843D02*
D03*
X314134Y275748D02*
D03*
X304134Y285748D02*
D03*
Y265748D02*
D03*
X345630Y275748D02*
D03*
X335630Y285748D02*
D03*
Y265748D02*
D03*
X281496Y13780D02*
D03*
X271496D02*
D03*
X261496D02*
D03*
X251496D02*
D03*
X241496D02*
D03*
X556772Y627165D02*
D03*
X535827D02*
D03*
X546299D02*
D03*
X645669Y355728D02*
D03*
Y376673D02*
D03*
Y366201D02*
D03*
Y260354D02*
D03*
Y281299D02*
D03*
Y270827D02*
D03*
Y164980D02*
D03*
Y185925D02*
D03*
Y175453D02*
D03*
X167953Y649606D02*
D03*
X147008D02*
D03*
X157480D02*
D03*
X236496D02*
D03*
X215551D02*
D03*
X226024D02*
D03*
X645669Y451102D02*
D03*
Y472047D02*
D03*
Y461575D02*
D03*
X25643Y375984D02*
D03*
Y355039D02*
D03*
Y365512D02*
D03*
X645669Y69606D02*
D03*
Y90551D02*
D03*
Y80079D02*
D03*
D97*
X233268Y562992D02*
D03*
X223425D02*
D03*
X213583D02*
D03*
X203740D02*
D03*
X193898D02*
D03*
X184055D02*
D03*
X174213D02*
D03*
X243110D02*
D03*
X118110Y591535D02*
D03*
Y615158D02*
D03*
X227362Y591535D02*
D03*
Y615158D02*
D03*
D98*
X484252Y475394D02*
D03*
X602362D02*
D03*
X513779D02*
D03*
X572835D02*
D03*
X15039Y280945D02*
D03*
Y320945D02*
D03*
D99*
X118012Y166339D02*
D03*
X53150D02*
D03*
X607776Y602756D02*
D03*
X542913D02*
D03*
X228445Y47244D02*
D03*
X293307D02*
D03*
X134941D02*
D03*
X199803D02*
D03*
X321949D02*
D03*
X386811D02*
D03*
X590158Y586910D02*
D03*
Y522047D02*
D03*
X289882Y330649D02*
D03*
Y395512D02*
D03*
X308268Y611221D02*
D03*
Y591535D02*
D03*
X13780Y85787D02*
D03*
Y134016D02*
D03*
X11811Y236378D02*
D03*
Y176024D02*
D03*
X590551Y627165D02*
D03*
X36417Y555118D02*
D03*
X527000Y591000D02*
D03*
Y581000D02*
D03*
X497000D02*
D03*
X68661Y199724D02*
D03*
X98661D02*
D03*
Y209724D02*
D03*
X371063Y465866D02*
D03*
Y455866D02*
D03*
Y475866D02*
D03*
Y485866D02*
D03*
Y495866D02*
D03*
Y505866D02*
D03*
X25397Y452913D02*
D03*
Y462913D02*
D03*
Y472913D02*
D03*
Y432913D02*
D03*
Y442913D02*
D03*
D100*
X52559Y596063D02*
D03*
D101*
X64370Y614961D02*
D03*
D102*
X39764D02*
D03*
D103*
X624016Y627165D02*
D03*
X203937Y200787D02*
D03*
X79134Y343701D02*
D03*
X628740Y329921D02*
D03*
X293307Y115354D02*
D03*
X78586Y363946D02*
D03*
X202362Y304724D02*
D03*
X92520Y565354D02*
D03*
X178740Y329921D02*
D03*
X210236Y115354D02*
D03*
X170472Y304724D02*
D03*
X281496Y291339D02*
D03*
X113189Y319882D02*
D03*
X206693Y144685D02*
D03*
X385827Y158465D02*
D03*
D104*
X13780Y75787D02*
D03*
Y124016D02*
D03*
X11811Y226378D02*
D03*
Y186024D02*
D03*
X36417Y565118D02*
D03*
X371063Y445866D02*
D03*
X25397Y422913D02*
D03*
D105*
X600551Y627165D02*
D03*
X497000Y591000D02*
D03*
X68661Y209724D02*
D03*
D106*
X515079Y343701D02*
D03*
X525079D02*
D03*
X516653Y144877D02*
D03*
X526653D02*
D03*
X515866Y242520D02*
D03*
X525866D02*
D03*
X516653Y24803D02*
D03*
X526653D02*
D03*
D107*
X520079Y343701D02*
D03*
X521654Y144877D02*
D03*
X520866Y242520D02*
D03*
X521654Y24803D02*
D03*
D108*
X98110Y649606D02*
D03*
D109*
X118110D02*
D03*
D110*
X416142Y474409D02*
D03*
X45866Y211614D02*
D03*
X50000Y254331D02*
D03*
X82874Y149114D02*
D03*
X71358Y136319D02*
D03*
X81693Y76279D02*
D03*
X65551Y120965D02*
D03*
X90158Y109843D02*
D03*
X72441Y155118D02*
D03*
X77362Y28642D02*
D03*
X127953Y312992D02*
D03*
X98819Y316929D02*
D03*
X105020Y299902D02*
D03*
X100394Y308071D02*
D03*
X110039Y71752D02*
D03*
X135531Y181299D02*
D03*
X127559Y87008D02*
D03*
X146161Y147343D02*
D03*
X151969Y134646D02*
D03*
X126673Y66240D02*
D03*
X115354Y108268D02*
D03*
X153937Y526378D02*
D03*
X133760Y536909D02*
D03*
X124016Y535827D02*
D03*
X37402Y155512D02*
D03*
X106988Y219587D02*
D03*
X110433Y249606D02*
D03*
X92618Y243504D02*
D03*
X136319Y235236D02*
D03*
X129528Y248524D02*
D03*
X126969Y211713D02*
D03*
X115157Y234252D02*
D03*
X139189Y196063D02*
D03*
X98047Y274311D02*
D03*
X123031Y330709D02*
D03*
X44488Y362992D02*
D03*
X101208Y343674D02*
D03*
X135827Y386811D02*
D03*
X126772Y362598D02*
D03*
X117323Y390158D02*
D03*
X113386Y394488D02*
D03*
X38976Y370472D02*
D03*
X156496Y335630D02*
D03*
X151575Y341535D02*
D03*
X38189Y484646D02*
D03*
X94095Y426772D02*
D03*
X143701Y429134D02*
D03*
X131102Y478740D02*
D03*
X39370Y444095D02*
D03*
X163386Y166142D02*
D03*
X160630Y292126D02*
D03*
X180315Y270866D02*
D03*
X173622Y282677D02*
D03*
X170276Y255906D02*
D03*
X168898Y296457D02*
D03*
X129921Y572835D02*
D03*
X390945Y565748D02*
D03*
X387438Y363555D02*
D03*
X259842Y364567D02*
D03*
X253543Y360236D02*
D03*
X363189Y375000D02*
D03*
X312008Y443898D02*
D03*
X300787Y403150D02*
D03*
X388976Y524016D02*
D03*
X276772Y491732D02*
D03*
X410630Y474409D02*
D03*
X410236Y496457D02*
D03*
X294094Y497244D02*
D03*
X304251Y149526D02*
D03*
X268996Y175394D02*
D03*
X323228Y147244D02*
D03*
X245276Y193307D02*
D03*
X271654Y163386D02*
D03*
X404724Y409449D02*
D03*
X408268Y412992D02*
D03*
X399787Y425527D02*
D03*
X269291Y333858D02*
D03*
X278543Y276575D02*
D03*
X264961Y322457D02*
D03*
X251575Y323228D02*
D03*
X224016Y543307D02*
D03*
X255906Y476378D02*
D03*
X250787Y496850D02*
D03*
X263386Y469685D02*
D03*
X224016Y531496D02*
D03*
X163779Y537008D02*
D03*
X263779Y457677D02*
D03*
X223622Y485433D02*
D03*
X240158Y385039D02*
D03*
X236614Y131102D02*
D03*
X230315Y308661D02*
D03*
X226772Y301181D02*
D03*
X238583Y171653D02*
D03*
X237402Y162205D02*
D03*
X225197Y383858D02*
D03*
X237402Y293307D02*
D03*
X237008Y259842D02*
D03*
X234252Y344488D02*
D03*
X230315Y356299D02*
D03*
X213189Y129823D02*
D03*
X211811Y155512D02*
D03*
X190945Y354331D02*
D03*
X206693Y317913D02*
D03*
X205906Y274803D02*
D03*
X201181Y327953D02*
D03*
X186614Y172047D02*
D03*
X203150Y177657D02*
D03*
X187008Y112205D02*
D03*
X279921Y107874D02*
D03*
X373622Y107087D02*
D03*
X477165Y581890D02*
D03*
X482677D02*
D03*
X470882Y629134D02*
D03*
X449185Y624830D02*
D03*
X447244Y601181D02*
D03*
X392644Y598943D02*
D03*
X354724Y596457D02*
D03*
X329134Y611811D02*
D03*
X554724Y62205D02*
D03*
X614173Y332677D02*
D03*
X602362Y375984D02*
D03*
X540945Y375197D02*
D03*
X609252Y134843D02*
D03*
X606299Y30512D02*
D03*
X461122Y58366D02*
D03*
X400394Y579528D02*
D03*
X415748Y615354D02*
D03*
X433071Y640945D02*
D03*
X418110Y584646D02*
D03*
Y537008D02*
D03*
X471949Y359350D02*
D03*
X464764Y149114D02*
D03*
X469488Y135827D02*
D03*
X468996Y253445D02*
D03*
X548819Y166929D02*
D03*
X644095Y329921D02*
D03*
X618504Y156693D02*
D03*
X619291Y62598D02*
D03*
X622441Y245276D02*
D03*
X547638Y269685D02*
D03*
X594488Y239173D02*
D03*
M02*
