G04*
G04 #@! TF.GenerationSoftware,Altium Limited,Altium Designer,21.6.1 (37)*
G04*
G04 Layer_Color=16711935*
%FSLAX25Y25*%
%MOIN*%
G70*
G04*
G04 #@! TF.SameCoordinates,2CCEC8D5-DFE6-49CD-9DF0-9BB73A36F05B*
G04*
G04*
G04 #@! TF.FilePolarity,Negative*
G04*
G01*
G75*
%ADD44C,0.24422*%
%ADD45C,0.16548*%
%ADD46C,0.06800*%
%ADD47C,0.05918*%
%ADD48C,0.10642*%
%ADD49C,0.06706*%
%ADD50R,0.13398X0.04737*%
%ADD51R,0.05524X0.15367*%
%ADD52R,0.04737X0.13398*%
%ADD53R,0.06194X0.06194*%
%ADD54R,0.06706X0.06706*%
%ADD55R,0.06706X0.06706*%
%ADD56O,0.04737X0.08674*%
%ADD57O,0.04737X0.08674*%
%ADD58R,0.08083X0.08083*%
%ADD59C,0.08083*%
%ADD60C,0.03162*%
D44*
X19685Y653937D02*
D03*
Y19685D02*
D03*
X649606D02*
D03*
Y653937D02*
D03*
D45*
X650591Y556973D02*
D03*
Y622905D02*
D03*
X624016Y609842D02*
D03*
Y577165D02*
D03*
D46*
X644291Y535433D02*
D03*
Y515433D02*
D03*
X294000Y528000D02*
D03*
X304000D02*
D03*
X314000D02*
D03*
X324000D02*
D03*
X334000D02*
D03*
X289079Y427400D02*
D03*
X299079Y427402D02*
D03*
X309079D02*
D03*
X319079D02*
D03*
X329079D02*
D03*
X339079D02*
D03*
X349079D02*
D03*
X187008Y291339D02*
D03*
X206693D02*
D03*
X507295Y649586D02*
D03*
X497295D02*
D03*
X487295D02*
D03*
X477295D02*
D03*
X467295D02*
D03*
X457610D02*
D03*
X447610D02*
D03*
X437610D02*
D03*
X427610D02*
D03*
X417610D02*
D03*
X407610D02*
D03*
X397767D02*
D03*
X387925D02*
D03*
X377925D02*
D03*
X367925D02*
D03*
X357925D02*
D03*
X347925D02*
D03*
X337925D02*
D03*
X327925D02*
D03*
X317925D02*
D03*
X35039Y290945D02*
D03*
Y300945D02*
D03*
X75945Y49055D02*
D03*
X85945Y59055D02*
D03*
X65945D02*
D03*
X70039Y294449D02*
D03*
X60039Y304449D02*
D03*
Y284449D02*
D03*
X270512Y231457D02*
D03*
X260512Y221457D02*
D03*
X280512D02*
D03*
X144843Y266575D02*
D03*
X154842Y276575D02*
D03*
X134843D02*
D03*
X314134Y275748D02*
D03*
X304134Y285748D02*
D03*
Y265748D02*
D03*
X345630Y275748D02*
D03*
X335630Y285748D02*
D03*
Y265748D02*
D03*
X281496Y13780D02*
D03*
X271496D02*
D03*
X261496D02*
D03*
X251496D02*
D03*
X241496D02*
D03*
X556772Y627165D02*
D03*
X535827D02*
D03*
X546299D02*
D03*
X645669Y355728D02*
D03*
Y376673D02*
D03*
Y366201D02*
D03*
Y260354D02*
D03*
Y281299D02*
D03*
Y270827D02*
D03*
Y164980D02*
D03*
Y185925D02*
D03*
Y175453D02*
D03*
X167953Y649606D02*
D03*
X147008D02*
D03*
X157480D02*
D03*
X236496D02*
D03*
X215551D02*
D03*
X226024D02*
D03*
X645669Y451102D02*
D03*
Y472047D02*
D03*
Y461575D02*
D03*
X25643Y375984D02*
D03*
Y355039D02*
D03*
Y365512D02*
D03*
X645669Y69606D02*
D03*
Y90551D02*
D03*
Y80079D02*
D03*
D47*
X233268Y562992D02*
D03*
X223425D02*
D03*
X213583D02*
D03*
X203740D02*
D03*
X193898D02*
D03*
X184055D02*
D03*
X174213D02*
D03*
X243110D02*
D03*
X118110Y591535D02*
D03*
Y615158D02*
D03*
X227362Y591535D02*
D03*
Y615158D02*
D03*
D48*
X484252Y475394D02*
D03*
X602362D02*
D03*
X513779D02*
D03*
X572835D02*
D03*
X15039Y280945D02*
D03*
Y320945D02*
D03*
D49*
X118012Y166339D02*
D03*
X53150D02*
D03*
X607776Y602756D02*
D03*
X542913D02*
D03*
X228445Y47244D02*
D03*
X293307D02*
D03*
X134941D02*
D03*
X199803D02*
D03*
X321949D02*
D03*
X386811D02*
D03*
X590158Y586910D02*
D03*
Y522047D02*
D03*
X289882Y330649D02*
D03*
Y395512D02*
D03*
X308268Y611221D02*
D03*
Y591535D02*
D03*
X13780Y85787D02*
D03*
Y134016D02*
D03*
X11811Y236378D02*
D03*
Y176024D02*
D03*
X590551Y627165D02*
D03*
X36417Y555118D02*
D03*
X527000Y591000D02*
D03*
Y581000D02*
D03*
X497000D02*
D03*
X68661Y199724D02*
D03*
X98661D02*
D03*
Y209724D02*
D03*
X371063Y465866D02*
D03*
Y455866D02*
D03*
Y475866D02*
D03*
Y485866D02*
D03*
Y495866D02*
D03*
Y505866D02*
D03*
X25397Y452913D02*
D03*
Y462913D02*
D03*
Y472913D02*
D03*
Y432913D02*
D03*
Y442913D02*
D03*
D50*
X52559Y596063D02*
D03*
D51*
X64370Y614961D02*
D03*
D52*
X39764D02*
D03*
D53*
X624016Y627165D02*
D03*
X203937Y200787D02*
D03*
X79134Y343701D02*
D03*
X628740Y329921D02*
D03*
X293307Y115354D02*
D03*
X78586Y363946D02*
D03*
X202362Y304724D02*
D03*
X92520Y565354D02*
D03*
X178740Y329921D02*
D03*
X210236Y115354D02*
D03*
X170472Y304724D02*
D03*
X281496Y291339D02*
D03*
X113189Y319882D02*
D03*
X206693Y144685D02*
D03*
X385827Y158465D02*
D03*
D54*
X13780Y75787D02*
D03*
Y124016D02*
D03*
X11811Y226378D02*
D03*
Y186024D02*
D03*
X36417Y565118D02*
D03*
X371063Y445866D02*
D03*
X25397Y422913D02*
D03*
D55*
X600551Y627165D02*
D03*
X497000Y591000D02*
D03*
X68661Y209724D02*
D03*
D56*
X515079Y343701D02*
D03*
X525079D02*
D03*
X516653Y144877D02*
D03*
X526653D02*
D03*
X515866Y242520D02*
D03*
X525866D02*
D03*
X516653Y24803D02*
D03*
X526653D02*
D03*
D57*
X520079Y343701D02*
D03*
X521654Y144877D02*
D03*
X520866Y242520D02*
D03*
X521654Y24803D02*
D03*
D58*
X98110Y649606D02*
D03*
D59*
X118110D02*
D03*
D60*
X416142Y474409D02*
D03*
X45866Y211614D02*
D03*
X50000Y254331D02*
D03*
X82874Y149114D02*
D03*
X71358Y136319D02*
D03*
X81693Y76279D02*
D03*
X65551Y120965D02*
D03*
X90158Y109843D02*
D03*
X72441Y155118D02*
D03*
X77362Y28642D02*
D03*
X127953Y312992D02*
D03*
X98819Y316929D02*
D03*
X105020Y299902D02*
D03*
X100394Y308071D02*
D03*
X110039Y71752D02*
D03*
X135531Y181299D02*
D03*
X127559Y87008D02*
D03*
X146161Y147343D02*
D03*
X151969Y134646D02*
D03*
X126673Y66240D02*
D03*
X115354Y108268D02*
D03*
X153937Y526378D02*
D03*
X133760Y536909D02*
D03*
X124016Y535827D02*
D03*
X37402Y155512D02*
D03*
X106988Y219587D02*
D03*
X110433Y249606D02*
D03*
X92618Y243504D02*
D03*
X136319Y235236D02*
D03*
X129528Y248524D02*
D03*
X126969Y211713D02*
D03*
X115157Y234252D02*
D03*
X139189Y196063D02*
D03*
X98047Y274311D02*
D03*
X123031Y330709D02*
D03*
X44488Y362992D02*
D03*
X101208Y343674D02*
D03*
X135827Y386811D02*
D03*
X126772Y362598D02*
D03*
X117323Y390158D02*
D03*
X113386Y394488D02*
D03*
X38976Y370472D02*
D03*
X156496Y335630D02*
D03*
X151575Y341535D02*
D03*
X38189Y484646D02*
D03*
X94095Y426772D02*
D03*
X143701Y429134D02*
D03*
X131102Y478740D02*
D03*
X39370Y444095D02*
D03*
X163386Y166142D02*
D03*
X160630Y292126D02*
D03*
X180315Y270866D02*
D03*
X173622Y282677D02*
D03*
X170276Y255906D02*
D03*
X168898Y296457D02*
D03*
X129921Y572835D02*
D03*
X390945Y565748D02*
D03*
X387438Y363555D02*
D03*
X259842Y364567D02*
D03*
X253543Y360236D02*
D03*
X363189Y375000D02*
D03*
X312008Y443898D02*
D03*
X300787Y403150D02*
D03*
X388976Y524016D02*
D03*
X276772Y491732D02*
D03*
X410630Y474409D02*
D03*
X410236Y496457D02*
D03*
X294094Y497244D02*
D03*
X304251Y149526D02*
D03*
X268996Y175394D02*
D03*
X323228Y147244D02*
D03*
X245276Y193307D02*
D03*
X271654Y163386D02*
D03*
X404724Y409449D02*
D03*
X408268Y412992D02*
D03*
X399787Y425527D02*
D03*
X269291Y333858D02*
D03*
X278543Y276575D02*
D03*
X264961Y322457D02*
D03*
X251575Y323228D02*
D03*
X224016Y543307D02*
D03*
X255906Y476378D02*
D03*
X250787Y496850D02*
D03*
X263386Y469685D02*
D03*
X224016Y531496D02*
D03*
X163779Y537008D02*
D03*
X263779Y457677D02*
D03*
X223622Y485433D02*
D03*
X240158Y385039D02*
D03*
X236614Y131102D02*
D03*
X230315Y308661D02*
D03*
X226772Y301181D02*
D03*
X238583Y171653D02*
D03*
X237402Y162205D02*
D03*
X225197Y383858D02*
D03*
X237402Y293307D02*
D03*
X237008Y259842D02*
D03*
X234252Y344488D02*
D03*
X230315Y356299D02*
D03*
X213189Y129823D02*
D03*
X211811Y155512D02*
D03*
X190945Y354331D02*
D03*
X206693Y317913D02*
D03*
X205906Y274803D02*
D03*
X201181Y327953D02*
D03*
X186614Y172047D02*
D03*
X203150Y177657D02*
D03*
X187008Y112205D02*
D03*
X279921Y107874D02*
D03*
X373622Y107087D02*
D03*
X477165Y581890D02*
D03*
X482677D02*
D03*
X470882Y629134D02*
D03*
X449185Y624830D02*
D03*
X447244Y601181D02*
D03*
X392644Y598943D02*
D03*
X354724Y596457D02*
D03*
X329134Y611811D02*
D03*
X554724Y62205D02*
D03*
X614173Y332677D02*
D03*
X602362Y375984D02*
D03*
X540945Y375197D02*
D03*
X609252Y134843D02*
D03*
X606299Y30512D02*
D03*
X461122Y58366D02*
D03*
X400394Y579528D02*
D03*
X415748Y615354D02*
D03*
X433071Y640945D02*
D03*
X418110Y584646D02*
D03*
Y537008D02*
D03*
X471949Y359350D02*
D03*
X464764Y149114D02*
D03*
X469488Y135827D02*
D03*
X468996Y253445D02*
D03*
X548819Y166929D02*
D03*
X644095Y329921D02*
D03*
X618504Y156693D02*
D03*
X619291Y62598D02*
D03*
X622441Y245276D02*
D03*
X547638Y269685D02*
D03*
X594488Y239173D02*
D03*
M02*
