G04*
G04 #@! TF.GenerationSoftware,Altium Limited,Altium Designer,21.6.1 (37)*
G04*
G04 Layer_Color=8388736*
%FSLAX25Y25*%
%MOIN*%
G70*
G04*
G04 #@! TF.SameCoordinates,2CCEC8D5-DFE6-49CD-9DF0-9BB73A36F05B*
G04*
G04*
G04 #@! TF.FilePolarity,Negative*
G04*
G01*
G75*
%ADD18R,0.07887X0.18320*%
%ADD19R,0.18320X0.07887*%
%ADD20R,0.07887X0.13989*%
%ADD21O,0.14186X0.02965*%
%ADD22R,0.06509X0.03162*%
%ADD23O,0.05721X0.02965*%
%ADD24R,0.05800X0.10642*%
%ADD25R,0.05800X0.10800*%
%ADD26R,0.03950X0.03162*%
%ADD27R,0.03556X0.04737*%
%ADD28R,0.04737X0.03556*%
%ADD29R,0.26194X0.53162*%
%ADD30R,0.21076X0.10446*%
%ADD31R,0.10446X0.21076*%
%ADD32R,0.07296X0.05524*%
%ADD33R,0.05524X0.07296*%
%ADD34R,0.05918X0.04343*%
%ADD35R,0.04343X0.05918*%
%ADD36R,0.03950X0.08083*%
%ADD37R,0.08083X0.03950*%
%ADD38R,0.12414X0.04737*%
%ADD39R,0.06800X0.06800*%
%ADD40R,0.06800X0.06800*%
%ADD41R,0.07099X0.10642*%
%ADD42R,0.08280X0.11036*%
G04:AMPARAMS|DCode=43|XSize=90.68mil|YSize=62.33mil|CornerRadius=8.07mil|HoleSize=0mil|Usage=FLASHONLY|Rotation=270.000|XOffset=0mil|YOffset=0mil|HoleType=Round|Shape=RoundedRectangle|*
%AMROUNDEDRECTD43*
21,1,0.09068,0.04618,0,0,270.0*
21,1,0.07453,0.06233,0,0,270.0*
1,1,0.01615,-0.02309,-0.03726*
1,1,0.01615,-0.02309,0.03726*
1,1,0.01615,0.02309,0.03726*
1,1,0.01615,0.02309,-0.03726*
%
%ADD43ROUNDEDRECTD43*%
%ADD44C,0.24422*%
%ADD45C,0.16548*%
%ADD46C,0.06800*%
%ADD47C,0.05918*%
%ADD48C,0.10642*%
%ADD49C,0.06706*%
%ADD50R,0.13398X0.04737*%
%ADD51R,0.05524X0.15367*%
%ADD52R,0.04737X0.13398*%
%ADD53R,0.06194X0.06194*%
%ADD54R,0.06706X0.06706*%
%ADD55R,0.06706X0.06706*%
%ADD56O,0.04737X0.08674*%
%ADD57O,0.04737X0.08674*%
%ADD58R,0.08083X0.08083*%
%ADD59C,0.08083*%
%ADD60C,0.03162*%
D18*
X365846Y158465D02*
D03*
X340846D02*
D03*
D19*
X389764Y184350D02*
D03*
Y209350D02*
D03*
X318898Y181398D02*
D03*
Y206398D02*
D03*
D20*
X265846Y309055D02*
D03*
X245965D02*
D03*
D21*
X375984Y600669D02*
D03*
Y595669D02*
D03*
Y590669D02*
D03*
Y585669D02*
D03*
Y580669D02*
D03*
Y575669D02*
D03*
Y570669D02*
D03*
Y565669D02*
D03*
X432677Y600669D02*
D03*
Y595669D02*
D03*
Y590669D02*
D03*
Y585669D02*
D03*
Y580669D02*
D03*
Y575669D02*
D03*
Y570669D02*
D03*
Y565669D02*
D03*
D22*
X157382Y297992D02*
D03*
Y302992D02*
D03*
Y307992D02*
D03*
Y312992D02*
D03*
Y317992D02*
D03*
Y322992D02*
D03*
Y327992D02*
D03*
X135925Y297992D02*
D03*
Y302992D02*
D03*
Y307992D02*
D03*
Y312992D02*
D03*
Y317992D02*
D03*
Y322992D02*
D03*
Y327992D02*
D03*
D23*
X85138Y86004D02*
D03*
Y91004D02*
D03*
Y96004D02*
D03*
Y101004D02*
D03*
X64468Y86004D02*
D03*
Y91004D02*
D03*
Y96004D02*
D03*
Y101004D02*
D03*
X191437Y146043D02*
D03*
Y151043D02*
D03*
Y156043D02*
D03*
Y161043D02*
D03*
X170768Y146043D02*
D03*
Y151043D02*
D03*
Y156043D02*
D03*
Y161043D02*
D03*
X363681Y189350D02*
D03*
Y194350D02*
D03*
Y199350D02*
D03*
Y204350D02*
D03*
X343012Y189350D02*
D03*
Y194350D02*
D03*
Y199350D02*
D03*
Y204350D02*
D03*
X266240Y270059D02*
D03*
Y275059D02*
D03*
Y280059D02*
D03*
Y285059D02*
D03*
X245571Y270059D02*
D03*
Y275059D02*
D03*
Y280059D02*
D03*
Y285059D02*
D03*
D24*
X74000Y512000D02*
D03*
D25*
X174000D02*
D03*
X164000D02*
D03*
X154000D02*
D03*
X144000D02*
D03*
X134000D02*
D03*
X264000D02*
D03*
X254000D02*
D03*
X244000D02*
D03*
X234000D02*
D03*
X224000D02*
D03*
X214000D02*
D03*
X204000D02*
D03*
X194000D02*
D03*
X184000D02*
D03*
X104000D02*
D03*
X94000D02*
D03*
X114000D02*
D03*
X84000D02*
D03*
X124000D02*
D03*
X74000Y442000D02*
D03*
X84000D02*
D03*
X94000D02*
D03*
X104000D02*
D03*
X114000D02*
D03*
X124000D02*
D03*
X134000D02*
D03*
X144000D02*
D03*
X154000D02*
D03*
X164000D02*
D03*
X234000D02*
D03*
X204000D02*
D03*
X214000D02*
D03*
X224000D02*
D03*
X244000D02*
D03*
X254000D02*
D03*
X264000D02*
D03*
X194000D02*
D03*
X184000D02*
D03*
X174000D02*
D03*
D26*
X119980Y220669D02*
D03*
Y224410D02*
D03*
Y228150D02*
D03*
X130020D02*
D03*
Y224410D02*
D03*
Y220669D02*
D03*
D27*
X539583Y257371D02*
D03*
X534465D02*
D03*
X537024Y248119D02*
D03*
X542142Y155413D02*
D03*
X537024D02*
D03*
X539583Y146161D02*
D03*
X539583Y362744D02*
D03*
X534465D02*
D03*
X537024Y353492D02*
D03*
X539583Y46626D02*
D03*
X534465D02*
D03*
X537024Y37374D02*
D03*
D28*
X364685Y362047D02*
D03*
Y367165D02*
D03*
X355433Y364606D02*
D03*
D29*
X486854Y305333D02*
D03*
X581146D02*
D03*
X486854Y200667D02*
D03*
X581146D02*
D03*
X486854Y410000D02*
D03*
X581146D02*
D03*
X486854Y96000D02*
D03*
X581146D02*
D03*
D30*
X202953Y235236D02*
D03*
X178937D02*
D03*
X166008Y370000D02*
D03*
X141992D02*
D03*
X268425Y90551D02*
D03*
X244409D02*
D03*
X176378D02*
D03*
X152362D02*
D03*
X360472D02*
D03*
X336457D02*
D03*
D31*
X327284Y353780D02*
D03*
Y377795D02*
D03*
D32*
X145669Y219980D02*
D03*
Y209154D02*
D03*
X229979Y281398D02*
D03*
Y270571D02*
D03*
D33*
X44783Y93504D02*
D03*
X33957D02*
D03*
X107776Y280512D02*
D03*
X118602D02*
D03*
X44783Y112205D02*
D03*
X33957D02*
D03*
X238681Y235236D02*
D03*
X227854D02*
D03*
X111713Y41339D02*
D03*
X100886D02*
D03*
X100886Y62008D02*
D03*
X111713D02*
D03*
D34*
X157480Y599705D02*
D03*
Y606988D02*
D03*
X187992Y599705D02*
D03*
Y606988D02*
D03*
X277480Y599705D02*
D03*
Y606988D02*
D03*
X381890Y625295D02*
D03*
Y618012D02*
D03*
X400787Y625295D02*
D03*
Y618012D02*
D03*
X421654Y625295D02*
D03*
Y618012D02*
D03*
X144000Y551642D02*
D03*
Y544358D02*
D03*
X114000Y551642D02*
D03*
Y544358D02*
D03*
X104000Y551642D02*
D03*
Y544358D02*
D03*
X214000Y549642D02*
D03*
Y542358D02*
D03*
X234000Y549642D02*
D03*
Y542358D02*
D03*
X240158Y395965D02*
D03*
Y403248D02*
D03*
X225394Y396949D02*
D03*
Y404232D02*
D03*
X124000Y406358D02*
D03*
Y413642D02*
D03*
X114000Y406358D02*
D03*
Y413642D02*
D03*
D35*
X118701Y86417D02*
D03*
X111417D02*
D03*
X108563Y344488D02*
D03*
X115847D02*
D03*
X193602Y265748D02*
D03*
X186319D02*
D03*
X108366Y108268D02*
D03*
X101083D02*
D03*
X157642Y396000D02*
D03*
X150358D02*
D03*
X231004Y166339D02*
D03*
X223721D02*
D03*
X211319Y343504D02*
D03*
X204035D02*
D03*
X100689Y129921D02*
D03*
X107972D02*
D03*
X115847Y307087D02*
D03*
X108563D02*
D03*
X33760Y74803D02*
D03*
X41043D02*
D03*
X89862Y233268D02*
D03*
X97146D02*
D03*
X67224D02*
D03*
X74508D02*
D03*
X235925Y191929D02*
D03*
X228642D02*
D03*
X247342Y142717D02*
D03*
X254626D02*
D03*
X53445Y441929D02*
D03*
X60728D02*
D03*
X87303Y129921D02*
D03*
X80020D02*
D03*
X223721Y142717D02*
D03*
X231004D02*
D03*
X189665Y317913D02*
D03*
X182382D02*
D03*
D36*
X109941Y293307D02*
D03*
X114469D02*
D03*
X203445Y165354D02*
D03*
X207972D02*
D03*
X33169Y166339D02*
D03*
X37697D02*
D03*
X127461Y195276D02*
D03*
X122933D02*
D03*
X512894Y612598D02*
D03*
X508366D02*
D03*
X479232Y590945D02*
D03*
X483760D02*
D03*
X229035Y211614D02*
D03*
X233563D02*
D03*
X245768Y165354D02*
D03*
X250295D02*
D03*
X115453Y333661D02*
D03*
X110925D02*
D03*
X488500Y44000D02*
D03*
X493028D02*
D03*
X488500Y254068D02*
D03*
X493028D02*
D03*
X487894Y158661D02*
D03*
X492421D02*
D03*
X488500Y359102D02*
D03*
X493028D02*
D03*
X172933Y343504D02*
D03*
X177461D02*
D03*
X39075Y514764D02*
D03*
X43602D02*
D03*
X282185Y256890D02*
D03*
X286713D02*
D03*
D37*
X340945Y615256D02*
D03*
Y610728D02*
D03*
X576181Y148556D02*
D03*
Y144029D02*
D03*
Y355906D02*
D03*
Y351378D02*
D03*
Y252231D02*
D03*
Y247703D02*
D03*
X303150Y86319D02*
D03*
Y90847D02*
D03*
X208661Y85335D02*
D03*
Y89862D02*
D03*
X396654Y85335D02*
D03*
Y89862D02*
D03*
X378465Y360177D02*
D03*
Y355650D02*
D03*
Y375335D02*
D03*
Y379862D02*
D03*
X576181Y44882D02*
D03*
Y40354D02*
D03*
D38*
X212000Y376390D02*
D03*
Y387610D02*
D03*
X190000Y376390D02*
D03*
Y387610D02*
D03*
D39*
X231299Y413386D02*
D03*
X104000Y526000D02*
D03*
X114000Y426000D02*
D03*
Y526000D02*
D03*
X234000D02*
D03*
X124000Y426000D02*
D03*
X144000Y526000D02*
D03*
X214000D02*
D03*
X451476Y580610D02*
D03*
D40*
X218555Y413634D02*
D03*
D41*
X25297Y515354D02*
D03*
Y527953D02*
D03*
D42*
X208465Y414000D02*
D03*
X191535D02*
D03*
D43*
X61260Y410433D02*
D03*
Y374606D02*
D03*
X78898Y410433D02*
D03*
Y374606D02*
D03*
D44*
X19685Y653937D02*
D03*
Y19685D02*
D03*
X649606D02*
D03*
Y653937D02*
D03*
D45*
X650591Y556973D02*
D03*
Y622905D02*
D03*
X624016Y609842D02*
D03*
Y577165D02*
D03*
D46*
X644291Y535433D02*
D03*
Y515433D02*
D03*
X294000Y528000D02*
D03*
X304000D02*
D03*
X314000D02*
D03*
X324000D02*
D03*
X334000D02*
D03*
X289079Y427400D02*
D03*
X299079Y427402D02*
D03*
X309079D02*
D03*
X319079D02*
D03*
X329079D02*
D03*
X339079D02*
D03*
X349079D02*
D03*
X187008Y291339D02*
D03*
X206693D02*
D03*
X507295Y649586D02*
D03*
X497295D02*
D03*
X487295D02*
D03*
X477295D02*
D03*
X467295D02*
D03*
X457610D02*
D03*
X447610D02*
D03*
X437610D02*
D03*
X427610D02*
D03*
X417610D02*
D03*
X407610D02*
D03*
X397767D02*
D03*
X387925D02*
D03*
X377925D02*
D03*
X367925D02*
D03*
X357925D02*
D03*
X347925D02*
D03*
X337925D02*
D03*
X327925D02*
D03*
X317925D02*
D03*
X35039Y290945D02*
D03*
Y300945D02*
D03*
X75945Y49055D02*
D03*
X85945Y59055D02*
D03*
X65945D02*
D03*
X70039Y294449D02*
D03*
X60039Y304449D02*
D03*
Y284449D02*
D03*
X270512Y231457D02*
D03*
X260512Y221457D02*
D03*
X280512D02*
D03*
X144843Y266575D02*
D03*
X154842Y276575D02*
D03*
X134843D02*
D03*
X314134Y275748D02*
D03*
X304134Y285748D02*
D03*
Y265748D02*
D03*
X345630Y275748D02*
D03*
X335630Y285748D02*
D03*
Y265748D02*
D03*
X281496Y13780D02*
D03*
X271496D02*
D03*
X261496D02*
D03*
X251496D02*
D03*
X241496D02*
D03*
X556772Y627165D02*
D03*
X535827D02*
D03*
X546299D02*
D03*
X645669Y355728D02*
D03*
Y376673D02*
D03*
Y366201D02*
D03*
Y260354D02*
D03*
Y281299D02*
D03*
Y270827D02*
D03*
Y164980D02*
D03*
Y185925D02*
D03*
Y175453D02*
D03*
X167953Y649606D02*
D03*
X147008D02*
D03*
X157480D02*
D03*
X236496D02*
D03*
X215551D02*
D03*
X226024D02*
D03*
X645669Y451102D02*
D03*
Y472047D02*
D03*
Y461575D02*
D03*
X25643Y375984D02*
D03*
Y355039D02*
D03*
Y365512D02*
D03*
X645669Y69606D02*
D03*
Y90551D02*
D03*
Y80079D02*
D03*
D47*
X233268Y562992D02*
D03*
X223425D02*
D03*
X213583D02*
D03*
X203740D02*
D03*
X193898D02*
D03*
X184055D02*
D03*
X174213D02*
D03*
X243110D02*
D03*
X118110Y591535D02*
D03*
Y615158D02*
D03*
X227362Y591535D02*
D03*
Y615158D02*
D03*
D48*
X484252Y475394D02*
D03*
X602362D02*
D03*
X513779D02*
D03*
X572835D02*
D03*
X15039Y280945D02*
D03*
Y320945D02*
D03*
D49*
X118012Y166339D02*
D03*
X53150D02*
D03*
X607776Y602756D02*
D03*
X542913D02*
D03*
X228445Y47244D02*
D03*
X293307D02*
D03*
X134941D02*
D03*
X199803D02*
D03*
X321949D02*
D03*
X386811D02*
D03*
X590158Y586910D02*
D03*
Y522047D02*
D03*
X289882Y330649D02*
D03*
Y395512D02*
D03*
X308268Y611221D02*
D03*
Y591535D02*
D03*
X13780Y85787D02*
D03*
Y134016D02*
D03*
X11811Y236378D02*
D03*
Y176024D02*
D03*
X590551Y627165D02*
D03*
X36417Y555118D02*
D03*
X527000Y591000D02*
D03*
Y581000D02*
D03*
X497000D02*
D03*
X68661Y199724D02*
D03*
X98661D02*
D03*
Y209724D02*
D03*
X371063Y465866D02*
D03*
Y455866D02*
D03*
Y475866D02*
D03*
Y485866D02*
D03*
Y495866D02*
D03*
Y505866D02*
D03*
X25397Y452913D02*
D03*
Y462913D02*
D03*
Y472913D02*
D03*
Y432913D02*
D03*
Y442913D02*
D03*
D50*
X52559Y596063D02*
D03*
D51*
X64370Y614961D02*
D03*
D52*
X39764D02*
D03*
D53*
X624016Y627165D02*
D03*
X203937Y200787D02*
D03*
X79134Y343701D02*
D03*
X628740Y329921D02*
D03*
X293307Y115354D02*
D03*
X78586Y363946D02*
D03*
X202362Y304724D02*
D03*
X92520Y565354D02*
D03*
X178740Y329921D02*
D03*
X210236Y115354D02*
D03*
X170472Y304724D02*
D03*
X281496Y291339D02*
D03*
X113189Y319882D02*
D03*
X206693Y144685D02*
D03*
X385827Y158465D02*
D03*
D54*
X13780Y75787D02*
D03*
Y124016D02*
D03*
X11811Y226378D02*
D03*
Y186024D02*
D03*
X36417Y565118D02*
D03*
X371063Y445866D02*
D03*
X25397Y422913D02*
D03*
D55*
X600551Y627165D02*
D03*
X497000Y591000D02*
D03*
X68661Y209724D02*
D03*
D56*
X515079Y343701D02*
D03*
X525079D02*
D03*
X516653Y144877D02*
D03*
X526653D02*
D03*
X515866Y242520D02*
D03*
X525866D02*
D03*
X516653Y24803D02*
D03*
X526653D02*
D03*
D57*
X520079Y343701D02*
D03*
X521654Y144877D02*
D03*
X520866Y242520D02*
D03*
X521654Y24803D02*
D03*
D58*
X98110Y649606D02*
D03*
D59*
X118110D02*
D03*
D60*
X416142Y474409D02*
D03*
X45866Y211614D02*
D03*
X50000Y254331D02*
D03*
X82874Y149114D02*
D03*
X71358Y136319D02*
D03*
X81693Y76279D02*
D03*
X65551Y120965D02*
D03*
X90158Y109843D02*
D03*
X72441Y155118D02*
D03*
X77362Y28642D02*
D03*
X127953Y312992D02*
D03*
X98819Y316929D02*
D03*
X105020Y299902D02*
D03*
X100394Y308071D02*
D03*
X110039Y71752D02*
D03*
X135531Y181299D02*
D03*
X127559Y87008D02*
D03*
X146161Y147343D02*
D03*
X151969Y134646D02*
D03*
X126673Y66240D02*
D03*
X115354Y108268D02*
D03*
X153937Y526378D02*
D03*
X133760Y536909D02*
D03*
X124016Y535827D02*
D03*
X37402Y155512D02*
D03*
X106988Y219587D02*
D03*
X110433Y249606D02*
D03*
X92618Y243504D02*
D03*
X136319Y235236D02*
D03*
X129528Y248524D02*
D03*
X126969Y211713D02*
D03*
X115157Y234252D02*
D03*
X139189Y196063D02*
D03*
X98047Y274311D02*
D03*
X123031Y330709D02*
D03*
X44488Y362992D02*
D03*
X101208Y343674D02*
D03*
X135827Y386811D02*
D03*
X126772Y362598D02*
D03*
X117323Y390158D02*
D03*
X113386Y394488D02*
D03*
X38976Y370472D02*
D03*
X156496Y335630D02*
D03*
X151575Y341535D02*
D03*
X38189Y484646D02*
D03*
X94095Y426772D02*
D03*
X143701Y429134D02*
D03*
X131102Y478740D02*
D03*
X39370Y444095D02*
D03*
X163386Y166142D02*
D03*
X160630Y292126D02*
D03*
X180315Y270866D02*
D03*
X173622Y282677D02*
D03*
X170276Y255906D02*
D03*
X168898Y296457D02*
D03*
X129921Y572835D02*
D03*
X390945Y565748D02*
D03*
X387438Y363555D02*
D03*
X259842Y364567D02*
D03*
X253543Y360236D02*
D03*
X363189Y375000D02*
D03*
X312008Y443898D02*
D03*
X300787Y403150D02*
D03*
X388976Y524016D02*
D03*
X276772Y491732D02*
D03*
X410630Y474409D02*
D03*
X410236Y496457D02*
D03*
X294094Y497244D02*
D03*
X304251Y149526D02*
D03*
X268996Y175394D02*
D03*
X323228Y147244D02*
D03*
X245276Y193307D02*
D03*
X271654Y163386D02*
D03*
X404724Y409449D02*
D03*
X408268Y412992D02*
D03*
X399787Y425527D02*
D03*
X269291Y333858D02*
D03*
X278543Y276575D02*
D03*
X264961Y322457D02*
D03*
X251575Y323228D02*
D03*
X224016Y543307D02*
D03*
X255906Y476378D02*
D03*
X250787Y496850D02*
D03*
X263386Y469685D02*
D03*
X224016Y531496D02*
D03*
X163779Y537008D02*
D03*
X263779Y457677D02*
D03*
X223622Y485433D02*
D03*
X240158Y385039D02*
D03*
X236614Y131102D02*
D03*
X230315Y308661D02*
D03*
X226772Y301181D02*
D03*
X238583Y171653D02*
D03*
X237402Y162205D02*
D03*
X225197Y383858D02*
D03*
X237402Y293307D02*
D03*
X237008Y259842D02*
D03*
X234252Y344488D02*
D03*
X230315Y356299D02*
D03*
X213189Y129823D02*
D03*
X211811Y155512D02*
D03*
X190945Y354331D02*
D03*
X206693Y317913D02*
D03*
X205906Y274803D02*
D03*
X201181Y327953D02*
D03*
X186614Y172047D02*
D03*
X203150Y177657D02*
D03*
X187008Y112205D02*
D03*
X279921Y107874D02*
D03*
X373622Y107087D02*
D03*
X477165Y581890D02*
D03*
X482677D02*
D03*
X470882Y629134D02*
D03*
X449185Y624830D02*
D03*
X447244Y601181D02*
D03*
X392644Y598943D02*
D03*
X354724Y596457D02*
D03*
X329134Y611811D02*
D03*
X554724Y62205D02*
D03*
X614173Y332677D02*
D03*
X602362Y375984D02*
D03*
X540945Y375197D02*
D03*
X609252Y134843D02*
D03*
X606299Y30512D02*
D03*
X461122Y58366D02*
D03*
X400394Y579528D02*
D03*
X415748Y615354D02*
D03*
X433071Y640945D02*
D03*
X418110Y584646D02*
D03*
Y537008D02*
D03*
X471949Y359350D02*
D03*
X464764Y149114D02*
D03*
X469488Y135827D02*
D03*
X468996Y253445D02*
D03*
X548819Y166929D02*
D03*
X644095Y329921D02*
D03*
X618504Y156693D02*
D03*
X619291Y62598D02*
D03*
X622441Y245276D02*
D03*
X547638Y269685D02*
D03*
X594488Y239173D02*
D03*
M02*
