G04*
G04 #@! TF.GenerationSoftware,Altium Limited,Altium Designer,21.6.1 (37)*
G04*
G04 Layer_Physical_Order=1*
G04 Layer_Color=255*
%FSLAX25Y25*%
%MOIN*%
G70*
G04*
G04 #@! TF.SameCoordinates,2CCEC8D5-DFE6-49CD-9DF0-9BB73A36F05B*
G04*
G04*
G04 #@! TF.FilePolarity,Positive*
G04*
G01*
G75*
%ADD61R,0.07087X0.17520*%
%ADD62R,0.17520X0.07087*%
%ADD63R,0.07087X0.13189*%
%ADD64O,0.13386X0.02165*%
%ADD65R,0.05709X0.02362*%
%ADD66O,0.04921X0.02165*%
%ADD67R,0.05000X0.09843*%
%ADD68R,0.05000X0.10000*%
%ADD69R,0.03150X0.02362*%
%ADD70R,0.02756X0.03937*%
%ADD71R,0.03937X0.02756*%
%ADD72R,0.25394X0.52362*%
%ADD73R,0.20276X0.09646*%
%ADD74R,0.09646X0.20276*%
%ADD75R,0.06496X0.04724*%
%ADD76R,0.04724X0.06496*%
%ADD77R,0.05118X0.03543*%
%ADD78R,0.03543X0.05118*%
%ADD79R,0.03150X0.07284*%
%ADD80R,0.07284X0.03150*%
%ADD81R,0.11614X0.03937*%
%ADD82R,0.06000X0.06000*%
%ADD83R,0.06000X0.06000*%
%ADD84R,0.06299X0.09843*%
%ADD85R,0.07480X0.10236*%
G04:AMPARAMS|DCode=86|XSize=82.68mil|YSize=54.33mil|CornerRadius=4.08mil|HoleSize=0mil|Usage=FLASHONLY|Rotation=270.000|XOffset=0mil|YOffset=0mil|HoleType=Round|Shape=RoundedRectangle|*
%AMROUNDEDRECTD86*
21,1,0.08268,0.04618,0,0,270.0*
21,1,0.07453,0.05433,0,0,270.0*
1,1,0.00815,-0.02309,-0.03726*
1,1,0.00815,-0.02309,0.03726*
1,1,0.00815,0.02309,0.03726*
1,1,0.00815,0.02309,-0.03726*
%
%ADD86ROUNDEDRECTD86*%
%ADD87C,0.11811*%
%ADD88C,0.02953*%
%ADD89C,0.07874*%
%ADD90C,0.03937*%
%ADD91C,0.01968*%
%ADD92C,0.19685*%
%ADD93C,0.09843*%
%ADD94C,0.23622*%
%ADD95C,0.15748*%
%ADD96C,0.06000*%
%ADD97C,0.05118*%
%ADD98C,0.09843*%
%ADD99C,0.05906*%
%ADD100R,0.12598X0.03937*%
%ADD101R,0.04724X0.14567*%
%ADD102R,0.03937X0.12598*%
%ADD103R,0.05394X0.05394*%
%ADD104R,0.05906X0.05906*%
%ADD105R,0.05906X0.05906*%
%ADD106O,0.03937X0.07874*%
%ADD107O,0.03937X0.07874*%
%ADD108R,0.07284X0.07284*%
%ADD109C,0.07284*%
%ADD110C,0.02362*%
D61*
X365846Y158465D02*
D03*
X340846D02*
D03*
D62*
X389764Y184350D02*
D03*
Y209350D02*
D03*
X318898Y181398D02*
D03*
Y206398D02*
D03*
D63*
X265846Y309055D02*
D03*
X245965D02*
D03*
D64*
X375984Y600669D02*
D03*
Y595669D02*
D03*
Y590669D02*
D03*
Y585669D02*
D03*
Y580669D02*
D03*
Y575669D02*
D03*
Y570669D02*
D03*
Y565669D02*
D03*
X432677Y600669D02*
D03*
Y595669D02*
D03*
Y590669D02*
D03*
Y585669D02*
D03*
Y580669D02*
D03*
Y575669D02*
D03*
Y570669D02*
D03*
Y565669D02*
D03*
D65*
X157382Y297992D02*
D03*
Y302992D02*
D03*
Y307992D02*
D03*
Y312992D02*
D03*
Y317992D02*
D03*
Y322992D02*
D03*
Y327992D02*
D03*
X135925Y297992D02*
D03*
Y302992D02*
D03*
Y307992D02*
D03*
Y312992D02*
D03*
Y317992D02*
D03*
Y322992D02*
D03*
Y327992D02*
D03*
D66*
X85138Y86004D02*
D03*
Y91004D02*
D03*
Y96004D02*
D03*
Y101004D02*
D03*
X64468Y86004D02*
D03*
Y91004D02*
D03*
Y96004D02*
D03*
Y101004D02*
D03*
X191437Y146043D02*
D03*
Y151043D02*
D03*
Y156043D02*
D03*
Y161043D02*
D03*
X170768Y146043D02*
D03*
Y151043D02*
D03*
Y156043D02*
D03*
Y161043D02*
D03*
X363681Y189350D02*
D03*
Y194350D02*
D03*
Y199350D02*
D03*
Y204350D02*
D03*
X343012Y189350D02*
D03*
Y194350D02*
D03*
Y199350D02*
D03*
Y204350D02*
D03*
X266240Y270059D02*
D03*
Y275059D02*
D03*
Y280059D02*
D03*
Y285059D02*
D03*
X245571Y270059D02*
D03*
Y275059D02*
D03*
Y280059D02*
D03*
Y285059D02*
D03*
D67*
X74000Y512000D02*
D03*
D68*
X174000D02*
D03*
X164000D02*
D03*
X154000D02*
D03*
X144000D02*
D03*
X134000D02*
D03*
X264000D02*
D03*
X254000D02*
D03*
X244000D02*
D03*
X234000D02*
D03*
X224000D02*
D03*
X214000D02*
D03*
X204000D02*
D03*
X194000D02*
D03*
X184000D02*
D03*
X104000D02*
D03*
X94000D02*
D03*
X114000D02*
D03*
X84000D02*
D03*
X124000D02*
D03*
X74000Y442000D02*
D03*
X84000D02*
D03*
X94000D02*
D03*
X104000D02*
D03*
X114000D02*
D03*
X124000D02*
D03*
X134000D02*
D03*
X144000D02*
D03*
X154000D02*
D03*
X164000D02*
D03*
X234000D02*
D03*
X204000D02*
D03*
X214000D02*
D03*
X224000D02*
D03*
X244000D02*
D03*
X254000D02*
D03*
X264000D02*
D03*
X194000D02*
D03*
X184000D02*
D03*
X174000D02*
D03*
D69*
X119980Y220669D02*
D03*
Y224410D02*
D03*
Y228150D02*
D03*
X130020D02*
D03*
Y224410D02*
D03*
Y220669D02*
D03*
D70*
X539583Y257371D02*
D03*
X534465D02*
D03*
X537024Y248119D02*
D03*
X542142Y155413D02*
D03*
X537024D02*
D03*
X539583Y146161D02*
D03*
X539583Y362744D02*
D03*
X534465D02*
D03*
X537024Y353492D02*
D03*
X539583Y46626D02*
D03*
X534465D02*
D03*
X537024Y37374D02*
D03*
D71*
X364685Y362047D02*
D03*
Y367165D02*
D03*
X355433Y364606D02*
D03*
D72*
X486854Y305333D02*
D03*
X581146D02*
D03*
X486854Y200667D02*
D03*
X581146D02*
D03*
X486854Y410000D02*
D03*
X581146D02*
D03*
X486854Y96000D02*
D03*
X581146D02*
D03*
D73*
X202953Y235236D02*
D03*
X178937D02*
D03*
X166008Y370000D02*
D03*
X141992D02*
D03*
X268425Y90551D02*
D03*
X244409D02*
D03*
X176378D02*
D03*
X152362D02*
D03*
X360472D02*
D03*
X336457D02*
D03*
D74*
X327284Y353780D02*
D03*
Y377795D02*
D03*
D75*
X145669Y219980D02*
D03*
Y209154D02*
D03*
X229979Y281398D02*
D03*
Y270571D02*
D03*
D76*
X44783Y93504D02*
D03*
X33957D02*
D03*
X107776Y280512D02*
D03*
X118602D02*
D03*
X44783Y112205D02*
D03*
X33957D02*
D03*
X238681Y235236D02*
D03*
X227854D02*
D03*
X111713Y41339D02*
D03*
X100886D02*
D03*
X100886Y62008D02*
D03*
X111713D02*
D03*
D77*
X157480Y599705D02*
D03*
Y606988D02*
D03*
X187992Y599705D02*
D03*
Y606988D02*
D03*
X277480Y599705D02*
D03*
Y606988D02*
D03*
X381890Y625295D02*
D03*
Y618012D02*
D03*
X400787Y625295D02*
D03*
Y618012D02*
D03*
X421654Y625295D02*
D03*
Y618012D02*
D03*
X144000Y551642D02*
D03*
Y544358D02*
D03*
X114000Y551642D02*
D03*
Y544358D02*
D03*
X104000Y551642D02*
D03*
Y544358D02*
D03*
X214000Y549642D02*
D03*
Y542358D02*
D03*
X234000Y549642D02*
D03*
Y542358D02*
D03*
X240158Y395965D02*
D03*
Y403248D02*
D03*
X225394Y396949D02*
D03*
Y404232D02*
D03*
X124000Y406358D02*
D03*
Y413642D02*
D03*
X114000Y406358D02*
D03*
Y413642D02*
D03*
D78*
X118701Y86417D02*
D03*
X111417D02*
D03*
X108563Y344488D02*
D03*
X115847D02*
D03*
X193602Y265748D02*
D03*
X186319D02*
D03*
X108366Y108268D02*
D03*
X101083D02*
D03*
X157642Y396000D02*
D03*
X150358D02*
D03*
X231004Y166339D02*
D03*
X223721D02*
D03*
X211319Y343504D02*
D03*
X204035D02*
D03*
X100689Y129921D02*
D03*
X107972D02*
D03*
X115847Y307087D02*
D03*
X108563D02*
D03*
X33760Y74803D02*
D03*
X41043D02*
D03*
X89862Y233268D02*
D03*
X97146D02*
D03*
X67224D02*
D03*
X74508D02*
D03*
X235925Y191929D02*
D03*
X228642D02*
D03*
X247342Y142717D02*
D03*
X254626D02*
D03*
X53445Y441929D02*
D03*
X60728D02*
D03*
X87303Y129921D02*
D03*
X80020D02*
D03*
X223721Y142717D02*
D03*
X231004D02*
D03*
X189665Y317913D02*
D03*
X182382D02*
D03*
D79*
X109941Y293307D02*
D03*
X114469D02*
D03*
X203445Y165354D02*
D03*
X207972D02*
D03*
X33169Y166339D02*
D03*
X37697D02*
D03*
X127461Y195276D02*
D03*
X122933D02*
D03*
X512894Y612598D02*
D03*
X508366D02*
D03*
X479232Y590945D02*
D03*
X483760D02*
D03*
X229035Y211614D02*
D03*
X233563D02*
D03*
X245768Y165354D02*
D03*
X250295D02*
D03*
X115453Y333661D02*
D03*
X110925D02*
D03*
X488500Y44000D02*
D03*
X493028D02*
D03*
X488500Y254068D02*
D03*
X493028D02*
D03*
X487894Y158661D02*
D03*
X492421D02*
D03*
X488500Y359102D02*
D03*
X493028D02*
D03*
X172933Y343504D02*
D03*
X177461D02*
D03*
X39075Y514764D02*
D03*
X43602D02*
D03*
X282185Y256890D02*
D03*
X286713D02*
D03*
D80*
X340945Y615256D02*
D03*
Y610728D02*
D03*
X576181Y148556D02*
D03*
Y144029D02*
D03*
Y355906D02*
D03*
Y351378D02*
D03*
Y252231D02*
D03*
Y247703D02*
D03*
X303150Y86319D02*
D03*
Y90847D02*
D03*
X208661Y85335D02*
D03*
Y89862D02*
D03*
X396654Y85335D02*
D03*
Y89862D02*
D03*
X378465Y360177D02*
D03*
Y355650D02*
D03*
Y375335D02*
D03*
Y379862D02*
D03*
X576181Y44882D02*
D03*
Y40354D02*
D03*
D81*
X212000Y376390D02*
D03*
Y387610D02*
D03*
X190000Y376390D02*
D03*
Y387610D02*
D03*
D82*
X231299Y413386D02*
D03*
X104000Y526000D02*
D03*
X114000Y426000D02*
D03*
Y526000D02*
D03*
X234000D02*
D03*
X124000Y426000D02*
D03*
X144000Y526000D02*
D03*
X214000D02*
D03*
X451476Y580610D02*
D03*
D83*
X218555Y413634D02*
D03*
D84*
X25297Y515354D02*
D03*
Y527953D02*
D03*
D85*
X208465Y414000D02*
D03*
X191535D02*
D03*
D86*
X61260Y410433D02*
D03*
Y374606D02*
D03*
X78898Y410433D02*
D03*
Y374606D02*
D03*
D87*
X655905Y461024D02*
X659842Y457087D01*
Y329921D02*
Y457087D01*
Y175453D02*
Y270827D01*
Y80079D02*
Y175453D01*
Y270827D02*
Y329921D01*
X178740Y649606D02*
X187992D01*
Y616142D02*
Y644685D01*
Y649606D02*
X203543D01*
X601378Y613976D02*
Y639567D01*
X118110Y615158D02*
X129921D01*
X131890Y617126D02*
X154528D01*
X129921Y615158D02*
X131890Y617126D01*
X635511Y494095D02*
X642430Y487176D01*
Y485129D02*
Y487176D01*
X602362Y475394D02*
X603150Y474606D01*
X581525Y494095D02*
X635511D01*
X572835Y485404D02*
X581525Y494095D01*
X581102Y448032D02*
X596231D01*
X603150Y454950D01*
X572835Y456299D02*
Y485404D01*
X603150Y454950D02*
Y474606D01*
X572835Y456299D02*
X581102Y448032D01*
X644095Y329921D02*
X659842D01*
X190945Y591535D02*
X227362D01*
X154528Y617126D02*
X157480Y614173D01*
Y593504D02*
X158465Y592520D01*
Y590580D02*
Y592520D01*
Y590580D02*
X163415Y585630D01*
X187992Y592549D02*
Y594488D01*
X190945Y591535D01*
X181073Y585630D02*
X187992Y592549D01*
X163415Y585630D02*
X181073D01*
D88*
X4839Y78823D02*
X7874Y75787D01*
X4839Y78823D02*
Y105232D01*
X13780Y114173D01*
X335594Y600000D02*
X338904D01*
X332283D02*
X335594D01*
X325689Y574902D02*
X334646Y583858D01*
Y599052D01*
X335594Y600000D01*
X325689Y568602D02*
Y574902D01*
Y568602D02*
X325984Y568307D01*
Y537402D02*
Y568307D01*
X289370Y611375D02*
X308113D01*
X279190D02*
X289370D01*
X268898Y649606D02*
X289370Y629134D01*
X236496Y649606D02*
X268898D01*
X289370Y611375D02*
Y629134D01*
X546299Y606941D02*
Y611811D01*
Y627165D01*
X529289Y627134D02*
X535795D01*
X527559Y609744D02*
Y625404D01*
X529289Y627134D01*
X527559Y609744D02*
X535138Y602165D01*
X535795Y627134D02*
X535827Y627165D01*
X109252Y221850D02*
Y230118D01*
X114961Y224410D01*
X109252Y230118D02*
Y239173D01*
X114961Y224410D02*
X119980D01*
X130020Y220472D02*
Y220669D01*
Y220472D02*
X130118Y220374D01*
X479134Y593110D02*
X479232Y593012D01*
X477320Y593110D02*
X479134D01*
X479232Y590945D02*
Y593012D01*
X475591Y594840D02*
X477320Y593110D01*
X475591Y594840D02*
Y611024D01*
X485492Y620925D01*
X542913Y603555D02*
X546299Y606941D01*
X542913Y602756D02*
Y603555D01*
X494035Y624923D02*
X497295Y628182D01*
X494035Y620925D02*
Y624923D01*
X497295Y628182D02*
Y649586D01*
X380315Y217913D02*
X380906Y218504D01*
X373031Y210630D02*
X380315Y217913D01*
X304000Y528000D02*
Y535672D01*
Y464433D02*
Y528000D01*
X17874Y176023D02*
X27559Y166339D01*
X37795Y155118D02*
X72441D01*
X37402Y155512D02*
X37795Y155118D01*
X53150Y166339D02*
X64961D01*
X37697D02*
X53150D01*
X27559D02*
X33169D01*
X64961D02*
X79724Y181102D01*
X114173Y153248D02*
X126181Y165256D01*
X154543Y337583D02*
X156496Y335630D01*
X111221Y241142D02*
X156496D01*
X127953Y335630D02*
X134843Y342520D01*
X160004Y322697D02*
X160034Y322667D01*
X131905Y333993D02*
X135511Y337598D01*
X50787Y255118D02*
Y328346D01*
X43504Y213976D02*
Y221457D01*
Y213976D02*
X45866Y211614D01*
X37008Y339764D02*
X40945Y335827D01*
X60039Y263779D02*
X74803Y249016D01*
X60039Y263779D02*
Y284449D01*
X50000Y254331D02*
X50787Y255118D01*
X15720Y233268D02*
X67224D01*
X74508D02*
X74803Y233563D01*
X12610Y236378D02*
X15720Y233268D01*
X11811Y176023D02*
X17874D01*
X7874Y75787D02*
X13780D01*
X11811Y236378D02*
X12610D01*
X11811Y186023D02*
X46260D01*
X127854Y165256D02*
X135531Y172933D01*
Y181299D01*
X126181Y165256D02*
X127854D01*
X87598Y219488D02*
X91535Y223425D01*
X68661Y209724D02*
X75709D01*
X79724Y205709D01*
X46260Y186023D02*
X59961Y199724D01*
X87598Y189722D02*
Y219488D01*
X79724Y181102D02*
Y205709D01*
X87598Y189722D02*
X89328Y187992D01*
X59961Y199724D02*
X68661D01*
X92520Y289131D02*
Y349410D01*
X110433Y249606D02*
Y259154D01*
X98047Y271539D02*
X110433Y259154D01*
X65354Y343701D02*
X79134Y329921D01*
X87106Y249016D02*
X92618Y243504D01*
X79134Y268504D02*
X103108Y244530D01*
X74803Y249016D02*
X87106D01*
X74803Y233563D02*
Y249016D01*
X120866Y459055D02*
X135039Y473228D01*
X104000Y457150D02*
X105905Y459055D01*
X104000Y442000D02*
Y457150D01*
X134000Y442000D02*
Y460772D01*
X101969Y478740D02*
X131102D01*
X83465Y460236D02*
X101969Y478740D01*
X105905Y459055D02*
X120866D01*
X83465Y442535D02*
Y460236D01*
X134000Y460772D02*
X140157Y466929D01*
X94000Y442000D02*
X94095Y441905D01*
X74000Y439500D02*
Y442000D01*
X94095Y426772D02*
Y441905D01*
X83465Y442535D02*
X84000Y442000D01*
X47989Y441929D02*
X53445D01*
X61024Y438976D02*
Y441634D01*
X60728Y441929D02*
X61024Y441634D01*
X46260Y440199D02*
X47989Y441929D01*
X25297Y515354D02*
X25888Y514764D01*
X39075D01*
X39370Y438189D02*
Y444095D01*
X133760Y512240D02*
X134000Y512000D01*
X114000Y426000D02*
Y442000D01*
X154000Y433843D02*
Y442000D01*
X144000Y429433D02*
Y442000D01*
X38189Y484646D02*
X50787Y497244D01*
Y512598D01*
X43602Y514764D02*
X48622D01*
X50787Y512598D01*
X124000Y512000D02*
Y534630D01*
X124016Y534646D02*
Y535827D01*
X124000Y534630D02*
X124016Y534646D01*
X133760Y512240D02*
Y536909D01*
X150358Y396000D02*
Y396358D01*
X149606Y408465D02*
X154528D01*
X141992Y392976D02*
X145669Y396654D01*
X141992Y400850D02*
X149606Y408465D01*
X129921Y409764D02*
X154000Y433843D01*
X145669Y396654D02*
X150063D01*
X150358Y396358D01*
X129921Y382874D02*
Y409764D01*
X71508Y437008D02*
X74000Y439500D01*
X87433Y363748D02*
X97835Y353346D01*
X44488Y357087D02*
X57874Y343701D01*
X61024Y438976D02*
X62992Y437008D01*
X71508D01*
X46260Y439961D02*
Y440199D01*
X41929Y435630D02*
X46260Y439961D01*
X39370Y438189D02*
X41929Y435630D01*
X39213Y432913D02*
X41929Y435630D01*
X25397Y432913D02*
X39213D01*
X140945Y364328D02*
Y368953D01*
X141992Y392976D02*
Y400850D01*
Y370000D02*
Y392976D01*
X140945Y368953D02*
X141992Y370000D01*
X143701Y429134D02*
X144000Y429433D01*
X114000Y413642D02*
Y426000D01*
X145685Y337583D02*
X154543D01*
X150591Y342520D02*
X151575Y341535D01*
X134843Y342520D02*
X150591D01*
X135511Y337598D02*
X145669D01*
X145685Y337583D01*
X96457Y353346D02*
X117126D01*
X92520Y349410D02*
X96457Y353346D01*
X126772Y362598D02*
X139215D01*
X116142Y369094D02*
X129921Y382874D01*
X116142Y354331D02*
Y369094D01*
Y354331D02*
X117126Y353346D01*
X139215Y362598D02*
X140945Y364328D01*
X117126Y353346D02*
X121808Y348664D01*
Y346218D02*
Y348664D01*
X120079Y344488D02*
X121808Y346218D01*
X115847Y344488D02*
X120079D01*
X57874Y343701D02*
X65354D01*
X78586Y363946D02*
X79807Y363913D01*
X80049D01*
X78586Y363946D02*
X78784Y363748D01*
X87433D01*
X44488Y357087D02*
Y362992D01*
X38976Y370079D02*
Y370472D01*
X37008Y368110D02*
X38976Y370079D01*
X37008Y339764D02*
Y368110D01*
X102362Y280512D02*
X107776D01*
X127953Y324803D02*
Y335630D01*
X135630Y328287D02*
X135925Y327992D01*
X133635Y328287D02*
X135630D01*
X131905Y330017D02*
X133635Y328287D01*
X127953Y324803D02*
X129764Y322992D01*
X135925D01*
X135846Y317913D02*
X135925Y317992D01*
X115453Y333661D02*
X120079D01*
X123031Y330709D01*
X131905Y330017D02*
Y333993D01*
X43307Y335827D02*
X50787Y328346D01*
X103150Y331496D02*
X105315Y333661D01*
X40945Y335827D02*
X43307D01*
X105315Y333661D02*
X110925D01*
X125039Y307087D02*
X125945Y307992D01*
X129446Y303150D02*
X135768D01*
X123425Y303009D02*
Y307087D01*
X135768Y303150D02*
X135925Y302992D01*
X127717Y301420D02*
X129446Y303150D01*
X123425Y307087D02*
X125039D01*
X127717Y297992D02*
Y301420D01*
Y297992D02*
X135925D01*
X125945Y307992D02*
X135925D01*
X103150Y322047D02*
X105315Y319882D01*
X113189D01*
X113189Y319882D01*
X125000D01*
X98819Y316929D02*
Y323074D01*
X125000Y319882D02*
X126969Y317913D01*
X103150Y322047D02*
Y331496D01*
X100549Y324803D02*
X102362D01*
X98819Y323074D02*
X100549Y324803D01*
X157677Y322697D02*
X160004D01*
X157382Y322992D02*
X157677Y322697D01*
X126969Y317913D02*
X135846D01*
X123031Y293307D02*
X127717Y297992D01*
X114469Y293307D02*
X123031D01*
X106988Y301279D02*
X121695D01*
X115847Y307087D02*
X123425D01*
X121695Y301279D02*
X123425Y303009D01*
X98047Y271539D02*
Y274311D01*
X79134Y268504D02*
Y329921D01*
X105610Y299902D02*
X106988Y301279D01*
X105020Y299902D02*
X105610D01*
X92520Y289131D02*
X94249Y287402D01*
X99410D01*
X103347Y293307D02*
X109941D01*
X99410Y289370D02*
X103347Y293307D01*
X99410Y287402D02*
Y289370D01*
Y283465D02*
Y287402D01*
Y283465D02*
X102362Y280512D01*
X107776D02*
X107776Y280512D01*
X75945Y49055D02*
X104823Y20177D01*
X54879Y89328D02*
X56496Y90945D01*
X51772Y112205D02*
X52362Y111614D01*
Y101476D02*
Y111614D01*
X57185Y102734D02*
X58915Y101004D01*
X44783Y112205D02*
X51772D01*
X52362Y101476D02*
X57972Y95866D01*
X64331D01*
X44783Y93504D02*
X53150D01*
X54879Y91774D01*
Y89328D02*
Y91774D01*
X56496Y90945D02*
X64409D01*
X58915Y101004D02*
X64468D01*
X64331Y95866D02*
X64468Y96004D01*
X58915Y122244D02*
X64272D01*
X57185Y120514D02*
X58915Y122244D01*
X57185Y102734D02*
Y120514D01*
X64409Y90945D02*
X64468Y91004D01*
X13780Y75787D02*
X14943Y76951D01*
X13780Y85787D02*
Y104331D01*
X75945Y49055D02*
Y61772D01*
X53445Y38189D02*
Y67716D01*
Y38189D02*
X62992Y28642D01*
X77362D01*
X111713Y41339D02*
X117463D01*
X126083Y38287D02*
X130807Y33563D01*
X117463Y41339D02*
X119193Y43068D01*
X126083Y38287D02*
Y65650D01*
X138779Y47244D02*
Y62992D01*
X119193Y43068D02*
Y68799D01*
X13780Y104331D02*
X23622Y114173D01*
Y125984D01*
Y130905D01*
X13780Y134016D02*
X13937Y133858D01*
X20669D01*
X23622Y130905D01*
Y125984D02*
X28782D01*
X31836Y122930D01*
Y122930D02*
Y122930D01*
Y122930D02*
X33914Y120852D01*
X13780Y114173D02*
Y124016D01*
X33914Y112247D02*
Y120852D01*
X31496Y85630D02*
X51181D01*
X41043Y74803D02*
X46358D01*
X53445Y67716D01*
X14943Y76951D02*
X20848D01*
X30196Y74803D02*
X33760D01*
X28559Y82693D02*
X31496Y85630D01*
X26575Y93504D02*
X33957D01*
X24606Y91535D02*
X26575Y93504D01*
X24606Y80709D02*
Y91535D01*
X28559Y79071D02*
Y82693D01*
X28467Y78979D02*
X28559Y79071D01*
X20848Y76951D02*
X24606Y80709D01*
X28467Y76533D02*
Y78979D01*
Y76533D02*
X30196Y74803D01*
X64961Y143602D02*
X91577D01*
X52362Y131004D02*
X64961Y143602D01*
X52362Y111614D02*
Y131004D01*
X64272Y122244D02*
X65551Y120965D01*
X51181Y85630D02*
X54879Y89328D01*
X115157Y233185D02*
Y234252D01*
X102362Y241339D02*
X103108Y242084D01*
X109252Y239173D02*
X111221Y241142D01*
X97146Y232480D02*
Y233268D01*
X103108Y242084D02*
Y244530D01*
X145276Y220374D02*
X145669Y219980D01*
X155512Y191929D02*
Y223425D01*
X151575Y187992D02*
X155512Y191929D01*
X144783Y209154D02*
X145669D01*
X150787Y228150D02*
X155512Y223425D01*
X135630Y220374D02*
X135925Y220079D01*
X130020Y228150D02*
X150787D01*
X130118Y220374D02*
X135630D01*
X145276D01*
X135925Y214370D02*
Y220079D01*
X133268Y211713D02*
X135925Y214370D01*
X126969Y211713D02*
X133268D01*
X98661Y199724D02*
X107522D01*
X109252Y201454D01*
X113428Y202601D02*
X115157Y204331D01*
X113428Y200549D02*
Y202601D01*
X109252Y201454D02*
X112522D01*
X113428Y200549D01*
X115157Y204331D02*
X140846D01*
X113428Y200549D02*
X118659Y195318D01*
X115157Y233185D02*
X119587Y228756D01*
X91535Y223425D02*
X102362D01*
X97146Y232480D02*
X97441Y232185D01*
X102362Y230455D02*
Y241339D01*
X97441Y232185D02*
X100633D01*
X102362Y230455D01*
Y223425D02*
Y230455D01*
X89328Y187992D02*
X151575D01*
X122891Y195318D02*
X122933Y195276D01*
X118659Y195318D02*
X122891D01*
X112106Y212795D02*
X119464Y220153D01*
X102362Y214525D02*
X104092Y212795D01*
X112106D01*
X102362Y214525D02*
Y223425D01*
X106988Y219587D02*
X109252Y221850D01*
X119587Y228740D02*
X119882Y228445D01*
X119587Y228740D02*
Y228756D01*
X143898Y208268D02*
X144783Y209154D01*
X143898Y207382D02*
Y208268D01*
X140846Y204331D02*
X143898Y207382D01*
X86528Y59638D02*
Y65957D01*
X85945Y59055D02*
X86528Y59638D01*
X151969Y133858D02*
Y134646D01*
X138779Y62992D02*
X143701Y67913D01*
X160335Y151828D02*
Y154314D01*
X137402Y119291D02*
X151969Y133858D01*
X151575Y89764D02*
X152362Y90551D01*
X151575Y75787D02*
Y89764D01*
X143701Y67913D02*
X151575Y75787D01*
X143701Y67913D02*
X150591Y61024D01*
X146358Y143012D02*
Y147146D01*
X146161Y147343D02*
X146358Y147146D01*
X82874Y149114D02*
X87008Y153248D01*
X96260Y129724D02*
X100492D01*
X93307Y132677D02*
X96260Y129724D01*
X100492D02*
X100689Y129921D01*
X91577Y143602D02*
X93307Y141873D01*
Y132677D02*
Y141873D01*
X87303Y123819D02*
Y129921D01*
Y123819D02*
X90748Y120374D01*
X86122Y112303D02*
X89567Y115748D01*
X86122Y101398D02*
Y112303D01*
X99606Y79035D02*
Y96260D01*
X71358Y129035D02*
X79724D01*
X80020Y129331D01*
X71358Y97047D02*
Y129035D01*
Y97047D02*
X77402Y91004D01*
X80020Y129331D02*
Y129921D01*
X71358Y129035D02*
Y136319D01*
X92165Y96004D02*
X93307Y94862D01*
X90551Y108661D02*
X93068Y106144D01*
X90551Y108661D02*
Y109449D01*
X85728Y101004D02*
X86122Y101398D01*
X92165Y96004D02*
X94784Y98622D01*
X85138Y96004D02*
X92165D01*
X85138Y101004D02*
X85728D01*
X90158Y109843D02*
X90551Y109449D01*
X126083Y65650D02*
X126673Y66240D01*
X119193Y68799D02*
X132283Y81890D01*
X96850Y108268D02*
X101083D01*
X99606Y96260D02*
X104035Y100689D01*
X94784Y106201D02*
X96850Y108268D01*
X94727Y106144D02*
X94784Y106201D01*
X93068Y106144D02*
X94727D01*
X94784Y98622D02*
Y106201D01*
X77402Y91004D02*
X85138D01*
X86528Y65957D02*
X99606Y79035D01*
X93307Y79134D02*
Y94862D01*
X75945Y61772D02*
X93307Y79134D01*
X87008Y153248D02*
X114173D01*
X137402Y74016D02*
X143504Y67913D01*
X132283Y81890D02*
Y128937D01*
X146358Y143012D01*
X137402Y74016D02*
Y119291D01*
X143504Y67913D02*
X143701D01*
X104035Y100689D02*
X118349D01*
Y115748D02*
X120079Y114018D01*
Y102419D02*
Y114018D01*
X118349Y100689D02*
X120079Y102419D01*
X107972Y129921D02*
X112837D01*
X114567Y128192D01*
Y122104D02*
Y128192D01*
X112837Y120374D02*
X114567Y122104D01*
X90748Y120374D02*
X112837D01*
X89567Y115748D02*
X118349D01*
X494035Y620925D02*
X502362Y612598D01*
X508366D01*
X518743D02*
X520472Y610869D01*
X512894Y612598D02*
X518743D01*
X520472Y608661D02*
X527000Y602134D01*
X520472Y608661D02*
Y610869D01*
X483787Y590973D02*
X496972D01*
X527000Y591000D02*
Y602134D01*
X533408Y581000D02*
X535138Y582730D01*
Y602165D01*
X527000Y581000D02*
X533408D01*
X496972Y590973D02*
X497000Y591000D01*
X277461Y609646D02*
X279190Y611375D01*
X277461Y607008D02*
X277480Y606988D01*
X277461Y607008D02*
Y609646D01*
X401575Y639215D02*
X403304Y640945D01*
X433071D01*
X401575Y637008D02*
Y639215D01*
X400787Y636221D02*
X401575Y637008D01*
X381496Y625591D02*
Y634491D01*
X383226Y636221D02*
X400787D01*
Y625295D02*
Y636221D01*
X381496Y634491D02*
X383226Y636221D01*
X421654Y625295D02*
Y630709D01*
X416142Y636221D02*
X421654Y630709D01*
X400787Y636221D02*
X416142D01*
X236221Y155512D02*
X239173Y152559D01*
X223622Y151575D02*
X227559Y155512D01*
X250295Y165354D02*
X269685D01*
X238579Y112598D02*
X239094Y112083D01*
X287795Y160784D01*
X239173Y145669D02*
Y152559D01*
Y145669D02*
X242126Y142717D01*
X254921Y143012D02*
X258014D01*
X254626Y142717D02*
X254921Y143012D01*
X242126Y142717D02*
X247342D01*
X267471Y186663D02*
X279232Y174902D01*
X287795Y160784D02*
Y200787D01*
X269685Y165354D02*
X271654Y163386D01*
X223760Y228442D02*
Y228758D01*
X223425Y211614D02*
X229035D01*
X243110Y213344D02*
Y216774D01*
X241381Y218504D02*
X243110Y216774D01*
X241381Y211614D02*
X243110Y213344D01*
X223760Y228442D02*
X225489Y226712D01*
X242776D01*
X226378Y218504D02*
X241381D01*
X233563Y211614D02*
X241381D01*
X223425Y157241D02*
X225155Y155512D01*
X227559D01*
X223425Y166043D02*
X223721Y166339D01*
X227559Y155512D02*
X236221D01*
X223425Y157241D02*
Y166043D01*
X242776Y226712D02*
X249016Y220472D01*
X260512Y221457D02*
X269685D01*
X244467Y200176D02*
X249016Y204724D01*
X266243Y231789D02*
X270180D01*
X238681Y235236D02*
X262795D01*
X249016Y204724D02*
Y220472D01*
X270180Y231789D02*
X270512Y231457D01*
X269685Y221457D02*
X276575Y228346D01*
X257087Y201575D02*
X262992Y207480D01*
X287795Y200787D02*
X316535Y229528D01*
X257087Y192618D02*
Y201575D01*
Y192618D02*
X263041Y186663D01*
X284842Y207480D02*
X312894Y235531D01*
X285672Y228346D02*
X298467Y241142D01*
X276575Y228346D02*
X285672D01*
X262992Y207480D02*
X284842D01*
X262795Y235236D02*
X266243Y231789D01*
X263041Y186663D02*
X267471D01*
X258014Y143012D02*
X259744Y144741D01*
X279232Y158858D02*
Y174902D01*
X268898Y148524D02*
X279232Y158858D01*
X259744Y144741D02*
Y146794D01*
X261474Y148524D01*
X268898D01*
X292323Y103347D02*
X298228D01*
X239094Y90551D02*
Y112083D01*
X230709Y112598D02*
X238579D01*
X226772Y108661D02*
X230709Y112598D01*
X226772Y70866D02*
Y108661D01*
X289764Y78150D02*
Y100787D01*
X292323Y103347D01*
X565354Y157579D02*
X572581D01*
X578740Y239173D02*
X594488D01*
X548664Y236221D02*
X550394Y237950D01*
X526054D02*
X527784Y236221D01*
X548664D01*
X575787Y242126D02*
X578740Y239173D01*
X575787Y242126D02*
Y247605D01*
X574156Y262303D02*
X576181Y260278D01*
X605315Y262402D02*
X622441Y245276D01*
X575886Y247703D02*
X576181D01*
X575787Y247605D02*
X575886Y247703D01*
X578304Y262402D02*
X605315D01*
X576181Y260278D02*
X578304Y262402D01*
X576181Y252231D02*
Y260278D01*
X578895Y134843D02*
X609252D01*
X575600Y148655D02*
Y154560D01*
X572581Y157579D02*
X575600Y154560D01*
X577929Y156890D01*
X618504Y156693D01*
X530709Y144882D02*
X535827Y139764D01*
X537024Y155413D02*
Y155807D01*
X536925Y155905D02*
X537024Y155807D01*
X536531Y155905D02*
X536925D01*
X534169Y158268D02*
X536531Y155905D01*
X575698Y148556D02*
X576181D01*
X575600Y148655D02*
X575698Y148556D01*
X576181Y137557D02*
X578895Y134843D01*
X576181Y137557D02*
Y144029D01*
X470472Y134843D02*
X578895D01*
X475098Y253445D02*
X476772Y255118D01*
X502592Y254068D02*
X505895Y257371D01*
X493028Y254068D02*
X502592D01*
X476772Y255118D02*
X487450D01*
X468996Y253445D02*
X475098D01*
X487450Y255118D02*
X487516Y255052D01*
X562500Y262303D02*
X574156D01*
X561024Y260827D02*
X562500Y262303D01*
X508661Y245669D02*
X511811Y242520D01*
X508661Y245669D02*
Y254605D01*
X553937Y146161D02*
X565354Y157579D01*
X539583Y146161D02*
X553937D01*
X554331Y145768D01*
Y141493D02*
Y145768D01*
X552601Y139764D02*
X554331Y141493D01*
X535827Y139764D02*
X552601D01*
X512205Y158268D02*
X516653Y153819D01*
Y144877D02*
Y153819D01*
X526659Y144882D02*
X530709D01*
X512205Y158268D02*
X534169D01*
X492520D02*
X512205D01*
X526653Y144877D02*
X526659Y144882D01*
X474311Y158661D02*
X487894D01*
X464764Y149114D02*
X474311Y158661D01*
X469488Y135827D02*
X470472Y134843D01*
X505895Y257371D02*
X508661Y254605D01*
X511811Y242520D02*
X515866D01*
X525866D02*
X526054Y242331D01*
X548316Y248119D02*
X550394Y246042D01*
Y237950D02*
Y246042D01*
X505895Y257371D02*
X534465D01*
X526054Y237950D02*
Y242331D01*
X346347Y386921D02*
X362969Y403543D01*
X363189Y375000D02*
X363524Y375335D01*
X364685Y367165D02*
X386850D01*
X363524Y375335D02*
X378465D01*
X304000Y535672D02*
X305730Y537402D01*
X325984D01*
X309079Y419315D02*
Y427402D01*
X301181Y403543D02*
X341119D01*
X288386Y417323D02*
X307087D01*
X300787Y403150D02*
X301181Y403543D01*
X307087Y417323D02*
X309079Y419315D01*
X341119Y403543D02*
X346347Y398315D01*
X362969Y403543D02*
X389764D01*
X325984Y537402D02*
X355315D01*
X371063Y521653D01*
X346347Y386921D02*
Y398315D01*
X371063Y505866D02*
Y521653D01*
X378465Y379862D02*
Y386066D01*
X387795Y387795D02*
X389764Y385827D01*
X380194Y387795D02*
X387795D01*
X378465Y386066D02*
X380194Y387795D01*
X386850Y367165D02*
X389764Y370079D01*
Y385827D01*
X360236Y256890D02*
Y296766D01*
X366535Y244980D02*
Y304921D01*
X372835Y243307D02*
Y317717D01*
X388583Y244094D02*
Y332677D01*
X380315Y217913D02*
Y337992D01*
X357087Y235531D02*
X366535Y244980D01*
X344488Y241142D02*
X360236Y256890D01*
X388583Y244094D02*
X410630Y222047D01*
Y155905D02*
Y222047D01*
X396850Y142126D02*
X410630Y155905D01*
X303150Y302165D02*
X354837D01*
X285039Y323622D02*
X366929D01*
X352953Y318504D02*
X366535Y304921D01*
X354837Y302165D02*
X360236Y296766D01*
X345472Y258858D02*
Y275591D01*
X304134Y265748D02*
X335630D01*
X345472Y275591D02*
X345630Y275748D01*
X291339Y290354D02*
X303150Y302165D01*
X291339Y281257D02*
Y290354D01*
X289609Y279528D02*
X291339Y281257D01*
X286713Y256890D02*
X343504D01*
X345472Y258858D01*
X249213Y485433D02*
X256693D01*
X263386Y469685D02*
Y478740D01*
X245669Y491732D02*
X276772D01*
X256693Y485433D02*
X263386Y478740D01*
Y469685D02*
X266535D01*
X253543Y360236D02*
Y374803D01*
X258268Y379528D01*
X262992D01*
X234000Y442000D02*
Y470221D01*
X281735Y423974D02*
Y442168D01*
X273244Y335417D02*
Y369276D01*
X281735Y442168D02*
X304000Y464433D01*
X281735Y423974D02*
X288386Y417323D01*
X266535Y469685D02*
X294094Y497244D01*
X262992Y379528D02*
X273244Y369276D01*
X224000Y531480D02*
X224016Y531496D01*
X224000Y512000D02*
Y531480D01*
X273244Y335417D02*
X285039Y323622D01*
X288687Y330649D02*
X338822D01*
X261572Y318504D02*
X352953D01*
X265846Y309055D02*
X277559D01*
X281496Y305118D01*
X264961Y322457D02*
X265199Y322695D01*
Y326223D01*
X269291Y330315D01*
X259842Y320234D02*
Y364567D01*
X269291Y330315D02*
Y333858D01*
X251575Y319685D02*
Y323228D01*
Y319685D02*
X255512Y315748D01*
X259842Y320234D02*
X261572Y318504D01*
X265846Y309055D02*
X265846Y309055D01*
X234000Y470221D02*
X249213Y485433D01*
X373031Y65945D02*
X386811Y79724D01*
X388541Y99410D02*
X394924D01*
X396654Y97680D01*
X386811D02*
X388541Y99410D01*
X396654Y89862D02*
Y97680D01*
X386811Y79724D02*
Y97680D01*
X396654Y85335D02*
X396654Y85335D01*
X396654Y73819D02*
Y85335D01*
X312894Y235531D02*
X357087D01*
X359055Y229528D02*
X372835Y243307D01*
X316535Y229528D02*
X359055D01*
X320627Y217520D02*
X330709D01*
X298467Y241142D02*
X344488D01*
X318898Y215790D02*
X320627Y217520D01*
X328346Y130315D02*
X340158Y142126D01*
X318898Y119685D02*
X328346Y129134D01*
Y130315D01*
X331201Y70374D02*
X336614Y75787D01*
X318898Y75590D02*
X324114Y70374D01*
X331201D01*
X318898Y75590D02*
Y119685D01*
X335630Y65945D02*
X373031D01*
X380906Y218504D02*
X387050D01*
X388779Y216774D01*
X374255Y199455D02*
X375984Y197725D01*
X373031Y206080D02*
Y210630D01*
X371302Y204350D02*
X373031Y206080D01*
X363786Y199455D02*
X374255D01*
X363681Y204350D02*
X371302D01*
X389764Y174958D02*
Y184350D01*
X377714Y173228D02*
X388034D01*
X375984Y174958D02*
Y197725D01*
Y174958D02*
X377714Y173228D01*
X388779Y210335D02*
X389764Y209350D01*
X388034Y173228D02*
X389764Y174958D01*
X388779Y210335D02*
Y216774D01*
X330709Y217520D02*
X333661Y214567D01*
X318898Y206398D02*
Y215790D01*
X332677Y187247D02*
X334781Y189350D01*
X333661Y199803D02*
Y214567D01*
X332677Y180118D02*
Y187247D01*
X325787Y173228D02*
X332677Y180118D01*
X320627Y173228D02*
X325787D01*
X318898Y174958D02*
X320627Y173228D01*
X318898Y174958D02*
Y181398D01*
X333661Y199803D02*
X334114Y199350D01*
X363681D02*
X363786Y199455D01*
X334781Y189350D02*
X343012D01*
X334114Y199350D02*
X343012D01*
X340158Y142126D02*
X396850D01*
X298228Y103347D02*
X303150Y98425D01*
X331201Y70374D02*
X335630Y65945D01*
X336614Y75787D02*
Y90394D01*
X336457Y90551D02*
X336614Y90394D01*
X303150Y90847D02*
Y98425D01*
X483760Y590945D02*
X483787Y590973D01*
X449185Y624830D02*
X450549Y623467D01*
X443937Y585669D02*
X444488Y586221D01*
X462205Y587950D02*
Y609449D01*
X453150Y608661D02*
X458252Y603559D01*
X446732Y600669D02*
X447244Y601181D01*
X432677Y600669D02*
X446732D01*
X458252Y597399D02*
Y603559D01*
X456522Y595669D02*
X458252Y597399D01*
X432677Y595669D02*
X456522D01*
X460475Y586221D02*
X462205Y587950D01*
X449606Y612992D02*
X458661D01*
X462205Y609449D01*
X444488Y586221D02*
X460475D01*
X449606Y612992D02*
Y620079D01*
X450549Y621021D02*
Y623467D01*
X449606Y620079D02*
X450549Y621021D01*
X451447Y580640D02*
X451476Y580610D01*
X485492Y620925D02*
X494035D01*
X432677Y580669D02*
X432707Y580640D01*
X451447D01*
X432677Y585669D02*
X443937D01*
X412457Y496457D02*
X497000Y581000D01*
X401409Y613945D02*
Y617717D01*
Y613945D02*
X406693Y608661D01*
X417323D02*
X453150D01*
X401114Y618012D02*
X401409Y617717D01*
X400787Y618012D02*
X401114D01*
X424466Y612992D02*
X449606D01*
X422736Y614722D02*
Y617717D01*
X422441Y618012D02*
X422736Y617717D01*
X421654Y618012D02*
X422441D01*
X415748Y615354D02*
X417323Y613779D01*
X422736Y614722D02*
X424466Y612992D01*
X408268Y352362D02*
Y403937D01*
X410236Y496457D02*
X412457D01*
X404788Y425527D02*
X416100Y414215D01*
Y411769D02*
Y414215D01*
X408268Y403937D02*
X416100Y411769D01*
X402559Y360236D02*
Y390748D01*
X471949Y359350D02*
X472685Y360087D01*
X487516D01*
X329134Y603150D02*
Y611811D01*
Y603150D02*
X332283Y600000D01*
X308113Y611375D02*
X308268Y611221D01*
X389764Y403543D02*
X402559Y390748D01*
X375000Y350155D02*
Y352185D01*
X361221Y350394D02*
X362895Y348719D01*
X373565D02*
X375000Y350155D01*
X399787Y425527D02*
X404788D01*
X366929Y323622D02*
X372835Y317717D01*
X338822Y330649D02*
X340551Y332379D01*
X350394Y339567D02*
X361221Y350394D01*
X340551Y332379D02*
Y339567D01*
X327284Y341297D02*
Y353780D01*
X329013Y339567D02*
X340551D01*
X327284Y341297D02*
X329013Y339567D01*
X340551D02*
X350394D01*
X340634Y601730D02*
Y602221D01*
X338904Y600000D02*
X340634Y601730D01*
X340945Y602532D02*
Y610728D01*
X340634Y602221D02*
X340945Y602532D01*
X381496Y625591D02*
X381791Y625295D01*
X381890D01*
X417323Y608661D02*
Y613779D01*
X406693Y608661D02*
X417323D01*
X362895Y348719D02*
X373565D01*
X364685Y362047D02*
X365059D01*
X376398Y355650D02*
X378465D01*
X376299Y355551D02*
X376398Y355650D01*
X376299Y353484D02*
Y355551D01*
X380315Y337992D02*
X402559Y360236D01*
X365158Y354331D02*
Y361949D01*
X361221Y350394D02*
X365158Y354331D01*
X388583Y332677D02*
X408268Y352362D01*
X365059Y362047D02*
X365158Y361949D01*
X375000Y352185D02*
X376299Y353484D01*
X223186Y235236D02*
X227854D01*
X549114Y268209D02*
X555217D01*
X547638Y269685D02*
X549114Y268209D01*
X581967Y338463D02*
X608387D01*
X525079Y343701D02*
X547244D01*
X576181Y344249D02*
X581967Y338463D01*
X608387D02*
X614173Y332677D01*
X549213Y345669D02*
Y350886D01*
X576181Y344249D02*
Y351378D01*
X547244Y343701D02*
X549213Y345669D01*
X508310Y346808D02*
X511417Y343701D01*
X508310Y346808D02*
Y349255D01*
X508661Y349606D01*
Y350394D01*
X602274Y375984D02*
X602362D01*
X576181Y365846D02*
X592136D01*
X602274Y375984D01*
X547244Y352854D02*
X549213Y350886D01*
X560335Y365945D02*
X574451D01*
X540945Y375197D02*
X556545D01*
X556938Y374803D01*
X574451Y365945D02*
X575365Y365031D01*
X576181Y355906D02*
Y365846D01*
X515079Y343701D02*
X515079Y343701D01*
X511417Y343701D02*
X515079D01*
X522488Y356740D02*
Y359102D01*
X519291Y353543D02*
X522488Y356740D01*
X526130Y362744D02*
X534465D01*
X522488Y359102D02*
X526130Y362744D01*
X537024Y353098D02*
Y353492D01*
Y353098D02*
X537122Y353000D01*
X537516D01*
X511811Y353543D02*
X519291D01*
X493028Y359102D02*
X522488D01*
X508661Y350394D02*
X511811Y353543D01*
X537661Y352854D02*
X547244D01*
X537516Y353000D02*
X537661Y352854D01*
X547244D02*
X560335Y365945D01*
X275590Y258619D02*
Y266732D01*
X281496Y279528D02*
X289609D01*
X278543Y276575D02*
X281496Y279528D01*
X277028Y275059D02*
X278543Y276575D01*
X272264Y270059D02*
X275590Y266732D01*
X266240Y275059D02*
X277028D01*
X266240Y270059D02*
X272264D01*
X277320Y256890D02*
X282185D01*
X275590Y258619D02*
X277320Y256890D01*
X281496Y279528D02*
Y291339D01*
Y300394D02*
Y305118D01*
Y291339D02*
Y300394D01*
X275590D02*
X281496D01*
X271260Y296063D02*
X275590Y300394D01*
X255512Y300000D02*
Y315748D01*
X259449Y296063D02*
X271260D01*
X255512Y300000D02*
X259449Y296063D01*
X156496Y241142D02*
X162402Y235236D01*
X157382Y327992D02*
X163386D01*
X135039Y473228D02*
X185827D01*
X130807Y33563D02*
X401870D01*
X218504Y200176D02*
X244467D01*
X221260Y233465D02*
Y289370D01*
X216142Y228740D02*
Y281890D01*
X220866Y466929D02*
X245669Y491732D01*
X249766Y4921D02*
X251496Y6651D01*
X208957Y20177D02*
X224213Y4921D01*
X251496Y6651D02*
Y13780D01*
X224213Y4921D02*
X249766D01*
X104823Y20177D02*
X208957D01*
X203445Y164469D02*
Y165354D01*
X203346Y164370D02*
X203445Y164469D01*
X162402Y235236D02*
X178937D01*
X197835Y157773D02*
Y162640D01*
X199564Y164370D01*
X197835Y162640D02*
Y174803D01*
X181102Y154314D02*
X182832Y156043D01*
X196105D02*
X197835Y157773D01*
X191437Y151043D02*
X200335D01*
X182832Y156043D02*
X196105D01*
X181102Y151043D02*
X191437D01*
X181102D02*
Y154314D01*
X220234Y191929D02*
X228642D01*
X221457Y233506D02*
X223186Y235236D01*
X218504Y206693D02*
X223425Y211614D01*
X216142Y228740D02*
X226378Y218504D01*
X221457Y231060D02*
Y233268D01*
Y233506D01*
Y231060D02*
X223760Y228758D01*
X218504Y193659D02*
X220234Y191929D01*
X218504Y200176D02*
Y206693D01*
Y193659D02*
Y200176D01*
X160335Y154314D02*
X162064Y156043D01*
X170768Y151043D02*
X181102D01*
X162064Y156043D02*
X170768D01*
X197835Y174803D02*
X200689Y177657D01*
X199564Y164370D02*
X203346D01*
X200689Y177657D02*
X203150D01*
X200335Y151043D02*
X201200Y150179D01*
X211811Y153937D02*
Y155512D01*
X214173Y151575D02*
X223622D01*
X211811Y153937D02*
X214173Y151575D01*
X201200Y150179D02*
X206693Y144685D01*
X160335Y151828D02*
X162064Y150098D01*
X165512Y151043D02*
X169783D01*
X164567Y150098D02*
X165512Y151043D01*
X162064Y150098D02*
X164567D01*
X174000Y427937D02*
Y442000D01*
X185827Y473228D02*
X199213Y486614D01*
X140157Y466929D02*
X220866D01*
X199213Y486614D02*
X222441D01*
X223622Y485433D01*
X154528Y408465D02*
X174000Y427937D01*
X577264Y44980D02*
Y51223D01*
X576181Y35039D02*
Y40354D01*
X570866Y52953D02*
X575534D01*
X577264Y51223D02*
X579486Y53445D01*
X575534Y52953D02*
X577264Y51223D01*
X577165Y44882D02*
X577264Y44980D01*
X576181Y44882D02*
X577165D01*
X576181Y35039D02*
X580709Y30512D01*
X606299D01*
X606988Y53445D02*
X616142Y62598D01*
X579486Y53445D02*
X606988D01*
X537024Y33055D02*
X538976Y31102D01*
X549016D02*
X557185Y39272D01*
X538976Y31102D02*
X549016D01*
X532677Y52756D02*
X534465Y50968D01*
Y46626D02*
Y50968D01*
X537024Y33055D02*
Y37374D01*
X386811Y63976D02*
X396654Y73819D01*
X325787Y64961D02*
X331201Y70374D01*
X303150Y57087D02*
Y86319D01*
X272638Y61024D02*
X289764Y78150D01*
X616142Y62598D02*
X619291D01*
X386811Y47244D02*
Y63976D01*
X401870Y33563D02*
X426673Y58366D01*
X493028Y44000D02*
X504728D01*
X474504Y44984D02*
X487516D01*
X325787Y47244D02*
Y64961D01*
X461122Y58366D02*
X474504Y44984D01*
X513484Y52756D02*
X532677D01*
X504728Y44000D02*
X513484Y52756D01*
X516653Y24803D02*
Y26505D01*
X516199Y26960D02*
X516653Y26505D01*
X511024Y28346D02*
X512410Y26960D01*
X516199D01*
X238189Y61024D02*
X272638D01*
X426673Y58366D02*
X461122D01*
X293307Y47244D02*
X303150Y57087D01*
X557185Y39272D02*
X570866Y52953D01*
X206693Y291339D02*
X216142Y281890D01*
X212598Y298031D02*
X221260Y289370D01*
X162480Y322667D02*
X164210Y324396D01*
X160034Y322667D02*
X162480D01*
X190945Y343504D02*
Y354331D01*
X201575Y328346D02*
X209842D01*
X190945Y343504D02*
X204035D01*
X166339D02*
X172933D01*
X164210Y341375D02*
X166339Y343504D01*
X164210Y327168D02*
Y341375D01*
X163386Y327992D02*
X164210Y327168D01*
X177461Y343504D02*
X190945D01*
X164210Y324396D02*
Y327168D01*
X214961Y317717D02*
Y323228D01*
X201181Y327953D02*
X201575Y328346D01*
X209842D02*
X214961Y323228D01*
X212598Y315354D02*
X214961Y317717D01*
X212598Y298031D02*
Y315354D01*
X199803Y47244D02*
X208661Y56102D01*
X194488Y74410D02*
Y95079D01*
X208661Y56102D02*
Y85335D01*
X181102Y61024D02*
X194488Y74410D01*
X198819Y99410D02*
X206932D01*
X208661Y97680D01*
X194488Y95079D02*
X198819Y99410D01*
X208661Y89862D02*
Y97680D01*
X150591Y61024D02*
X181102D01*
X215453Y132087D02*
Y140298D01*
X218406Y142717D02*
X223721D01*
X215453Y140298D02*
X217182Y142028D01*
X217717D02*
X218406Y142717D01*
X217182Y142028D02*
X217717D01*
X213189Y129823D02*
X215453Y132087D01*
X236614Y61024D02*
X238189D01*
X232283Y55118D02*
X237402Y60236D01*
X232283Y47244D02*
Y55118D01*
X237402Y60236D02*
X238189Y61024D01*
X226772Y70866D02*
X236614Y61024D01*
D89*
X645669Y80079D02*
X659842D01*
X645669Y175453D02*
X660630D01*
X203543Y649606D02*
X215551D01*
X167953D02*
X178740D01*
X642430Y485129D02*
X645669Y481890D01*
Y472047D02*
Y481890D01*
X632657Y164980D02*
X645669D01*
X633937Y69606D02*
X645669D01*
X645394Y260630D02*
X645669Y260354D01*
X629921Y260630D02*
X645394D01*
X629528Y355906D02*
X645492D01*
X645669Y355728D01*
X655354Y461575D02*
X655905Y461024D01*
X645669Y461575D02*
X655354D01*
X645669Y366201D02*
X660630D01*
X645669Y270827D02*
X660630D01*
D90*
X570079Y611811D02*
X585665Y627398D01*
X546299Y611811D02*
X570079D01*
X590319Y627398D02*
X590551Y627165D01*
X585665Y627398D02*
X590319D01*
X624016Y627165D02*
X624409Y627559D01*
Y640945D01*
X618110Y647244D02*
X624409Y640945D01*
X609055Y647244D02*
X618110D01*
X601378Y639567D02*
X609055Y647244D01*
X607776Y602756D02*
Y607579D01*
Y602690D02*
Y602756D01*
X187992Y606988D02*
Y616142D01*
X398819Y403543D02*
X404724Y409449D01*
X601378Y613976D02*
X607776Y607579D01*
X327953Y640945D02*
X340945Y627953D01*
X327953Y640945D02*
Y649559D01*
X126870Y251181D02*
X129528Y248524D01*
X126870Y251181D02*
Y276378D01*
X16732Y221457D02*
X43504D01*
X77756D01*
X11811Y226378D02*
X16732Y221457D01*
X82677Y230961D02*
X84983Y233268D01*
X89862D01*
X82677Y226378D02*
Y230961D01*
X77756Y221457D02*
X82677Y226378D01*
X16086Y442913D02*
X25397D01*
X13780Y440607D02*
X16086Y442913D01*
X25397Y472913D02*
X34921D01*
X25397Y462913D02*
X35748D01*
X104000Y512000D02*
Y526000D01*
X124000Y426000D02*
Y442000D01*
X39527Y452913D02*
X74000Y487386D01*
X25397Y452913D02*
X39527D01*
X35748Y462913D02*
X63976Y491142D01*
X34921Y472913D02*
X58071Y496063D01*
X74000Y487386D02*
Y512000D01*
X63976Y491142D02*
Y518701D01*
X58071Y496063D02*
Y528543D01*
X21654Y562008D02*
X24764Y565118D01*
X36417D01*
X21654Y544291D02*
Y562008D01*
Y544291D02*
X25297Y540648D01*
Y527953D02*
Y540648D01*
X157480Y606988D02*
Y614173D01*
Y593504D02*
Y599705D01*
X144000Y512000D02*
Y526000D01*
X153937Y526378D02*
X154000Y526315D01*
Y512000D02*
Y526315D01*
X144000Y526000D02*
Y544358D01*
Y551642D02*
Y557772D01*
X114173Y551815D02*
Y561024D01*
X129921D02*
Y572835D01*
X118110Y571850D02*
Y591535D01*
X107283Y561024D02*
X118110Y571850D01*
X114173Y561024D02*
X129921D01*
X107283D02*
X114173D01*
X103469Y557209D02*
X107283Y561024D01*
X103469Y551839D02*
Y557209D01*
Y551839D02*
X103666Y551642D01*
X140748Y561024D02*
X144000Y557772D01*
X129921Y561024D02*
X140748D01*
X103666Y551642D02*
X104000D01*
X81693Y529528D02*
X84000Y527220D01*
X74803Y529528D02*
X81693D01*
X67913Y538386D02*
X91694D01*
X58071Y528543D02*
X67913Y538386D01*
X63976Y518701D02*
X74803Y529528D01*
X84000Y512000D02*
Y527220D01*
X114000Y512000D02*
Y526000D01*
Y544358D01*
X91694Y538386D02*
X94000Y536080D01*
X104000Y526000D02*
Y544358D01*
X94000Y512000D02*
Y536080D01*
X45810Y410630D02*
X61063D01*
X78701D02*
X95275D01*
X100394Y405512D01*
X157642Y395866D02*
Y396000D01*
Y395866D02*
X157839Y395669D01*
X135827Y386811D02*
Y401575D01*
X66929Y430118D02*
Y436158D01*
X61063Y424252D02*
X66929Y430118D01*
X78701Y374803D02*
X95276D01*
X48425D02*
X61063D01*
X25397Y422913D02*
X59724D01*
X42323Y407143D02*
X45810Y410630D01*
X42323Y380906D02*
Y407143D01*
X13780Y387848D02*
Y440607D01*
X124000Y413642D02*
Y426000D01*
X117323Y390158D02*
X119291Y392126D01*
Y400000D01*
X100394Y394685D02*
X113189D01*
X100394Y383858D02*
Y394685D01*
Y383858D02*
X100731Y383521D01*
Y380259D02*
Y383521D01*
X95276Y374803D02*
X100731Y380259D01*
X113189Y394685D02*
X113386Y394488D01*
X100394Y394685D02*
Y405512D01*
X121710Y400000D02*
X124016Y402306D01*
X114000D02*
Y406358D01*
X119291Y400000D02*
X121710D01*
X124000Y406358D02*
X124016Y406343D01*
Y402306D02*
Y406343D01*
X114000Y402306D02*
X116306Y400000D01*
X119291D01*
X101208Y343674D02*
X102023Y344488D01*
X108563D01*
X61063Y410630D02*
Y424252D01*
X59724Y422913D02*
X61063Y424252D01*
X42323Y380906D02*
X48425Y374803D01*
X13780Y387848D02*
X25643Y375984D01*
X154842Y276575D02*
X154998Y276730D01*
X118602Y280512D02*
X118799Y280709D01*
X127953Y312992D02*
X135925D01*
X100394Y308071D02*
X101378Y307087D01*
X108563D01*
X118799Y280709D02*
X122539D01*
X126870Y276378D01*
X100492Y42618D02*
X100886Y42224D01*
Y41339D02*
Y42224D01*
X93996Y44924D02*
Y58422D01*
X96302Y60728D01*
X93996Y44924D02*
X96302Y42618D01*
X100492D01*
X57129Y75000D02*
X80413D01*
X58169Y85728D02*
X64193D01*
X64468Y86004D01*
X54823Y82382D02*
X58169Y85728D01*
X54823Y77306D02*
Y82382D01*
Y77306D02*
X57129Y75000D01*
X136417Y235138D02*
X152362D01*
X136319Y235236D02*
X136417Y235138D01*
X100492Y60728D02*
X100886Y61122D01*
X96302Y60728D02*
X100492D01*
X100886Y61122D02*
Y62008D01*
X122891Y94587D02*
X125197Y96893D01*
X111713Y62008D02*
Y70079D01*
X105610Y92280D02*
X107916Y94587D01*
X122891D01*
X105610Y86614D02*
Y92280D01*
Y76181D02*
Y86614D01*
X111221D01*
X110039Y71752D02*
X111713Y70079D01*
X105610Y76181D02*
X110039Y71752D01*
X111221Y86614D02*
X111417Y86417D01*
X80413Y75000D02*
X81693Y76279D01*
X125197Y96893D02*
Y138976D01*
X340945Y615256D02*
Y627953D01*
X260039Y176378D02*
X263386D01*
X238583Y169685D02*
Y171653D01*
X259744Y176673D02*
X260039Y176378D01*
X245374Y165748D02*
X245768Y165354D01*
X242520Y165748D02*
X245374D01*
X238583Y169685D02*
X242520Y165748D01*
X264370Y175394D02*
X268996D01*
X263386Y176378D02*
X264370Y175394D01*
X235925Y191929D02*
X243898D01*
X245276Y193307D01*
X577756Y164272D02*
X581146Y167661D01*
X630315Y167323D02*
X632657Y164980D01*
X557579Y164272D02*
X577756D01*
X581146Y167661D02*
Y200667D01*
X581146Y96000D02*
X587705Y102559D01*
X581004Y95858D02*
X581146Y96000D01*
X548819Y166929D02*
X551476Y164272D01*
X548721Y155413D02*
X557579Y164272D01*
X542142Y155413D02*
X548721D01*
X551476Y164272D02*
X557579D01*
X548316Y248119D02*
X561024Y260827D01*
X537024Y248119D02*
X548316D01*
X539583Y257371D02*
X544379D01*
X355433Y364606D02*
Y377835D01*
X346347Y386921D02*
X355433Y377835D01*
X289079Y427400D02*
Y437701D01*
X307244Y455866D02*
X371063D01*
X328929Y427252D02*
X329079Y427402D01*
X319079D02*
Y436827D01*
X312008Y443898D02*
X319079Y436827D01*
X289079Y437701D02*
X307244Y455866D01*
X396063Y427953D02*
Y514961D01*
X383858Y436024D02*
Y492126D01*
X375236Y427402D02*
X383858Y436024D01*
X324000Y528000D02*
X324395Y527605D01*
X334000Y528000D02*
X334395Y527605D01*
X318898Y408465D02*
X328929Y418496D01*
X329078Y395669D02*
X333661D01*
X333999Y396007D02*
X337261D01*
X333661Y395669D02*
X333999Y396007D01*
X318898Y408465D02*
X376575D01*
X349079Y427402D02*
X375236D01*
X328929Y418496D02*
Y427252D01*
X324395Y522535D02*
X371063Y475866D01*
X320197Y516732D02*
X371063Y465866D01*
X334395Y522535D02*
Y527605D01*
X324395Y522535D02*
Y527605D01*
X326772Y393363D02*
X329078Y395669D01*
X326772Y378307D02*
X327284Y377795D01*
X337261Y396007D02*
X346347Y386921D01*
X326772Y378307D02*
Y393363D01*
X380118Y495866D02*
X383858Y492126D01*
X334395Y522535D02*
X371063Y485866D01*
Y495866D02*
X380118D01*
X316306Y516732D02*
X320197D01*
X314000Y519038D02*
X316306Y516732D01*
X314000Y519038D02*
Y528000D01*
X389764Y403543D02*
X398819D01*
X376575Y408465D02*
X396063Y427953D01*
X277480Y590827D02*
Y599705D01*
X305315Y588287D02*
X308071Y591043D01*
X277480Y590827D02*
X280020Y588287D01*
X223425Y562992D02*
Y569544D01*
X280020Y588287D02*
X305315D01*
X263779Y442220D02*
Y457677D01*
X254000Y474472D02*
X255906Y476378D01*
X254921Y571850D02*
X264000Y562772D01*
Y512000D02*
Y562772D01*
X254000Y512000D02*
Y543244D01*
X254724Y390551D02*
X266142D01*
X254000Y442000D02*
Y474472D01*
X224000Y423638D02*
Y442000D01*
Y423638D02*
X226378Y421260D01*
X228993D02*
X231299Y418954D01*
X226378Y421260D02*
X228993D01*
X231299Y413386D02*
X232331Y412354D01*
X231299Y413386D02*
Y418954D01*
X284449Y408465D02*
X318898D01*
X273622Y419291D02*
X284449Y408465D01*
X278740Y403150D02*
X300787D01*
X266142Y390551D02*
X278740Y403150D01*
X233268Y344488D02*
X234252D01*
X232283Y343504D02*
X233268Y344488D01*
X227362Y353346D02*
X230315Y356299D01*
X247244Y341732D02*
Y383071D01*
X234000Y526000D02*
Y542358D01*
Y512000D02*
Y526000D01*
X243808Y503830D02*
X250787Y496850D01*
X243808Y511808D02*
X244000Y512000D01*
X243808Y503830D02*
Y511808D01*
X245965Y309055D02*
X245965Y309055D01*
X230709Y309055D02*
X245965D01*
X247244Y383071D02*
X254724Y390551D01*
X236516Y406496D02*
X239764Y403248D01*
X233606Y406496D02*
X236516D01*
X232331Y407771D02*
Y412354D01*
Y407771D02*
X233606Y406496D01*
X225731Y571850D02*
X254921D01*
X223425Y569544D02*
X225731Y571850D01*
X242126Y555118D02*
X254000Y543244D01*
X376969Y160433D02*
Y166339D01*
X364055Y188976D02*
X367773D01*
X375000Y158465D02*
X385827D01*
X370079Y173228D02*
Y186670D01*
X375000Y158465D02*
X376969Y160433D01*
X367773Y188976D02*
X370079Y186670D01*
X365846Y158465D02*
X365846Y158465D01*
X363681Y189350D02*
X364055Y188976D01*
X370079Y173228D02*
X376969Y166339D01*
X365846Y158465D02*
X375000D01*
X404724Y409449D02*
X408268Y412992D01*
X308071Y591043D02*
Y595276D01*
X308268Y595472D01*
X415630Y590669D02*
X432677D01*
X418110Y584646D02*
Y585039D01*
X415630Y587520D02*
X418110Y585039D01*
X381890Y613724D02*
Y618012D01*
Y613724D02*
X384196Y611417D01*
X394882D02*
X415630Y590669D01*
Y587520D02*
Y590669D01*
X384196Y611417D02*
X394882D01*
X396063Y514961D02*
X418110Y537008D01*
X231358Y270118D02*
X238583D01*
X231299Y270177D02*
X231358Y270118D01*
X238583Y261417D02*
Y270118D01*
X237008Y259842D02*
X238583Y261417D01*
X225197Y396752D02*
X225394Y396949D01*
X239764Y403248D02*
X240158D01*
Y385039D02*
Y395965D01*
X225197Y383858D02*
Y396752D01*
X245512Y270118D02*
X245571Y270059D01*
X238583Y270118D02*
X245512D01*
X238642Y280059D02*
X245571D01*
X230078Y281496D02*
X237205D01*
X238642Y280059D02*
Y292067D01*
X237402Y293307D02*
X238642Y292067D01*
X237205Y281496D02*
X238642Y280059D01*
X226772Y301181D02*
Y305118D01*
Y293307D02*
X237402D01*
X229979Y281398D02*
X230078Y281496D01*
X226772Y305118D02*
X230709Y309055D01*
X555217Y268209D02*
X575787D01*
X544379Y257371D02*
X555217Y268209D01*
X581146Y273567D02*
Y305333D01*
X575787Y268209D02*
X581146Y273567D01*
X578839Y374803D02*
X581146Y377109D01*
X540061Y363222D02*
X545357D01*
X556938Y374803D02*
X578839D01*
X545357Y363222D02*
X556938Y374803D01*
X581146Y377109D02*
Y410000D01*
X539583Y362744D02*
X540061Y363222D01*
X246306Y419291D02*
X273622D01*
X263779Y442220D02*
X264000Y442000D01*
X244000Y421598D02*
X246306Y419291D01*
X244000Y421598D02*
Y442000D01*
X135827Y401575D02*
X164000Y429748D01*
X184028Y512028D02*
Y562965D01*
X193949Y512051D02*
Y562941D01*
X174106Y512106D02*
Y562886D01*
X164000Y512000D02*
Y536787D01*
X154998Y276730D02*
X160693D01*
X152362Y235138D02*
X181791Y205709D01*
X125197Y138976D02*
X169291Y183071D01*
X221457Y555118D02*
X242126D01*
X193898Y562992D02*
X193949Y562941D01*
X213583Y562992D02*
X221457Y555118D01*
X217028Y176673D02*
X259744D01*
X187992Y606988D02*
X187992Y606988D01*
X203870Y512130D02*
Y562862D01*
X203740Y562992D02*
X203870Y562862D01*
X214000Y526000D02*
Y542358D01*
X174106Y562886D02*
X174213Y562992D01*
X184028Y562965D02*
X184055Y562992D01*
X216535Y167661D02*
Y176181D01*
X209646Y183071D02*
X216535Y176181D01*
X214229Y165354D02*
X216535Y167661D01*
X207972Y165354D02*
X214229D01*
X178937Y235236D02*
Y255906D01*
X202953Y235236D02*
X205709Y237992D01*
X178937Y255906D02*
Y263442D01*
X170276Y255906D02*
X178937D01*
X205709Y237992D02*
Y260827D01*
X181791Y183071D02*
Y205709D01*
X216535Y176181D02*
X217028Y176673D01*
X181791Y183071D02*
X209646D01*
X169291D02*
X181791D01*
X166008Y393363D02*
Y403213D01*
X164000Y429748D02*
Y442000D01*
X191535Y414000D02*
X191929Y413606D01*
Y396654D02*
Y413606D01*
X190000Y394724D02*
X191929Y396654D01*
X190000Y387610D02*
Y394724D01*
X166008Y403213D02*
X184000Y421205D01*
X166008Y370000D02*
Y393363D01*
X163702Y395669D02*
X166008Y393363D01*
X184000Y512000D02*
X184028Y512028D01*
X214000Y512000D02*
Y526000D01*
X203870Y512130D02*
X204000Y512000D01*
X174000D02*
X174106Y512106D01*
X193949Y512051D02*
X194000Y512000D01*
X208465Y401772D02*
Y414000D01*
X157839Y395669D02*
X163702D01*
X191535Y422835D02*
X194000Y425299D01*
X204000Y429858D02*
Y442000D01*
X191535Y414000D02*
Y422835D01*
X194000Y425299D02*
Y442000D01*
X184000Y421205D02*
Y442000D01*
X204000Y429858D02*
X208465Y425394D01*
Y414000D02*
Y425394D01*
X214567Y427165D02*
X218555Y423177D01*
Y413634D02*
Y423177D01*
Y413634D02*
X219587Y412603D01*
Y406538D02*
Y412603D01*
X214000Y442000D02*
X214531Y441468D01*
Y435075D02*
Y441468D01*
Y435075D02*
X214567Y435039D01*
Y427165D02*
Y435039D01*
X221893Y404232D02*
X225394D01*
X212000Y387610D02*
Y398236D01*
X208465Y401772D02*
X212000Y398236D01*
X219587Y406538D02*
X221893Y404232D01*
X568996Y63681D02*
X578698D01*
X547287Y54331D02*
X559646D01*
X539583Y46626D02*
X547287Y54331D01*
X561811Y28346D02*
Y35433D01*
X558268Y24803D02*
X561811Y28346D01*
X528346Y24803D02*
X558268D01*
X581004Y65987D02*
Y95858D01*
X578698Y63681D02*
X581004Y65987D01*
X504728Y44000D02*
X506299Y42429D01*
Y33071D02*
Y42429D01*
Y33071D02*
X511024Y28346D01*
X526693Y25197D02*
X527953D01*
X528346Y24803D01*
X557972Y39272D02*
X561811Y35433D01*
X554724Y59252D02*
Y62205D01*
X559646Y54331D02*
X568996Y63681D01*
X554724Y59252D02*
X559646Y54331D01*
X557185Y39272D02*
X557972D01*
X171577Y287614D02*
X174072D01*
X160693Y276730D02*
X171577Y287614D01*
X219291Y300787D02*
X226772Y293307D01*
X190000Y370039D02*
X193898Y366142D01*
X201772D01*
X212000Y368448D02*
Y376390D01*
X209694Y366142D02*
X212000Y368448D01*
X201772Y366142D02*
X209694D01*
X185039D02*
X193898D01*
X190000Y370039D02*
Y376390D01*
X158268Y317913D02*
X182382D01*
X158268Y312976D02*
X179497D01*
X179588Y312886D01*
X201772Y366142D02*
X206693Y361221D01*
X208999Y353346D02*
X227362D01*
X206693Y355653D02*
Y361221D01*
X219291Y313779D02*
X247244Y341732D01*
X211319Y343504D02*
X232283D01*
X206693Y355653D02*
X208999Y353346D01*
X176378Y357480D02*
X185039Y366142D01*
X166008Y359787D02*
Y370000D01*
Y359787D02*
X168314Y357480D01*
X176378D01*
X189820Y298819D02*
X192126Y301125D01*
Y309842D01*
X189665Y317913D02*
X206693D01*
X219291Y300787D02*
Y313779D01*
X205709Y260827D02*
Y274606D01*
X205906Y274803D01*
X200787Y265748D02*
X205709Y260827D01*
X193602Y265748D02*
X200787D01*
X189083Y312886D02*
X192126Y309842D01*
X178937Y263442D02*
X181243Y265748D01*
X186319D01*
X179588Y312886D02*
X189083D01*
X173622Y277559D02*
X180315Y270866D01*
X178684Y298819D02*
X189820D01*
X176378Y289920D02*
Y296513D01*
X174072Y287614D02*
X176378Y289920D01*
X173622Y277559D02*
Y282677D01*
X176378Y296513D02*
X178684Y298819D01*
X176378Y99606D02*
X178150Y101378D01*
X176378Y90551D02*
Y99606D01*
X178150Y103347D02*
X187008Y112205D01*
X178150Y101378D02*
Y103347D01*
D91*
X347925Y635933D02*
Y649586D01*
Y635933D02*
X352756Y631102D01*
X373622Y607059D02*
X374775Y605905D01*
X373622Y607059D02*
Y645284D01*
X374775Y605905D02*
X390158D01*
X373622Y645284D02*
X377925Y649586D01*
X152051Y199606D02*
Y221992D01*
X148508Y196063D02*
X152051Y199606D01*
X149634Y224410D02*
X152051Y221992D01*
X130020Y224410D02*
X149634D01*
X127461Y195276D02*
X136614D01*
X139189Y196063D02*
X148508D01*
X136614Y195276D02*
X137402Y196063D01*
X139189D01*
X118701Y86417D02*
X126969D01*
X127559Y87008D01*
X108366Y108268D02*
X115354D01*
X477295Y645012D02*
Y649586D01*
X467717Y635433D02*
X477295Y645012D01*
X352756Y609449D02*
Y631102D01*
X234842Y142717D02*
X236614Y140945D01*
Y131102D02*
Y140945D01*
X231004Y142717D02*
X234842D01*
X237402Y162205D02*
Y164173D01*
X231004Y166339D02*
X235236D01*
X237402Y164173D01*
X279921Y107874D02*
X280028D01*
X283465Y92913D02*
Y104724D01*
X280028Y107874D02*
X281209Y106693D01*
X281496D01*
X283465Y104724D01*
X281102Y90551D02*
X283465Y92913D01*
X268425Y90551D02*
X281102D01*
X387363Y363631D02*
X387438Y363555D01*
X378740Y362552D02*
X379893Y363705D01*
X383245D01*
X383319Y363631D01*
X387363D01*
X224016Y550787D02*
X231272D01*
X233213Y550429D02*
X234000Y549642D01*
X231630Y550429D02*
X233213D01*
X231272Y550787D02*
X231630Y550429D01*
X224016Y543307D02*
Y550787D01*
X375984Y90551D02*
X377165Y91732D01*
X326181Y158465D02*
X340846D01*
X323228Y155512D02*
X326181Y158465D01*
X323228Y147244D02*
Y155512D01*
X377165Y91732D02*
Y103543D01*
X360472Y90551D02*
X375984D01*
X373622Y107087D02*
X377165Y103543D01*
X329921Y194488D02*
X330059Y194350D01*
X304331Y194488D02*
X329921D01*
X299213Y189370D02*
X304331Y194488D01*
X330059Y194350D02*
X343012D01*
X299213Y155905D02*
Y189370D01*
X299606Y154171D02*
X304251Y149526D01*
X299606Y154171D02*
Y155512D01*
X299213Y155905D02*
X299606Y155512D01*
X471654Y572441D02*
Y627953D01*
X470957Y628649D02*
X471654Y627953D01*
X470957Y628649D02*
Y629059D01*
X455512Y556299D02*
X471654Y572441D01*
X470882Y629134D02*
X470957Y629059D01*
X414252Y565669D02*
X432677D01*
X420394Y575669D02*
X432677D01*
X412205Y559842D02*
X451575D01*
X400394Y579528D02*
X414252Y565669D01*
X416732Y570669D02*
X432677D01*
X410236Y556299D02*
X455512D01*
X451575Y559842D02*
X467717Y575984D01*
Y635433D01*
X375984Y570669D02*
X386024D01*
X375984Y585669D02*
X386378D01*
X375984Y575669D02*
X386142D01*
X375984Y580669D02*
X385866D01*
X354724Y574016D02*
Y596457D01*
Y574016D02*
X363071Y565669D01*
X354724Y596457D02*
X360382D01*
X344094Y600787D02*
X352756Y609449D01*
X344094Y564961D02*
Y600787D01*
Y564961D02*
X359842Y549213D01*
X392126Y595276D02*
X416732Y570669D01*
X386378Y585669D02*
X412205Y559842D01*
X385866Y580669D02*
X410236Y556299D01*
X392568Y598868D02*
X392644Y598943D01*
X392568Y595718D02*
Y598868D01*
X392126Y595276D02*
X392568Y595718D01*
X386142Y575669D02*
X398425Y563386D01*
X386024Y570669D02*
X390945Y565748D01*
X360382Y596457D02*
X361024Y597098D01*
X360382Y597885D02*
Y599516D01*
X361535Y600669D02*
X375984D01*
X360382Y599516D02*
X361535Y600669D01*
X362598Y595669D02*
X375984D01*
X362452Y590669D02*
X375984D01*
X361811Y596457D02*
X362598Y595669D01*
X361811Y596457D02*
Y596457D01*
X361024Y592098D02*
X362452Y590669D01*
X361097Y597171D02*
X361811Y596457D01*
X361024Y597098D02*
X361097Y597171D01*
X361024Y592098D02*
Y597098D01*
X360382Y597885D02*
X361097Y597171D01*
X390158Y605905D02*
X420394Y575669D01*
X359842Y549213D02*
X397272D01*
X398425Y550366D01*
X363071Y565669D02*
X375984D01*
X398425Y550366D02*
Y563386D01*
X378740Y360453D02*
Y362552D01*
X378465Y360177D02*
X378740Y360453D01*
X214787Y550429D02*
X216370D01*
X216728Y550787D01*
X224016D01*
X214000Y549642D02*
X214787Y550429D01*
X163461Y162563D02*
Y166066D01*
Y162563D02*
X164980Y161043D01*
X170768D01*
X185405D02*
X191437D01*
X184252Y162196D02*
X185405Y161043D01*
X163386Y166142D02*
X163461Y166066D01*
X186614Y171941D02*
Y172047D01*
X184252Y162196D02*
Y169579D01*
X186614Y171941D01*
X161811Y292126D02*
X162992Y293307D01*
X160630Y292126D02*
X161811D01*
X162992Y293307D02*
Y296839D01*
X161839Y297992D02*
X162992Y296839D01*
X162362Y302992D02*
X168898Y296457D01*
X157382Y307992D02*
X167205D01*
X157382Y297992D02*
X161839D01*
X167205Y307992D02*
X170472Y304724D01*
X157382Y302992D02*
X162362D01*
D92*
X619213Y515433D02*
X644291D01*
X590945Y524016D02*
X592520Y525591D01*
X609055D01*
X566142Y524016D02*
X590945D01*
X609055Y525591D02*
X619213Y515433D01*
X494488Y543701D02*
X546457D01*
X566142Y524016D01*
X614052Y183585D02*
X630315Y167323D01*
X614052Y183585D02*
Y200667D01*
X581146D02*
X614052D01*
X486854Y96000D02*
Y105152D01*
X484000Y108006D02*
X486854Y105152D01*
X619291Y83858D02*
X628346Y74803D01*
X582067Y95079D02*
X619291D01*
Y83858D02*
Y95079D01*
X446063Y140945D02*
Y200667D01*
X446866D02*
X486854D01*
X446063Y119537D02*
Y135827D01*
Y119537D02*
X457594Y108006D01*
X484000D01*
X446063Y200667D02*
Y305333D01*
Y410000D02*
Y417224D01*
X453287Y410000D01*
X446063Y417224D02*
Y495276D01*
X494488Y543701D01*
X446866Y305333D02*
X486854D01*
X446063D02*
Y410000D01*
X453287D02*
X486854D01*
X582112Y306299D02*
X609449D01*
X619291Y271260D02*
X629921Y260630D01*
X619291Y271260D02*
Y296457D01*
X609449Y306299D02*
X619291Y296457D01*
X620472Y364961D02*
X629528Y355906D01*
X507170Y468784D02*
X513779Y475394D01*
X490862Y468784D02*
X507170D01*
X484252Y475394D02*
X490862Y468784D01*
X620472Y364961D02*
Y401181D01*
X611024Y410630D02*
X620472Y401181D01*
X581776Y410630D02*
X611024D01*
D93*
X628740Y74803D02*
X633937Y69606D01*
D94*
X19685Y653937D02*
D03*
Y19685D02*
D03*
X649606D02*
D03*
Y653937D02*
D03*
D95*
X650591Y556973D02*
D03*
Y622905D02*
D03*
X624016Y609842D02*
D03*
Y577165D02*
D03*
D96*
X644291Y535433D02*
D03*
Y515433D02*
D03*
X294000Y528000D02*
D03*
X304000D02*
D03*
X314000D02*
D03*
X324000D02*
D03*
X334000D02*
D03*
X289079Y427400D02*
D03*
X299079Y427402D02*
D03*
X309079D02*
D03*
X319079D02*
D03*
X329079D02*
D03*
X339079D02*
D03*
X349079D02*
D03*
X187008Y291339D02*
D03*
X206693D02*
D03*
X507295Y649586D02*
D03*
X497295D02*
D03*
X487295D02*
D03*
X477295D02*
D03*
X467295D02*
D03*
X457610D02*
D03*
X447610D02*
D03*
X437610D02*
D03*
X427610D02*
D03*
X417610D02*
D03*
X407610D02*
D03*
X397767D02*
D03*
X387925D02*
D03*
X377925D02*
D03*
X367925D02*
D03*
X357925D02*
D03*
X347925D02*
D03*
X337925D02*
D03*
X327925D02*
D03*
X317925D02*
D03*
X35039Y290945D02*
D03*
Y300945D02*
D03*
X75945Y49055D02*
D03*
X85945Y59055D02*
D03*
X65945D02*
D03*
X70039Y294449D02*
D03*
X60039Y304449D02*
D03*
Y284449D02*
D03*
X270512Y231457D02*
D03*
X260512Y221457D02*
D03*
X280512D02*
D03*
X144843Y266575D02*
D03*
X154842Y276575D02*
D03*
X134843D02*
D03*
X314134Y275748D02*
D03*
X304134Y285748D02*
D03*
Y265748D02*
D03*
X345630Y275748D02*
D03*
X335630Y285748D02*
D03*
Y265748D02*
D03*
X281496Y13780D02*
D03*
X271496D02*
D03*
X261496D02*
D03*
X251496D02*
D03*
X241496D02*
D03*
X556772Y627165D02*
D03*
X535827D02*
D03*
X546299D02*
D03*
X645669Y355728D02*
D03*
Y376673D02*
D03*
Y366201D02*
D03*
Y260354D02*
D03*
Y281299D02*
D03*
Y270827D02*
D03*
Y164980D02*
D03*
Y185925D02*
D03*
Y175453D02*
D03*
X167953Y649606D02*
D03*
X147008D02*
D03*
X157480D02*
D03*
X236496D02*
D03*
X215551D02*
D03*
X226024D02*
D03*
X645669Y451102D02*
D03*
Y472047D02*
D03*
Y461575D02*
D03*
X25643Y375984D02*
D03*
Y355039D02*
D03*
Y365512D02*
D03*
X645669Y69606D02*
D03*
Y90551D02*
D03*
Y80079D02*
D03*
D97*
X233268Y562992D02*
D03*
X223425D02*
D03*
X213583D02*
D03*
X203740D02*
D03*
X193898D02*
D03*
X184055D02*
D03*
X174213D02*
D03*
X243110D02*
D03*
X118110Y591535D02*
D03*
Y615158D02*
D03*
X227362Y591535D02*
D03*
Y615158D02*
D03*
D98*
X484252Y475394D02*
D03*
X602362D02*
D03*
X513779D02*
D03*
X572835D02*
D03*
X15039Y280945D02*
D03*
Y320945D02*
D03*
D99*
X118012Y166339D02*
D03*
X53150D02*
D03*
X607776Y602756D02*
D03*
X542913D02*
D03*
X228445Y47244D02*
D03*
X293307D02*
D03*
X134941D02*
D03*
X199803D02*
D03*
X321949D02*
D03*
X386811D02*
D03*
X590158Y586910D02*
D03*
Y522047D02*
D03*
X289882Y330649D02*
D03*
Y395512D02*
D03*
X308268Y611221D02*
D03*
Y591535D02*
D03*
X13780Y85787D02*
D03*
Y134016D02*
D03*
X11811Y236378D02*
D03*
Y176024D02*
D03*
X590551Y627165D02*
D03*
X36417Y555118D02*
D03*
X527000Y591000D02*
D03*
Y581000D02*
D03*
X497000D02*
D03*
X68661Y199724D02*
D03*
X98661D02*
D03*
Y209724D02*
D03*
X371063Y465866D02*
D03*
Y455866D02*
D03*
Y475866D02*
D03*
Y485866D02*
D03*
Y495866D02*
D03*
Y505866D02*
D03*
X25397Y452913D02*
D03*
Y462913D02*
D03*
Y472913D02*
D03*
Y432913D02*
D03*
Y442913D02*
D03*
D100*
X52559Y596063D02*
D03*
D101*
X64370Y614961D02*
D03*
D102*
X39764D02*
D03*
D103*
X624016Y627165D02*
D03*
X203937Y200787D02*
D03*
X79134Y343701D02*
D03*
X628740Y329921D02*
D03*
X293307Y115354D02*
D03*
X78586Y363946D02*
D03*
X202362Y304724D02*
D03*
X92520Y565354D02*
D03*
X178740Y329921D02*
D03*
X210236Y115354D02*
D03*
X170472Y304724D02*
D03*
X281496Y291339D02*
D03*
X113189Y319882D02*
D03*
X206693Y144685D02*
D03*
X385827Y158465D02*
D03*
D104*
X13780Y75787D02*
D03*
Y124016D02*
D03*
X11811Y226378D02*
D03*
Y186024D02*
D03*
X36417Y565118D02*
D03*
X371063Y445866D02*
D03*
X25397Y422913D02*
D03*
D105*
X600551Y627165D02*
D03*
X497000Y591000D02*
D03*
X68661Y209724D02*
D03*
D106*
X515079Y343701D02*
D03*
X525079D02*
D03*
X516653Y144877D02*
D03*
X526653D02*
D03*
X515866Y242520D02*
D03*
X525866D02*
D03*
X516653Y24803D02*
D03*
X526653D02*
D03*
D107*
X520079Y343701D02*
D03*
X521654Y144877D02*
D03*
X520866Y242520D02*
D03*
X521654Y24803D02*
D03*
D108*
X98110Y649606D02*
D03*
D109*
X118110D02*
D03*
D110*
X416142Y474409D02*
D03*
X45866Y211614D02*
D03*
X50000Y254331D02*
D03*
X82874Y149114D02*
D03*
X71358Y136319D02*
D03*
X81693Y76279D02*
D03*
X65551Y120965D02*
D03*
X90158Y109843D02*
D03*
X72441Y155118D02*
D03*
X77362Y28642D02*
D03*
X127953Y312992D02*
D03*
X98819Y316929D02*
D03*
X105020Y299902D02*
D03*
X100394Y308071D02*
D03*
X110039Y71752D02*
D03*
X135531Y181299D02*
D03*
X127559Y87008D02*
D03*
X146161Y147343D02*
D03*
X151969Y134646D02*
D03*
X126673Y66240D02*
D03*
X115354Y108268D02*
D03*
X153937Y526378D02*
D03*
X133760Y536909D02*
D03*
X124016Y535827D02*
D03*
X37402Y155512D02*
D03*
X106988Y219587D02*
D03*
X110433Y249606D02*
D03*
X92618Y243504D02*
D03*
X136319Y235236D02*
D03*
X129528Y248524D02*
D03*
X126969Y211713D02*
D03*
X115157Y234252D02*
D03*
X139189Y196063D02*
D03*
X98047Y274311D02*
D03*
X123031Y330709D02*
D03*
X44488Y362992D02*
D03*
X101208Y343674D02*
D03*
X135827Y386811D02*
D03*
X126772Y362598D02*
D03*
X117323Y390158D02*
D03*
X113386Y394488D02*
D03*
X38976Y370472D02*
D03*
X156496Y335630D02*
D03*
X151575Y341535D02*
D03*
X38189Y484646D02*
D03*
X94095Y426772D02*
D03*
X143701Y429134D02*
D03*
X131102Y478740D02*
D03*
X39370Y444095D02*
D03*
X163386Y166142D02*
D03*
X160630Y292126D02*
D03*
X180315Y270866D02*
D03*
X173622Y282677D02*
D03*
X170276Y255906D02*
D03*
X168898Y296457D02*
D03*
X129921Y572835D02*
D03*
X390945Y565748D02*
D03*
X387438Y363555D02*
D03*
X259842Y364567D02*
D03*
X253543Y360236D02*
D03*
X363189Y375000D02*
D03*
X312008Y443898D02*
D03*
X300787Y403150D02*
D03*
X388976Y524016D02*
D03*
X276772Y491732D02*
D03*
X410630Y474409D02*
D03*
X410236Y496457D02*
D03*
X294094Y497244D02*
D03*
X304251Y149526D02*
D03*
X268996Y175394D02*
D03*
X323228Y147244D02*
D03*
X245276Y193307D02*
D03*
X271654Y163386D02*
D03*
X404724Y409449D02*
D03*
X408268Y412992D02*
D03*
X399787Y425527D02*
D03*
X269291Y333858D02*
D03*
X278543Y276575D02*
D03*
X264961Y322457D02*
D03*
X251575Y323228D02*
D03*
X224016Y543307D02*
D03*
X255906Y476378D02*
D03*
X250787Y496850D02*
D03*
X263386Y469685D02*
D03*
X224016Y531496D02*
D03*
X163779Y537008D02*
D03*
X263779Y457677D02*
D03*
X223622Y485433D02*
D03*
X240158Y385039D02*
D03*
X236614Y131102D02*
D03*
X230315Y308661D02*
D03*
X226772Y301181D02*
D03*
X238583Y171653D02*
D03*
X237402Y162205D02*
D03*
X225197Y383858D02*
D03*
X237402Y293307D02*
D03*
X237008Y259842D02*
D03*
X234252Y344488D02*
D03*
X230315Y356299D02*
D03*
X213189Y129823D02*
D03*
X211811Y155512D02*
D03*
X190945Y354331D02*
D03*
X206693Y317913D02*
D03*
X205906Y274803D02*
D03*
X201181Y327953D02*
D03*
X186614Y172047D02*
D03*
X203150Y177657D02*
D03*
X187008Y112205D02*
D03*
X279921Y107874D02*
D03*
X373622Y107087D02*
D03*
X477165Y581890D02*
D03*
X482677D02*
D03*
X470882Y629134D02*
D03*
X449185Y624830D02*
D03*
X447244Y601181D02*
D03*
X392644Y598943D02*
D03*
X354724Y596457D02*
D03*
X329134Y611811D02*
D03*
X554724Y62205D02*
D03*
X614173Y332677D02*
D03*
X602362Y375984D02*
D03*
X540945Y375197D02*
D03*
X609252Y134843D02*
D03*
X606299Y30512D02*
D03*
X461122Y58366D02*
D03*
X400394Y579528D02*
D03*
X415748Y615354D02*
D03*
X433071Y640945D02*
D03*
X418110Y584646D02*
D03*
Y537008D02*
D03*
X471949Y359350D02*
D03*
X464764Y149114D02*
D03*
X469488Y135827D02*
D03*
X468996Y253445D02*
D03*
X548819Y166929D02*
D03*
X644095Y329921D02*
D03*
X618504Y156693D02*
D03*
X619291Y62598D02*
D03*
X622441Y245276D02*
D03*
X547638Y269685D02*
D03*
X594488Y239173D02*
D03*
M02*
